<svg xmlns="http://www.w3.org/2000/svg" viewBox="0 0 626 626"><defs><style>.cls-1{fill:#5ac5ce;}.cls-2{fill:#67224f;}.cls-3{fill:#fcfbfc;}.cls-4{fill:#fce1b0;}.cls-5{fill:#d7b0a8;}.cls-6{fill:#c3b0d5;}</style></defs><g id="Layer_2" data-name="Layer 2"><g id="Layer_2-2" data-name="Layer 2"><path class="cls-1" d="M625.9,313.5q0,154.2.1,308.41c0,3.42-.67,4.09-4.09,4.09Q313,625.84,4.09,626C.67,626,0,625.33,0,621.91Q.17,313,0,4.09C0,.67.67,0,4.09,0Q313,.17,621.91,0c3.42,0,4.09.67,4.09,4.09Q625.82,158.8,625.9,313.5ZM205.68,323.81c4.42,1.85,7.7,3,10.77,4.58,2.44,1.25,6.09,2.07,6.19,5.13.1,2.88-3.52,3.6-5.69,5-14.23,9.11-27.86,18.94-37.79,32.91-7.6,10.7-11.53,22.2-5.5,35.1,1.16,2.51.16,4-1.7,5.55a66.78,66.78,0,0,0-9.13,9.21c-2.58,3.11-4.33,6.37-2.75,10.51,1.07,2.79-.91,4.35-2.41,6.06-4.39,5-9.13,9.74-13.16,15a14,14,0,0,1-8.48,5.47c-8.73,2.09-17.34,4.63-25.21,9.11-6,3.42-11.62,7.32-13.39,14.59-1.27,5.18,0,6.78,5.23,6.85,17,.24,34,.6,50.94.64,42.47.09,84.94.33,127.42.07,79-.47,157.92-.38,236.88-.54,9,0,12-4.9,8-13-4.29-8.65-12.11-12.5-20.86-14.85a89,89,0,0,1-11.28-3.92c-4.09-1.72-4.44-3.94-2.52-7.76,6.32-12.56,8.65-25.82,5.9-39.76a6.12,6.12,0,0,1,1.1-5.13c9.13-12.81,11.83-26.95,8.28-42.23-.66-2.84,0-3.76,2.83-4.35,11.58-2.43,16.49-10.15,13.76-21.6-.54-2.28-.35-3.52,1.66-4.94a15.18,15.18,0,0,0,6.89-12.17c.24-7.35-6.35-16.81-13.41-19.63-6.21-2.47-12.1-.46-18.36,6.58-1.68,1.89-2.89,2.61-5.34,1.14-5.93-3.56-11.7-2.52-16.4,2.21-2.46,2.47-3.84,1.82-6.17.17-9.94-7.09-21.17-11.87-33.22-9.35-7.9,1.65-12.74-.56-19-4.59-19.9-12.82-42.14-16.81-65.47-13.55-15.11,2.12-28.41,8.51-36.12,22.26-3.85,6.88-9.17,9.62-15.68,13.21a52.86,52.86,0,0,1-34.07,6.28,3.73,3.73,0,0,0-1,0c-3.36.51-4.27-1.2-3.42-4.06,1.35-4.6,2.91-9.15,4.39-13.77-2.41-1-4.67-.39-6.91.22-7.49,2-12.85,7-16.95,13.21-1.78,2.7-3,3.4-6.22,2.08C227.7,317.39,217.21,319,205.68,323.81Z"/><path class="cls-2" d="M205.68,323.81c11.53-4.8,22-6.42,32.67-2,3.17,1.32,4.44.62,6.22-2.08,4.1-6.25,9.46-11.18,16.95-13.21,2.24-.61,4.5-1.22,6.91-.22-1.48,4.62-3,9.17-4.39,13.77-.85,2.86.06,4.57,3.42,4.06a3.73,3.73,0,0,1,1,0,52.86,52.86,0,0,0,34.07-6.28c6.51-3.59,11.83-6.33,15.68-13.21,7.71-13.75,21-20.14,36.12-22.26,23.33-3.26,45.57.73,65.47,13.55,6.25,4,11.09,6.24,19,4.59,12-2.52,23.28,2.26,33.22,9.35,2.33,1.65,3.71,2.3,6.17-.17,4.7-4.73,10.47-5.77,16.4-2.21,2.45,1.47,3.66.75,5.34-1.14,6.26-7,12.15-9.05,18.36-6.58,7.06,2.82,13.65,12.28,13.41,19.63a15.18,15.18,0,0,1-6.89,12.17c-2,1.42-2.2,2.66-1.66,4.94,2.73,11.45-2.18,19.17-13.76,21.6-2.79.59-3.49,1.51-2.83,4.35,3.55,15.28.85,29.42-8.28,42.23a6.12,6.12,0,0,0-1.1,5.13c2.75,13.94.42,27.2-5.9,39.76-1.92,3.82-1.57,6,2.52,7.76a89,89,0,0,0,11.28,3.92c8.75,2.35,16.57,6.2,20.86,14.85,4,8.1,1,13-8,13-79,.16-157.92.07-236.88.54-42.48.26-84.95,0-127.42-.07-17,0-34-.4-50.94-.64-5.21-.07-6.5-1.67-5.23-6.85,1.77-7.27,7.39-11.17,13.39-14.59,7.87-4.48,16.48-7,25.21-9.11a14,14,0,0,0,8.48-5.47c4-5.28,8.77-10,13.16-15,1.5-1.71,3.48-3.27,2.41-6.06-1.58-4.14.17-7.4,2.75-10.51a66.78,66.78,0,0,1,9.13-9.21c1.86-1.52,2.86-3,1.7-5.55-6-12.9-2.1-24.4,5.5-35.1,9.93-14,23.56-23.8,37.79-32.91,2.17-1.39,5.79-2.11,5.69-5-.1-3.06-3.75-3.88-6.19-5.13C213.38,326.83,210.1,325.66,205.68,323.81Zm-19.82,122-.82,1.14c-5.08,7.53-8.93,15.39-6.79,24.89,2.4,8.16,7.83,12.36,16.42,12.38q37.41.07,74.84,0a76,76,0,0,0,34.55-8.51c11.48-5.85,19.83-14.67,22.7-27.55,3.64-16.35-.83-31.51-7.84-46.15l-.78-2.08a2.36,2.36,0,0,0-1-2.24,69.81,69.81,0,0,0-7-13.79l-.72-1.23-.05-.08-1.19-1.77,0,0c-.72-1.3-1.36-2.65-2.19-3.88-3.33-5-5.69-5-9.17-.21-3.69,5.06-8.55,8.07-14.94,7-2.9-.5-4,.44-5.37,2.74-3.08,5.3-8.14,8-13.91,9.53-3.93,1-7.9-3-10.91-1.42s-3.26,6.56-6.29,9.16c-7.73,6.64-16.39,7.38-25.71,4.41-1.94-.62-3.41-1.22-5.15.88-4.48,5.37-10.24,7.82-17.31,6.13-2.5-.6-2.72.45-2.32,2.59.65,3.42,1,6.89,1.48,10.35l-.18,1.89c-.19.9-.39,1.8-.58,2.7l.28.18-.3-.15-.67,1.24v0l-1.29,1.75-.06,0L191,438.94h0l-1.37,1.65,0,.05-.84,1.06.28.24-.29-.23-.87,1.15,0,0-1.25,1.75-.06.06-.72,1.16ZM117.92,477c-.19,2.54.73,5.09,2.9,5.84A22.64,22.64,0,0,0,134,483c2.22-.61,3.21-5,3.45-8.19-2.36-3.35-1.87-7-.39-11-5.25.87-9.49,2.66-13.89,3.91C118.19,469.2,116.7,472.24,117.92,477Zm234.51-73.79.44-1.31c.88-7.21-3.1-12.38-7.48-17.24-6.41-7.11-14.31-12.37-22.48-17.21-6.17-3.66-6.18-3.64-10,2.35-3.12,1.56-3,3.37-1.17,6.21,3.09,4.69,5.72,9.68,8.36,14.64,5.25,9.83,14,14.65,24.38,16.88,3.34.72,6.72.08,7.83-4.13Zm19.28,68.38c-2,4-3.71,8.18-7.62,12.12h54.29c5.92,0,7.13-1.23,7.82-7.71.59-4.26-1.13-6.6-5.33-8.06-12.59-4.4-25.56-7-38.69-8.9-7.59-1.12-7.6-1-9.17,6.73C372.61,467.73,372.14,469.66,371.71,471.6Zm-206.64-.69c-3-3.65-2.85-7.48-1-11.61a108,108,0,0,1,24.3-33.7c2.53-2.4,1.72-4.51,1.24-7.13-.62-3.41-2.88-1.59-4.56-1.78a5.12,5.12,0,0,1-2.4-.54c-3.81-2.88-6.51-.81-9.14,1.86-1.75,1.77-3.62,3.43-5.26,5.3-4.8,5.43-4.71,5.7,2.05,8.43.23.09.35.48.57.81-6.86,6.92-14.42,13.22-19.87,21.45a41.3,41.3,0,0,0-9.31,13.22c-1.15,2.41-.81,4.4,1.68,5.29,3.16,1.14,2.19,2.57.77,4.32a20.74,20.74,0,0,0-2.71,3.55c-.81,1.63-.95,3.54,1.61,3.56,11.68.08,23.37,0,35.68,0-3.94-4.88-5.14-11.26-12-12C166.13,471.89,165.61,471.27,165.07,470.91ZM488.43,331.47c.66,2.81-.81,6.93,2.32,8.17,5.13,2,7.5,6.27,10.47,10.16.88,1.15,1.25,2.68,2.95,3.18,4.12,1.19,10.74-1.58,13-5.55a11,11,0,0,0-1.91-13.67c-1.18-1.09-3-1.59-3.59-3.38,1.65-1,3.52-.81,5.25-1.19,4.36-.94,7.87-3.2,8.93-7.7,1.55-6.57-2.24-11.15-6.73-15.11-3.17-2.79-6.78-3.37-10.44-.65-5.66,3.08-8.06,8.86-11.48,14.36-.8-1.79-1.34-3.17-2-4.48a8.14,8.14,0,0,0-13.34-2.21c-1.57,1.58-2.33,2.89-.39,5A32.13,32.13,0,0,1,488.43,331.47ZM507.9,476.9c-.1-3.83,1.42-9-3.56-10.22-9.94-2.32-18.28-7.63-27-12.4-5.25-2.88-10.64-5.37-16.66-6.23-2.34-.34-3.84-.1-3.69,2.87.34,7.21-1.53,14.11-3.22,21-2.22,3.71-4.43,7.43-7,11.72,19.71,0,38.71.15,57.71-.13C508.25,483.48,509.7,480.61,507.9,476.9ZM333.39,434c0,3,.07,5.94.11,8.91-2.9,17.42-12.05,30.24-28,38.1-1.36.67-3.13.87-4.09,2.94h47.14c9,0,13.16-3,16.61-11.86,3.75-7.58,4.06-15.64,3.32-23.84-.62-6.93-3.52-8.73-10.17-6.41-2.78,1-5.22.23-7.5-1.47A72.24,72.24,0,0,1,340,430.08c-1.41-1.6-2.3-3.25-5.17-2.12-3.13,1.23-1.28,3.24-1.54,4.94C333.34,433.27,333.37,433.65,333.39,434Zm-154.9-30.74.2.14c0,2.37,1.61,3.94,2.94,5.61,2.25,2.82,5.06,3.18,6.94.09,2-3.29,3.61-2,6-.73,6.37,3.46,12.89,2.37,16.55-3.79,2.7-4.53,4.9-3.93,8.88-2.23,13.28,5.68,24.5-.1,27.05-13.76.62-3.3,1.61-2.75,3.83-1.57,11.31,6,18.86,3.3,23.06-8.33.77-2.12,1.45-2.37,3.52-1.74,9.82,3,13.79,1.19,17.32-8.26,1.18-3.16,2.29-2.7,4.6-1.53,3.55,1.8,7,1.84,9.86-1.64,4.79-5.93,4.79-15.51-.05-21.66-3.43-5.85-9.26-8.44-15.16-10.64A62.39,62.39,0,0,0,262,330.09c-3.51.56-4.16-.54-4.18-3.77,0-4.48,1.6-8.67,2.09-13.4-8.45,3.93-12.27,11.19-15.49,18.9-9.91-6.87-14.49-8.18-21.09-6.2,1.74,1.5,3.61,2.88,5.19,4.53,4.41,4.61,4.22,5.44-1.17,8.53-16.71,9.58-32.44,20.48-44,36.14-5.93,8-9.75,17-5.4,27.25Zm180.36-3.54c-2.56,10-5.21,12.94-12,13.21-7.05.29-13-3.16-19.94-6.75,2.64,6.11,2.83,11.93,6.07,17.05,2.3-2.44,1.49-5.23,3-7.86,1.2,1.74,2.22,3.16,3.18,4.62a64.93,64.93,0,0,0,12.52,14.09c1.34,1.13,2.68,3.2,4.54,2.42s.27-3,.91-4.54c.09-.22.42-.34.65-.51,8.94,5.69,10.5,6.25,17.32,6.26,11.1-1.93,14.4-6.82,12.05-17.7a55,55,0,0,0-6.79-16.5c-1.91-3.22-3.91-6.38-6-9.81,2.55-.83,5,.24,7.35-1.11-8-10.46-19.13-16.33-29.94-22.84,1.92-1.54,4-1.54,5.05-3.28a2.73,2.73,0,0,0-.43-.89c-10.28-9.74-23.71-12.08-36.67-15.5a1.22,1.22,0,0,0-1.58.7c-1.31,2.61.49,8.18,3.19,9.63a126.93,126.93,0,0,1,20.8,13.67C350.33,380.89,357.16,388.65,358.85,399.75Zm92.32,43.19c.61-5.58-1.59-10.64-3.32-16.28,3.42,1.74,4.67,4.64,6.32,7.19a50.58,50.58,0,0,1,1.91,5.64,3.57,3.57,0,0,0,3.73,3.19c7.49.5,14.17,3.52,20.55,7.17,2.62,1.5,4.06,1.83,5.6-1.41,6-12.66,9.14-25.67,5.5-39.6-.6-2.29-.52-3.83,1.13-5.82,11.05-13.4,12.44-28.59,7.34-44.64-.88-2.77-1.7-6.19-5.26-7.31-2.15-2.43-3.11-5.87-6.21-7.51-3.7-1.95-6.23-4.23-5.37-9.17.54-3.09-1.2-6.14-3-8.77-9.22-13.13-21.92-19.75-37.92-20.51-5.73-.27-11.29,5.73-15.55,3.2-4.51-2.69-8.1-7.64-13.15-10.27C396,289,377.49,284.8,358,287.13c-18.38,2.2-33.11,10.49-39.86,29-1,2.67-2.47,3.41-5,3.79a39.49,39.49,0,0,0-18.39,7.64c8.44,3.41,15.88,7.37,20.47,15.1.67,1.13,1.8,1.31,3,1.55,13.57,2.8,26.64,7,38.76,13.84,1.37,2.78,5.5,4,5,7.6s1.56,4.84,4.06,6.43c6.89,4.39,13.4,9.29,18.66,15.66,1.89,2.3,3.69,5.28,1.71,7.69-4.68,5.68,1.29,8,2.44,13.26,5-10.66,11.11-18.07,20.36-22.64,6.23-3.08,13-3.63,19.67-5,2.18.5,4.59,0,7.32,1.58-1.81.2-2.88.29-4,.44-18.82,2.52-32.59,11.6-39.21,30.08a12.25,12.25,0,0,0-.49,6.76c1.1,5.85,1.55,12.18-3.11,16.49-5.81,5.37-3.06,10.72-1.58,16.35.41,1.56,1.53,1.92,2.93,2.21,8.28,1.75,16.55,3.57,24.83,5.36,10.31,4.1,21.1,7.36,28.61,16.34C450.22,470.08,453.52,453.68,451.17,442.94Zm-81.44.16c.79,1.89,1.7,3.2,1.84,4.59.56,5.33,4.42,5.35,8.31,5.54,1.47.07,2-.31,1.92-1.94-.26-7.67-.76-8.23-8.24-8.19Zm-194,7.37a40.44,40.44,0,0,0-7.49,12.92,3.14,3.14,0,0,0,2,4.4c.94.36,1.7,0,1.75-1.06C172.29,461.07,174.32,455.84,175.77,450.47Z"/><path class="cls-3" d="M454.17,433.85c-1.65-2.55-2.9-5.45-6.32-7.19,1.73,5.64,3.93,10.7,3.32,16.28a15.64,15.64,0,0,0-2.33,2.5c-4,6.83-10.14,10.8-17.43,13.26-5.13,1.72-10.52,1.13-15.79,1.66-8.28-1.79-16.55-3.61-24.83-5.36-1.4-.29-2.52-.65-2.93-2.21-1.48-5.63-4.23-11,1.58-16.35,4.66-4.31,4.21-10.64,3.11-16.49a12.25,12.25,0,0,1,.49-6.76c6.62-18.48,20.39-27.56,39.21-30.08,1.08-.15,2.15-.24,4-.44-2.73-1.63-5.14-1.08-7.32-1.58-.08-.31-.08-.82-.27-.92-6.88-3.29-10.89-8.89-13.1-16-.71-2.28-2.37-1.68-4.06-1.19-4.47,1.29-8.9,2.36-13.7,1.54-7.64-1.32-12.71-6.13-17.12-11.9-2.07-2.71-3.63-4.27-7-1.2-3.21,2.9-7.58,4-11.92,4.62-1.75.26-3.72.1-4.75,2.06-12.12-6.85-25.19-11-38.76-13.84-1.16-.24-2.29-.42-3-1.55-4.59-7.73-12-11.69-20.47-15.1A39.49,39.49,0,0,1,313.15,320c2.55-.38,4-1.12,5-3.79,6.75-18.55,21.48-26.84,39.86-29,19.46-2.33,38,1.86,55.39,10.91,5.05,2.63,8.64,7.58,13.15,10.27,4.26,2.53,9.82-3.47,15.55-3.2,16,.76,28.7,7.38,37.92,20.51,1.85,2.63,3.59,5.68,3,8.77-.86,4.94,1.67,7.22,5.37,9.17,3.1,1.64,4.06,5.08,6.21,7.51-.31,5.2-.12,10.49-1,15.59-2.24,12.31-10.23,19.86-21.77,23.6-3.4,1.1-3.67,2.66-2.89,5.35a40.58,40.58,0,0,1,1,15.34C468.92,421.36,464.12,429.45,454.17,433.85Z"/><path class="cls-4" d="M310.17,383.89a69.81,69.81,0,0,1,7,13.79,2.3,2.3,0,0,0,1,2.24l.78,2.08c-1.45,4.89,1.25,9.3,1.72,14,1.64,15.95-2.47,29.73-14.8,40.31s-27.21,15-42.81,15.46c-28.24.75-56.52.12-84.78.08-2.14-9.5,1.71-17.36,6.79-24.89l.82-1.14h0l.72-1.16.06-.06a2,2,0,0,0,1.25-1.75l0,0,.87-1.15.29.23-.28-.24.84-1.06,0-.05a1.92,1.92,0,0,0,1.37-1.65h0a2.91,2.91,0,0,0,2.61-3.26l.06,0a1.83,1.83,0,0,0,1.29-1.75v0l.67-1.24.3.15-.28-.18c1.28-.67,1.19-1.63.58-2.7l.18-1.89c2.23-1.81.68-7.08,6.09-6.12,6,1.05,10.76-1.5,14.23-6.31,1.59-2.2,3.2-2.24,5.53-1.43,13.39,4.64,23.64.7,29.87-11.59,1.2-2.36,1.95-3.09,4.71-1.91,8.76,3.76,17.05.84,21.44-7.6,1.48-2.85,3-3.4,5.88-2.68,5.21,1.31,9.78-.3,12.63-4.76s6.14-6.68,11.41-4.86l0,0a1.68,1.68,0,0,0,1.19,1.77l.05.08Zm-51.11,60.88c-5.53-6.82-15.67-5-18.88,3.38a9.34,9.34,0,0,0,10,5.29,12.63,12.63,0,0,0,9.6-8.08C259.79,445.25,259.3,445,259.06,444.77Zm13.87-25.14c3.34,5.82,9.26,6.87,15.45,3.14,4.93-3,6.07-7.68,3-12.41C288.28,418.46,281.93,421.78,272.93,419.63ZM232.63,430c-1.27,5.34-4.09,7.54-7.95,8.92s-7.56.72-11.6-.65c2.87,5.93,8.23,7.65,14.43,5.1C233.12,441.07,234.9,437.34,232.63,430Zm14.5,40.29c2.64-.49,6.73-.26,6.64-4.11-.09-4-4.27-4.16-7.37-4.1-2.92.06-6.9.4-6.65,4.29C240,470.06,243.85,470,247.13,470.29Zm37.24-29.19c2.92-.54,6.65-.68,7.22-4.86.28-2-2-2.41-3.7-2.22-3.46.41-7.43.82-8.11,5C279.39,441.38,282.34,440.79,284.37,441.1Zm-64.83,16.83c2.39-.7,6.11-.59,7.06-4.24.62-2.42-1.9-2.75-3.72-2.68-3.11.12-6.69,0-7.55,4C214.8,457.46,217,457.78,219.54,457.93Z"/><path class="cls-3" d="M177.94,402.07c-4.35-10.29-.53-19.24,5.4-27.25,11.61-15.66,27.34-26.56,44-36.14,5.39-3.09,5.58-3.92,1.17-8.53-1.58-1.65-3.45-3-5.19-4.53,6.6-2,11.18-.67,21.09,6.2,3.22-7.71,7-15,15.49-18.9-.49,4.73-2.11,8.92-2.09,13.4,0,3.23.67,4.33,4.18,3.77A62.39,62.39,0,0,1,294,333.25c5.9,2.2,11.73,4.79,15.16,10.63,0,1.66-.12,3.32-.11,5,.05,8.92-3,11.92-11.79,10.62-3.07-.46-3.87,1.28-4.83,3.1-3.44,6.52-8.84,8.66-15.83,7.32-1.75-.34-2.93-.46-4.19,1.36-7.65,11-10.64,12.13-24.21,9-2.48-.58-3.4.1-4.33,2.48-4.8,12.38-15.3,16.8-27.83,11.67-2.78-1.13-4.36-1.12-6.26,1.4-4.67,6.17-10.8,7.93-18.1,5-1.4-.56-3-1.45-4.22-.23-2.49,2.51-5.66,2.45-8.75,2.84l-.2-.14C178.31,402.89,178.12,402.48,177.94,402.07Z"/><path class="cls-5" d="M178.25,471.83c28.26,0,56.54.67,84.78-.08,15.6-.42,30.57-5,42.81-15.46s16.44-24.36,14.8-40.31c-.47-4.68-3.17-9.09-1.72-14,7,14.64,11.48,29.8,7.84,46.15-2.87,12.88-11.22,21.7-22.7,27.55a76,76,0,0,1-34.55,8.51q-37.42.1-74.84,0C186.08,484.19,180.65,480,178.25,471.83Z"/><path class="cls-6" d="M454.17,433.85c9.95-4.4,14.75-12.49,15.76-22.9a40.58,40.58,0,0,0-1-15.34c-.78-2.69-.51-4.25,2.89-5.35,11.54-3.74,19.53-11.29,21.77-23.6.92-5.1.73-10.39,1-15.59,3.56,1.12,4.38,4.54,5.26,7.31,5.1,16.05,3.71,31.24-7.34,44.64-1.65,2-1.73,3.53-1.13,5.82,3.64,13.93.53,26.94-5.5,39.6-1.54,3.24-3,2.91-5.6,1.41-6.38-3.65-13.06-6.67-20.55-7.17a3.57,3.57,0,0,1-3.73-3.19A50.58,50.58,0,0,0,454.17,433.85Z"/><path class="cls-6" d="M357,358.09c1-2,3-1.8,4.75-2.06,4.34-.64,8.71-1.72,11.92-4.62,3.39-3.07,4.95-1.51,7,1.2,4.41,5.77,9.48,10.58,17.12,11.9,4.8.82,9.23-.25,13.7-1.54,1.69-.49,3.35-1.09,4.06,1.19,2.21,7.12,6.22,12.72,13.1,16,.19.1.19.61.27.92-6.63,1.37-13.44,1.92-19.67,5-9.25,4.57-15.36,12-20.36,22.64-1.15-5.26-7.12-7.58-2.44-13.26,2-2.41.18-5.39-1.71-7.69-5.26-6.37-11.77-11.27-18.66-15.66-2.5-1.59-4.52-2.8-4.06-6.43S358.32,360.87,357,358.09Z"/><path class="cls-3" d="M358.85,399.75c-1.69-11.1-8.52-18.86-16.78-25.64a126.93,126.93,0,0,0-20.8-13.67c-2.7-1.45-4.5-7-3.19-9.63a1.22,1.22,0,0,1,1.58-.7c13,3.42,26.39,5.76,36.67,15.5a2.73,2.73,0,0,1,.43.89c-1,1.74-3.13,1.74-5.05,3.28,10.81,6.51,21.93,12.38,29.94,22.84-2.39,1.35-4.8.28-7.35,1.11,2.11,3.43,4.11,6.59,6,9.81a55,55,0,0,1,6.79,16.5c2.35,10.88-.95,15.77-12.05,17.7C375,422.81,367.85,410.88,358.85,399.75Z"/><path class="cls-6" d="M178.69,403.43c3.09-.39,6.26-.33,8.75-2.84,1.22-1.22,2.82-.33,4.22.23,7.3,2.91,13.43,1.15,18.1-5,1.9-2.52,3.48-2.53,6.26-1.4,12.53,5.13,23,.71,27.83-11.67.93-2.38,1.85-3.06,4.33-2.48,13.57,3.14,16.56,2.05,24.21-9,1.26-1.82,2.44-1.7,4.19-1.36,7,1.34,12.39-.8,15.83-7.32,1-1.82,1.76-3.56,4.83-3.1,8.78,1.3,11.84-1.7,11.79-10.62,0-1.66.07-3.32.11-5,4.84,6.16,4.84,15.74.05,21.67-2.82,3.48-6.31,3.44-9.86,1.64-2.31-1.17-3.42-1.63-4.6,1.53-3.53,9.45-7.5,11.24-17.32,8.26-2.07-.63-2.75-.38-3.52,1.74-4.2,11.63-11.75,14.33-23.06,8.33-2.22-1.18-3.21-1.73-3.83,1.57-2.55,13.66-13.77,19.44-27.05,13.76-4-1.7-6.18-2.3-8.88,2.23-3.66,6.16-10.18,7.25-16.55,3.79-2.34-1.27-3.94-2.56-6,.73-1.88,3.09-4.69,2.73-6.94-.09C180.3,407.37,178.71,405.8,178.69,403.43Z"/><path class="cls-3" d="M333.5,442.94c0-3-.07-5.94-.11-8.91.11-.11.32-.26.3-.34a5.13,5.13,0,0,0-.37-.79c.26-1.7-1.59-3.71,1.54-4.94,2.87-1.13,3.76.52,5.17,2.12a72.24,72.24,0,0,0,10.8,10.32c2.28,1.7,4.72,2.44,7.5,1.47,6.65-2.32,9.55-.52,10.17,6.41.74,8.2.43,16.26-3.32,23.84-7.93-.37-15.86-.8-23.79-1.1-8.18-.31-7.75-.21-6.87-8.3C335.23,456.17,336.8,449.37,333.5,442.94Z"/><path class="cls-4" d="M453.81,472c1.69-6.92,3.56-13.82,3.22-21-.15-3,1.35-3.21,3.69-2.87,6,.86,11.41,3.35,16.66,6.23,8.68,4.77,17,10.08,27,12.4,5,1.17,3.46,6.39,3.56,10.22-2.12-.31-4.22-.74-6.35-.92Q477.68,473.93,453.81,472Z"/><path class="cls-6" d="M358.85,399.75c9,11.13,16.13,23.06,16.21,38-6.82,0-8.38-.57-17.32-6.26-.23.17-.56.29-.65.51-.64,1.49.82,3.81-.91,4.54s-3.2-1.29-4.54-2.42A64.93,64.93,0,0,1,339.12,420c-1-1.46-2-2.88-3.18-4.62-1.51,2.63-.7,5.42-3,7.86-3.24-5.12-3.43-10.94-6.07-17.05,7,3.59,12.89,7,19.94,6.75C353.64,412.69,356.29,409.77,358.85,399.75Z"/><path class="cls-6" d="M508.67,305.73c3.66-2.72,7.27-2.14,10.44.65,4.49,4,8.28,8.54,6.73,15.11-1.06,4.5-4.57,6.76-8.93,7.7-1.73.38-3.6.15-5.25,1.19.64,1.79,2.41,2.29,3.59,3.38a11,11,0,0,1,1.91,13.67c-2.25,4-8.87,6.74-13,5.55-1.7-.5-2.07-2-2.95-3.18-3-3.89-5.34-8.14-10.47-10.16-3.13-1.24-1.66-5.36-2.32-8.17,2.87-.76,6.77-.63,8.08-3.24,2.88-5.72,7.73-6.59,13.1-7.06a3.56,3.56,0,0,0,1.39-.52c3.46-2,6.23-4.47,5.52-9S512.73,305.76,508.67,305.73Z"/><path class="cls-5" d="M308.19,380.79c-5.27-1.82-8.56.4-11.41,4.86s-7.42,6.07-12.63,4.76c-2.87-.72-4.4-.17-5.88,2.68-4.39,8.44-12.68,11.36-21.44,7.6-2.76-1.18-3.51-.45-4.71,1.91-6.23,12.29-16.48,16.23-29.87,11.59-2.33-.81-3.94-.77-5.53,1.43-3.47,4.81-8.27,7.36-14.23,6.31-5.41-1-3.86,4.31-6.09,6.12-.48-3.46-.83-6.93-1.48-10.35-.4-2.14-.18-3.19,2.32-2.59,7.07,1.69,12.83-.76,17.31-6.13,1.74-2.1,3.21-1.5,5.15-.88,9.32,3,18,2.23,25.71-4.41,3-2.6,3.34-7.59,6.29-9.16s7,2.45,10.91,1.42c5.77-1.51,10.83-4.23,13.91-9.53,1.33-2.3,2.47-3.24,5.37-2.74,6.39,1.09,11.25-1.92,14.94-7,3.48-4.76,5.84-4.74,9.17.21C306.83,378.14,307.47,379.49,308.19,380.79Z"/><path class="cls-6" d="M333.5,442.94c3.3,6.43,1.73,13.23,1,19.78-.88,8.09-1.31,8,6.87,8.3,7.93.3,15.86.73,23.79,1.1C361.73,481,357.58,484,348.57,484H301.43c1-2.07,2.73-2.27,4.09-2.94C321.45,473.18,330.6,460.36,333.5,442.94Z"/><path class="cls-3" d="M151,454c5.45-8.23,13-14.53,19.87-21.45-.22-.33-.34-.72-.57-.81-6.76-2.73-6.85-3-2.05-8.43,1.64-1.87,3.51-3.53,5.26-5.3,2.63-2.67,5.33-4.74,9.14-1.86a5.12,5.12,0,0,0,2.4.54c1.68.19,3.94-1.63,4.56,1.78.48,2.62,1.29,4.73-1.24,7.13a108,108,0,0,0-24.3,33.7c-1.89,4.13-2.08,8,1,11.61-6.89,2.16-13.12-2.1-13.81-9.53C151,458.94,151.1,456.46,151,454Z"/><path class="cls-4" d="M371.71,471.6c.43-1.94.9-3.87,1.3-5.82,1.57-7.7,1.58-7.85,9.17-6.73,13.13,1.93,26.1,4.5,38.69,8.9,4.2,1.46,5.92,3.8,5.33,8.06a20.46,20.46,0,0,1-4.41.62c-12.69-.9-25.42-1.61-38.05-3.06C379.76,473.12,375.37,474.24,371.71,471.6Z"/><path class="cls-5" d="M453.81,472q23.87,2,47.74,4c2.13.18,4.23.61,6.35.92,1.8,3.71.35,6.58-3.36,6.64-19,.28-38,.13-57.71.13C449.38,479.38,451.59,475.66,453.81,472Z"/><path class="cls-5" d="M371.71,471.6c3.66,2.64,8.05,1.52,12,2,12.63,1.45,25.36,2.16,38.05,3.06a20.46,20.46,0,0,0,4.41-.62c-.69,6.48-1.9,7.7-7.82,7.71H364.09C368,479.78,369.7,475.6,371.71,471.6Z"/><path class="cls-6" d="M151,454c.06,2.46,0,4.94.22,7.38.69,7.43,6.92,11.69,13.81,9.53.54.36,1.06,1,1.64,1,6.91.76,8.11,7.14,12,12-12.31,0-24,0-35.68,0-2.56,0-2.42-1.93-1.61-3.56a20.74,20.74,0,0,1,2.71-3.55c1.42-1.75,2.39-3.18-.77-4.32-2.49-.89-2.83-2.88-1.68-5.29A41.3,41.3,0,0,1,151,454Z"/><path class="cls-4" d="M312.91,369.81c3.82-6,3.83-6,10-2.35,8.17,4.84,16.07,10.1,22.48,17.21,4.38,4.86,8.36,10,7.48,17.24-.15.44-.3.88-.44,1.31l-.12.19A206.72,206.72,0,0,1,312.91,369.81Z"/><path class="cls-5" d="M312.91,369.81a206.72,206.72,0,0,0,39.4,33.6c-1.11,4.21-4.49,4.85-7.83,4.13-10.39-2.23-19.13-7.05-24.38-16.88-2.64-5-5.27-10-8.36-14.64C309.88,373.18,309.79,371.37,312.91,369.81Z"/><path class="cls-3" d="M508.67,305.73c4.06,0,7.15,1.34,7.85,5.88s-2.06,7-5.52,9a3.56,3.56,0,0,1-1.39.52c-5.37.47-10.22,1.34-13.1,7.06-1.31,2.61-5.21,2.48-8.08,3.24a32.13,32.13,0,0,0-7-13.08c-1.94-2.1-1.18-3.41.39-5a8.14,8.14,0,0,1,13.34,2.21c.66,1.31,1.2,2.69,2,4.48C500.61,314.59,503,308.81,508.67,305.73Z"/><path class="cls-6" d="M415.62,460.36c5.27-.53,10.66.06,15.79-1.66,7.29-2.46,13.43-6.43,17.43-13.26a15.64,15.64,0,0,1,2.33-2.5c2.35,10.74-.95,27.14-6.94,33.76C436.72,467.72,425.93,464.46,415.62,460.36Z"/><path class="cls-4" d="M117.92,477c-1.22-4.77.27-7.81,5.26-9.23,4.4-1.25,8.64-3,13.89-3.91-1.48,4-2,7.61.39,11C131,476.18,124.3,475.09,117.92,477Z"/><path class="cls-5" d="M117.92,477c6.38-1.92,13.1-.83,19.54-2.17-.24,3.19-1.23,7.57-3.45,8.18a22.64,22.64,0,0,1-13.19-.17C118.65,482.1,117.73,479.55,117.92,477Z"/><path class="cls-6" d="M369.73,443.1h3.83c7.48,0,8,.52,8.24,8.19.05,1.63-.45,2-1.92,1.94-3.89-.19-7.75-.21-8.31-5.54C371.43,446.3,370.52,445,369.73,443.1Z"/><path class="cls-5" d="M175.77,450.47c-1.45,5.37-3.48,10.6-3.71,16.26-.05,1-.81,1.42-1.75,1.06a3.14,3.14,0,0,1-2-4.4A40.44,40.44,0,0,1,175.77,450.47Z"/><path class="cls-5" d="M193.61,435.68a2.91,2.91,0,0,1-2.61,3.26Z"/><path class="cls-5" d="M196.22,429.94c.61,1.07.7,2-.58,2.7C195.83,431.74,196,430.84,196.22,429.94Z"/><path class="cls-5" d="M309.4,382.58a1.68,1.68,0,0,1-1.19-1.77Z"/><path class="cls-5" d="M195,433.89a1.83,1.83,0,0,1-1.29,1.75Z"/><path class="cls-5" d="M191,438.93a1.92,1.92,0,0,1-1.37,1.65Z"/><path class="cls-5" d="M187.89,442.83a2,2,0,0,1-1.25,1.75Z"/><path class="cls-5" d="M318.14,399.92a2.3,2.3,0,0,1-1-2.24A2.36,2.36,0,0,1,318.14,399.92Z"/><path class="cls-5" d="M195.62,432.67l-.67,1.24Z"/><path class="cls-6" d="M333.32,432.9a5.13,5.13,0,0,1,.37.79c0,.08-.19.23-.3.34Z"/><path class="cls-6" d="M177.94,402.07c.18.41.37.82.55,1.22C178.31,402.89,178.12,402.48,177.94,402.07Z"/><path class="cls-5" d="M189.59,440.63l-.84,1.06Z"/><path class="cls-5" d="M188.74,441.7l-.87,1.15Z"/><path class="cls-5" d="M186.58,444.64l-.72,1.16Z"/><path class="cls-5" d="M185.86,445.8l-.82,1.14Z"/><path class="cls-5" d="M352.43,403.22c.14-.43.29-.87.44-1.31C352.72,402.35,352.57,402.79,352.43,403.22Z"/><path class="cls-5" d="M310.17,383.89l-.72-1.23Z"/><path class="cls-2" d="M272.93,419.63c9,2.15,15.35-1.17,18.45-9.27,3.07,4.73,1.93,9.44-3,12.41C282.19,426.5,276.27,425.45,272.93,419.63Z"/><path class="cls-2" d="M232.63,430c2.27,7.34.49,11.07-5.12,13.37-6.2,2.55-11.56.83-14.43-5.1,4,1.37,7.74,2,11.6.65S231.36,435.34,232.63,430Z"/><path class="cls-2" d="M247.13,470.29c-3.28-.27-7.15-.23-7.38-3.92-.25-3.89,3.73-4.23,6.65-4.29,3.1-.06,7.28.07,7.37,4.1C253.86,470,249.77,469.8,247.13,470.29Z"/><path class="cls-2" d="M259.06,444.77c.24.2.73.48.69.59a12.63,12.63,0,0,1-9.6,8.08,9.34,9.34,0,0,1-10-5.29C246.79,448.78,253,447,259.06,444.77Z"/><path class="cls-5" d="M259.06,444.77c-6.1,2.2-12.27,4-18.88,3.38C243.39,439.77,253.53,438,259.06,444.77Z"/><path class="cls-5" d="M284.37,441.1c-2-.31-5,.28-4.59-2.11.68-4.15,4.65-4.56,8.11-5,1.69-.19,4,.2,3.7,2.22C291,440.42,287.29,440.56,284.37,441.1Z"/><path class="cls-5" d="M219.54,457.93c-2.51-.15-4.74-.47-4.21-2.92.86-4,4.44-3.88,7.55-4,1.82-.07,4.34.26,3.72,2.68C225.65,457.34,221.93,457.23,219.54,457.93Z"/></g></g></svg>