<svg xmlns="http://www.w3.org/2000/svg" viewBox="0 0 1122 1122"><defs><style>.cls-1{fill:none;}.cls-2{fill:#e9e7e7;}</style></defs><g id="Layer_2" data-name="Layer 2"><g id="HAND"><rect class="cls-1" width="1122" height="1122"/><path class="cls-2" d="M561,0C251.17,0,0,251.17,0,561c0,182.66,87.3,344.92,222.44,447.35C218,990,220.2,969.45,234.5,948c10.67-16,42.92-45,46-25,6,39,45.8,46.14,54,32s10.35-57.91,12-68,7.32-37.6,10-49c4-17,10.39-50.73,12.5-60.84-.65-1-1.26-2-1.82-3-20.48-7.95-38.2-17.39-53-28.26-17.3-12.68-30.66-27.27-40-43.59-2.6,2.14-5.2,4.27-7.8,6.53q-8.11,6.82-16.32,13.54c-5.51,4.43-11,8.9-16.56,13.23-11.12,8.73-22.36,17.31-33.88,25.53,10.5-9.5,21.19-18.73,31.93-27.9l32.3-27.39c2.66-2.28,5.45-4.53,8.23-6.78l.23-.17a118.11,118.11,0,0,1-9.44-23.81,121.3,121.3,0,0,1-3.42-17.24,158.24,158.24,0,0,0-16.13,7.43c-1.63.81-3.24,1.71-4.86,2.61s-3.23,1.78-4.83,2.71l-4.81,2.75-4.8,2.78c-6.41,3.69-12.75,7.5-19.13,11.26-12.73,7.58-25.43,15.21-38.24,22.71,11.91-8.86,24.17-17.23,36.62-25.31s25.08-15.87,38.22-23a165.49,165.49,0,0,1,17.55-7.85,134.69,134.69,0,0,1,1.37-34.51l-14.27,1.49c-6.21.63-12.42,1.32-18.56,2.13-1.53.23-3,.41-4.58.68l-4.58.8-9.15,1.84c-6.09,1.26-12.17,2.67-18.26,4.06L154.5,639c11.77-4.32,23.72-8.09,35.79-11.49,6-1.73,12.1-3.28,18.21-4.73s12.28-2.71,18.57-3.63,12.49-1.41,18.73-2c5.08-.41,10.16-.8,15.24-1.11a150.58,150.58,0,0,1,4.9-18.94c6.38-19.42,17-37.79,27.33-47.6-1.41-13.86.2-30.19,4.43-47.69-17.39-20-32.37-45.87-45.19-79.28a273.22,273.22,0,0,1-18.24-111.07c1.43-27.84,6.95-44.75,7.19-45.46a.52.52,0,0,1,.06-.13,3.27,3.27,0,0,1,.14-.33l.19-.35c.06-.09.12-.19.19-.28a3.76,3.76,0,0,1,.25-.31l.23-.23a3.88,3.88,0,0,1,.31-.26l.26-.18.36-.2.28-.13.41-.13.29-.08a3.91,3.91,0,0,1,.48-.05l.26,0a3.91,3.91,0,0,1,.76.07l210.42,40.83a187.11,187.11,0,0,1,22.34-8.58c20.11-7.33,52.07-16.23,88.79-16.23,62.13,0,90.28,11.81,96.85,15.07l200.1-53a3.6,3.6,0,0,1,.8-.12h0a3.64,3.64,0,0,1,.74,0,.85.85,0,0,1,.17,0,3.92,3.92,0,0,1,.59.15l.23.11a4.09,4.09,0,0,1,.47.23l0,0c.07,0,.13.11.2.15s.25.19.37.3a2.39,2.39,0,0,1,.22.23c.11.12.21.23.3.35s.12.19.18.29.15.25.21.39a3,3,0,0,1,.13.36c0,.08.07.16.1.25s0,.09,0,.14l0,.13c.12.63,11.72,63.08,0,133.28-7.22,43.32-24.38,80-51,109.25,5.43,17.68,10.06,35.19,14.21,51.83,15.85,16.42,26.89,35,32.8,55.13a121.28,121.28,0,0,1,3.18,13.77q6.36.47,12.72,1.19c5.22.67,10.39,1.42,15.57,2.24S907.08,613,912.22,614c10.29,1.94,20.54,4.1,30.7,6.72-10.44-1-20.82-2.32-31.18-3.69-5.19-.65-10.35-1.41-15.53-2.07s-10.35-1.43-15.51-2c-3.86-.5-7.75-.89-11.65-1.25a121.06,121.06,0,0,1-.43,35.59q4.64,1.31,9.24,2.77c3.25,1,6.44,2.2,9.65,3.34s6.37,2.45,9.48,3.91c12.34,5.81,24.19,12.29,35.94,19s23.3,13.76,34.57,21.26c-12.09-6.09-24.06-12.35-36-18.57-6-3.08-12-6.22-18-9.24l-4.5-2.29-4.52-2.26c-1.5-.76-3-1.48-4.53-2.22-.76-.37-1.51-.75-2.27-1.1l-2.28-1c-3-1.44-6.12-2.64-9.21-3.9s-6.27-2.34-9.46-3.4c-2.86-1-5.77-1.94-8.67-2.87-.25,1.36-.53,2.71-.83,4.07A140.22,140.22,0,0,1,847,701.55l3,2.22c2.5,2,5,4,7.4,6.07l14.49,12.27c4.8,4.12,9.66,8.17,14.45,12.32,9.62,8.24,19.18,16.54,28.55,25.12-10.39-7.3-20.5-14.95-30.49-22.75-5-3.87-9.94-7.87-14.89-11.83s-9.79-8.06-14.65-12.13c-2.41-2.1-4.82-4.07-7.23-6.05l-2.73-2.09a165.58,165.58,0,0,1-16,19.65c-19.82,20.83-45.13,37.43-75.26,49.41-.8.84-1.62,1.69-2.49,2.57.86,27.42,2.78,57.67,6.71,83.11,1.12,7.2,2.89,15.39,4.95,24.88,4.28,19.76,9.61,44.36,10.8,70.54,1.56,34.27.8,88.42.79,89,0,.76-.24,16.49-.63,36.44C978.08,996.45,1122,795.54,1122,561,1122,251.17,870.83,0,561,0Z"/></g></g></svg>