<svg xmlns="http://www.w3.org/2000/svg" viewBox="0 0 1997.14 1536.27"><defs><style>.cls-1{fill:#5ac5ce;}.cls-2{fill:#67224f;}.cls-3{fill:#fcfbfc;}.cls-4{fill:#fce1b0;}.cls-5{fill:#d7b0a8;}.cls-6{fill:#c3b0d5;}.cls-7{fill:#527ee6;}</style></defs><g id="Layer_2" data-name="Layer 2"><g id="Layer_2-2" data-name="Layer 2"><path class="cls-1" d="M626,914.36q-.18,154.71-.1,309.41,0,154.2.1,308.41c0,3.42-.67,4.09-4.1,4.09q-308.89-.16-617.81,0c-3.42,0-4.09-.67-4.09-4.09q.15-308.91,0-617.82c0-3.42.67-4.09,4.09-4.09q308.91.15,617.81,0C625.32,910.27,626,910.94,626,914.36Zm-94.31,315.26c.23-7.35-6.35-16.81-13.41-19.63-6.21-2.47-12.1-.46-18.36,6.58-1.68,1.89-2.89,2.61-5.34,1.14-5.93-3.56-11.71-2.52-16.4,2.21-2.46,2.47-3.85,1.82-6.17.17-9.95-7.09-21.18-11.87-33.23-9.35-7.9,1.65-12.73-.56-19-4.59-19.89-12.82-42.13-16.81-65.47-13.55-15.1,2.12-28.41,8.51-36.11,22.26-3.85,6.88-9.17,9.62-15.68,13.21a52.94,52.94,0,0,1-34.08,6.28,3.29,3.29,0,0,0-1,0c-3.36.51-4.27-1.2-3.43-4.06,1.36-4.61,2.91-9.15,4.4-13.77-2.41-1-4.67-.39-6.91.22-7.49,2-12.85,7-16.95,13.21-1.78,2.7-3.06,3.4-6.23,2.08-10.65-4.41-21.13-2.79-32.66,2,4.42,1.85,7.7,3,10.77,4.58,2.44,1.24,6.08,2.07,6.19,5.13.1,2.88-3.53,3.6-5.69,5-14.23,9.11-27.86,18.94-37.79,32.91-7.61,10.7-11.53,22.2-5.51,35.1,1.17,2.51.16,4-1.7,5.55a67.28,67.28,0,0,0-9.12,9.21c-2.58,3.11-4.33,6.37-2.75,10.5,1.07,2.8-.91,4.36-2.41,6.07-4.4,5-9.14,9.74-13.16,15a14.11,14.11,0,0,1-8.48,5.47c-8.73,2.09-17.34,4.63-25.21,9.11-6,3.42-11.62,7.32-13.4,14.59-1.26,5.18,0,6.77,5.24,6.85,17,.24,34,.6,50.93.64,42.48.09,84.95.33,127.43.07,79-.47,157.92-.38,236.88-.54,9,0,12-4.9,8-13-4.28-8.65-12.11-12.51-20.86-14.85a89.41,89.41,0,0,1-11.27-3.92c-4.09-1.72-4.45-3.94-2.52-7.77,6.31-12.55,8.65-25.81,5.89-39.75a6.12,6.12,0,0,1,1.11-5.13c9.13-12.81,11.83-27,8.28-42.23-.66-2.84,0-3.76,2.82-4.35,11.58-2.43,16.5-10.15,13.77-21.6-.54-2.28-.36-3.52,1.66-4.94C528.91,1238.87,531.52,1234.8,531.69,1229.62Z"/><path class="cls-2" d="M205.68,1234.08c11.53-4.8,22-6.42,32.66-2,3.17,1.31,4.45.62,6.23-2.08,4.1-6.25,9.46-11.18,16.95-13.22,2.24-.61,4.5-1.22,6.91-.22-1.49,4.63-3,9.17-4.4,13.77-.84,2.86.07,4.58,3.43,4.06a3.65,3.65,0,0,1,1,0,52.94,52.94,0,0,0,34.08-6.28c6.51-3.59,11.83-6.34,15.68-13.22,7.7-13.75,21-20.14,36.11-22.25,23.34-3.26,45.58.73,65.47,13.54,6.26,4,11.09,6.24,19,4.59,12.05-2.51,23.28,2.27,33.23,9.35,2.32,1.66,3.71,2.3,6.17-.17,4.69-4.72,10.47-5.76,16.4-2.2,2.45,1.47,3.66.74,5.34-1.14,6.26-7,12.15-9,18.36-6.58,7.06,2.81,13.64,12.28,13.41,19.63a15.19,15.19,0,0,1-6.89,12.16c-2,1.43-2.2,2.67-1.66,5,2.73,11.45-2.19,19.16-13.77,21.6-2.79.58-3.48,1.51-2.82,4.34,3.55,15.28.85,29.43-8.28,42.24a6.12,6.12,0,0,0-1.11,5.13c2.76,13.94.42,27.2-5.89,39.75-1.93,3.82-1.57,6,2.52,7.76a86.35,86.35,0,0,0,11.27,3.92c8.75,2.35,16.58,6.2,20.86,14.86,4,8.1,1,13-8,13-79,.17-157.92.08-236.88.55-42.48.26-84.95,0-127.43-.07-17,0-33.95-.41-50.93-.65-5.21-.07-6.5-1.66-5.24-6.84,1.78-7.27,7.4-11.18,13.4-14.6,7.87-4.48,16.48-7,25.21-9.1a14.08,14.08,0,0,0,8.48-5.48c4-5.27,8.76-10,13.16-15,1.5-1.71,3.48-3.27,2.41-6.07-1.58-4.14.17-7.39,2.75-10.5a67.28,67.28,0,0,1,9.12-9.21c1.86-1.53,2.87-3,1.7-5.55-6-12.91-2.1-24.4,5.51-35.1,9.93-14,23.56-23.81,37.79-32.92,2.16-1.38,5.79-2.1,5.69-5-.11-3.07-3.75-3.89-6.19-5.13C213.38,1237.09,210.1,1235.93,205.68,1234.08Zm-19.82,122-.82,1.15c-5.09,7.52-8.94,15.38-6.79,24.88,2.4,8.16,7.83,12.37,16.41,12.39q37.43.07,74.84,0a75.86,75.86,0,0,0,34.55-8.5c11.49-5.85,19.84-14.67,22.7-27.55,3.64-16.36-.82-31.51-7.83-46.15l-.79-2.08a2.38,2.38,0,0,0-1-2.25,69.77,69.77,0,0,0-7-13.78l-.71-1.24-.05-.07-1.2-1.77v0c-.73-1.29-1.37-2.64-2.19-3.87-3.33-5-5.69-5-9.17-.21-3.7,5.06-8.55,8.07-14.95,7-2.9-.5-4,.44-5.36,2.73-3.08,5.31-8.14,8-13.91,9.54-3.93,1-7.9-3-10.91-1.42s-3.27,6.56-6.29,9.16c-7.73,6.64-16.4,7.38-25.71,4.41-1.94-.62-3.41-1.22-5.16.88-4.47,5.37-10.23,7.81-17.31,6.13-2.49-.6-2.72.44-2.31,2.58.64,3.42,1,6.9,1.48,10.35l-.18,1.89c-.19.9-.39,1.81-.58,2.71l.27.17-.29-.14-.68,1.24,0,0c-.43.59-.86,1.17-1.3,1.75l0,0-2.61,3.26v0l-1.37,1.66,0,.05-.85,1,.28.25-.29-.24c-.28.39-.57.77-.86,1.16l0,0c-.42.59-.84,1.17-1.25,1.76l-.06.05c-.25.39-.49.78-.73,1.17Zm-68,31.21c-.19,2.54.74,5.1,2.9,5.85a22.68,22.68,0,0,0,13.2.17c2.22-.62,3.21-5,3.45-8.19-2.36-3.36-1.88-7-.39-11-5.26.87-9.49,2.67-13.89,3.92C118.18,1379.46,116.7,1382.5,117.91,1387.27Zm234.51-73.78.44-1.32c.88-7.2-3.09-12.37-7.47-17.23-6.42-7.11-14.31-12.37-22.49-17.22-6.16-3.65-6.17-3.64-10,2.35-3.12,1.57-3,3.38-1.17,6.21,3.08,4.69,5.71,9.69,8.36,14.65,5.25,9.83,14,14.65,24.38,16.88,3.33.71,6.72.08,7.83-4.14Zm19.29,68.37c-2,4-3.71,8.18-7.63,12.13h54.3c5.91,0,7.13-1.22,7.82-7.71.59-4.26-1.14-6.59-5.34-8.06-12.59-4.39-25.56-7-38.68-8.9-7.59-1.12-7.61-1-9.17,6.74C372.61,1378,372.14,1379.93,371.71,1381.86Zm-206.65-.68c-3-3.65-2.84-7.48-1-11.61a108.15,108.15,0,0,1,24.31-33.7c2.52-2.4,1.72-4.51,1.24-7.13-.62-3.41-2.89-1.6-4.56-1.79a5.12,5.12,0,0,1-2.4-.54c-3.81-2.88-6.51-.81-9.15,1.87-1.74,1.77-3.61,3.43-5.25,5.29-4.81,5.44-4.71,5.7,2.05,8.43.23.1.35.48.57.81-6.86,6.93-14.43,13.22-19.88,21.46a41.61,41.61,0,0,0-9.31,13.22c-1.14,2.4-.81,4.39,1.69,5.29,3.16,1.13,2.19,2.57.76,4.31a20.74,20.74,0,0,0-2.7,3.56c-.81,1.62-1,3.53,1.61,3.55,11.68.09,23.37,0,35.68,0-3.94-4.88-5.15-11.27-12-12C166.13,1382.16,165.61,1381.54,165.06,1381.18Zm323.37-139.44c.66,2.81-.82,6.93,2.32,8.16,5.13,2,7.49,6.27,10.47,10.17.88,1.15,1.25,2.68,2.95,3.17,4.11,1.19,10.73-1.58,13-5.54a11,11,0,0,0-1.91-13.67c-1.18-1.1-3-1.59-3.59-3.38,1.64-1,3.51-.82,5.25-1.19,4.36-1,7.87-3.21,8.93-7.7,1.55-6.57-2.25-11.16-6.74-15.12-3.16-2.79-6.77-3.37-10.44-.65-5.66,3.09-8.05,8.87-11.48,14.36-.79-1.78-1.33-3.16-2-4.48a8.13,8.13,0,0,0-13.34-2.2c-1.58,1.57-2.33,2.89-.39,5A32.13,32.13,0,0,1,488.43,1241.74Zm19.46,145.43c-.09-3.84,1.43-9.06-3.56-10.22-9.93-2.33-18.27-7.63-27-12.4-5.24-2.89-10.64-5.37-16.66-6.24-2.33-.33-3.83-.09-3.69,2.87.35,7.22-1.53,14.12-3.22,21l-7,11.72c19.7,0,38.71.16,57.71-.13C508.25,1393.75,509.7,1390.87,507.89,1387.17Zm-174.5-42.87c0,3,.07,5.93.11,8.9-2.91,17.42-12.06,30.24-28,38.11-1.35.67-3.13.86-4.08,2.93h47.14c9,0,13.15-3,16.6-11.85,3.76-7.58,4.07-15.64,3.33-23.84-.62-6.93-3.53-8.74-10.18-6.41-2.77,1-5.22.23-7.49-1.47A72.86,72.86,0,0,1,340,1340.34c-1.41-1.6-2.29-3.24-5.17-2.11-3.12,1.23-1.28,3.24-1.53,4.93C333.34,1343.54,333.36,1343.92,333.39,1344.3Zm-154.9-30.74.2.14c0,2.37,1.6,3.94,2.94,5.6,2.25,2.82,5.06,3.18,6.94.09,2-3.29,3.6-2,5.94-.73,6.38,3.47,12.9,2.38,16.56-3.79,2.69-4.52,4.89-3.93,8.88-2.22,13.27,5.67,24.5-.1,27.05-13.76.62-3.3,1.61-2.75,3.83-1.58,11.3,6,18.85,3.3,23.06-8.32.77-2.13,1.45-2.38,3.52-1.75,9.82,3,13.79,1.2,17.32-8.26,1.18-3.16,2.29-2.7,4.6-1.53,3.55,1.8,7,1.85,9.86-1.64,4.79-5.92,4.78-15.51-.05-21.66-3.44-5.85-9.26-8.43-15.16-10.63a62.4,62.4,0,0,0-31.94-3.16c-3.51.56-4.17-.55-4.18-3.78,0-4.48,1.6-8.67,2.08-13.39-8.45,3.92-12.26,11.18-15.48,18.89-9.91-6.86-14.49-8.17-21.09-6.2,1.74,1.51,3.61,2.89,5.19,4.54,4.41,4.61,4.21,5.44-1.18,8.53-16.7,9.58-32.43,20.47-44,36.14-5.93,8-9.75,17-5.41,27.25ZM358.85,1310c-2.56,10-5.21,12.93-12.05,13.21-7.05.29-12.95-3.17-19.93-6.76,2.64,6.12,2.82,11.94,6.06,17,2.31-2.44,1.49-5.22,3-7.85,1.2,1.74,2.22,3.16,3.18,4.62a64.67,64.67,0,0,0,12.52,14.09c1.34,1.13,2.68,3.19,4.54,2.41s.26-3,.9-4.53c.1-.22.43-.35.65-.51,8.94,5.68,10.51,6.25,17.33,6.26,11.09-1.93,14.4-6.82,12.05-17.71a55.27,55.27,0,0,0-6.8-16.49c-1.9-3.22-3.9-6.38-6-9.81,2.56-.84,5,.23,7.36-1.11-8-10.46-19.13-16.34-29.94-22.85,1.92-1.53,4-1.53,5.05-3.28a3,3,0,0,0-.43-.88c-10.29-9.74-23.71-12.08-36.68-15.5a1.21,1.21,0,0,0-1.57.7c-1.32,2.61.49,8.18,3.19,9.62a127.58,127.58,0,0,1,20.8,13.67C350.32,1291.16,357.16,1298.92,358.85,1310Zm92.31,43.18c.61-5.58-1.58-10.63-3.32-16.27,3.43,1.74,4.68,4.64,6.33,7.19a52.54,52.54,0,0,1,1.91,5.63,3.57,3.57,0,0,0,3.73,3.2c7.49.5,14.17,3.51,20.55,7.17,2.62,1.49,4.06,1.82,5.6-1.42,6-12.66,9.13-25.66,5.5-39.59-.6-2.29-.52-3.84,1.12-5.83,11.06-13.4,12.45-28.58,7.35-44.63-.88-2.78-1.71-6.19-5.26-7.31-2.16-2.44-3.11-5.88-6.22-7.51-3.69-1.95-6.22-4.23-5.36-9.18.53-3.08-1.21-6.14-3-8.76-9.23-13.13-21.93-19.75-37.92-20.51-5.73-.27-11.29,5.73-15.55,3.19-4.52-2.68-8.11-7.64-13.16-10.27-17.38-9-35.92-13.24-55.38-10.91-18.39,2.2-33.11,10.5-39.87,29-1,2.67-2.46,3.41-5,3.78a39.47,39.47,0,0,0-18.38,7.65c8.44,3.41,15.88,7.37,20.46,15.09.68,1.14,1.81,1.31,3,1.55,13.57,2.8,26.64,7,38.76,13.85,1.37,2.77,5.49,4,5,7.6s1.56,4.84,4.05,6.43c6.9,4.39,13.41,9.28,18.66,15.66,1.9,2.3,3.7,5.28,1.72,7.69-4.68,5.68,1.29,8,2.44,13.25,5-10.65,11.1-18.07,20.35-22.64,6.24-3.08,13.05-3.62,19.68-5,2.18.49,4.58,0,7.32,1.58-1.81.2-2.89.29-4,.43-18.83,2.53-32.6,11.61-39.21,30.09a12.25,12.25,0,0,0-.49,6.76c1.1,5.84,1.54,12.17-3.12,16.48-5.8,5.37-3.06,10.72-1.58,16.35.41,1.57,1.53,1.93,2.93,2.22,8.29,1.74,16.56,3.56,24.84,5.36,10.31,4.1,21.1,7.36,28.61,16.33C450.21,1380.35,453.51,1364,451.16,1353.2Zm-81.43.17c.78,1.88,1.7,3.19,1.84,4.58.55,5.33,4.42,5.36,8.31,5.54,1.46.07,2-.3,1.91-1.93-.25-7.68-.75-8.24-8.23-8.19Zm-194,7.37a40.49,40.49,0,0,0-7.48,12.92,3.12,3.12,0,0,0,2,4.39c.94.36,1.7,0,1.74-1.06C172.29,1371.34,174.31,1366.11,175.76,1360.74Z"/><path class="cls-3" d="M454.17,1344.12c-1.65-2.55-2.9-5.45-6.33-7.19,1.74,5.64,3.93,10.69,3.32,16.27a15.63,15.63,0,0,0-2.32,2.51c-4,6.82-10.14,10.8-17.43,13.25-5.13,1.73-10.52,1.14-15.79,1.67-8.28-1.8-16.55-3.62-24.84-5.36-1.4-.29-2.52-.65-2.93-2.22-1.48-5.63-4.22-11,1.58-16.35,4.66-4.31,4.22-10.64,3.12-16.48a12.25,12.25,0,0,1,.49-6.76c6.61-18.48,20.38-27.56,39.21-30.09,1.07-.14,2.15-.23,4-.43-2.74-1.63-5.14-1.09-7.32-1.58-.09-.32-.08-.83-.28-.92-6.87-3.29-10.89-8.89-13.1-16-.71-2.28-2.37-1.68-4.06-1.19-4.46,1.29-8.9,2.36-13.69,1.53-7.64-1.31-12.71-6.12-17.12-11.89-2.08-2.71-3.64-4.27-7-1.21-3.2,2.9-7.58,4-11.91,4.62-1.76.26-3.72.11-4.75,2.07-12.12-6.85-25.19-11-38.76-13.85-1.16-.24-2.29-.41-3-1.55-4.58-7.72-12-11.68-20.46-15.09a39.47,39.47,0,0,1,18.38-7.65c2.56-.37,4.05-1.11,5-3.78,6.76-18.55,21.48-26.85,39.87-29,19.46-2.33,38,1.87,55.38,10.91,5,2.63,8.64,7.59,13.16,10.27,4.26,2.54,9.82-3.46,15.55-3.19,16,.76,28.69,7.38,37.92,20.51,1.84,2.62,3.58,5.68,3,8.76-.86,4.95,1.67,7.23,5.36,9.18,3.11,1.63,4.06,5.07,6.22,7.51-.31,5.2-.12,10.49-1,15.58-2.24,12.31-10.24,19.87-21.77,23.6-3.4,1.11-3.67,2.66-2.89,5.36a40.76,40.76,0,0,1,1,15.34C468.92,1331.63,464.12,1339.72,454.17,1344.12Z"/><path class="cls-4" d="M310.16,1294.16a69.77,69.77,0,0,1,7,13.78,2.3,2.3,0,0,0,1,2.25l.79,2.08c-1.45,4.89,1.24,9.3,1.72,14,1.63,16-2.48,29.74-14.81,40.31s-27.2,15-42.81,15.46c-28.24.76-56.51.13-84.77.08-2.15-9.5,1.7-17.36,6.79-24.88l.82-1.15h0c.24-.39.48-.78.73-1.17l.06-.05a2,2,0,0,0,1.25-1.76l0,0,.86-1.16.29.24-.28-.25.85-1,0-.05a1.93,1.93,0,0,0,1.37-1.66v0a2.92,2.92,0,0,0,2.61-3.26l0,0a1.81,1.81,0,0,0,1.3-1.75l0,0,.68-1.24.29.14-.27-.17c1.28-.67,1.18-1.63.58-2.71l.18-1.89c2.23-1.8.68-7.08,6.09-6.12,6,1.06,10.76-1.49,14.23-6.3,1.58-2.2,3.19-2.24,5.53-1.43,13.38,4.64,23.64.69,29.87-11.59,1.19-2.36,1.95-3.1,4.7-1.92,8.77,3.76,17.06.85,21.44-7.59,1.48-2.85,3-3.4,5.88-2.68,5.22,1.31,9.79-.3,12.64-4.76s6.13-6.68,11.41-4.87v0a1.71,1.71,0,0,0,1.2,1.77l.05.07ZM259.06,1355c-5.53-6.81-15.67-5-18.89,3.38a9.33,9.33,0,0,0,10,5.29,12.61,12.61,0,0,0,9.61-8.08C259.78,1355.52,259.3,1355.23,259.06,1355Zm13.87-25.13c3.33,5.81,9.26,6.87,15.44,3.14,4.93-3,6.07-7.68,3-12.41C288.28,1328.72,281.93,1332.05,272.93,1329.9Zm-40.3,10.37c-1.27,5.33-4.1,7.54-7.95,8.91s-7.57.73-11.61-.64c2.88,5.93,8.24,7.65,14.44,5.1C233.12,1351.33,234.9,1347.61,232.63,1340.27Zm14.5,40.29c2.64-.49,6.72-.26,6.64-4.11-.09-4-4.27-4.16-7.37-4.1-2.92.05-6.9.4-6.66,4.29C240,1380.33,243.85,1380.29,247.13,1380.56Zm37.24-29.19c2.92-.55,6.65-.69,7.22-4.86.27-2-2-2.42-3.7-2.22-3.46.4-7.43.82-8.11,5C279.39,1351.64,282.34,1351.06,284.37,1351.37Zm-64.83,16.82c2.39-.7,6.11-.59,7.05-4.23.63-2.42-1.9-2.76-3.71-2.69-3.12.12-6.7,0-7.55,4C214.8,1367.72,217,1368.05,219.54,1368.19Z"/><path class="cls-3" d="M177.93,1312.34c-4.34-10.3-.52-19.25,5.41-27.25,11.61-15.67,27.34-26.56,44-36.14,5.39-3.09,5.59-3.92,1.18-8.53-1.58-1.65-3.45-3-5.19-4.53,6.6-2,11.18-.67,21.09,6.19,3.22-7.71,7-15,15.48-18.89-.48,4.72-2.11,8.91-2.08,13.39,0,3.23.67,4.34,4.18,3.78a62.4,62.4,0,0,1,31.94,3.16c5.9,2.2,11.72,4.78,15.16,10.63,0,1.66-.12,3.32-.11,5,.05,8.93-3,11.92-11.79,10.62-3.08-.45-3.88,1.29-4.83,3.1-3.44,6.52-8.84,8.67-15.83,7.33-1.75-.34-2.93-.46-4.19,1.35-7.65,11-10.65,12.14-24.21,9-2.49-.57-3.4.1-4.33,2.48-4.81,12.39-15.3,16.81-27.84,11.68-2.77-1.14-4.35-1.12-6.26,1.4-4.67,6.17-10.79,7.93-18.1,5-1.39-.56-3-1.45-4.21-.23-2.5,2.51-5.66,2.45-8.75,2.84l-.2-.14C178.3,1313.15,178.12,1312.74,177.93,1312.34Z"/><path class="cls-5" d="M178.25,1382.09c28.26.05,56.53.68,84.77-.08,15.61-.41,30.58-5,42.81-15.46s16.44-24.36,14.81-40.31c-.48-4.67-3.17-9.08-1.72-14,7,14.64,11.47,29.79,7.83,46.15-2.86,12.88-11.21,21.7-22.7,27.55a75.86,75.86,0,0,1-34.55,8.5q-37.41.12-74.84,0C186.08,1394.46,180.65,1390.25,178.25,1382.09Z"/><path class="cls-6" d="M454.17,1344.12c9.95-4.4,14.75-12.49,15.76-22.9a40.76,40.76,0,0,0-1-15.34c-.78-2.7-.51-4.25,2.89-5.36,11.53-3.73,19.53-11.29,21.77-23.6.92-5.09.73-10.38,1-15.58,3.55,1.12,4.38,4.53,5.26,7.31,5.1,16,3.71,31.23-7.35,44.63-1.64,2-1.72,3.54-1.12,5.83,3.63,13.93.53,26.93-5.5,39.59-1.54,3.24-3,2.91-5.6,1.42-6.38-3.66-13.06-6.67-20.55-7.17a3.57,3.57,0,0,1-3.73-3.2A52.54,52.54,0,0,0,454.17,1344.12Z"/><path class="cls-6" d="M357,1268.36c1-2,3-1.81,4.75-2.07,4.33-.63,8.71-1.72,11.91-4.62,3.39-3.06,4.95-1.5,7,1.21,4.41,5.77,9.48,10.58,17.12,11.89,4.79.83,9.23-.24,13.69-1.53,1.69-.49,3.35-1.09,4.06,1.19,2.21,7.12,6.23,12.72,13.1,16,.2.09.19.6.28.92-6.63,1.37-13.44,1.91-19.68,5-9.25,4.57-15.36,12-20.35,22.64-1.15-5.26-7.12-7.57-2.44-13.25,2-2.41.18-5.39-1.72-7.69-5.25-6.38-11.76-11.27-18.66-15.66-2.49-1.59-4.51-2.81-4.05-6.43S358.32,1271.13,357,1268.36Z"/><path class="cls-3" d="M358.85,1310c-1.69-11.1-8.53-18.86-16.78-25.65a127.58,127.58,0,0,0-20.8-13.67c-2.7-1.44-4.51-7-3.19-9.62a1.21,1.21,0,0,1,1.57-.7c13,3.42,26.39,5.76,36.68,15.5a3,3,0,0,1,.43.89c-1,1.74-3.13,1.74-5.05,3.27,10.81,6.51,21.93,12.39,29.94,22.85-2.39,1.34-4.8.27-7.36,1.11,2.12,3.43,4.12,6.59,6,9.81a55.27,55.27,0,0,1,6.8,16.49c2.35,10.89-1,15.78-12.05,17.71C375,1333.07,367.85,1321.15,358.85,1310Z"/><path class="cls-6" d="M178.69,1313.7c3.09-.39,6.25-.33,8.75-2.84,1.21-1.22,2.82-.33,4.21.23,7.31,2.91,13.43,1.15,18.1-5,1.91-2.52,3.49-2.54,6.26-1.4,12.54,5.13,23,.71,27.84-11.68.93-2.38,1.84-3,4.33-2.48,13.56,3.15,16.56,2,24.21-9,1.26-1.81,2.44-1.69,4.19-1.35,7,1.34,12.39-.81,15.83-7.33.95-1.81,1.75-3.55,4.83-3.1,8.78,1.3,11.84-1.69,11.79-10.62,0-1.65.07-3.31.11-5,4.83,6.15,4.84,15.74.05,21.66-2.82,3.49-6.31,3.44-9.86,1.64-2.31-1.17-3.42-1.63-4.6,1.53-3.53,9.46-7.5,11.24-17.32,8.26-2.07-.63-2.75-.38-3.52,1.75-4.21,11.62-11.76,14.33-23.06,8.32-2.22-1.17-3.21-1.72-3.83,1.58-2.55,13.66-13.78,19.43-27.05,13.76-4-1.71-6.19-2.3-8.88,2.22-3.66,6.17-10.18,7.26-16.56,3.79-2.34-1.27-3.93-2.56-5.94.73-1.88,3.09-4.69,2.73-6.94-.09C180.29,1317.64,178.71,1316.07,178.69,1313.7Z"/><path class="cls-3" d="M333.5,1353.2c0-3-.08-5.93-.11-8.9.1-.12.32-.26.3-.34a5.23,5.23,0,0,0-.37-.8c.25-1.69-1.59-3.7,1.53-4.93,2.88-1.13,3.76.51,5.17,2.11a72.86,72.86,0,0,0,10.81,10.33c2.27,1.7,4.72,2.44,7.49,1.47,6.65-2.33,9.56-.52,10.18,6.41.74,8.2.43,16.26-3.33,23.84-7.93-.38-15.85-.81-23.78-1.11-8.19-.31-7.75-.2-6.88-8.29C335.22,1366.44,336.79,1359.63,333.5,1353.2Z"/><path class="cls-4" d="M453.8,1382.21c1.69-6.91,3.57-13.81,3.22-21-.14-3,1.36-3.2,3.69-2.87,6,.87,11.42,3.35,16.66,6.24,8.69,4.77,17,10.07,27,12.4,5,1.16,3.47,6.38,3.56,10.22-2.11-.31-4.21-.74-6.34-.93Q477.68,1384.19,453.8,1382.21Z"/><path class="cls-6" d="M358.85,1310c9,11.13,16.12,23,16.21,38-6.82,0-8.39-.58-17.33-6.26-.22.16-.55.29-.65.51-.64,1.48.82,3.81-.9,4.53s-3.2-1.28-4.54-2.41a64.67,64.67,0,0,1-12.52-14.09c-1-1.46-2-2.88-3.18-4.62-1.52,2.63-.7,5.41-3,7.85-3.24-5.11-3.42-10.93-6.06-17,7,3.59,12.88,7,19.93,6.76C353.64,1323,356.29,1320,358.85,1310Z"/><path class="cls-6" d="M508.66,1216c3.67-2.72,7.28-2.14,10.44.65,4.49,4,8.29,8.55,6.74,15.12-1.06,4.49-4.57,6.75-8.93,7.7-1.74.37-3.61.15-5.25,1.19.64,1.79,2.41,2.28,3.59,3.38a11,11,0,0,1,1.91,13.67c-2.26,4-8.88,6.73-13,5.54-1.7-.49-2.07-2-2.95-3.17-3-3.9-5.34-8.15-10.47-10.17-3.14-1.23-1.66-5.35-2.32-8.16,2.86-.76,6.76-.64,8.08-3.25,2.88-5.71,7.73-6.59,13.1-7.06a3.45,3.45,0,0,0,1.39-.51c3.45-2,6.22-4.47,5.52-9.05S512.72,1216,508.66,1216Z"/><path class="cls-5" d="M308.19,1291.05c-5.28-1.81-8.56.4-11.41,4.87s-7.42,6.07-12.64,4.76c-2.86-.72-4.4-.17-5.88,2.68-4.38,8.44-12.67,11.35-21.44,7.59-2.75-1.18-3.51-.44-4.7,1.92-6.23,12.28-16.49,16.23-29.87,11.59-2.34-.81-3.95-.77-5.53,1.43-3.47,4.81-8.27,7.36-14.23,6.3-5.41-1-3.86,4.32-6.09,6.12-.48-3.45-.84-6.93-1.48-10.35-.41-2.14-.18-3.18,2.31-2.58,7.08,1.68,12.84-.76,17.31-6.13,1.75-2.1,3.22-1.5,5.16-.88,9.31,3,18,2.23,25.71-4.41,3-2.6,3.33-7.6,6.29-9.16s7,2.45,10.91,1.42c5.77-1.51,10.83-4.23,13.91-9.54,1.33-2.29,2.46-3.23,5.36-2.73,6.4,1.09,11.25-1.92,14.95-7,3.48-4.77,5.84-4.74,9.17.21C306.82,1288.41,307.46,1289.76,308.19,1291.05Z"/><path class="cls-6" d="M333.5,1353.2c3.29,6.43,1.72,13.24,1,19.79-.87,8.09-1.31,8,6.88,8.29,7.93.3,15.85.73,23.78,1.11-3.45,8.89-7.59,11.85-16.6,11.85H301.43c.95-2.07,2.73-2.26,4.08-2.93C321.44,1383.44,330.59,1370.62,333.5,1353.2Z"/><path class="cls-3" d="M151,1364.27c5.45-8.24,13-14.53,19.88-21.46-.22-.33-.34-.71-.57-.81-6.76-2.73-6.86-3-2.05-8.43,1.64-1.86,3.51-3.52,5.25-5.29,2.64-2.68,5.34-4.75,9.15-1.87a5.12,5.12,0,0,0,2.4.54c1.67.19,3.94-1.62,4.56,1.79.48,2.62,1.28,4.73-1.24,7.13a108.15,108.15,0,0,0-24.31,33.7c-1.88,4.13-2.08,8,1,11.61-6.89,2.16-13.12-2.1-13.8-9.53C151,1369.2,151.1,1366.73,151,1364.27Z"/><path class="cls-4" d="M371.71,1381.86c.43-1.93.9-3.87,1.3-5.81,1.56-7.71,1.58-7.86,9.17-6.74,13.12,1.93,26.09,4.51,38.68,8.9,4.2,1.47,5.93,3.8,5.34,8.06a20.48,20.48,0,0,1-4.41.63c-12.7-.9-25.42-1.62-38.06-3.06C379.76,1383.38,375.36,1384.5,371.71,1381.86Z"/><path class="cls-5" d="M453.8,1382.21q23.88,2,47.75,4c2.13.19,4.23.62,6.34.93,1.81,3.7.36,6.58-3.35,6.63-19,.29-38,.13-57.71.13Z"/><path class="cls-5" d="M371.71,1381.86c3.65,2.64,8.05,1.52,12,2,12.64,1.44,25.36,2.16,38.06,3.06a20.48,20.48,0,0,0,4.41-.63c-.69,6.49-1.91,7.71-7.82,7.71h-54.3C368,1390,369.69,1385.87,371.71,1381.86Z"/><path class="cls-6" d="M151,1364.27c.07,2.46,0,4.93.23,7.38.68,7.43,6.91,11.69,13.8,9.53.55.36,1.07,1,1.65,1,6.9.75,8.11,7.14,12,12-12.31,0-24,0-35.68,0-2.57,0-2.42-1.93-1.61-3.55a20.74,20.74,0,0,1,2.7-3.56c1.43-1.74,2.4-3.18-.76-4.31-2.5-.9-2.83-2.89-1.69-5.29A41.61,41.61,0,0,1,151,1364.27Z"/><path class="cls-4" d="M312.91,1280.07c3.82-6,3.83-6,10-2.35,8.18,4.85,16.07,10.11,22.49,17.22,4.38,4.86,8.35,10,7.47,17.23-.14.44-.29.88-.44,1.32l-.11.18A205.69,205.69,0,0,1,312.91,1280.07Z"/><path class="cls-5" d="M312.91,1280.07a205.69,205.69,0,0,0,39.4,33.6c-1.11,4.22-4.5,4.85-7.83,4.14-10.39-2.23-19.13-7-24.38-16.88-2.65-5-5.28-10-8.36-14.65C309.88,1283.45,309.79,1281.64,312.91,1280.07Z"/><path class="cls-3" d="M508.66,1216c4.06,0,7.16,1.35,7.86,5.88s-2.07,7-5.52,9.05a3.45,3.45,0,0,1-1.39.51c-5.37.47-10.22,1.35-13.1,7.06-1.32,2.61-5.22,2.49-8.08,3.25a32.13,32.13,0,0,0-7-13.08c-1.94-2.1-1.19-3.42.39-5a8.13,8.13,0,0,1,13.34,2.2c.66,1.32,1.2,2.7,2,4.48C500.61,1224.86,503,1219.08,508.66,1216Z"/><path class="cls-6" d="M415.62,1370.63c5.27-.53,10.66.06,15.79-1.67,7.29-2.45,13.43-6.43,17.43-13.25a15.63,15.63,0,0,1,2.32-2.51c2.35,10.75-1,27.15-6.93,33.76C436.72,1378,425.93,1374.73,415.62,1370.63Z"/><path class="cls-4" d="M117.91,1387.27c-1.21-4.77.27-7.81,5.27-9.22,4.4-1.25,8.63-3,13.89-3.92-1.49,4-2,7.61.39,11C131,1386.44,124.3,1385.35,117.91,1387.27Z"/><path class="cls-5" d="M117.91,1387.27c6.39-1.92,13.1-.83,19.55-2.17-.24,3.2-1.23,7.57-3.45,8.19a22.68,22.68,0,0,1-13.2-.17C118.65,1392.37,117.72,1389.81,117.91,1387.27Z"/><path class="cls-6" d="M369.73,1353.37h3.83c7.48,0,8,.51,8.23,8.19.06,1.63-.45,2-1.91,1.93-3.89-.18-7.76-.21-8.31-5.54C371.43,1356.56,370.51,1355.25,369.73,1353.37Z"/><path class="cls-5" d="M175.76,1360.74c-1.45,5.37-3.47,10.6-3.71,16.25,0,1-.8,1.42-1.74,1.06a3.12,3.12,0,0,1-2-4.39A40.49,40.49,0,0,1,175.76,1360.74Z"/><path class="cls-5" d="M193.61,1346a2.92,2.92,0,0,1-2.61,3.26Z"/><path class="cls-5" d="M196.22,1340.2c.6,1.08.7,2-.58,2.71C195.83,1342,196,1341.1,196.22,1340.2Z"/><path class="cls-5" d="M309.4,1292.85a1.71,1.71,0,0,1-1.2-1.77Z"/><path class="cls-5" d="M195,1344.15a1.81,1.81,0,0,1-1.3,1.75C194.1,1345.32,194.53,1344.74,195,1344.15Z"/><path class="cls-5" d="M191,1349.19a1.93,1.93,0,0,1-1.37,1.66Z"/><path class="cls-5" d="M187.89,1353.09a2,2,0,0,1-1.25,1.76C187.05,1354.26,187.47,1353.68,187.89,1353.09Z"/><path class="cls-5" d="M318.13,1310.19a2.3,2.3,0,0,1-1-2.25A2.38,2.38,0,0,1,318.13,1310.19Z"/><path class="cls-5" d="M195.62,1342.94l-.68,1.24Z"/><path class="cls-6" d="M333.32,1343.16a5.23,5.23,0,0,1,.37.8c0,.08-.2.22-.3.34Z"/><path class="cls-6" d="M177.93,1312.34c.19.4.37.81.56,1.22C178.3,1313.15,178.12,1312.74,177.93,1312.34Z"/><path class="cls-5" d="M189.59,1350.9l-.85,1Z"/><path class="cls-5" d="M188.73,1352l-.86,1.16C188.16,1352.73,188.45,1352.35,188.73,1352Z"/><path class="cls-5" d="M186.58,1354.9c-.25.39-.49.78-.73,1.17C186.09,1355.68,186.33,1355.29,186.58,1354.9Z"/><path class="cls-5" d="M185.86,1356.06l-.82,1.15C185.31,1356.83,185.58,1356.44,185.86,1356.06Z"/><path class="cls-5" d="M352.42,1313.49c.15-.44.3-.88.44-1.32C352.72,1312.61,352.57,1313.05,352.42,1313.49Z"/><path class="cls-5" d="M310.16,1294.16l-.71-1.24Z"/><path class="cls-2" d="M272.93,1329.9c9,2.15,15.35-1.18,18.45-9.27,3.06,4.73,1.92,9.44-3,12.41C282.19,1336.77,276.26,1335.71,272.93,1329.9Z"/><path class="cls-2" d="M232.63,1340.27c2.27,7.34.49,11.06-5.12,13.37-6.2,2.55-11.56.83-14.44-5.1,4,1.37,7.74,2,11.61.64S231.36,1345.6,232.63,1340.27Z"/><path class="cls-2" d="M247.13,1380.56c-3.28-.27-7.15-.23-7.39-3.92-.24-3.89,3.74-4.24,6.66-4.29,3.1-.06,7.28.06,7.37,4.1C253.85,1380.3,249.77,1380.07,247.13,1380.56Z"/><path class="cls-2" d="M259.06,1355c.24.2.72.49.69.59a12.61,12.61,0,0,1-9.61,8.08,9.33,9.33,0,0,1-10-5.29C246.78,1359.05,253,1357.23,259.06,1355Z"/><path class="cls-5" d="M259.06,1355c-6.1,2.2-12.28,4-18.89,3.38C243.39,1350,253.53,1348.22,259.06,1355Z"/><path class="cls-5" d="M284.37,1351.37c-2-.31-5,.27-4.59-2.11.68-4.15,4.65-4.57,8.11-5,1.69-.2,4,.19,3.7,2.22C291,1350.68,287.29,1350.82,284.37,1351.37Z"/><path class="cls-5" d="M219.54,1368.19c-2.51-.14-4.74-.47-4.21-2.92.85-4,4.43-3.88,7.55-4,1.81-.07,4.34.27,3.71,2.69C225.65,1367.6,221.93,1367.49,219.54,1368.19Z"/></g><g id="Layer_3" data-name="Layer 3"><g id="cv_bubble"><g id="cv"><path class="cls-7" d="M1906,67.36a8.42,8.42,0,0,1-6.13,8c-1.4.37-2,0-2.15-1.41-.53-4.47-1-8.95-1.68-13.41-.29-2,.89-2.09,2.27-2C1902.79,58.88,1906,62.58,1906,67.36Z"/><path class="cls-7" d="M1970.69,10.23a8.85,8.85,0,0,1,7.53-5.38,29.2,29.2,0,0,0,5.5-.43,3.63,3.63,0,0,0,3-2.42c1-2.18,3.56-2.42,5.57-1.48,2.25,1.06,4.89,2.32,3.39,5.83-.56,1.3,1.56,1.38,1.4,2.6a40,40,0,0,0-14.74-3.32C1977.83,5.56,1974.11,7.49,1970.69,10.23Z"/></g></g></g></g></svg>