<svg xmlns="http://www.w3.org/2000/svg" viewBox="0 0 2636 1007"><defs><style>.cls-1{fill:#ff9078;}.cls-2{fill:#67a3bf;}.cls-3{fill:#b8c8c9;}.cls-4{fill:#c9d7d7;}.cls-5{fill:#b8c8c8;}.cls-6{fill:#548398;}.cls-7{fill:#ae8765;}.cls-8{fill:#6490a8;}.cls-9{fill:#7cb3d2;}.cls-10{fill:#6b5444;}.cls-11{fill:#c8d7d8;}.cls-12{fill:#9e795a;}.cls-13{fill:#d6a988;}.cls-14{fill:#cd9c75;}.cls-15{fill:#a2b1b1;}.cls-16{fill:#d9b194;}.cls-17{fill:#bd916d;}.cls-18{fill:#634d3d;}.cls-19{fill:#a3847f;}.cls-20{fill:#c1987a;}.cls-21{fill:#b98d6b;}.cls-22{fill:#d5a785;}</style></defs><g id="Layer_2" data-name="Layer 2"><g id="Layer_2-2" data-name="Layer 2"><rect class="cls-1" width="2636" height="1007"/><path class="cls-2" d="M1152.78,902.5c21.66-2.79,43.37-3.56,65-4.77,12.28-.69,24.64.13,37-.24a694.78,694.78,0,0,1,95.59,3.3c28.14,3.05,56.24,7,83.28,16,2,.67,4.48.91,5.36,2.5-47.52-3.36-95.39-6.56-143.22-10.18C1248.15,905.49,1200.43,904.17,1152.78,902.5Z"/><path class="cls-3" d="M1696.56,946.53c-.6-6.63.52-13.19.92-19.77a40.53,40.53,0,0,0-27.14-40.67c-37.36-13.06-75.64-22.86-114.17-31.6q-43-9.74-86.65-16.51c-22.77-3.58-45.59-6.73-68.42-9.91s-45.94-4.69-68.85-7.39c-31.61-3.74-63.35-5.5-95.06-7.35-28.78-1.68-57.65-2.28-86.49-2.45q-42.26-.25-84.51,1.46c-23.19,1-46.38,2.3-69.55,4.33-26.45,2.31-52.76,5.62-79.09,8.79-10.82,1.31-21.55,3.47-32.23,5.65-18.79,3.84-30.72,17.73-32.41,37.16-.57,6.57-1.22,13.14-1.84,19.71-3.49,1.61-6-.56-8.35-2.46-11.09-8.93-16.19-20.71-15.39-34.79.53-9.46,1.39-18.92,2.06-28.38a16.31,16.31,0,0,1,2.37-7.6c2.49-3.3,4.09-7.16,6.59-10.48C846.84,793,858.84,788,872,785.06c42-9.18,84.52-15.09,127.27-19.37,43.78-4.38,87.66-6.62,131.65-7.17,28.68-.35,57.32.5,86,1.11,42,.89,83.69,4.71,125.44,8.11,27.5,2.24,54.89,6.23,82.25,10.18,43.76,6.31,87.14,14.49,130.24,24.2a1085.69,1085.69,0,0,1,118.33,34.21c5.85,2,11.67,4.15,17.47,6.32,16.27,6.11,27.3,17.3,33.35,33.48.54,1.43,1.73,2.3,2.37,3.59,1,2.16.84,4.44.6,6.71a220,220,0,0,1-1.6,23.38c-.06,9.22-3.57,17.28-8.42,24.88a11.1,11.1,0,0,1-1.79,2.3c-3.67,3.25-7.24,6.67-11.73,8.82C1701.26,946.85,1699.06,948.31,1696.56,946.53Z"/><path class="cls-4" d="M836.4,748.64c1.55-21.75,2.94-43.5,4.75-65.22A66,66,0,0,1,849,656.5c3.49-6.26,9.2-10.28,14.74-14.47,1.13-.86,2.58-1.35,2.9-3,5.78-4.56,12.92-5.16,19.71-6.67,3.63-.82,7.31-1.35,10.54-3.38,3.71-1.29,7.61-1.68,11.43-2.45,8.16-1.45,16.35-2.78,24.48-4.43,46.4-7.73,93.15-12.24,140.1-14.9a22.84,22.84,0,0,0,6.1-.78c6.16-.16,12.32-.23,18.47-.28,9.13-.15,18.24-1.42,27.39-.65a347.28,347.28,0,0,1,44.7-.51c7.49-.29,15-1,22.46.29a132.64,132.64,0,0,1,27.67.71,176.11,176.11,0,0,1,25.37.18q54.69,4,109.39,7.76a88.94,88.94,0,0,1,17.71,2.81c9.29.34,18.58.63,27.6,3.25,11.2-.22,22,3,33.1,3.73,15.79,2.64,31.64,5,47.49,7.26,5.9,1.27,11.8,2.57,17.78,3.46,4.72,1.76,9.8,1.6,14.64,2.69,18.74,3.82,37.44,7.81,56.07,12.15,32.09,7.48,63.86,16.1,95.09,26.66,4.09,1.2,8,3,12.18,3.91a128.51,128.51,0,0,1,12.35,5.06c6,4,13.47,4.67,19.55,8.5,18,10,27,25.86,29.39,45.9a223.06,223.06,0,0,1-1.65,23.4,207,207,0,0,1-1.72,24.51A213,213,0,0,1,1732.3,812a215.42,215.42,0,0,1-1.75,24.73,216.82,216.82,0,0,1-1.75,24.82c-.68,6.24,1.33,13-3.45,18.47-4.87-1.05-3.78-6-5.29-9-8.29-16-22.14-24.44-38.41-29.83-18.93-6.27-37.85-12.59-56.92-18.41q-42.4-12.93-85.82-22c-21.28-4.41-42.46-9.45-63.9-12.88-16.82-2.69-33.59-5.72-50.53-7.83-23.67-2.94-47.32-6-71-8.84-27.49-3.33-55.11-4.24-82.63-6.74-11.31-1-22.64-2-34-2.36-27.54-.91-55.1-1.86-82.65-2-22.56-.14-45.15.4-67.69,1.44-23.14,1.07-46.22,3.21-69.35,4.7-31.17,2-62,6.52-92.89,11-18.29,2.69-36.55,5.92-54.52,10.2-14.2,3.39-27,10-33.7,24.44-.65,1.41-2.18,2.41-3.3,3.6-1.87-3.13-.56-6.43-.38-9.62.64-10.85,1.5-21.69,2.27-32.54A52.43,52.43,0,0,1,836.4,748.64Z"/><path class="cls-2" d="M1078.81,608.16c-11.92,2.6-24.12,2.19-36.17,3.09-34.93,2.64-69.65,6.77-104.29,11.87-2,.3-4.08.36-6.12.53-2-1.27-2.74-3.47-4.16-5.17-3.12-3.73-6.84-6.16-11.85-6.58-2.52-.21-5.45-.2-6.34-3.57,1.23-20.47,2.54-40.92,4.41-61.31,1.6-3.19,4.55-3,7.47-3,10.51-.22,17.21-6.21,17.74-15.79.51-9.18-6-16.8-15.68-18.45-2.45-.41-5.64.7-6.75-2.91q1.75-30.76,4.34-61.45c1.7-3.57,5.19-2.78,8.11-3.17,8-1.09,14.13-4.58,16.55-12.78,2.95-10-3-19.37-13.23-21.25-3.12-.58-6.83.05-8.49-3.82,1.09-20.58,2.64-41.11,4.3-61.62,1.56-3.84,5.1-2.69,8-3,13.3-1.5,20.13-11.14,16.14-23.2-2.12-6.4-6.77-10-13.42-11.13-2.89-.48-6.4.14-7.75-3.69,1.13-20.58,2.64-41.13,4.33-61.65,1.26-3.32,4.21-2.74,6.8-2.83,11.51-.41,17.86-6,18.55-16.37.58-8.89-6.2-16.42-16.44-18.3-2.37-.44-5.06-.42-6-3.45,1.15-20.52,2.53-41,4.37-61.44,1.58-3.18,4.5-3,7.42-3,10.75-.07,17.3-6.21,17.93-16.77.54-8.83-6.36-16.19-16.36-17.38-2-.24-4.18.15-5.55-1.88-1.52-6.54.64-13,.41-18.29.95,5.83-3.41,13,.82,19.94.71,12.07,1.23,24.12-3.36,35.68-2.09,1.92-1.73,4.55-1.87,7-1.23,20.82-3.35,41.57-4,62.44-.4,13.4-2,26.75-3.22,40.11-2.6,28.59-3.3,57.32-5.73,85.91-1.91,22.64-3.5,45.29-5.2,67.94-.19,2.56-1.25,5.39,1.21,7.59,1.45,2.21,1.44,4.72,1.14,7.15-1.17,9.5.21,19.31-3.4,28.52-2.31,1.38-2.3,3.71-2.47,6q-1.95,27.5-3.88,55c-.16,2.24-.61,4.58,1.52,6.29,1.36,11.92,1.19,23.72-2.8,35.22-1.74,1.22-1.87,3.09-2,5q-2,28.39-4,56.79a6.4,6.4,0,0,0,.8,4.17c.91,6,1.56,11.91-2.31,17.25-3.68,1-7.32,2.21-11.23,1.57-2-1.93-1.9-4.47-1.75-6.9.38-6.34.51-12.7,1.56-19a213.73,213.73,0,0,1,1.75-24.78,215.43,215.43,0,0,1,1.75-24.74,213.2,213.2,0,0,1,1.75-24.74,213,213,0,0,1,1.75-24.73,213.2,213.2,0,0,1,1.75-24.74,213,213,0,0,1,1.75-24.73,213.2,213.2,0,0,1,1.75-24.74A213.2,213.2,0,0,1,910.92,406a213.19,213.19,0,0,1,1.75-24.73,213.2,213.2,0,0,1,1.75-24.74,213,213,0,0,1,1.75-24.73A213.2,213.2,0,0,1,917.92,307a213,213,0,0,1,1.75-24.73,213.2,213.2,0,0,1,1.75-24.74,210.85,210.85,0,0,1,1.75-24.73,211,211,0,0,1,1.75-24.74,211,211,0,0,1,1.75-24.74,211,211,0,0,1,1.75-24.73,210.7,210.7,0,0,1,1.75-24.73,208.38,208.38,0,0,1,1.75-24.71,211.14,211.14,0,0,1,1.74-24.62c-.09-5.57.54-11.09,1-16.63.24-3.16,1-6.1,3.7-8.15,4.67-7,10.9-11.33,19.64-11.2l24.79,1.74,24.67,1.75,24.78,1.75,24.68,1.74,24.78,1.76L1106.36,59l24.78,1.75,24.68,1.75,24.78,1.75L1205.27,66l24.79,1.75,24.67,1.75,24.78,1.75L1304.19,73,1329,74.79l24.68,1.74,24.78,1.76L1403.11,80l24.78,1.75,24.67,1.75,24.79,1.75L1502,87l24.78,1.75,24.68,1.75,24.78,1.75L1600.94,94l24.78,1.76,24.68,1.74,24.78,1.75,24.67,1.75c8.83.57,17.67,1.06,24.22,8.28-.73,2.92,2.45,4.63,2.28,7.38,3.17,1.65,3.82,4.56,3.71,7.75a149.72,149.72,0,0,1-1.26,16.39,210.92,210.92,0,0,1-1.72,24.48,212.16,212.16,0,0,1-1.74,24.68,212.88,212.88,0,0,1-1.75,24.73,213.2,213.2,0,0,1-1.75,24.74,210.85,210.85,0,0,1-1.75,24.73,211,211,0,0,1-1.75,24.74,211,211,0,0,1-1.75,24.74,211,211,0,0,1-1.75,24.73,211,211,0,0,1-1.75,24.74,210.85,210.85,0,0,1-1.75,24.73,211,211,0,0,1-1.75,24.74,210.85,210.85,0,0,1-1.75,24.73,213.19,213.19,0,0,1-1.74,24.74,212.88,212.88,0,0,1-1.75,24.73,213.2,213.2,0,0,1-1.75,24.74,213.2,213.2,0,0,1-1.75,24.74A213.19,213.19,0,0,1,1699.1,561a213.2,213.2,0,0,1-1.75,24.74,213.19,213.19,0,0,1-1.75,24.73,212.69,212.69,0,0,1-1.75,24.71,210.13,210.13,0,0,1-1.75,24.56c-.44,8.11-.12,16.29-2.3,24.24a4,4,0,0,1-1.62,1.67c-4.5,0-8.12-2.64-12.09-4.21-1.76-2.34-1.13-5-1.11-7.63,0-1.36.68-3.18-.84-3.89-1.79-.84-2.94.88-4,2-1.9,2.09-3.54,4.44-6.14,5.79-17.51-5.29-34.9-11-52.57-15.76q-38.1-10.17-76.73-18.2c-7.36-1.54-15-2.22-22-5.2-.07-2.46,1.87-3.21,3.6-3.52,11-1.93,21.69-4.84,32.68-6.56a6.13,6.13,0,0,1,2.43.32c3.12,1.14,4.51,4.09,6.55,6.35,9.36,10.42,23.3,8.3,29-4.46.92-2.06,1.43-4.36,3.92-5.24a159.28,159.28,0,0,1,36.68,2.52c2.6,1.27,2.62,4,3.45,6.23,2.53,6.95,7.54,11.5,14.68,12.8,6.6,1.2,12.08-1.67,16.15-7,4.54-6,5-12.85,1-19.06-4.24-6.58-10.5-8.93-18.13-7.93-2.57.33-5.18,1.89-7.66-.29-3-6.65-3.09-13.9-4.39-20.9-.74-4-.47-8.2-2.51-11.92-.86-5-1.22-10.09-1.89-15.12,1.38-9.17,2.77-18.34,8.94-25.84,3.53-1.29,5.8,1.34,8.38,2.83,9.18,5.31,18,3.64,24-4.62,5.23-7.28,3.7-16.81-3.65-23.27-3.69-3.24-8.07-3.8-12.71-3.65-2.78.09-5.87,1.09-7.82-2.07-1.21-5.14,1.45-9.68,2.28-14.5,2.54-14.62,6-29.07,8.29-43.74a10.53,10.53,0,0,1,2.36-5.62c1.57-1.61,3.65-1.66,5.7-1.94,7.86-1.09,14.6-7.25,15.8-14.37,1.34-7.9-2.26-14.27-10.35-18.46-2.51-1.29-5.59-1.78-7-4.71-2-10-.56-20-.82-30.07-.29-11.47-1.78-22.87-1.81-34.34,2.49-3.32,5.7-1.11,8.54-.92,7.85.51,13.39-2.2,16.85-8.87s2.62-12.95-1.91-18.5c-5.35-6.53-12.67-6.94-20.32-5.2-2.56.59-5,2.11-7.71.43a62.62,62.62,0,0,1-6.83-25.45c.74-2.58,2.3-4.81,3.11-7.38,2.23-7.08,0-14.42-6-19.42-1.73-1.45-4-2.18-5.46-4-2.65-8.89-4.68-17.9-4.85-27.24,5.08-13.79,11.9-26.83,17.48-40.41,1.87-4.2,3.27-8.61,5.77-12.52,3.21-8.48-.75-16.1-10.38-19.9-3.28-.87-6.55-.37-9.81.09-15.66,2.25-31.4,3.89-47.07,6-2.82.39-5.72,1.21-8.27-.92-2.19-2.43-3.23-5.67-5.89-7.84-7.7-6.25-13.9-6.11-24.61.83-2.51.65-4.93.12-7.35-.48-35.5-8.78-71.48-15.16-107.48-21.37-17.07-3-34.28-5-51.42-7.58a15.71,15.71,0,0,1-5.93-1.63c-2.8-4,1.35-4.3,3.21-5.52,5.12-3.37,9.7-7,10.24-13.77.32-4-.89-6.3-5.22-6.58-6.79-.43-13.56-1.14-20.36-1.36-6.48-.2-8.51,2.33-7.46,8.79.59,3.6,2.85,6.33,4.78,9.25,1.29,2,3.67,3.7,1.61,6.52a6.26,6.26,0,0,1-4.06,1c-5.63-.53-11.32-.2-16.94-1a13.09,13.09,0,0,1-6.75-2.4c-4.12-7.39-1.22-14.24,1.49-21a165.6,165.6,0,0,0-23.34,18c-1.88,1.79-4,4.46-6.86,2.34s-2-5.08-.38-7.78a13.53,13.53,0,0,0,5.51-5.63c4.16-8.21,2.25-11.75-6.88-12.44-6.17-.47-12.33-1-18.51-1.27-5.7-.24-7.46,1.75-6.67,7.42a20.75,20.75,0,0,0,7.3,13.24c1.81,1.57,4.19,3.27,1.13,5.9-6.39,1.53-12.68.12-19-.59a18.13,18.13,0,0,0-5.2-.36c-43.55.12-87.1.24-130.55,3.67-7,.55-13.9,2.14-21,1.26-11.36-6.49-15.94-6-27.16,3a44.46,44.46,0,0,1-26.12.33c-13.48-3.72-26.76-8.19-40.37-11.45-9.75-2.34-9.73-2.16-8.91,7.65.42,5,2.78,10.07.22,15.15-3.25,3-6.69.8-9.89.08-4.31-1-5.84-.14-4.5,4.42,1.55,5.33,2.52,10.82,4.1,16.15.75,2.5,1.85,5.11.33,7.77-3.43,2.2-5.81-.58-8.43-1.88-8.5-4.24-16-3.27-22,3s-6.8,16.17-.69,22.39c7.26,7.38,15,9.06,23.18,3a20.75,20.75,0,0,0,6.64-8c.83-1.81,1.27-4.09,4-4.12,5.48,3,4.56,8.59,5.46,13.44-2.9,13.29-7.3,26.15-11.67,39-.9,1.62-2.55,2.92-2.16,5.11a5.86,5.86,0,0,1-.59,2.33c-1.4,1.51-1.46,3.34-1.2,5.24a5.71,5.71,0,0,1-.71,2.52c-2.36,3.2-2.71,7.26-4.55,10.67-1.06,2-1.79,4.19-4.1,5.16-2.26.81-4.47-.05-6.71-.16-7.42-.37-15.29,4.58-17.7,11.08a18,18,0,0,0,6.1,20.39c1.94,1.49,4.32,2.53,5.12,5.16.55,7.21-2.93,13.56-4.5,20.3-3.5,15-6.55,30-8,45.37a10.8,10.8,0,0,1-1,3.88c-8,9.62-8.36,14.22-2,26.17a7.43,7.43,0,0,1,.5,2c.58,21,.15,42,3,62.88a11.72,11.72,0,0,1-.25,4.29A6.42,6.42,0,0,1,961,460c-1.08,1.6-2.85,2.28-4.43,3.23-7.56,4.52-10.39,10.1-9.1,17.9,1.34,8.08,6.21,13,14.54,14.74,1.61.33,3.28.41,4.76,1.26a3.87,3.87,0,0,1,1.37,1.47c2.35,8,3,15.93.76,24.17-2.91,10.67-6,21.28-8.27,32.12a14.32,14.32,0,0,1-2.89,6.7c-1.93,2-4.73,2.31-7.14,3.41-6.88,3.15-11.1,9.34-10.76,15.81.44,8.06,4.29,13.59,11.23,16.1,7.71,2.79,13.94,1.22,19.47-4.86,1.37-1.51,2.35-3.38,4.13-4.55a5.82,5.82,0,0,1,2-.49c12.63-.57,25.14.79,37.63,2.24a6.13,6.13,0,0,1,1.84.74,4.34,4.34,0,0,1,1.26,1.3c8.21,14.68,17.3,16.5,31.18,6.19a6.82,6.82,0,0,1,2.93-.44c8,1.66,15.43,4.9,23.3,6.85C1076.68,604.38,1079.37,605,1078.81,608.16Z"/><path class="cls-5" d="M1610.23,779.54c-235.35-63.81-472.43-77.48-712.58-45.63,7.53-2.45,15-5.21,22.6-7.31,21.93-6,44-11.72,66.14-16.83a775.74,775.74,0,0,1,87.47-14.7c24.62-2.77,49.3-5.46,74.24-5.46,20.31,0,40.61-.83,61-.63,29.57.27,58.94,3,88.31,5.55,22.88,2,45.67,5.65,68.3,9.71q36.28,6.51,72.16,15.37c21.53,5.31,42.82,11.38,64,17.69a755.27,755.27,0,0,1,72.5,26q15.32,6.32,30.73,12.4A9.73,9.73,0,0,1,1610.23,779.54Z"/><path class="cls-6" d="M1078.81,608.16c-4.8-4.41-11.52-3.42-17-6.06-3.44-1.65-7.32-2.42-11-3.59-2.22-3.43.08-6.82.18-10.22.23-8.07-3.65-14.56-11-17.7-6-2.53-13.58-.66-18.74,4.58-2.89,2.93-4.08,6.61-4.61,10.58-.24,1.78.32,3.78-1.33,5.21l-39.54-2.72c-1.32-1.49-1.34-3.32-1.43-5.17-.49-11.19-3.06-14.72-13.4-18.56a12.33,12.33,0,0,1-3.87-1.76l-.54-.76c4-15.19,8-30.36,11.85-45.57,1.56-6.16-2-12.08-1.24-18.25-.12-2.6,2.21-2.58,3.7-3.37,8.41-4.45,12-10.94,10.7-19.44-1.06-6.88-7.55-12.65-15.88-14-2-.34-4.11-.44-5.47-2.3-.4-12.85-2.61-25.55-2.67-38.45-.06-10.41-.24-20.81.13-31.21,7.41,3.9,15.86,3.06,23.66,5.22,2.82,6.24,1.82,13,2.38,19.5,2,22.85,4.94,45.5,12.15,67.4a23.08,23.08,0,0,1,.24,13.4c-3.82,14.56-8.1,29-12,43.53-2.54,9.5-2.36,9.88,7.63,8.55,15.33-2,30.65-4.11,46-6a32.21,32.21,0,0,1,21.85,4.82c9.44,10.63,16,12,27.9,5.6,2.49-.63,4.93-.15,7.35.39,32.83,7.35,65.88,13.61,99,19.5,6.89,1.22,13.84,2.3,20.79,3.18,2.65.34,5.41.38,7.4,2.61,1.44,10.32,1.88,20.56-2.77,30.32l-27.12-.69c-.26-4.59,3.32-3.09,5.51-3.26,6-.45,7-1.41,6.71-7.45-.37-8.62-7-15-16.11-15.58-8.5-.53-15.51,5.31-17.09,13.68-.79,4.17,1.37,8.69-1.61,12.53l-44.64.55c-2.17-2.93.42-5,1.37-7.32,3.26-7.9,1.44-15.79-5-21.3-5.53-4.72-13.42-4.93-20.12-.53-6.87,4.51-9.16,14.8-5.08,22.63,1.17,2.25,3.57,4.33,1.33,7.23A89.77,89.77,0,0,1,1078.81,608.16Z"/><path class="cls-7" d="M1219.2,607.34l2-30.12c-2.68-4.2-1.33-8.78-1.1-13.2a97.58,97.58,0,0,1,1.27-14.07c.5-8.79.12-17.68,2.52-26.28,3.14-3.93,5.64-1,8.37.73,13.07,8.53,24.69,19.36,39.21,25.58,21.48,9.2,43.4,10.44,65.57,2.41,11.64-4.22,22.2-10.82,33.62-15.52,2.77-1.14,5.89-3.91,8.78.06,1.42,8.05-.21,16-.9,23.93a249.66,249.66,0,0,1-1.9,27c0,8.13-.87,16.21-1.54,24.3-.18,2.22-.52,4.48-2.59,5.93-16.18-1.41-32.35-3-48.55-4.18-29.77-2.16-59.57-4-89.35-6.11C1229.44,607.49,1224.28,608.71,1219.2,607.34Z"/><path class="cls-6" d="M1372.47,618.14l2.25-29.92c1.64-2,3.94-2,6.23-2,44.14.49,88.19-1.4,132.17-5.24a30.73,30.73,0,0,1,8.62,0c4,2.21,6.89,6.1,12.13,6.37,7.74.4,14.15-1.12,17.55-8.95,3.19-2.72,6.64-1.43,10-.49,15.42,4.38,30.87,8.66,46.32,12.94,3,.83,5.92,1.79,9.06,1.5,8.19-.31,11-6.86,14.47-12.56,2.15,1.16,2.06,3.27,2.36,5.29,1.36,9.22,2.78,18.42,4.18,27.63a3.28,3.28,0,0,1,.22,3.51c-4.72,3-6.79,7.65-8.3,12.71l-.7.53-39.64-2.8c-.21-.22-.42-.45-.64-.66-1-5.86-2-11.55-7.59-15.35-10.87-7.36-24.59-1.77-26.75,11.17-.34,2-.28,4.09-.86,6.08a4.81,4.81,0,0,1-1.67,2.25,248.73,248.73,0,0,0-39.11,8.39,46.65,46.65,0,0,1-14.64-2.37c-.17-1.69,1.17-1.94,2.3-2.34,8-2.92,12.44-9.84,11.08-17.45a17.62,17.62,0,0,0-18.06-14.53,16.85,16.85,0,0,0-15.79,14.74c-.55,4.41-.24,8.63,2.38,12.46.78,1.14,1.79,2.36.89,3.94-16.07-2.06-32.11-4.36-48-7.49-.85-2.43.79-4.34,1.4-6.45,2.87-10.07-2.7-20.42-12-22.19-11.25-2.13-20,4.33-21.42,15.55-.37,3,.93,6.21-1.33,8.89Z"/><path class="cls-5" d="M1640.6,735.47c-189.59-56.09-382.53-83.73-580.08-78.76,9.43-1.1,18.85-2.41,28.31-3.25,15.52-1.36,31.06-2.84,46.62-3.48,12.71-.51,25.35-2,38.11-1.92,16.82.15,33.64-.82,50.46-1,10.28-.1,20.6.42,30.85.9,28.46,1.32,57,3,85.28,6,21.2,2.28,42.43,4.7,63.45,8.81,16.09,3.15,32.38,5.5,48.43,8.91,15,3.21,29.88,7.35,44.83,11,14.15,3.46,28.05,7.79,41.91,12.23,25.33,8.12,50.41,16.92,74.55,28.22C1622.35,727.44,1631.5,731.39,1640.6,735.47Z"/><path class="cls-8" d="M1480.89,633c-5.78-6.69-7.27-16.24-3.54-22.71,4.88-8.48,13.16-12,23-9.83,5.58,1.24,12,9.37,13.07,16.45.83,5.66-3.42,15.13-7.69,17.79-2.44,1.51-5.41-.56-7.64,1.48C1492.2,636,1486.54,634.52,1480.89,633Z"/><path class="cls-8" d="M1097.35,607.83c-.5-1.54-.72-3.26-1.57-4.6-4.17-6.6-4.91-17.17-.73-22.4,5.27-6.59,12.57-9.79,20.74-7.37,11.59,3.44,17.74,15.85,11.62,28.25-.88,1.79-2.8,3.08-2.56,5.41Z"/><path class="cls-8" d="M1399.52,621.35c-2.25-11.93.26-19.39,10-24.72a18.21,18.21,0,0,1,26.75,11.59c1.52,6.09,1.28,12.25-3.37,17.33Z"/><path class="cls-8" d="M1169.49,606.57c-.11-3.66-.68-7.26-.52-11,.37-8.27,4.74-13.4,12-16.17s14.3-1,20,4.19,6.12,12.08,4.86,19.26c-.51,2.95-2.63,2.39-4.67,2.61-3,.33-6.46-2.33-9.06,1.18Z"/><path class="cls-9" d="M910.88,609.79c7.77-.3,14.72,1.19,19.45,8.23,1.2,1.79,2.34,3.38,1.9,5.63-7.75,2.62-15.86,3.37-23.89,4.55l1.26-17.27A2,2,0,0,1,910.88,609.79Z"/><path class="cls-9" d="M1664,677.75a25.06,25.06,0,0,1,7.44-9.43c1.23-.93,2.6-2.37,4.36-1.57,2,.88,1.2,2.81,1.11,4.35-.2,3.45-.55,6.9-.84,10.35C1671.75,681.24,1668,679.2,1664,677.75Z"/><path class="cls-10" d="M1311.05,104.88a22.68,22.68,0,0,0-.51,3c-.06,1.36-.92,3,.64,4,2,1.2,2.87-.79,4-1.9,7.21-7.41,15.52-13.44,24.19-19a45.94,45.94,0,0,1,4.81-2.2c-3.67,8.12-6.75,15.49-4.19,23.66,2.09,3,.87,8.27,4.5,9.51,3.18,1.1,6-2.76,9-4.29,3.38-1.69,7.09-1.65,10.53-2.83l3.15,0a2.08,2.08,0,0,1,2,1.56c0,9.13,0,9.16,9,12.56A121.11,121.11,0,0,1,1410,146.68c18.86,14.6,34.44,32,45.74,53.12,5.18,9.68,9,19.93,12.5,30.33,3.49,10.78,8.15,21.08,12.64,31.46.76,1.66,1.69,3.22,2.53,4.84,4.71,9,12.31,15.38,19.76,21.92,1.72,1.52,5.13,2.79,3.66,5.53-1.25,2.33-4.46,1.39-6.87.83a55.48,55.48,0,0,1-11.63-3.91c2.17,4.64,5.42,7.69,8.55,10.85,1.29,1.3,2.8,2.87,2,4.85s-3,1.92-4.83,1.91c-5,0-9.9-.46-14.82-.92-4.27-.39-6,1.41-6.23,5.55q-.73,12.66-1.79,25.32c-.24,2.81.06,5.87-2.46,8-3.89,1.08-6.57-1.85-9.78-3-5.51-2-7-1.29-8.19,4.43-2,9.9-4.07,19.79-6.12,29.68-.61,3-.43,6.85-4.86,7.52-2.86-6.5-1.31-13.41-1.45-20.08A312.48,312.48,0,0,0,1427.05,288a14.43,14.43,0,0,0-1.51-3.38,7.53,7.53,0,0,1-.76-1.83,19,19,0,0,1-.44-2.8c-1.3-6.05-3.75-11.65-6.87-18.18a80.34,80.34,0,0,1-9.17,19.92,27.88,27.88,0,0,1-3.12,4.59c-1.77,1.85-3.35,5.32-6.29,3.81-3.2-1.65-.92-4.71-.07-7.1,1.71-4.83,3.65-9.57,4.76-13.1-3.74,7.94-9.88,15.92-16.67,23.37-3.35,3.68-5.18,3.18-7.19-1.36s-3.28-9.32-5.45-13.8c-2.06-4.22-4.11-4.91-8-1.87A97.89,97.89,0,0,1,1339.24,291c-2.24.82-4.79,2.58-6.9.4-1.87-1.93-.36-4.36.52-6.38,5-11.39,7.9-23.42,11.42-36.23a580.15,580.15,0,0,1-51.23,50.5c-7.43,4.47-13.43,10.72-20.14,16.1-9.79,6.09-18.79,13.35-28.73,19.21a28.81,28.81,0,0,0-4.41,3.33c-3.1,1.82-6.44,3.18-9.51,5.09-1.85,1.16-3.89,2.2-6.15.81-2-1.64,2-4.82-1.28-5.87-4.08-1.3-8.27-2.73-12.62-.55-8.49,4.25-17,8.38-25.85,11.93-5.76,2.23-11.39,4.78-17.16,7-2,.76-4.54,2.24-6.13-.27-1.34-2.12.71-3.8,2-5.34,6.5-7.71,12.61-15.72,18.93-24.67-10.51,3.05-20.27,6.27-30.62,6.59a62.15,62.15,0,0,1-11.08-.92c-4.19-.88-5.41-3.25-2.78-6.64,7.44-9.58,14-19.89,22.52-28.58a1.84,1.84,0,0,1,1.38-.28c-.7-1.1-1,.47-1.51.26-14,5.62-27.77,4.66-41.43-1-2.28-.94-5-2.13-4.86-5,.11-2.59,2.92-3.2,4.93-4.13,4.49-2.07,8.88-4.25,13-8.49-5-1.21-9.44-2.6-13.17-5.49-1.44-1.12-3.42-2.24-3.06-4.29.4-2.24,2.8-2.28,4.53-2.38,15.06-.89,24.27-10,31.29-22.16a21.59,21.59,0,0,0,1.77-4.17c4.14-10.36,9.3-20.25,13.85-30.42,4.53-6.65,8.2-13.86,13-20.33,2.59-3.47,1.65-5.56-2.36-6.76a67.35,67.35,0,0,0-12.73-2.52c-1.79-.19-4.17-.35-4.38-2.61-.15-1.74,1.84-2.6,3.28-3.36,13.31-7.06,27-13.37,40.39-20.3,10.62-5.5,21.46-10.59,32-16.24,15.63-8.08,32.07-13.57,49.68-15.18a9.46,9.46,0,0,0,7.77-5.23c1.23-2.13,2.88-4,4.32-6,2.6-3.37,4.57-7.29,8.18-9.79,1.49-1,3.35-2.11,5-.69S1312.36,103.23,1311.05,104.88Z"/><path class="cls-11" d="M1299.22,111.32c-2.1,3.05-4.18,6.11-6.3,9.15-.93,1.33-1.74,2.62-3.77,2.74-18.64,1.09-35.86,7.2-52.57,15-9.44,2.78-19.26,2.05-28.89,2.92-26.57,2.41-52.79,6.86-79,11.82-9.53,1.8-19.11,3.38-28.61,5.34a36,36,0,0,1-20-1.59c-7.57-2.73-15.41-4.65-23.06-7.18-1.87-.62-3.78-1.75-6.32-.69,1.4,7.28,4.43,14.07,7.14,20.89,2.18,5.5,2,10.3-1.16,15.26-11.8,18.54-21,38.44-28.7,58.9-8.55,22.62-15.09,45.85-17.2,70.14-2.13,24.51-3.06,49-1.13,73.58,2.1,26.72,7.32,52.76,19.17,77.06,2.51,5.15,3.12,10.13,1.36,15.53-2,6.08-3.42,12.33-5.12,18.49s-1.45,6.34,5,5.67a85.37,85.37,0,0,0,9.2-1.19c10.54-2.29,20.52-.28,30.29,3.57,17.31,6.84,35.4,11.13,53.16,16.52,20.92,6.35,42.22,11.36,63.29,17.19,8.75,2.42,17.79,3.63,26.68,5.49,3.56.75,7.48.77,10.17,3.89q-.83,13.68-1.66,27.36c-24.6-2.62-48.8-7.67-73.07-12.22-20.62-3.87-41.15-8.25-61.71-12.41a60.62,60.62,0,0,1-26.93-5.65c-11.92-6.52-24.36-3.77-36.75-2.13s-25,2.89-37.36,4.91c-6.09,1-6.19-1.39-4.92-5.93,4.67-16.65,9.18-33.35,13.92-50a18.09,18.09,0,0,0-.21-11.45c-8.51-24.59-11.22-50.18-13-75.93-.26-3.91-.45-7.82-.68-11.73-4.1-10-1.87-20.45-2.15-30.73-.05-1.81.64-3.61.49-5.46a30.6,30.6,0,0,1-.77-9.82c1.06-15.24,2.18-30.47,3.21-45.71a51,51,0,0,1,2.3-10.85c1.81-17.7,4.87-35.13,11.53-51.75.13-.85.26-1.71.4-2.56.27-1.63.09-3.39,1.33-4.75l.49-2.58a5,5,0,0,1,1.24-3.51q5.91-19.9,11.83-39.82c4.71-13.36,7-26.85,3.64-41-1.15-4.88-2.51-10.07-.85-15.25.5-7-1.53-13.85-2-20.8-.46-6.35.14-6.87,6.15-5.59,16.7,3.56,32.8,9.23,49.24,13.7,8,2.16,15.5.1,23.22-.76a43.51,43.51,0,0,1,25.22-3.15c18.62-1.25,37.24-2.63,55.88-3.69,13.11-.75,26.24-1.38,39.36-1.5,19.72-.18,39.45.13,59.17.22a1.69,1.69,0,0,1,2.41.12l20.9,1C1295,109.39,1297.28,109.21,1299.22,111.32Z"/><path class="cls-11" d="M1409.16,148c-11.91-8.06-24.09-15.4-38.1-19.6-6.13-1.84-4.26-7.35-2.37-11.89,3.72-2.73,7.3-2.36,10.76.52,32.41,4.35,64.77,8.93,96.87,15.31,23.79,4.73,47.7,8.78,71.15,15.1,2,.53,4.1.34,6.15.48a63.62,63.62,0,0,1,29.34,7.19c7.21,2,14.08-.91,21.08-1.6,13.09-1.28,26.09-3.38,39.15-5,2.17-.27,4.57-.72,6.37,1.29,2.06,3.94-.32,7.41-1.19,11-.81,3.32-1.77,6.6-2.69,9.89-1.39,4.8-2.72,9.61-3.76,14.51-2.37,6.73-3.94,13.7-6,20.54a20.84,20.84,0,0,0,.22,11.43,13.92,13.92,0,0,1,.15,6.67q2.37,13.65,4.73,27.31c4.32,6,3.45,13.3,4.91,20,.71,13.18,2.92,26.21,3.28,39.42.73,27,1.76,54-1.49,80.83A626.78,626.78,0,0,1,1635,461.17c-3.24,9.07-5.5,18.44-8.14,27.69-4.68,13-8.44,26.33-13.8,39.09-1.26,3-.71,6.07-.3,9.15.93,6.95,1.41,14,2.83,20.86.78,9.45,2.08,18.84,3.45,28.23.39,2.65,1,5.32-.73,7.78-2.33,2-4.67.6-7,0-17.49-4.82-35-9.62-52.45-14.54-2.47-.7-4.77-1.32-7.15,0a56.15,56.15,0,0,1-28.89,3.13c-29.58,2.2-59.14,4.62-88.79,5.33-19.78.48-39.57,1.37-59.36.33l2.07-27.54c2.16-2.37,5-2.57,8-2.67,38.27-1.19,76.08-6.41,113.59-13.68a384.55,384.55,0,0,0,41.51-10,29.23,29.23,0,0,1,18.21-.25c5.31,1.68,10.86,2.56,16.15,4.32,3.73,1.23,4.91-.07,4.49-3.8-.74-6.56-1.33-13.15-2.3-19.69a20.79,20.79,0,0,1,2.93-14.23,282.83,282.83,0,0,0,37.84-108,333.89,333.89,0,0,0,0-88.31,408.48,408.48,0,0,0-13-64.27c-1.82-6.16-4.43-12-6.51-18.06a22.7,22.7,0,0,1,0-15.73,89.29,89.29,0,0,0,4.78-17.29c.47-3.23-.35-4.77-3.81-4.33-3.08.39-6.23.31-9.23,1-9.56,2.33-18.73.95-28-1.74A1296.55,1296.55,0,0,0,1427,152.71C1420.85,151.63,1414.71,151,1409.16,148Z"/><path class="cls-6" d="M1632.86,461.9c5.56-26.21,11.58-52.37,13.4-79.19,2.21-32.52,2.77-65-1.4-97.5-.65-5.07-.55-10.24-.79-15.36,3.63.2,3.26,3.43,4.23,5.63.9,2,.6,4.34,1.45,6.39.73,8.68,4.38,16.68,5.94,25.16a5,5,0,0,1,.65,4.55c-6,12.48-5.32,16.67,4.54,26.3a1.6,1.6,0,0,1-.18,1.69c3.75,21.91,3,44,2.72,66.09a1.28,1.28,0,0,1-.09,1.61c-3.2,1.84-7.13,1.14-10.34,3.46-10.49,7.6-10.44,21.6.29,28.87,1.86,1.27,4,2.1,5.68,3.62.15.26.29.52.43.78-2.53,12.82-5,25.65-7.62,38.45-1.79,8.8-3.76,17.57-5.65,26.35a6.33,6.33,0,0,1-1,5.32c-7.15,4.68-7.95,11.21-5.4,18.71.27,2.41,0,4.68-1.83,6.48a90.35,90.35,0,0,0-8,25.61c-.7.49-1.59.82-2.24.29-4.12-3.32-9.14-5-13.65-7.57-2.44-8.31-2.12-17-3.83-25.45a5.93,5.93,0,0,1,.49-3q7.28-20.25,14.64-40.47c8.31-.65,14.11-9.11,12.1-17.54A28.83,28.83,0,0,0,1632.86,461.9Z"/><path class="cls-9" d="M1006.44,174c-3.34,8-8,14.24-17.07,16.86-6,1.74-17.71-4.9-20-9.55-4.08-8.2-3-17.48,2.95-22.64,8.22-7.2,17.16-8.18,26.25-2,1.56,1.06,3,2.22,4.92,2.28C1007.51,163.37,1008.86,168.31,1006.44,174Z"/><path class="cls-9" d="M1678.34,201.63c9-1.12,19.37,11.92,18.13,20.26-1.61,10.79-10.56,19-21.11,18.06-8.45-.78-18.52-9.19-17.44-21C1658.93,208,1667.2,200.77,1678.34,201.63Z"/><path class="cls-6" d="M985,291.92c-2.71,22.19-4.08,44.47-4.73,66.8-.19,1.19-.48,3.14-1.93,2.26-5.17-3.17-10.17-2.07-15.34-.29a3,3,0,0,1-3.32-1.07c1.23-23.12,7.66-45.2,13.46-67.41l.67-.51C977.47,292.43,981.25,290.18,985,291.92Z"/><path class="cls-9" d="M1637.87,539.31c.19-2.46.37-4.91.56-7.37a31.21,31.21,0,0,1,6-18.31c.51-1.64,0-3.62,1.74-4.83,2.29.47,4.47-.26,6.7-.5,9.14-1,16.85,3.63,20.23,11.89,3.31,8.1,1.44,15.67-5.35,21.65-7,6.21-14.2,6.81-22.51,1.87C1642.74,542.26,1640.31,540.78,1637.87,539.31Z"/><path class="cls-9" d="M1637.48,616.39c.1-1.21.19-2.42.29-3.63,4.54-.85,8.87-2.58,13.76-1.69a20.34,20.34,0,0,1,15.85,16c1.21,6.75-3.7,16.51-10,19.83-7.7,4.06-16.35,3-22.15-2.88-3.92-4-7.81-8.11-6.27-14.51l0-.09c7.37-.74,10.07-4.71,8.24-11.86C1637.09,617.21,1637.36,616.78,1637.48,616.39Z"/><path class="cls-9" d="M1660.7,339.57a9.3,9.3,0,0,1-.13-1.17c-3.89-8.43-4.68-17.47-5.23-26.56.12-1.61.23-3.21.35-4.81,4.87-.33,9-3.46,14.25-3,8.64.74,15.06,4.1,18.09,12.4,2.71,7.45.87,14.22-4.47,19.91-5.82,6.2-13,6.21-20.53,4C1662.25,340.12,1661.48,339.83,1660.7,339.57Z"/><path class="cls-9" d="M1608.49,106c4.52.31,9,.71,13.54.93,3.53.16,5.08,1.61,5,5.37a20,20,0,0,1-20.91,19.61c-11.33-.61-18.72-9.81-17.63-21.38.41-4.37,2.58-5.71,6.43-5.47C1599.47,105.31,1604,105.66,1608.49,106Z"/><path class="cls-9" d="M1379.45,117l-10.76-.52-1.52-1.69c-2.08-3-4-6.11-6.28-8.88-3.5-4.19-2.49-8.9-2.05-13.57.3-3.15,3.21-3.39,5.14-3.32,9.46.34,18.9,1,28.33,1.74,2.87.21,3.41,2.23,3.56,4.81.56,9.39-4.1,15.7-14.1,19.55A9.68,9.68,0,0,0,1379.45,117Z"/><path class="cls-9" d="M1530.94,100.49c4.32.3,8.64.7,13,.89,5.08.23,6.79,2.91,6.3,7.73-1.08,10.71-12.1,19-23.1,17.16-10.52-1.73-17.34-12.32-15-23,.68-3.17,2.48-3.94,5.31-3.72C1521.9,99.88,1526.42,100.17,1530.94,100.49Z"/><path class="cls-8" d="M1015.28,591c-1.61-9,1.15-15.72,8.32-20.14s14.55-4.48,20.81.06c7.72,5.62,10.32,13.29,7.72,22.9-.42,1.58-.88,3.16-1.32,4.73l-2.38-.23a8.84,8.84,0,0,1-4.84-.1c-7.37-2.49-14.81-4.6-22.66-4.91a6.23,6.23,0,0,1-4.32-2.08Z"/><path class="cls-9" d="M1089,76.36c-.83,11.4-10.7,18.88-22.15,17.38-9.84-1.29-17.95-12.52-16-22.11.63-3.08,2.46-4.82,5.56-4.64,9.24.55,18.48,1.22,27.72,2C1089.36,69.35,1089.7,72.89,1089,76.36Z"/><path class="cls-9" d="M1665.21,116.78c-.56-5.07,1.94-7,7.68-6.35,8.18.95,16.43,1.29,24.66,1.83,4.31.28,6.22,2.41,6,6.79-.4,9.91-9.77,18.78-19.57,18.35C1672.85,136.9,1664.42,128,1665.21,116.78Z"/><path class="cls-9" d="M1012.38,70.45c-1,11.5-9.4,18.86-20.65,18-10.27-.8-18.17-10.13-17.66-20.76.23-4.76,2.77-6.45,7.32-6.08,8.42.68,16.86,1.16,25.28,1.83C1012.27,63.87,1012.86,64.7,1012.38,70.45Z"/><path class="cls-9" d="M1453.73,95c4.53.33,9.08.44,13.57,1,5.2.67,6.73,3.66,5.68,8.75-3.54,17.15-22.47,20.29-32,11.43a18.77,18.77,0,0,1-5.49-19.08c.85-2.85,2.79-3.23,5.25-3C1445.09,94.43,1449.41,94.73,1453.73,95Z"/><path class="cls-9" d="M1147.42,73.36c3.29.23,6.58.45,9.86.7,8.57.64,9.4,1.69,8.2,10.37-1.36,9.9-12.26,16.77-22.72,14.61-11.48-2.37-16.34-14.08-14.3-22.18.88-3.5,2.51-4.82,6-4.45C1138.79,72.87,1143.11,73.06,1147.42,73.36Z"/><path class="cls-9" d="M1224.25,78.8c2.89.19,5.77.4,8.66.6,9.81.7,12.09,4.22,8.67,13.41-3.18,8.57-14.29,14.14-22.84,11.46-10.2-3.2-16-13.52-13.24-23.24.81-2.83,2.65-3.38,5.15-3.19Z"/><path class="cls-9" d="M939.83,200.4c7.14-.08,13.65.91,18.57,7.16,5.6,7.12,6.69,13.76,2.6,22.14-3.12,6.39-10.09,10-18.37,9.39l-5.51-.42c-1.43-1.59-1-3.51-.85-5.32q.9-13.9,2-27.8C938.37,203.73,938.19,201.77,939.83,200.4Z"/><path class="cls-9" d="M922.65,442.77l2.54-35.87c-.29-.3-.36-.57-.23-.82s.25-.36.36-.36c9.45,0,17.67,1.51,22.16,11.77,4,9.11-1.77,22.43-10.91,25.17-4.6,1.38-9.19,2.13-14,1.29-.31-.27-.41-.54-.3-.8S922.55,442.76,922.65,442.77Z"/><path class="cls-9" d="M947,98.92c7.6-1.34,14,.61,19.12,6.63,5.32,6.28,6.1,13.54,2.11,21.61-3.19,6.44-9.72,9.89-17.72,9.33l-6.13-.44h0L947,98.93Z"/><path class="cls-9" d="M932.57,303.06c6.55.32,12.88.35,18,5.92a19.11,19.11,0,0,1,4.8,18.1c-1.29,5.71-4.49,10.82-11,12.91a31.88,31.88,0,0,1-14.51,1.34c-1.56-1.81-.94-3.94-.81-5.95q.86-13.28,1.88-26.56C931.08,306.82,930.77,304.62,932.57,303.06Z"/><path class="cls-9" d="M918,508.31c10.73-2,20.43,4.13,22.87,14.36s-2.85,19.73-12.67,22.81c-4.29,1.34-8.54-.08-12.82-.06h0l2.49-35.88a.74.74,0,0,1-.21-.85C917.82,508.43,917.93,508.3,918,508.31Z"/><path class="cls-8" d="M959.63,359.62c2.19.45,3.85-.93,5.76-1.57,4.3-1.45,8.78-2.67,12.54,1.29,1.39,1.46,1.58-.26,2.29-.62q.13,18,.28,36c-3.48.16-7,.37-10.42.45-5.08.11-9-2.28-12.46-5.79l-.23-.15c-2.25-8.82-2.34-17.49,1.9-25.83Z"/><path class="cls-9" d="M1299.22,111.32l-6.53-.84c-5.73-5.22-11.11-10.49-11.24-19.16-.09-6.52,1.21-8.34,7.46-7.94,8.22.52,16.42,1.29,24.64,1.66,3.73.17,5.83,1.61,6.15,5.34.49,6-2.63,10.57-5.9,15-.68.93-1.87,0-2.75-.54-.67-1.38,1.25-3.57-.9-4.26-1.61-.52-3.09.87-4.14,2.14C1303.69,105.57,1301.48,108.46,1299.22,111.32Z"/><path class="cls-6" d="M1006.44,174l-3-15c-2.17-8.9-4.2-17.83-6.54-26.67-1.22-4.57.25-5.49,4.44-4.29,3.89,1.11,7.87,1.93,11.81,2.87A160.16,160.16,0,0,1,1018,166c.24,7.45-3.85,14.48-7.56,21.12C1010.05,182.48,1009.7,177.81,1006.44,174Z"/><path class="cls-2" d="M932.57,303.06q-1.35,19.14-2.71,38.27-2.26,32.19-4.54,64.39c0,.4-.08.79-.13,1.18-3.87-1.37-2.07-4.54-1.91-6.88q4.44-64.83,9.1-129.66,4.51-63.9,9.11-127.8c.17-2.34-1.16-5.72,2.88-6.52h0q-2.26,32.17-4.54,64.35-1.35,19.14-2.71,38.27Q934.84,270.86,932.57,303.06Z"/><path class="cls-9" d="M974.43,588.25c-2,7.08-7.92,11.35-16.65,12.09-5.95.51-15.38-5-17.76-10.39-6.75-15.39,4-27.91,16.48-28l.11,0c1.8,2.47,1.14,5.1.5,7.73-.79,3.2-1.66,6.38-2.57,9.55-1.07,3.69.21,5.45,4,5.71,3.08.21,6.18.37,9.25.74C970.2,586,972.81,585.86,974.43,588.25Z"/><path class="cls-9" d="M1663.07,406.78c.11-.37.23-.74.35-1.12,12.75,3,19.23,10.41,18.4,20.93-.89,11.23-9.67,18-22.43,17.41h-.13c-2.61-4-1.69-8.49-1-12.63C1659.61,423.14,1659.17,414.52,1663.07,406.78Z"/><path class="cls-8" d="M960.16,459c8.37-.08,15.53,2.06,20.7,9.46,6.35,9.11,1.84,25.66-11.59,28.65a10.7,10.7,0,0,0-2.16,1L965.9,498c-5-9.14-4-19.48-5.83-29.25-.52-2.76-1.1-5.66-.07-8.5Z"/><path class="cls-9" d="M973.09,292.21C961,288,959.63,280.58,959.93,271.28c.28-8.81,9.5-16.3,19.13-16.74,2.56-.12,5.18.87,7.77,1.35,1.7,2.15.84,4.35,0,6.43-3.53,8.36-7.19,16.65-9.75,25.38a7.29,7.29,0,0,1-3.88,4.57Z"/><path class="cls-9" d="M960,460.27c2.83,4.59,1.78,9.9,2.69,14.85,1.38,7.58,2.17,15.26,3.21,22.9-16.09,1.17-24.33-16-19.18-27.2A17.58,17.58,0,0,1,960,460.27Z"/><path class="cls-9" d="M1551.84,630.2l.42-2.14c12.18-5.84,24.55-6.61,37.15-1.44l-.06.09c-.13,7.28-3.61,12.61-10.23,15.24-8.95,3.54-16,1.82-21.61-4.58C1555.5,635.08,1553.72,632.6,1551.84,630.2Z"/><path class="cls-8" d="M974.43,588.25c-6.17-.46-12.33-1.08-18.51-1.31-4.31-.17-5.32-2-4.16-5.92,1.86-6.29,4-12.52,4.84-19.08,13,1.37,22.12,8.66,19.14,26.3Z"/><path class="cls-8" d="M1614,557.64c7-1.29,11,4.05,15.89,7.28a42.19,42.19,0,0,1,1.39,14.92c-.76,8.2-3.88,11.62-12.89,14.13C1616.5,581.9,1614.41,569.87,1614,557.64Z"/><path class="cls-6" d="M1636.33,223.81c-5-9.76-2.6-19.29.73-28.85,1.13-3.25,1.44-6.77,3.19-9.82,4.53-1.93,9.06-3.83,14-1.37Q1646.07,204.13,1636.33,223.81Z"/><path class="cls-8" d="M973.17,292.27q6.83-18.18,13.66-36.38c2.9-3.51,4-7.86,5.6-12,.55-1.47.42-3.37,2.67-3.51q-4.14,20.67-8.28,41.33c-.68,3.39-1.25,6.81-1.87,10.21C981.06,293.16,977.17,294.68,973.17,292.27Z"/><path class="cls-9" d="M1705,274.7c-.3,4.32-.74,8.63-.86,12.95-.09,3-1.32,3.52-3.84,2.4-5-2.22-8.16-9.57-7.56-17.65.44-5.87,5.86-13.86,10.25-15,2.83-.75,3.14,1.05,3,3.14C1705.68,265.24,1705.32,270,1705,274.7Z"/><path class="cls-9" d="M1697.81,376.13c-.3,4.32-.58,8.65-.92,13-.11,1.4,0,3.24-1.81,3.46a4.58,4.58,0,0,1-3.31-1.26c-9.93-10.09-9-24.1,4-31.66,2.93-1.71,3.17.09,3,2.26C1698.52,366.65,1698.15,371.39,1697.81,376.13Z"/><path class="cls-9" d="M1712.25,172.11c-.3,4.32-.67,8.65-.89,13-.16,3.21-1.56,4.46-4.14,2.21-5-4.38-8.1-9.59-7.37-16.76.7-7,4.4-11.84,9.9-15.45,2.75-1.8,3.65.25,3.49,2.8C1712.94,162.63,1712.58,167.37,1712.25,172.11Z"/><path class="cls-9" d="M1683.31,581.23c-.32,4.51-.69,9-.94,13.53-.21,3.75-2,3.42-4.37,1.83-10.32-6.85-9.16-25.62,1.94-31.43,2.8-1.47,4.74-1.63,4.36,2.53C1683.88,572.2,1683.64,576.71,1683.31,581.23Z"/><path class="cls-9" d="M1690.58,478.65c-.31,4.32-.71,8.63-.89,13-.16,3.69-1.81,4.66-4.48,2.2-4.68-4.31-7.79-9.36-7.06-16.27s4.36-11.9,9.78-15.66c2.6-1.81,3.77-.12,3.61,2.57-.28,4.74-.65,9.47-1,14.2Z"/><path class="cls-9" d="M1016.61,591.19a71.65,71.65,0,0,1,31.82,7.09c-3.11,5.45-11.72,8.79-18.76,7.28C1022.29,604,1017.3,598.48,1016.61,591.19Z"/><path class="cls-9" d="M1644.22,170.73c.46-7.33,3.88-13.91,5.34-21,9.82,3.67,14.42,13.32,10.49,22-3.11-1-6,1-9,.86C1648.62,172.49,1646.06,173,1644.22,170.73Z"/><path class="cls-9" d="M1649.75,281.87c-4.52-2.76-2.22-8.74-5.68-12q-1.52-9.37-3-18.74C1652.19,253,1659.32,270.06,1649.75,281.87Z"/><path class="cls-9" d="M1583,155.08a193.5,193.5,0,0,1-29.34-7.18c2.42-7.53,9.3-5.56,14.34-5.91C1574.09,141.57,1581.34,148.8,1583,155.08Z"/><path class="cls-8" d="M1644.22,170.73a39.76,39.76,0,0,0,12.5-.75c1.69-.3,3.28-.82,3.33,1.77-2.9,3.53-3.41,8.23-5.78,12-4.67.53-9.2,2.42-14,1.37C1640.93,180.16,1641.91,175.26,1644.22,170.73Z"/><path class="cls-2" d="M918,508.31c0,.41-.09.82-.13,1.23-2.91-.75-2.2-3.05-2.07-5q2-28.56,4-57.11c.14-2-.2-4.34,2.78-4.65,0,.39,0,.79,0,1.18Z"/><path class="cls-2" d="M910.88,609.79l-1.28,1.14c-1.59-1.53-1.05-3.45-.92-5.26q1.91-27.48,3.9-55c.16-2.08-.56-4.84,2.83-5.28h0Z"/><path class="cls-11" d="M1364,114.82c-6.27,3.23-13.31,4.94-18.82,9.67-2,1.69-2.92.29-3.41-1.45-1-3.47-2.81-6.81-1.85-10.61C1347.86,114.33,1356,114.08,1364,114.82Z"/><path class="cls-9" d="M1115,114.27c-8.31,1.84-16.78,2.41-25.22,3.15C1095.79,108.47,1109.23,106.8,1115,114.27Z"/><path class="cls-9" d="M959.29,363.38q-.94,12.92-1.9,25.83C949.72,379.75,950.53,368.61,959.29,363.38Z"/><path class="cls-2" d="M947,98.93c-.64-.44-1.83-.87-1.85-1.34-.32-8.84.73-17.56,1.49-26.31l2.32.14q-1,13.76-1.94,27.5Z"/><path class="cls-8" d="M996.83,233.07c0,1.71.16,3.46-1.33,4.75C994.17,235.74,993.66,233.89,996.83,233.07Z"/><path class="cls-8" d="M998.56,227c0,1.33,0,2.62-1.24,3.51C995.71,228.61,996,227.38,998.56,227Z"/><path class="cls-9" d="M1271.79,109.42l-2.41-.12C1270.24,108.23,1271,108.27,1271.79,109.42Z"/><path class="cls-8" d="M1059.45,546.94c9.25.56,18.14,2.87,26.93,5.65a3.91,3.91,0,0,1-2.42,3.22C1075.18,559.77,1063.87,555.7,1059.45,546.94Z"/><path class="cls-5" d="M1409.16,148c12.75,2.1,25.56,3.89,38.23,6.38,17.1,3.37,34.19,6.9,51.11,11.06,24.9,6.1,49.67,12.71,74.42,19.4,4.09,1.11,7.72-.12,11.52-.4,5.94-.44,11.87-1.12,17.73-2.13,3.7-.63,3.82.79,3.13,3.65-1.7,7-2.61,14.22-5.79,20.72-3.54,7.26-.67,13.8,1.94,20.15,4.33,10.53,7.17,21.41,9.71,32.46a401.86,401.86,0,0,1,9.35,57.63,268.93,268.93,0,0,1,1.22,29.52c-.38,12.77-.12,25.56-1.58,38.27-3,25.83-8.9,50.92-18.74,75.06-6.11,15-12.45,29.81-21.34,43.43-4.47,6.83-.7,14.05-.48,21.08a113.34,113.34,0,0,0,1.72,14.66c.59,3.57-.62,4.19-3.63,2.88-7.79-3.39-16.33-4.1-24.27-7-5.3-1.92-10.11.75-15,2a702.21,702.21,0,0,1-91.2,17.77c-23.43,3-46.93,4.68-70.48,6.06q.65-12.4,1.28-24.83c-2.86-6.58-.61-13.19-.06-19.78a9.08,9.08,0,0,1,3.82-5.36c4.7-3.25,9.47-6.38,13.88-10a10.47,10.47,0,0,1,7.49-2.15c32.84,2.21,65.82,3,95.78,8.78-5.23-2.57-13-5.93-21-8.93-18.53-7-37.94-9.38-57.32-12.1a14.59,14.59,0,0,1-5.36-1.33c-2.92-2.76,0-4.93.72-7.33,4.67-7.31,8.53-15.13,13.82-22.07,5.05-1.17,9.85.61,14.53,1.79,22,5.57,44.07,10.67,65.45,18.34,2.41.87,4.94,1.44,7.11,2.95-21-15.46-37-35.64-53.37-55.52-2.13-2.59-4.76-5.34-4-9.34,3-3.57,6.49-6.31,11.2-7.18,13,.51,25.93,2,39,.45-9.78-5.78-18.47-13.1-26.81-20.84-4.9-4.56-4.56-7.06,1.46-9.4,28.52-11.06,50.3-31.14,70.71-52.91,9.31-9.93,18.29-20.21,26-31.46,3.12-4.54,3-4.91-2.34-5.24-21.93-1.34-43.24-6.2-64.55-11.12q-12.66-2.93-25.25-6.13a25.42,25.42,0,0,1-7.73-3.59l-2-3.88c-.21-4.25,2.93-6.07,5.87-8a184.72,184.72,0,0,0,34.56-29c1.37-1.49,3.1-2.73,3.82-5.41-6.47,1.32-12.71,2.28-18.8,4a282.39,282.39,0,0,1-33.32,7c-1.67.25-3.29.47-4.74-.67-6.4-18.64-14.78-36.19-27-51.82C1430.72,167.09,1420.09,157.41,1409.16,148Z"/><path class="cls-5" d="M1222.82,549.86c-14.26-2.89-28.65-5.05-42.7-9.06-19.71-5.62-39.8-10-59.4-15.93-11.1-3.37-22.25-6.89-33.37-10.07-10.68-3.06-20.64-8.24-31.59-10.24-9.34-1.71-18.38,1.29-27.56,2.09-8.18.71-8,1.08-5.55-6.78,2.54-8.22,4.63-16.58,6.89-24.89a7,7,0,0,0-.58-5.36,164.29,164.29,0,0,1-15.55-42.75,318.41,318.41,0,0,1-6-44.48c-1.48-23.34-.15-46.48,1.5-69.68,1.32-18.6,6.51-36.34,11.82-54.06,4.82-16.11,11.93-31.3,18.93-46.56,4.81-10.48,10.85-20.24,16.48-30.23,2.06-3.64,1.83-6.26.48-9.72-3.07-7.81-5.77-15.76-8.69-23.63-1.19-3.23-.7-4.19,2.94-3,12.11,3.91,24.31,7.54,36.46,11.35a13.66,13.66,0,0,0,6.68.52c30.35-5.37,60.6-11.41,91.09-15.8,17-2.45,34.17-4.77,51.49-3.31q-25.87,13.19-51.75,26.37c-7.71,3.92-15.44,7.78-24.33,12.25,7.17,1.3,13.39,1.59,19.24,3.76,4.34,1.61,6.25,2.88,2.69,7.61-5.2,6.89-9.56,14.4-14.28,21.64-15.23-4.53-29.59-11.23-44.43-17.68a88.12,88.12,0,0,0,11.4,26.44c4.1,6.47,8.88,12.44,15.1,17.09a14,14,0,0,1,4,4.7c.06,1.46-.89,2.41-1.7,3.43a131.5,131.5,0,0,1-25.47,9.26,282,282,0,0,1-53.68,8.69c-7.6.44-7.82.72-5.14,8.07,6.43,17.6,16,33.44,27.63,48.07A255.64,255.64,0,0,0,1146.26,366c2.37,7.11,6.16,13.82,6.28,21.59-11,3.92-22.62,4.13-34.09,5a374.5,374.5,0,0,1-68-1,2.45,2.45,0,0,0-2.21.7,85.31,85.31,0,0,0,27.7,20.93c21.16,10.31,43.66,16.07,67.08,18.39,3.56.35,8.36-.86,10.08,3,1.8,4.09-2.67,6.52-5,9.09-9.5,10.36-20.18,19.45-31.26,28.07-3.08,2.39-6.3,4.61-10.08,7.32,2.45,1.4,4.67,1.11,6.72,1.3,28.62,2.64,57.26,1.84,85.91.68a21.48,21.48,0,0,1,5.55.05c8.83,7.08,18.19,13.67,23.15,24.45-.22,5.8,1,11.84-2.83,17Z"/><path class="cls-12" d="M1225.27,522.6l1.17-18.62c3.5-1.81,5.93.8,8.43,2.3q20.73,12.42,41.59,24.62a53.92,53.92,0,0,0,24.59,7.68c11,1.25,21.15-2.1,31-6.32,13.57-5.82,27.39-11.08,40.85-17.18,2.16-1,4.45-2.53,6.75-.14q-.79,10.45-1.6,20.91A273,273,0,0,0,1349.7,549c-24.32,12.83-49.49,13.5-75,4.68-10.87-3.75-19.84-11.14-29.27-17.62C1238.77,531.5,1232.73,526,1225.27,522.6Z"/><path class="cls-8" d="M1589.41,626.62a113.89,113.89,0,0,0-37.15,1.43c.06-13.72,5.18-20.75,16-22.53C1578.44,603.86,1593.11,613.54,1589.41,626.62Z"/><path class="cls-8" d="M1522.87,582.56a229.45,229.45,0,0,1,28.89-3.13c-.22,1.61-.14,3.25-1.19,4.71C1545,591.88,1527.64,590.91,1522.87,582.56Z"/><path class="cls-8" d="M1637.48,616.39a3.75,3.75,0,0,1,.68,1c3.81,12.32,3.28,13-9.22,12C1629.39,623.5,1629.82,617.57,1637.48,616.39Z"/><path class="cls-13" d="M1426,281.93a4.67,4.67,0,0,1,.1,1.12c3.38,12.8,2.67,25.91,1.14,38.69-1.72,14.39-2.15,28.77-2.72,43.18-.65,16.3-1.55,32.55-4.18,48.66-3.24,3.47-5.13.42-6.85-1.68-2.69-3.3-4.71-7.19-9.26-9.75-.67,4.26-3.65,6.32-6.55,8.67-5.33,4.35-6.72,10.52-6.6,17.12.16,8.53-4.4,12.64-12.67,11.58a8.32,8.32,0,0,1-7.32-5.69c-3.38-8.52-3.88-11.79-1.95-18.39-10.06.95-15.63-8.36-24.53-10.35-2-.45-3.17-2.68-3.68-4.7-1.14-4.52-4.46-6.42-8.34-8.35-6.68-3.35-13-6.31-21-4.89-6.16,1.08-9.14-3.1-8.14-9.91.75-5.09,1.78-10.13,2.08-15.29.26-4.49-1.31-7-6-7.57a17.33,17.33,0,0,1-11.39-5.61c-1.19-3.33-1.2-7.07-3.43-10.06,3.45-5.53,2.93-12.06,4.51-18a2.89,2.89,0,0,0,.17-3.26,13.79,13.79,0,0,1-.4-3c.19-5.49-.37-11.11,2.86-16,9.29-8.77,18.54-17.58,27.88-26.3,9.18-8.58,17.39-18.09,26.5-27.05a197.27,197.27,0,0,1-14.56,47,108.58,108.58,0,0,0,34.23-17.57c6.1-4.69,6.2-4.86,9.3,2,2.69,6,4.94,12.12,7.63,18.78,9.37-9.11,16.2-19.73,22.86-30.72.25,4.39-1.38,8.38-2.76,12.37-1.47,4.23-3.21,8.35-5,12.91,4.74-2.06,6.7-4.14,12-14.26,2.8-5.4,4.86-11.18,7.52-17.43a101.22,101.22,0,0,1,8.65,21.53A1.94,1.94,0,0,0,1426,281.93Z"/><path class="cls-14" d="M1285.29,338.88c5.06,1.67,3.28,5.73,3.21,9.19,2.42,3.1,1.69,6.68,1.46,10.13-1.41,20.76-2.92,41.52-4.39,62.28-.28,4.08-.32,7.93,4.52,9.51,3.74,3.79.69,4.79-2.39,5.47-8.85,2-17.59,4.35-26.28,6.88-19.74,5.73-37.69,15.3-55.15,25.9-2.27,1.38-4.44,3.09-7.36,2.82-3.79-.76-4.94-4-6.46-6.9-7.33-13.85-10.68-28.82-12.29-44.27.53-7.54-1-15.1.23-22.64,1.53-16.41,3.53-32.79,3.58-49.31,8.93-4.22,17.91-8.36,26.78-12.69,6.33-3.09,11.17,1.88,17.38,2l-4.16,6.33a6.42,6.42,0,0,1-.08,3.17c-1,2.53.36,4.72,1,7,.7,9.27-.71,18.48-.57,27.76.14,9,7.66,16,13.92,17.6a43.21,43.21,0,0,0,16.56,1.05c10.25-1.44,15.5-7.3,16.82-18.24,1-8.37.48-16.89,2.48-25.16a7.58,7.58,0,0,0,.59-8.28c-.49-3.12-.54-6.16,1.42-8.89C1279,337.79,1282.07,337.15,1285.29,338.88Z"/><path class="cls-15" d="M1481.36,266.35c18.76,4.4,37.42,9.27,56.31,13,15.28,3.07,30.62,6.41,46.4,6,1,0,2.16-.7,2.79.37.75,1.28-.31,2.25-1,3.29-9.3,14.16-20.55,26.77-32,39.16a247.85,247.85,0,0,1-50.66,42c-6,3.78-12.52,6.31-19,8.65-5.2,1.87-3.3,3-.68,5.46,9.19,8.54,19.25,16,30.6,23.9-15.39,2.39-29.52,1.23-43.66-.19-1.62-2.65.32-4.61,1.25-6.82,7-16.75,9.52-33.4-1.29-49.71-1.09-1.65-2.58-3.31-1.59-5.61.85-11.73,1.87-23.46,2.47-35.21.22-4.24,1.44-5.75,5.9-5.18,6.9.88,13.89,1.08,22.54,1.7-6.66-6.47-12.06-12.21-16.58-20,8.12,2.64,15.12,6.14,24,6.78C1496.87,285.44,1486.77,278,1481.36,266.35Z"/><path class="cls-15" d="M1145.46,366.59c-9.76-4-16.83-11.8-24.27-18.68-17.26-15.92-32.69-33.56-44-54.35-4.92-9-9.75-18.14-12.47-28.17-.87-3.23-1.26-4.95,3.54-5.16a265.44,265.44,0,0,0,48.14-6.47,199.75,199.75,0,0,0,27.66-8.34,18,18,0,0,1,8.44-1.56c-7.26,15.11-18.67,24.07-36.8,23.73,5.59,6,12,8.13,19.68,8.84-5.79,7.32-13.2,10.69-21.85,13.78,8.11,6.18,16.79,7.52,25.75,8.2,7.71.59,14.92-2.48,22.49-2.78l0,0c-6.6,10.2-14.53,19.39-21.87,29-1.08,1.42-3.11,2.83-2.31,4.69s3.28,1.11,5,1.27c3.07.3,6.17.31,9.25.45,1.74,2.18,1.56,4.64.63,7-3,7.28-4,14.88-4.45,22.64C1147.85,362.84,1147.54,365.13,1145.46,366.59Z"/><path class="cls-16" d="M1419.22,414.5c-.87-9.48,1.76-18.7,2.08-28.11.62-18.22.94-36.49,2.83-54.59,1.11-10.64,1-21.27,2-31.85.55-5.67-2.49-11.27-.05-16.9,2.45,1.42,2.6,4.05,3.26,6.37,8.89,31.13,12,62.91,10.77,95.19,1.72,1.81,1.71,4.1,1.56,6.33-.53,8.13-.7,16.28-1.93,24.35a81.46,81.46,0,0,1-2.88,22.24c-1.12,6.68-1.84,13.52-6.88,18.77-3.21,7.84-7.24,15.19-13.06,21.44-5.47.74-8.16-1.23-10.45-7.65,3.76-9.94,6.2-20.21,8.43-30.6,1.43-6.69,1.11-13.42,2.16-20.07A6.47,6.47,0,0,1,1419.22,414.5Z"/><path class="cls-17" d="M1438.07,416.15l2.07-31.54c4.22-8.36,4.09-17.79,6.55-26.6a113.45,113.45,0,0,0,2.47-13.26c.69-4.61,3.38-5.92,7.38-4.4,4.19,1.59,8.19,3.66,12.27,5.52,13.42,13.59,11.06,30.32,9,46.81-.73,5.68-5.38,10-7.32,15.33-4,.84-6.23,4.77-10.11,5.83-3.06,4.12-7.55,4.4-12.11,4.51C1444.7,418.23,1441,418.77,1438.07,416.15Z"/><path class="cls-17" d="M1145.46,366.59c0-12.23,3-23.93,6.33-35.56a111.2,111.2,0,0,0,33.49-8.26c-6.43,12-15.38,22.14-23.23,33.68L1184,348a11.53,11.53,0,0,1,2,8.68c-1.4,10.54-.41,21.32-3.33,31.71-.85,3,2.25,6.43-.72,9.35-3.24,2.44-6.82,1.58-10.36,1.07-7.26-2.32-15.17-3.62-18.75-11.8C1148.27,380.94,1147.15,373.66,1145.46,366.59Z"/><path class="cls-15" d="M1466.75,230.37c19-3.23,37.77-7.94,56.57-12.32,1.22-.28,2.9-1.65,3.8.27.75,1.58-.8,2.55-1.73,3.63a186.63,186.63,0,0,1-40.54,34.88,17.24,17.24,0,0,0-5.48,5.64C1474.52,252,1469.94,241.47,1466.75,230.37Z"/><path class="cls-15" d="M1154.17,240.43c-13.75-8.11-21.69-20.91-28-35-1.92-4.31-3.38-8.84-4.92-13.31-.69-2-.85-4.36,2.36-2.72a427.52,427.52,0,0,0,43,18.61c.65.25,1,1.2,1.53,1.84Z"/><path class="cls-18" d="M1285.29,338.88a21.42,21.42,0,0,1-8.54,1.28,10.66,10.66,0,0,1-6.53,1.39c-8-.46-16-1-24-1.72-2.45-.22-5-.47-6.63-2.71.77-4.63,5.51-4.36,8.3-6.39,8-5.82,15.72-12.17,24.82-16.36,6.27-2.34,12.33-2.06,18.15,1.4,0,.88,0,1.76,0,2.64a1.55,1.55,0,0,1,0,1.23c-.29,3.06-.78,6.11-.8,9.16C1290,333,1288.72,336.39,1285.29,338.88Z"/><path class="cls-19" d="M1239.57,337.12l37.18,3q-.39,4.71-.77,9.42c-2.13,2.2-4.89,2-7.53,1.8q-19.41-1.19-38.79-2.75c-2.45-.19-5-.43-6.73-2.53a2.63,2.63,0,0,1,1-2.48C1229.89,343.2,1233.55,337.33,1239.57,337.12Z"/><path class="cls-20" d="M1290.84,315.77l-18.15-1.4c5.53-6.36,12.24-11.32,19.17-16Z"/><path class="cls-16" d="M1426,281.93c-1-.81-1.07-1.59.07-2.34C1426.06,280.37,1426,281.15,1426,281.93Z"/><path class="cls-15" d="M1161.74,295.63l.21-.53-.24.49Z"/><path class="cls-8" d="M1632.86,461.9c7.07,1.73,6.4,8.36,6.6,12.91.24,5.62-2.86,10.89-7.7,14.75-2.78,2.21-4.67,2.13-6.51-.82A215.34,215.34,0,0,1,1632.86,461.9Z"/><path class="cls-8" d="M1663.07,406.78c.13,12.55-3.51,24.72-3.81,37.22-10.84-2.12-16.91-10.62-15.64-21.88C1644.65,413,1653.06,406.39,1663.07,406.78Z"/><path class="cls-8" d="M1655.34,311.84c3.63,8.48,4.23,17.56,5.23,26.56C1649.8,333.5,1647.32,320.89,1655.34,311.84Z"/><path class="cls-8" d="M1644.38,513.63a74.17,74.17,0,0,1-6,18.31Q1632.46,518.86,1644.38,513.63Z"/><path class="cls-20" d="M1407.77,470.89c2.14,3.52,5,6.11,9.18,6.85.72,2.71-1.66,4.09-2.62,6.08-2.1,7-7.33,11.66-12.57,16.27-2.52-.38-4.42.83-6,2.56-4.63,5.08-11.59,7.09-16.11,12.29-8.32,1.59-15.39,6.36-23.23,9.23-10.38,3.8-20.41,8.54-30.72,12.52-7.9,3-16.09,5-24.69,3.63-1.93-2.22-1.91-4.92-1.73-7.6q1.7-26.18,3.7-52.33a12.8,12.8,0,0,1,1.79-6.46c2.47-2.57,5.67-2,8.71-1.88,7.21.38,14.39,1,21.6,1.44,2.13.13,4.36.84,7.49-.91-9.66-1.53-18.47-1.55-27.19-2.4-3.43-.34-7.1,0-9.87-2.78-2.18-4.52-1-9.24-.57-13.83.57-6.66,0-13.47,2.36-19.91,2.21-3.09,5.48-2.71,8.44-2.06,24.44,5.35,48.42,12.07,70.19,24.92C1393.39,461.05,1401.4,464.73,1407.77,470.89Z"/><path class="cls-15" d="M1449.44,416.64c3.87,0,7.32-1.62,10.89-2.8,2.41,8,8.42,13.78,13.67,19.51,9.3,10.14,17.47,21.38,28,30.38,6.53,5.58,12.69,11.6,19.81,17-30.26-9.49-60.7-18.24-91.81-24.39q2.6-9.32,5.18-18.62C1439.77,430.56,1443.52,422.86,1449.44,416.64Z"/><path class="cls-15" d="M1401.76,500.09c2.8-6.5,8.36-10.87,12.57-16.27,32,2.67,63.12,8.46,91.19,25.79C1471.15,503.81,1436.35,503.2,1401.76,500.09Z"/><path class="cls-15" d="M1519.61,383.61c17.11-1.49,33.18-1.64,47.86-9.09-1.45,6.25-13.38,15.93-22.5,17C1536,392.65,1527,392.31,1519.61,383.61Z"/><path class="cls-15" d="M1152.86,387a44.75,44.75,0,0,0,18,10c4.33,7.26,8.49,14.59,10.67,22.86,2.72,14.63,4.76,29.46,12.18,42.76,1.46,2.61,2,5.85,5.23,7.2,3.16,3.76,7.74,6.75,6.83,12.7-32.45,2.06-64.88,2.45-97.3-.51-2.12-.19-4.54.51-6.77-1.83,8.32-6.19,17-11.57,24.56-18.52,8.28-7.68,17.17-14.72,24.35-23.53.74-.91,2.23-1.52,1.64-3S1150.2,434,1149,434a202.73,202.73,0,0,1-51.87-10c-19.23-6.57-37.27-15.22-51-30.89-1-1.15-3.11-2.32-2.12-4,1.17-2,2.87.15,4.36.24,14,.87,27.83,2.45,41.91,2.24a468.83,468.83,0,0,0,55.83-3.81C1148.38,387.42,1150.62,387.21,1152.86,387Z"/><path class="cls-21" d="M1205.8,482.51c-1.28-4.77-6.17-7.6-6.83-12.7,4.38-.81,7.71-3.76,11.24-6,22.7-14.59,47.79-23.08,73.65-29.8,2.48-.64,6.09,1.74,7.46-2.39,6-3,11.75-2.51,17.28,1.18l-2.43,34.61c-2.82,2.56-6.23,1.6-9.45,1.46-8.79-.41-17.56-1.48-26.43-.84,7.89,1.74,15.94,1.86,23.92,2.69,4,.42,8.38-.54,11.55,3l-4.74,66.6c-11.82-.05-21.66-5.51-31.5-11.24-14.37-8.36-28.23-17.59-43.08-25.1Z"/><path class="cls-15" d="M1048.79,301.06c15,32,35.29,56.45,69.72,66.52C1073.66,374.45,1046.94,345.63,1048.79,301.06Z"/><path class="cls-22" d="M1308.6,432.77l-17.28-1.18c-8.67-.76-8.68-.76-8-9.64q2.61-36.93,5.23-73.88c4.56,2.28,8.9,4.89,14.36,4.91,3.41,0,5,2.66,4.69,6-.57,5.51-.35,11-2,16.51-2.49,8.12.62,11.36,9,9.71,4.84-1,9-1.24,13.15,2.45,2.16,1.94,5.55,2.5,8.39,3.69,3.15,1.32,5.85,2.88,6.12,6.91.25,3.65,2,5.81,6.09,6.46a15.46,15.46,0,0,1,10,5.69c3.19,4.11,8,2.25,12.1,3.11,1.16.24,2.72-.19,3.23,1.21.59,1.6-.82,2.17-2,2.47-2.44.63-2.72,2.32-2.18,4.3,1.24,4.54,2.1,9.27,4,13.5,2.08,4.55,7,3,10.5,2.65s6.46-3.52,5.34-7.09c-2-6.43,1.92-11.45,2.75-17.15a4.79,4.79,0,0,1,3-3.71c4-1.76,7.64-3,6.91-9-.4-3.3,2.79-2.08,4.21-.42,2.81,3.25,6.46,5.81,8.27,9.9.94,2.14,2.19,4,4.78,4.35-.12,1.65-.23,3.29-.35,4.94-3.51,3.3-2.54,7.76-2.47,11.67.07,4.48-1.14,8.4-4,11.35-7.24,7.53-14.26,15.73-26.11,15.71-4.26-.16-6.64-3.86-10.23-5.36a353.47,353.47,0,0,0-48.2-16.5C1321.54,434.67,1315.22,433,1308.6,432.77Z"/><path class="cls-19" d="M1403,365.31q-1,13.29-2,26.58c-1,12.69-10,20.21-22.89,19.79-10.09-.32-19.25-2-25.6-10.89a15.24,15.24,0,0,1-2.79-12c1.34-9,1.59-18.08,2.29-27.13,5.65-3.12,11.08-2.3,15.28,2.31,8.17,9,10.84,9.15,20.28,1.39C1392.37,361.4,1398,361.39,1403,365.31Z"/><path class="cls-18" d="M1353.08,345.63c-10.3-1.84-12.21-4.36-11.48-15.12.77-11.25.77-11.25,11.76-10.48l51.28,3.62c10.22.73,13.77,3.85,13.67,12-.11,9.69-3.93,13.39-14.11,13.65-2.45,1.39-5.11,1.44-7.81,1.25q-17.9-1.21-35.77-2.53C1357.92,347.8,1355.28,347.39,1353.08,345.63Z"/><path class="cls-18" d="M1403,365.31c-6.54-1.5-12.16-1.71-17.32,4.54-4.52,5.49-13.52,4.85-17.1-1.22-4.18-7.08-9.93-7.33-16.55-7-4.31-2.6-4.1-4.84.53-6.74,2.32-1.72,5-1.71,7.7-1.53q17.9,1.15,35.76,2.52c2.69.21,5.34.58,7.43,2.56C1408.39,361.08,1407.69,363.33,1403,365.31Z"/><path class="cls-19" d="M1403.43,358.46l-50.89-3.55.54-9.28c17.08.62,34.13,1.76,51.12,3.65Q1403.83,353.87,1403.43,358.46Z"/><path class="cls-10" d="M1396.46,292l1.28-.59-.57,1.4A.71.71,0,0,1,1396.46,292Z"/><polygon class="cls-10" points="1394.49 295.16 1394.86 295.04 1394.78 295.43 1394.49 295.16"/><path class="cls-10" d="M1397.17,292.76l-1.2.5c.16-.43.32-.87.49-1.31Z"/><path class="cls-20" d="M1290.81,319.64c0-.41,0-.82,0-1.23a4.77,4.77,0,0,1,.29.88C1291.17,319.39,1290.93,319.52,1290.81,319.64Z"/><path class="cls-19" d="M1275.55,356.14c-.56,7.6-1.41,15.19-1.62,22.8-.42,15.61-8.75,25.18-27.27,23.49-8.37-.77-15.49-2.62-21-9.56-4.84-6.07-3-13-3.34-19.52-.4-6.94.74-14,1.2-21,6.41-3.13,12.13-2.06,16.39,3.07,6.76,8.13,11.29,8.44,19.55,1.31C1264.48,352.44,1270,352.22,1275.55,356.14Z"/><path class="cls-18" d="M1275.55,356.14c-6.47-.87-12.43-2.08-17.54,4.7-4,5.38-14.22,4.82-17.34-1.11-4.17-7.92-10.55-7.05-17.16-7.33-3.41-1.81-2.35-4-.58-6.31l53,3.48C1279.76,352,1279.56,354.2,1275.55,356.14Z"/><path class="cls-10" d="M1181.56,419.85c-4.35-7.25-8.42-14.63-10.67-22.86l11.08.7C1181.4,405.07,1182.74,412.48,1181.56,419.85Z"/><path class="cls-13" d="M1386.33,458.17c.41-2.62,2.58-2.14,4.31-2.5,10.57-2.23,16.79-9.92,22.7-18,2.89-4,.46-8.39,1.35-12.54.57-2.68.39-5.52,4.18-5.65.18,13-3.4,25.49-5.37,38.19-.73,4.68-4.71,8.43-5.73,13.26C1399.89,467.89,1393.34,462.64,1386.33,458.17Z"/><path class="cls-10" d="M1449.44,416.64c-3.66,7.75-7.82,15.17-14.25,21a138.19,138.19,0,0,0,2.88-21.53Z"/><path class="cls-12" d="M1305.76,473.72c-11.9-.88-23.81-1.73-35.71-2.67-2.09-.16-5.1.39-4.76-3.17.29-3,2.76-3.15,5.16-3l35.72,2.48,32,2.29c1.44.1,2.87.23,4.3.35,2.25.19,4.2.93,4.13,3.56-.08,3.08-2.46,2.74-4.52,2.6Q1323.89,475,1305.76,473.72Z"/><path class="cls-2" d="M898.94,1006.64c.22-1.79,1.53-2.19,3-2.57,7.16-1.81,14.28-3.79,21.46-5.53q40.17-9.76,81.11-15.57c23.82-3.36,47.75-5.56,71.86-3.56,3.56.3,7.12.51,10.68.76-42.2-21-85.36-38.14-133.19-40,26.44-13.06,52.64-25.45,79.74-36.77-41.46-7.12-82.74-14.39-125-14.64a41.13,41.13,0,0,1,6.75-2.66c24.67-7.25,49.71-12.81,74.94-17.74,39.36-7.71,79-12.73,119-16.13,31.12-2.64,62.28-3.81,93.45-4,28.78-.21,57.6,1,86.37,2.24,21.63.92,43,4.55,64.67,5.89,12.69.79,25.3,3.07,37.87,5.12q29.46,4.82,58.81,10.26c14.92,2.76,29.87,5.49,44.6,9.08,22.13,5.39,44.3,10.58,66.18,17,19.28,5.69,38.65,11.1,57.81,17.22,1.34.43,3.22.63,3.8,3l-86.22-.36c15.06,7.83,30.85,13.19,45.26,21.68,13.12,7.72,26.07,15.65,37.74,25.49,1.24,1,3.11,2.13,2.85,3.78-.29,1.89-2.52,1.55-4,1.93-9.94,2.47-19.89,4.91-29.8,7.51-7.2,1.88-14.34,4-22.06,6.16,15.31,9.07,27.32,16.47,36.78,22.77h89.09a212,212,0,0,0,1.62-23.63,210.7,210.7,0,0,0,1.7-24.21c.32-4.44,1.93-8.68,2.12-13.14.91-5.31,1-10.69,1.38-16,1.6-22.75-8.61-38.72-30.06-46.34-42.7-15.15-86.67-25.73-130.9-35.11-33.11-7-66.5-12.44-100-17.6-39.38-6.06-79-10.23-118.57-13.88-32.85-3-65.79-5.46-98.85-6.35q-39.27-1.07-78.54-1.73c-33.66-.55-67.26.79-100.85,2.36-40.44,1.88-80.67,6.21-120.78,11.63-12.47,1.68-25,3.48-37.21,6.5-15.88,3.91-26.5,13.68-30.91,29.74-2.59,9.47-2.81,19.16-2.88,28.87.71,12-.8,24-1.49,35.94-1.94,23.91-3.75,47.83-5.12,71.79-.14,2.5-.4,4.93,1.4,7Z"/><path class="cls-2" d="M1438.6,1003.4c6.19.85,12.28,2.15,18.34,3.6h65.74A388.89,388.89,0,0,0,1438.6,1003.4Z"/><path class="cls-9" d="M904,1007h561.65a156.21,156.21,0,0,0-23.48-3.47c-.34,0-.48.07-.44.23.23.8-.74-.68.07-.49,4.49.4,9,.93,13.48,1,16.75.23,33.42,1,50,2.73H1608c-3.56-2.48-7.2-4.87-10.87-7.2-8-5.07-15.93-10.19-24.57-14.44,1.58-1.63,3.33-1.58,4.88-2,12.71-3.59,25.37-7.38,38.36-9.93,2.9-.57,6.78-.92,7.63-4.39s-2.4-5.44-4.77-7.35a252.67,252.67,0,0,0-76.47-42.21,14.7,14.7,0,0,0,4.25.32c23.1,0,46.2,0,69.3.3,2.91,0,7.26,1.29,7.84-2.63.55-3.71-3.92-4.18-6.69-5.15-11.3-4-22.78-7.39-34.29-10.68-21.44-6.13-42.85-12.37-64.56-17.52-27.92-6.63-56-12.36-84.25-17.58-27-5-54.14-9.49-81.39-12.09-27.68-2.64-55.3-6.12-83.26-6.81-34.67-.86-69.3-1.48-104-.66-33.88.8-67.65,3.51-101.27,7.49a1027.94,1027.94,0,0,0-110.39,19.43c-13.68,3.15-27.31,6.56-40.66,11-2.16.71-5.77,1.14-5.15,4.12.55,2.61,4,2.51,6.45,2.39a135.51,135.51,0,0,1,15.48.11c22.87,1.49,45.63,4.15,68.26,7.66,9.91,1.54,20.14,1.4,30.39,5-23.2,9.57-45.72,19.23-67.67,30.15-2.88,1.43-8.28,1.5-7.25,6,.89,3.87,5.86,3.08,9.21,3.22,22.73.92,44.44,6.52,65.91,13.57a544.58,544.58,0,0,1,52,20.67c-7.9-.35-16.47-1.34-25.17-1.16-36.53.77-72.27,7.35-107.94,14.37-14.38,2.82-28.48,6.9-42.74,10.29-2.56.61-6.67.63-5.76,5.41Z"/></g></g></svg>