<svg xmlns="http://www.w3.org/2000/svg" viewBox="0 0 878.8 504.03"><defs><style>.cls-1{fill:#01144e;}</style></defs><g id="Layer_2" data-name="Layer 2"><g id="Layer_3" data-name="Layer 3"><path class="cls-1" d="M83.87,414.3v6.39q0,35,0,70c0,8.63-4.55,13.29-13.19,13.31q-28.26.06-56.5,0C4.26,504,0,499.68,0,489.66v-161Q0,171.91.06,15.17A22.61,22.61,0,0,1,1.45,6.44C3.31,2.14,7.13.05,11.89,0c20,0,40-.09,60,0,7.5,0,12,5.07,12,13q0,39.75,0,79.5,0,46,0,92v5.74C95.21,183,106.79,179.51,120,180v-9.76c0-32.78,25.28-57.79,58.06-57.72,54.16.11,108.33,0,162.5.05,26.78,0,48.72,16.43,55.8,42.16,1.44,5.23,1.56,10.84,2.08,16.3.26,2.78,0,5.6,0,9h6.71q207,0,414-.06c15.35,0,29,4.15,40.4,14.37,12.14,10.85,18.85,24.49,19.09,40.87s.12,33,.05,49.5c-.05,9.16-2.83,17.43-9.78,29.88,1.1.57,2.22,1.1,3.31,1.71,4.07,2.3,6.47,5.63,6.45,10.47,0,2.83,0,5.67,0,8.5v154c0,10.73-4,14.75-14.77,14.76q-27.75,0-55.5,0c-9.07,0-13.73-4.73-13.73-13.91q0-34.5,0-69V414.3ZM469,315.05v0H751c23.83,0,47.66.2,71.49-.19,18.19-.29,32-14.66,32.2-32.77q.23-22.74,0-45.49c-.11-14.07-8.95-26.64-22.26-30.57-5.62-1.66-11.81-2-17.73-2Q490.46,204,166.26,204c-16.33,0-32.66-.09-49,.1-18.81.22-32.87,13.9-33.33,32.78q-.56,22.74,0,45.49c.42,16.71,11.71,29.37,28.13,32.11a62.85,62.85,0,0,0,10.46.53Q295.78,315.06,469,315.05ZM84.2,389.69H854.45V339.3H84.2ZM59.46,479.82V24.21H24.29V479.82ZM374.13,179.9c.71-10.21.53-19.76-5.19-28.27-7.34-10.94-17.87-15.19-30.8-15.16-53,.13-106,.06-159,.07-1.16,0-2.33.06-3.49.1-19.57.7-35.82,18.11-31,43.26ZM854.47,414.3H819.09v65.39h35.38Z"/></g></g></svg>