<svg xmlns="http://www.w3.org/2000/svg" viewBox="0 0 1123.27 852.52"><defs><style>.cls-1{fill:#01144e;}</style></defs><g id="Layer_2" data-name="Layer 2"><g id="Layer_3" data-name="Layer 3"><path class="cls-1" d="M826.18,852.43c-17.67,0-35.33-.18-53,.08-8.14.12-13.67-3-18.25-9.79-11.69-17.4-23.33-34.91-36.16-51.46-19.56-25.25-43.9-45.6-70.54-63-21.32-13.9-43.39-26.65-65.13-39.92-2.56-1.56-5.46-2.77-7.59-4.79-6.52-6.2-14.24-7.15-22.84-7.23-18.47-.16-37-.24-55.37-2.15-32.88-3.42-63.39-14.78-92.31-30.6-17-9.28-33.7-18.88-48.36-31.7a7.17,7.17,0,0,0-4.92-1.36,776.76,776.76,0,0,1-80.84,3.94c-37.45-.26-74.52-3.59-110.84-13.23-29.38-7.8-57-19.52-81.58-37.63a180.28,180.28,0,0,1-31.41-29.18c-20.2-24-33-51.65-40.59-82-11.25-45.25-7.28-89.57,7.79-133.23A251,251,0,0,1,51.39,249.4,256.4,256.4,0,0,1,90.5,208.26a244.71,244.71,0,0,1,49.95-32.79,17.22,17.22,0,0,0,8.69-8.87c17.33-37.91,44.52-67.34,79.33-89.71,48.94-31.46,102.77-46.73,160.89-46.36a204.35,204.35,0,0,1,60.55,9.22c2.15.68,3.92,1,5.86-1,15.1-15.06,34-23.11,54.13-28.63C549.8-.77,590.42-1.27,631.41,1.25c23,1.42,45.06,6.61,66.86,13.43,18.75,5.86,36.33,14,51.23,27.23A6.79,6.79,0,0,0,754,43.27c63.9-3.46,121.7,15.1,175.16,48.84a293.23,293.23,0,0,1,74.56,66.61c20.34,25.81,35.85,54.07,43,86.45,1.18,5.36,1.69,10.86,2.79,16.24.36,1.78,1.1,4.16,2.45,4.95,15.39,9,26.58,22.14,36,36.85,19.68,30.83,32.54,64.33,34.84,101,2.76,43.93-4.3,86.29-24.14,126.12a201.29,201.29,0,0,1-41.61,57c-22,20.93-47.5,35.8-77.09,43.23a9.73,9.73,0,0,0-6.26,4.35c-23.12,35.15-55.38,58.91-93.73,75a62.34,62.34,0,0,1-8.89,3.26c-3.52.89-4.74,2.86-4.88,6.37-.56,13.78,1.51,27.24,4.66,40.57,5.6,23.64,14.62,46,25.77,67.5,6.62,12.79-.45,24.66-14.86,24.79C863.18,852.55,844.68,852.43,826.18,852.43ZM991.57,592.92c2.49-1.15,4.74-2.1,6.92-3.2,26.61-13.36,47.24-33.22,62.91-58.36,15.5-24.86,24.29-52.11,27.87-81.07,2-16.56,3.54-33.3.77-49.83a160.72,160.72,0,0,0-27.41-66.41c-39-55.63-107.13-76.53-170.31-52-7.89,3.06-15.41,7.06-23.09,10.63a16,16,0,0,1-21.85-20.35c1.87-4.87,5.86-7.49,10.2-9.78a191.14,191.14,0,0,1,78.14-22.28c22.33-1.43,44.23,1.17,65.4,8.79,4.63,1.66,9.23,3.4,14.82,5.46-1.12-4.37-1.85-7.9-2.91-11.33a194.45,194.45,0,0,0-41.76-73C925.93,119.57,869.84,88.4,802.76,77.33c-9.89-1.63-20-1.92-30-2.83l-.36,1.25c.89,1.35,1.85,2.66,2.66,4.06,6.52,11.39,13,22.78,19.45,34.24a15,15,0,0,1,1.71,5.68,15.84,15.84,0,0,1-11.75,17c-8,2.21-15.43-1.7-19.34-10.18-10.4-22.57-24.78-42.17-43.9-58.12-17.38-14.49-36.66-25.48-59-30.09-26.9-5.56-54.14-7.19-81.55-6.19-23.56.86-46.82,3.72-69.33,11.11-8.81,2.89-17.41,6.34-25.52,12.18,3.14,1.82,5.83,3.13,8.27,4.81,10.12,7,20.4,13.82,30.17,21.28,6.33,4.84,7.25,13.76,3.15,20.34a15.89,15.89,0,0,1-19.67,6.27,35.71,35.71,0,0,1-7.45-5c-39.64-31.48-84.86-44.3-135-39.86a242.4,242.4,0,0,0-90.17,26c-26.89,13.82-50.54,31.68-68.14,56.61-16.32,23.1-24.74,48.47-20.78,77.16,2.47,17.9,8.95,34,20.2,48.23,5.08,6.43,5,14.12.08,20.27-4.42,5.56-12.46,7.81-18.91,4.43a26.77,26.77,0,0,1-8.4-7.55,122.91,122.91,0,0,1-23.81-55.44c-1.44-9-1.91-18.09-2.85-27.44-1.21.58-2.55,1.14-3.82,1.84-33.86,18.51-61.84,43.51-82.06,76.47-31,50.51-43.1,104.57-28.43,163.16C50,494.2,77,529.58,120.44,552.1c32.16,16.68,66.82,24.25,102.49,27.91,32.58,3.34,65.22,3,97.86.92,2.54-.16,5.07-.52,8.22-.85-1.12-1.56-1.75-2.5-2.44-3.4-14-18.29-24.72-38.31-31.26-60.43a167.42,167.42,0,0,1-3.48-81.06c9.89-50.15,35.54-90,78.05-118.52,33-22.09,69.92-31.61,109.27-31.4,16.58.09,30.68-5.28,43.53-14.84,8.81-6.56,16.16-14.36,18.46-25.79a14.21,14.21,0,0,1,8.68-10.33c6-2.64,11.71-1.86,16.85,2.29,5.41,4.38,6.7,10.18,5.29,16.65-3.18,14.55-11.22,26.25-22.06,36.06-5.49,5-11.57,9.28-18,14.39a26.73,26.73,0,0,1,3,2.15c20.46,19.84,25.84,47.27,14.43,73.39-3.68,8.43-12.31,12.25-20.54,9.09-8-3.08-12-11.54-9.42-20.05.72-2.39,1.66-4.71,2.32-7.11,3.9-14.25-.78-27-12.91-35.44a43.36,43.36,0,0,0-18.83-7.58c-16.55-2.31-32.93-.43-49.1,3.09-29.66,6.46-55.73,19.79-77.08,41.68-24.12,24.72-37.82,54.48-42.17,88.59-3.16,24.83.58,48.79,10,71.93,5.84,14.36,14.56,26.93,24.32,38.75,19.55,23.68,42.71,43,70.82,55.77,24.24,11,49.76,18,76,22.09a272,272,0,0,0,31.24,3.55c12.71.5,25.2-2,37.46-5.38,28.24-7.82,52.11-22.31,70.5-45.52,19.85-25.06,33.63-53.49,46.36-82.5,9.42-21.46,18.79-43,33.59-61.39,28.16-35,64.46-54.11,109.9-53.71,26.5.23,50.92,7.61,72.2,24,10.77,8.27,19.33,18.35,24,31.26a15.84,15.84,0,0,1-9.21,20.52,15.67,15.67,0,0,1-20.35-8.61c-4-9.09-10.45-15.77-18.63-20.93-20.85-13.14-43.61-16.95-67.63-12.63-29.63,5.34-52,21.93-69.44,45.93-10.07,13.88-16.94,29.41-23.37,45.14-9.48,23.17-6,44.81,10.41,63.36C746.44,602,768.06,607.77,792.36,601c25.55-7.12,43-30.82,43.16-57.35,0-4-.55-8.08.12-12,1.38-8,8.5-13.12,16.69-12.7a16,16,0,0,1,14.88,14.88c2,22.39-3.21,42.94-15.85,61.63-33.62,49.66-107.26,54-146.12,8.37-6.07-7.13-10.79-15.42-16.25-23.34-10.25,16.87-21.58,33.68-36.16,48s-31.6,25.24-51.14,33.28c1.62,1.06,2.67,1.8,3.77,2.46,15.42,9.26,31.06,18.17,46.22,27.82,28.89,18.4,56.1,38.92,79.44,64.24,17.13,18.58,31.67,39,45.24,60.27,1.86,2.91,3.9,3.87,7.26,3.85,23-.13,46-.06,69-.08,1.42,0,2.85-.18,4.67-.3-.84-2.13-1.6-3.77-2.16-5.48-5.18-15.8-11-31.44-15.3-47.48-4.9-18.24-7.29-36.94-4.69-55.92,1.87-13.71,8.46-22.89,22.5-27.4,28.21-9.07,52.58-24.72,73.26-46.11,18.79-19.44,29.37-42.44,31.66-69.42a161.12,161.12,0,0,0-2.43-44.65c-1.87-9.64,3.2-16.64,12.78-18.52,8.83-1.73,16.65,3.39,18.43,12.49a117.82,117.82,0,0,1,2,16.31c.62,11.44,1.35,22.91,1.11,34.35C994.32,576.3,992.64,584.34,991.57,592.92Z"/><path class="cls-1" d="M739.48,275c1.15,3.59,2.65,7.62,3.72,11.77,8.55,32.85-5.36,62.5-36.06,77-8,3.79-16.92,1.79-21.43-4.81a16.41,16.41,0,0,1,2.6-21,14.38,14.38,0,0,1,3.68-2.49c23.06-10.67,27-30.66,16.24-50.56-5.38-10-12.85-17.77-24.1-22-20.82-7.83-37.71-21.54-52.67-37.76-22.41-24.32-34.23-52.85-33.84-86.07A91.22,91.22,0,0,1,600,120.88c1.94-8.88,9.86-13.52,19-11.79a15.5,15.5,0,0,1,12.15,18c-4,20.64.46,39.59,10.23,57.77A102.14,102.14,0,0,0,660.63,210c9.4,9.11,19.73,17,31.73,22,30.81,12.88,61.68,15.84,91.24-3.32,6.55-4.25,12.06-10.45,17.11-16.53,6.53-7.87,15.57-10.26,23.21-4.91s8.9,15.43,2.8,23.88c-14.32,19.86-33.64,32.56-57.17,38.62C759.79,272.25,749.65,273.29,739.48,275Z"/><path class="cls-1" d="M525.82,541.52c-47.4-.45-90.77-32.48-104.48-77.68-2.91-9.61,1-18.42,9.41-21.25,9.18-3.09,17.65,1.54,21.06,11.4,9.94,28.77,29.49,47,59.42,53.32,33.19,6.95,67.82-10.47,82.85-41.08a83.5,83.5,0,0,0,8.47-33.12,15.82,15.82,0,0,1,15.35-15.47c7.74-.3,15,5.17,16.22,12.75a43.62,43.62,0,0,1,0,10.95A109.8,109.8,0,0,1,548,538.42C540.75,540,533.23,540.51,525.82,541.52Z"/><path class="cls-1" d="M401.2,143.65c36.05,1,67.37,16.18,92.75,44a15.93,15.93,0,0,1-.71,22.86c-6.25,5.88-16,5.78-22.44-1-11.14-11.81-23.75-21.33-38.86-27.41-16-6.44-32.58-8.75-49.35-4.79-19.79,4.67-34.7,16.39-44.23,34.57-6.33,12.07-9.74,25-11.22,38.53-.88,8-6.67,13.58-15.42,14.09-5.18.3-14.29-3.64-15.57-12.21a43.09,43.09,0,0,1,.22-11.89c2.85-21.52,10-41.48,23.43-58.68C339.94,156,367,144.12,401.2,143.65Z"/><path class="cls-1" d="M177.23,434.6c-37.84-1.42-66.92-15.22-90.28-41.13-6.42-7.12-5.8-16.58,1-22.76,6.6-6,16.37-5.45,22.78,1.52,13.35,14.52,29.33,24.63,48.73,28.61,36.73,7.54,67.21-11.64,76.68-48.1a124.85,124.85,0,0,0,3.11-17.17c1-8.93,7.65-14.77,17.09-14.5,8.08.23,15.59,7.47,14.67,15.8-1.13,10.2-2.75,20.56-5.92,30.27-10.84,33.16-32.42,55.8-67,64.38C190.43,433.43,182.37,433.87,177.23,434.6Z"/></g></g></svg>