<svg xmlns="http://www.w3.org/2000/svg" viewBox="0 0 1511.82 1074.55"><defs><style>.cls-1{fill:#d24f4f;}.cls-2{fill:#982e2f;}.cls-3{fill:#40bfb9;}.cls-4{fill:#a63e3e;}.cls-5{fill:#cee7ed;}.cls-6{fill:#ac413e;}.cls-7{fill:#f5c84c;}.cls-8{fill:#daaa46;}.cls-9{fill:#622222;}.cls-10{fill:#f9d1c5;}.cls-11{fill:#f7c4b0;}.cls-12{fill:#a53c3b;}.cls-13{fill:#d24f50;}.cls-14{fill:#dea790;}.cls-15{fill:#642c28;}.cls-16{fill:#661511;}.cls-17{fill:#844f4a;}.cls-18{fill:#db6d6f;}.cls-19{fill:#f9d1c6;}.cls-20{fill:#fe9c98;}</style></defs><g id="Layer_2" data-name="Layer 2"><g id="Layer_2-2" data-name="Layer 2"><path class="cls-1" d="M1117.73,913.32c-17.65,26.39-33.4,54-45.42,83.24-5.26,12.82-12.34,16.08-24.46,16.49-29.68,1-58.38-5.39-87.29-10.4-9.11,6.41-17.8-.27-26.28-1.61q-41.16-6.51-81.88-15.68c-19.44-4.35-38.53-10.3-57.64-16-7.62-2.27-15.12-3.63-23-2.66,11.76,7.94,23.54,15.84,35.26,23.85,2.56,1.76,6.39,3.26,5.54,7.07-1,4.47-5.45,4.29-9,4.6-25.47,2.29-50.39-2.17-75.22-6.86-12.55-2.37-28.15-2.32-36.41-9.88s-.54-23.58-2.81-35.74c-12.47-1.44-24.87-3.92-37.53-2.67-2,8.77-3.36,14.68-5.24,18.67l-75.93-28,6-2.33c-7.26-1.34-14.56-2.45-21.88-3.53-72-10.66-115.81-54.09-181.17-85.24-6.16-2.94-23.3-6.68-29-10-5.92-3.45-22.11,5.74-28.3,2.84,1.28,51.83,1.79,103.71,4.18,155.49.62,13.41-6.58,74.66,11.16,75.55,124.93,6.22,249.79,3.34,374.81,3.34,126,.31,252.09.35,378.1-2.43,6.49-.14,12.76-1.68,19.08-2.13,8.24-.6,9.8-4.48,9.57-11.55-.32-9.66-.32-19.36.28-29C1115.58,990.32,1119.54,951.94,1117.73,913.32Zm-552.6,152.44h0Z"/><path class="cls-2" d="M1103.2,1.21,1099.74,0Z"/><path class="cls-3" d="M578.79,480.73c18.91-4.39,37,4.5,55.72,3.4,14.56,3.71,29.47,3.69,44.33,4.12,0,7.41.3,15.55,6.08,20.36,15.55,12.94,33.69,12.3,51.59,6.23,14.44-4.89,17.3-17.33,16.76-31,19.82-2.15,40-2.54,58.19-12.45,9.86,1.84,18.29-3.29,27.19-5.85,4.85-1.4,9.24-3.85,13.47.88l9.93,64.95c1.87,22.88,1.86,22.88-20.77,27a10.07,10.07,0,0,1-2.69.52c-13.37-1.38-15.85,5.81-13.38,16.92-31.9-11.11-63.44-22.88-97.16-28.39-46.68-7.64-92.07-4.1-136.95,9.93-3.88,1.22-7.89,2-11.83,3.06a5.36,5.36,0,0,0-2.65-.38l-.83-.56c-.47-6.35,1.21-12.91-1.76-19C579,520.8,579.84,500.84,578.79,480.73Z"/><path class="cls-4" d="M825.21,575.8c-2.47-11.11,0-18.3,13.38-16.92a10.07,10.07,0,0,0,2.69-.52c22.63-4.11,22.64-4.11,20.77-27a579.93,579.93,0,0,0,119.73-90.1c5.75-5.62,11.31-8.72,20-9.66,23.65-2.57,47.64-4.22,70.32-12.55,6.92,3.34,20.24.43,19.46,10.76-.73,9.58-13.77,7.17-20.9,7.73-17.78,1.39-34.82,8.84-53,6.23-5.2-.75-8.58,2.54-11.74,6-30.15,32.85-67.31,56.91-103.35,82.36-10.49,7.41-25.88,10.21-20.58,30.06,1.81,6.78-9.17,8.24-16.13,8.69-10.24.65-21.18-.34-26.84,11.24C833.82,581.29,829.49,578.61,825.21,575.8Z"/><path class="cls-5" d="M554.23,971.87c-7.18-1.59-14.44-2.87-21.48-4.89-3.78-1.09-9.17-1.63-9.77-6.44-.67-5.39,5.12-5.87,8.55-7.3,14.84-6.2,29.88-11.92,44.85-17.81,22.13-5.57,22.13-5.57,22.06-29.25,19.61,2.73,39.27,5.2,57.81,12.77-1.85,9.32-5,18.43-4.66,28.11C645.44,974,645.44,974,617.18,974c-13.69,0-27.37-.06-41.06-.09Z"/><path class="cls-5" d="M771.75,966.68c11.76,7.94,23.54,15.84,35.26,23.85,2.56,1.76,6.39,3.26,5.54,7.07-1,4.47-5.45,4.29-9,4.6-25.47,2.29-50.39-2.17-75.22-6.86-12.55-2.37-28.15-2.32-36.41-9.88s-.54-23.58-2.81-35.74l1.35-21.27c18.85,3.71,37.09,9.55,55.23,15.75-1.13,4.77-1,8.66,4.48,11.17C757.54,958.76,764.58,962.87,771.75,966.68Z"/><path class="cls-6" d="M598.44,906.18c.07,23.68.07,23.68-22.06,29.25-24.07-4.45-48.7-6.28-72.17-13.43-19-5.8-38.36-10.5-56.34-20s-38.13-15-56.11-24.56c-12.19-6.47-27-8.14-36.73-19.19,27,10.08,53.91,20.35,81,30.17,37,13.43,74.79,20.91,114.49,15.42C566.45,901.64,582.51,904.17,598.44,906.18Z"/><path class="cls-6" d="M771.75,966.68c-7.17-3.81-14.21-7.92-21.57-11.31-5.45-2.51-5.61-6.4-4.48-11.17,24.3.2,47,8.09,69.66,15.38,48.07,15.48,96.25,30.55,145.2,43.07-9.11,6.41-17.8-.27-26.28-1.61q-41.16-6.51-81.88-15.68c-19.44-4.35-38.53-10.3-57.64-16C787.14,967.07,779.64,965.71,771.75,966.68Z"/><path class="cls-7" d="M1455.59,702.86c-37-31-156.92-7.34-196.15-7.27-32,.07-63.93.31-95.88-.32-10-.19-31.13,3.2-40.11-2.42-35.82-22.42-77.14-28.41-117-38.12a411.21,411.21,0,0,1-82.69-29.6c-28.5-13.82-56.5-28.63-84.72-43-5.19-.82-9.52-3.5-13.8-6.31-31.9-11.11-63.44-22.88-97.16-28.39-46.68-7.64-92.07-4.1-136.95,9.93-3.88,1.22-7.89,2-11.83,3.06l-2.69,2.31-3.14,2.53c0,12.86-8.78,16.28-19.09,16.53-10.81.26-17.89-5.21-19.21-16.63H535c-2.38.24-4.39-.32-5.6-2.6-13.71-3.07-26.13-10.82-40.64-11.06-6.55-.1-12.81.27-17.79,5.23-1.8,23-4.7,45.78-14.06,69.92-13.29-24.63-4-47.66-4.55-70.11-5.61-7.68-14.42-4.35-21.69-6.09C400.38,543.16,371,533,341.22,523.84c-9.15-2.82-18.35-5.48-27.52-8.21l-4-.3c-6.88.08-13.77,0-20.65.26C255.44,516.7,214.1,499,181.72,491.5c-31.07-7.17-62.14-14.32-93.36-20.8-15.93-3.3-65.4-20.51-79.68-9.39-6,4.67-7.18,13.15-7.62,20.74-3.84,67,3.15,134.57,14.63,200.56,5.42,31.17,7,47.23,35.78,62.82,21.31,11.55,45.66,16,68.15,24.58,48.17,18.31,96.9,35.16,146.24,50,19.86,6,39.17,14.31,58.22,22.46,69.62,29.8,147.82,72.2,226.42,61.34,16-2.2,32,.33,47.94,2.34,19.61,2.73,39.27,5.2,57.81,12.77,11.84,1.58,23.4,4.23,34.22,9.5,18.85,3.71-7.29-28.48,10.86-22.29,24.29.21,91.37,46.13,114,53.42,48.07,15.48,96.25,30.55,145.2,43.07,28.91,5,57.61,11.39,87.29,10.4,12.12-.41,454.21,12.93,459.48.11,13.68-33.28-7.73-96.66-13.52-130q-7.26-41.74-15-83.41c-4.41-23.84-3.91-69.4-16.73-89.61A31.32,31.32,0,0,0,1455.59,702.86Z"/><path class="cls-8" d="M452.38,556.52c6.19,1.22,12.37,3.64,18.61.19-1.8,23-4.7,45.78-14.06,69.92C443.64,602,452.93,579,452.38,556.52Z"/><path class="cls-6" d="M690.47,928.45l-1.35,21.27c-12.47-1.44-24.87-3.92-37.53-2.67-.29-9.67,2.81-18.78,4.66-28.1C668.09,920.53,679.65,923.18,690.47,928.45Z"/><path class="cls-8" d="M535.14,565.14l38.3.11c0,12.85-8.78,16.27-19.09,16.52C543.55,582,536.46,576.56,535.14,565.14Z"/><path class="cls-8" d="M529.42,562.54c2.27,0,4.33.46,5.6,2.61C532.64,565.38,530.63,564.82,529.42,562.54Z"/><path class="cls-8" d="M576.62,560a5.36,5.36,0,0,1,2.65.38l-2.69,2.31A7.84,7.84,0,0,1,576.62,560Z"/><path class="cls-9" d="M866.17,341.57c5.43-41.48-19.7-55.72-29.84-96.41-5.54-22.19,5-54.82-13-70-3.25-2.73-2-21.6-7.68-17.45-39,28.59-84,29.6-129.57,27-36.39-2.1-72.12-8.78-107.45-17.38-8.5-2.07-14.55-.71-21.12,5.09-24.76,21.84-23.33,50.79-25.18,81.78-1.77,29.51,4.45,89,10,118-7.4-2.56-19.93-40.43-23.44-45.84-6.33-9.78-6.67-22.35-14.25-31.64-1.14-13.22-2.14-26.46-3.43-39.67-4.31-44.06,3.34-84.12,38.38-115,2.79-2.45,3.09-5.42,3.9-8.47,7.67-29.23,27.88-45.55,55.94-52.87C636.66,69,674.77,62.89,711.09,49.38c19.14-7.11,35.59-16.44,47-35,.69,7.29,1.38,14.58,2.18,23.1,12.94-7.62,24-15.14,34.31-24,14-12,14.14-11.9,24.46,2.38,5.52,23.84,13.66,47.45,2.36,75.09,17.18-11.77,16.8-27.88,23.32-40.45,6.65,7.13,7.18,16.9,10.94,25.28-.29,9.55.86,19.42-1.17,28.58-4.53,20.45-4.16,22.71,15,35l0,0c2.23,9.57,9.71,16.22,13.59,25.08C900,203,899.76,242.8,894.34,283.25,890.12,300.7,883,317,875.16,333.09,871.3,335,871,340.7,866.17,341.57Z"/><path class="cls-10" d="M578.79,480.73c1.05,20.11.22,40.07-4.76,59.7-40.76-12.17-81.92-23.17-120.47-41.68a9.5,9.5,0,0,0-7.88-.49c-21.21,7.63-43.74,9.73-65.38,15.58-2.86-1.66-8.17.42-8.74-4.23-.72-6,6.74-6.17,8.86-10.43,4.17-1.77,8.49-3.29,12.47-5.41,2.51-1.34,6.89-2.15,5.38-6.45-1.1-3.12-4.71-2.23-7.27-2.33-10.94-.41-21.89-.57-32.84-.83-8.73-4-8.77-8.32-.18-12.25,4.46-2,9.37-3.06,14.08-4.54,6.56-.86,13.31-.95,20.28-4.27l-34.15-15c-1.28-4.09-7.21-7.4-3.43-12.21,3.16-4,8.25-2.6,12.91-2.06,9.05,1.06,17.73,4.89,27.17,4,.55-6.87-5.07-9.46-8.22-13.7-3.72-5-13.65-9.17-7.24-16.56,5.86-6.76,12.76.48,18.3,3.87,9.4,5.76,18.29,12.35,27.45,18.52,4.53,3.05,9.09,7.36,15,4.25,6.41-3.36,5.57-9.95,5.69-15.91.07-3.69-.06-7.39.32-11,.46-4.42,2.8-8.26,6.94-9.58,6.13-2,5.51,4.61,7.94,7.38,4.08,16.31,8.53,32.54,12.08,49,1.58,7.28,5.68,8.52,11.8,7.83C515.73,470.61,547.19,476,578.79,480.73Z"/><path class="cls-11" d="M504.64,294.68c7.58,9.29,7.92,21.86,14.25,31.64,3.51,5.41,4.15,13.05,11.54,15.62,3.15,3.1,1.25,7,1.66,10.52-11.19,7.68-16.52,21.81-12.93,34.31,4.71,16.42,12.48,21.07,35.06,21,4,7.72,15.81,10.56,13.85,22-.26,1.52-8.53,2.6-9.86,2.74a41.63,41.63,0,0,1-10.28-.37c-12.41-1.84-24.74-5.55-35.18-12.68-11.14-7.61-20.56-19.3-27.17-31-8.14-14.36-12.34-31-10.72-47.47a73,73,0,0,1,1.49-9.17C480.25,314.82,492.2,304.78,504.64,294.68Z"/><path class="cls-4" d="M950.35,352c2,2.67,1.54,5.58.88,8.52-11.36.84-7.71,11-9.68,16.9-11.93,35.91-37.91,57.19-70.77,59.18-18.4,1.11-29.4,8-39.86,19-6,6.27-13,10.54-19.46,15.87-18.17,9.91-38.37,10.3-58.19,12.44q-1-3.25-2.11-6.49c25.36-8.29,48.88-19.58,68.43-38.47,5.67-5.48,6.65-15.65,16.58-16.8,12.36,5.12,24.31,2.42,36.1-2.07,50-19.05,68.74-86.22,41.31-125.61,24.41,9.45,32.71,28.13,30.7,53C944,350.47,941.1,360.21,950.35,352Z"/><path class="cls-11" d="M913.58,294.39C941,333.78,922.28,401,872.27,420c-11.79,4.49-23.74,7.19-36.1,2.07,4.19-13.37,13.61-23.94,19.42-36.44,3.68,0,7.43.4,11-.13,13.28-2,20.19-10.87,21.75-23.22,1.5-11.86,2.3-24.52-13.21-29.19,7.81-16.07,15-32.39,19.18-49.84,6.76.31,10.83,5.75,16.3,8.52Z"/><path class="cls-12" d="M910.64,291.77c-5.47-2.77-9.54-8.21-16.3-8.52,5.42-40.45,5.65-80.26-11.2-118.77-3.88-8.86-11.36-15.51-13.59-25.08,7.69-.86,11.58,4.51,15.56,9.6,22,28.19,31.42,60.72,31,95.95C916,260.59,921,277.2,910.64,291.77Z"/><path class="cls-4" d="M380.3,513.84c21.64-5.85,44.17-8,65.38-15.58a9.5,9.5,0,0,1,7.88.49c38.55,18.51,79.71,29.51,120.47,41.68,3,6.12,1.29,12.68,1.76,19-1.81-10-8-12.05-17.68-14.36-22.54-5.38-45.81-11.22-66-22.06-24.73-13.26-47.77-12-71.88-2.6-10.58,4.13-21.67,2.95-32.41,5.33C379.77,527.55,376.32,522,380.3,513.84Z"/><path class="cls-12" d="M869.53,139.38c-19.15-12.3-19.52-14.56-15-35,2-9.16.88-19,1.17-28.58,5.36-3.74.35-10.76,6.34-16.57,11.1,19.25,16.23,38.18,8.28,59.17C867.65,125.45,866.22,132.24,869.53,139.38Z"/><path class="cls-12" d="M844.77,50.51c-6.52,12.57-6.14,28.68-23.32,40.45,11.3-27.64,3.16-51.25-2.36-75.09,7.07-9.12,11.51-4.47,13.3,3.44C834.91,30.46,840.59,40.14,844.77,50.51Z"/><path class="cls-4" d="M1070.15,411.7c-8.22-1-16.46-1.81-24.65-2.94-2.53-.35-6.1.12-6.71-3.41s2.83-4.4,5.16-5.43c10.91-4.82,21.92-9.41,32.89-14.08,4.15,4.23,9.47,1.82,14.24,2.52,3.69.53,9.06-1.82,9.86,4.26.59,4.43-3.65,5.23-6.77,7.18C1086.52,404.59,1076.65,404.76,1070.15,411.7Z"/><path class="cls-4" d="M1079.31,377.47c-14.2-3.49-28,1.58-43.8,2.7,10.06-11.88,23.83-18.5,28.23-32.84,2.18,5.29,4.67,9.55,11.82,7,13.06-4.61,10.08,4.54,8,10.68C1082.25,369.16,1078.86,372.62,1079.31,377.47Z"/><path class="cls-6" d="M609.57,462.91c21.83,12.36,46.24,16.39,70.22,21.79-.32,1.18-.63,2.37-.95,3.55-14.86-.43-29.77-.41-44.33-4.12-3.7-6.75-11.51-7.46-17.1-11.49C613.75,470,609.38,468.45,609.57,462.91Z"/><path class="cls-4" d="M523.72,427c14.73,1.82,29.06,9.95,44.35,2.77,6.62,2.76,10.24,8.68,14.61,13.81-17.64.24-35.37,1.91-51.62-8C527.29,433.23,524,431.82,523.72,427Z"/><path class="cls-4" d="M358.16,484.16c10.95.26,21.9.42,32.84.83,2.56.1,6.17-.79,7.27,2.33,1.51,4.3-2.87,5.11-5.38,6.45-4,2.12-8.3,3.64-12.47,5.41-5.4-1.87-10.68-4.51-16.23-5.39C357.68,492.75,358,488.69,358.16,484.16Z"/><path class="cls-6" d="M484.92,461.91c-6.12.69-10.22-.55-11.8-7.83-3.55-16.43-8-32.66-12.08-49,12,11,13.21,26.8,17.6,41C480.36,451.63,482.1,456.91,484.92,461.91Z"/><path class="cls-4" d="M1063.09,341.31c-17.89-2.33-28,13-44.78,20.21,2.88-5.27,4.63-8.49,6.38-11.7a14,14,0,0,0,9.51-4.8C1046,332,1045.94,332,1063.09,341.31Z"/><path class="cls-4" d="M991.83,361c-2,5.45-5.27,10.17-11.56,9.88-6.76-.31-8-6.69-9.88-11.66-1.13-2.94-1.44-6.2-2.11-9.31C977.89,349.84,984.44,356.31,991.83,361Z"/><path class="cls-4" d="M358.19,448.13l34.15,15c-7,3.32-13.72,3.41-20.28,4.27C370.77,458.55,358.68,457.53,358.19,448.13Z"/><path class="cls-6" d="M590.1,449.81c2.5.94,4.77,2.17,5.89,4.81C592.57,454.8,590.59,453.22,590.1,449.81Z"/><path class="cls-6" d="M604,460l5.67,3C607.36,462.87,605.11,462.55,604,460Z"/><path class="cls-6" d="M598.56,457.19c2.67-.48,4.46.72,5.69,3C601.81,460.21,599.56,459.91,598.56,457.19Z"/><path class="cls-6" d="M595.77,454.48c1.72.25,3,.91,2.94,3Z"/><path class="cls-13" d="M559.87,985.72c-.25,3.41-1.9,5.49-5.47,5.73C554.26,987.67,556.17,985.85,559.87,985.72Z"/><path class="cls-13" d="M565.82,980.43l-5.77,3.41C560.75,980.64,563.14,980.29,565.82,980.43Z"/><path class="cls-13" d="M811.46,471.39c6.43-5.33,13.46-9.6,19.46-15.87,10.46-10.94,21.46-17.86,39.86-19,32.86-2,58.84-23.27,70.77-59.18,2-5.91-1.68-16.06,9.68-16.9,1.81,13.63,3.12,27.36,5.62,40.87,1.38,7.49-3.16,9.71-7.94,12.53-31.65,18.65-63.66,36.63-96.79,52.55-4.23-4.73-8.62-2.28-13.47-.88C829.75,468.1,821.32,473.23,811.46,471.39Z"/><path class="cls-14" d="M678.84,488.25c.32-1.18.63-2.37.95-3.55a378.45,378.45,0,0,0,71.37-7.36q1.07,3.24,2.11,6.49c.54,13.68-2.32,26.12-16.76,31-17.9,6.07-36,6.71-51.59-6.23C679.14,503.8,678.88,495.66,678.84,488.25Z"/><path class="cls-14" d="M875.16,333.09c15.51,4.67,14.71,17.33,13.21,29.19-1.56,12.35-8.47,21.26-21.75,23.22-3.6.53-7.35.11-11,.13q5.29-22,10.58-44.06C871,340.7,871.3,335,875.16,333.09Z"/><path class="cls-15" d="M637.55,243.06c-17.63-3.52-33.07-2.17-46.62,8.87-3.68,3-7.87,3.54-11-.13-3.81-4.44-1.2-8.31,2.35-11.88,11.68-11.73,43.25-17.95,58.29-11.39,4.24,1.85,6.88,4.52,5.51,9.52C644.91,242.27,642.54,243.43,637.55,243.06Z"/><path class="cls-14" d="M554.22,407.74c-22.58.1-30.35-4.55-35.06-21-3.59-12.5,1.74-26.63,12.93-34.31C539.62,370.83,544.39,390.3,554.22,407.74Z"/><path class="cls-15" d="M814.12,232.32c-2.17,6.28-6.29,8.74-12.47,4.86-14.48-9.08-29.56-8.56-44.84-3-5.08,1.86-9.41,1.74-11.48-3.31s.57-8.75,5.71-10.65c19-7,37.63-7.36,55.78,2.58C810.43,224.82,814,227.13,814.12,232.32Z"/><path class="cls-16" d="M737.2,402.86c7.29-.71,9.71,4.55,10,9.92.34,7.48-2.76,13.92-10.3,17.19-12.89-6.69-25.17-7.32-36.25,3.69-13.91-1.88-17.21-11.18-16.38-23.38l2.62-2.66,5.65-.08C707.09,417.8,725.22,415.9,737.2,402.86Z"/><path class="cls-17" d="M780.5,330.13a45.91,45.91,0,0,1-31-8.77c-2.38-1.74-5.57-4.17-2.7-7.84,2.31-3,5.09-2.88,8.41-.86,18.16,11,36.34,10.06,54.27-.62,2.8-1.68,5.33-4.32,8.24-.83,3.24,3.88.62,7.09-2.36,9.25A51,51,0,0,1,780.5,330.13Z"/><path class="cls-17" d="M623.64,347.53c-9.29.13-18.45-.52-26.52-5.79-2.94-1.93-7.15-3.75-4.81-8.42s5.88-2.8,9.37-1.05c18.69,9.37,36.39,6.84,53.15-4.84,2.78-1.94,5.4-4.3,8.31-1,3.47,3.91.23,6.89-2.41,9.29C650.22,345.25,637.27,347.54,623.64,347.53Z"/><path class="cls-18" d="M700.61,433.66c11.08-11,23.36-10.38,36.25-3.69C725.44,440.19,711.82,441.58,700.61,433.66Z"/><path class="cls-14" d="M700.1,351.68c1.84-7.85,7.82-8.26,13.92-7.07s10.59,4.47,10.77,13.06c-8.1-3.42-14.62-12-23.46-4.73Q700.69,352.34,700.1,351.68Z"/><path class="cls-14" d="M701.33,352.94c-.76,2.3.15,5.52-3.11,6.4-.6.16-2.23-1.25-2.4-2.13-.63-3.26,1.8-4.49,4.29-5.52C700.49,352.12,700.9,352.54,701.33,352.94Z"/><path class="cls-10" d="M1072.09,419.05c-22.68,8.33-46.67,10-70.32,12.55-8.68.94-14.24,4-20,9.66a579.93,579.93,0,0,1-119.73,90.1l-9.93-64.94c33.13-15.92,65.14-33.9,96.79-52.55,4.78-2.82,9.32-5,7.94-12.53-2.5-13.51-5.21-37.27-5.62-40.88s-.28-4.95-.88-8.51-2-10.75,3.3-11.87c6.8-1.45,10.8,4.85,14.63,9.82.67,3.11,1,6.37,2.11,9.31,1.92,5,3.12,11.35,9.88,11.66,6.29.29,9.52-4.43,11.56-9.88,7.26-9.9,14.15-20.11,22-29.57,3.75-4.54,8.21-12.4,15.35-7.82,6.75,4.32.25,10.65-1.14,16-.9,3.46-4.29,6.12-3.31,10.2-1.75,3.21-3.5,6.43-6.38,11.7,16.81-7.23,26.89-22.54,44.78-20.21.21,2,.43,4,.65,6-4.4,14.34-18.17,21-28.23,32.84,15.8-1.12,29.6-6.19,43.8-2.7-.82,2.79-1.65,5.58-2.47,8.37-11,4.67-22,9.26-32.89,14.08-2.33,1-5.77,1.92-5.16,5.43s4.18,3.06,6.71,3.41c8.19,1.13,16.43,2,24.65,2.94Z"/><path class="cls-19" d="M545.42,459.09c-11.23-11.32-19.35-25.83-23-44.29-7.47-37.75,13.17-74.45,9.52-112.25-2.42-25-10.19-46.36-5.49-71.7,4.17-22.44,13.73-43.18,31.07-58.47,6.57-5.8,12.62-7.16,21.12-5.09,35.33,8.6,71.06,15.28,107.45,17.38,45.55,2.64,90.52,1.63,129.57-27,5.68-4.15,8.51,0,11.75,2.73,17.86,15.05,28.29,36.27,32.51,59S857.15,267,865,288.69c4.35,12.08,13,22,20.65,32.31,27,36.41,20.5,83-8,116.35-34,39.79-83.39,44.73-132.06,52.23C690.19,498.11,591.6,505.62,545.42,459.09ZM701.33,352.94c8.84-7.26,15.36,1.31,23.46,4.73-.18-8.59-4.73-11.88-10.77-13.06s-12.08-.78-13.91,7.08c-2.49,1-4.92,2.26-4.29,5.52.17.88,1.8,2.29,2.4,2.13C701.48,358.46,700.57,355.24,701.33,352.94Zm35.53,77c7.54-3.27,10.64-9.71,10.3-17.19-.25-5.37-7.83-15.12-14.83-15.12-16.13,0-28,1-38,3-4.39.87-8.1,7.62-10,12s2.37,19.12,16.28,21C711.82,441.58,725.44,440.19,736.86,430ZM637.55,243.06c5,.37,7.36-.79,8.51-5,1.37-5-1.27-7.67-5.51-9.52-15-6.56-46.61-.34-58.29,11.39-3.55,3.57-6.16,7.44-2.35,11.88,3.15,3.67,7.34,3.12,11,.13C604.48,240.89,619.92,239.54,637.55,243.06Zm176.57-10.74c-.15-5.19-3.69-7.5-7.3-9.48-18.15-9.94-36.81-9.57-55.78-2.58-5.14,1.9-7.77,5.65-5.71,10.65s6.4,5.17,11.48,3.31c15.28-5.6,30.36-6.12,44.84,3C807.83,241.06,812,238.6,814.12,232.32ZM780.5,330.13a51,51,0,0,0,34.86-9.67c3-2.16,5.6-5.37,2.36-9.25-2.91-3.49-5.44-.85-8.24.83-17.93,10.68-36.11,11.64-54.27.62-3.32-2-6.1-2.1-8.41.86-2.87,3.67.32,6.1,2.7,7.84A45.91,45.91,0,0,0,780.5,330.13ZM623.63,347.54c13.64,0,26.59-2.29,37.1-11.86,2.64-2.4,5.88-5.38,2.41-9.29-2.91-3.26-5.53-.9-8.31,1-16.76,11.68-34.46,14.21-53.15,4.84-3.49-1.75-7.06-3.59-9.37,1.05s1.87,6.49,4.81,8.42C605.19,347,614.35,347.66,623.63,347.54Z"/><path class="cls-20" d="M536.33,423.52c.21-15.82,14.44-24,41.35-23.73,16.26.16,32.78,11.8,32.67,23-.14,14.45-21.13,32.05-38.09,31.93C558,454.65,536.16,435.7,536.33,423.52Z"/><path class="cls-20" d="M853.27,426c-20.76-.13-36.92-13.81-36.73-31.11.15-14.09,14.62-24.05,34.53-24.24,25.29-.24,35.67,10.86,37.2,27.82C889.5,412.1,870.37,426.08,853.27,426Z"/></g></g></svg>