<svg xmlns="http://www.w3.org/2000/svg" viewBox="0 0 1876.24 1147.62"><defs><style>.cls-1{fill:#c03164;}.cls-2{fill:#f8ae3c;}.cls-3{fill:#de8132;}.cls-4{fill:#e17f2f;}.cls-5{fill:#f9ae3c;}.cls-6{fill:#7363dc;}.cls-7{fill:#c3822d;}.cls-8{fill:#793a2a;}.cls-9{fill:#f3ab43;}.cls-10{fill:#ce8d34;}.cls-11{fill:#8e4719;}.cls-12{fill:#dbd4ee;}.cls-13{fill:#ea3e7d;}.cls-14{fill:#f8d0c4;}.cls-15{fill:#8c76df;}.cls-16{fill:#e1a791;}.cls-17{fill:#ebae7a;}.cls-18{fill:#783521;}.cls-19{fill:#fbb751;}.cls-20{fill:#fe9c98;}.cls-21{fill:#8c5c55;}</style></defs><g id="Layer_2" data-name="Layer 2"><g id="Layer_2-2" data-name="Layer 2"><path class="cls-1" d="M502,621.78a69.29,69.29,0,0,1-24.51,14.83c-46.76,16.77-100.16,2.57-148.23,1.49q-69.48-1.58-139-1.47c-43.69,0-157-26.55-184.38,21.19C0,668.12-.08,680.63,0,692.5q.63,70.41,1.43,140.81.35,34.49.62,69c.09,11.73.53,23.7-.2,35.4-.61,9.86-3.73,20.19,1.84,29.33,3.91,6.43,11.07,10.06,18.05,12.87C52,992.09,85.32,994.71,118,994.57c135-.61,270-.52,404.9-2.54a8.23,8.23,0,0,0,4-.75c6-3.47,1.75-33.58,1.59-39.16-.52-18.14-.13-36.48-1.18-54.57-3.13-53.87.68-107.91-2.77-161.94-2.6-40.73,7.21-91-4.16-130-1.14-3.91-16.39,14.15-16.65,14.42C503.16,620.64,502.58,621.22,502,621.78Z"/><path class="cls-2" d="M512.55,332.9q2.85-106,5.68-211.94c2.1-28.83,4.67-57.63,6-86.49.49-10.25,5-13.86,14.18-15,8.69-1.1,17.25-3.16,25.88-4.8C672.06,2.58,780.23-1.46,888.47.45c94.68,1.68,189.62.14,283.84,12.63,9.06,1.2,17.13-2.65,26.35-1.53,21.88,2.65,44,3,66.09,4.25l68,7c5.87,18.44,6.08,37.75,9,56.63,6.63,43.19,6.77,86.78,10.06,130.13,3.36,44.46.12,89.16,2.72,133.84,3.78,64.77-1.6,129.68-2.08,194.54,0,5.89-.83,10.44-8.24,9.84-17.63-4.54-35.25-9.14-52.89-13.61-59-14.92-118.52-26.5-179.16-32.06,10-6.07,20.79-12.28,26.16-22.6,5.82-11.19,14.75-13.35,25.13-13.63,10.22-.28,17.27-4.11,23.23-12.77,11.78-17.12,20.45-35.31,25-55.61,4.44-20-3.14-28.86-23.9-27.15l-2.31-3.21c.6-6.22,6-9.27,10.28-10.23,7.44-1.66,11.31-6.22,17.46-13.74-9.47,3.45-13.06-3.35-18.86-4.57-2.79-8.78-6.43-17.39-8.15-26.38-1.68-8.83-6.09-13.06-14.71-13.54-2.68-11.32-10.51-10.59-19.06-8.15-4.77-12.79.73-25.67-.4-38.6-1.71-19.46-12.63-31.13-31.68-31.77A84.21,84.21,0,0,0,1095.82,210c-21.49-5.58-41.56-15.4-56.27-31.74-12.56-13.95-24.83-27.46-41.28-36.71a115.82,115.82,0,0,0-39.11-21.06c2.25-10.56,11.72-12.74,19.67-15.67,10.35-3.8,21.32-6,32-8.86,2.48-.67,6.28.33,6.64-3.44.3-3.16-2.66-4.66-5.24-5.72s-5.22-1.65-7.84-2.45l.21.13c0-4.4-2.56-5.84-6.56-5.55-12.24-5.47-22.55-14.75-37.3-15.24-16.06-.54-25,9.41-34.29,20.47-7.93-18-17.25-33.58-37.82-35.19-12.86-1-23.61,5.2-33.17,15.56,23.09,7.25,43,16.43,57.77,33.93,2.54,3,7.8,5.62,5.53,10.32-2,4.1-6.82,1.5-10.27,1.25-19.79-1.44-40.56-1.47-58.68,4-46.1,13.78-85,40.73-116.66,77.35-20.19,17.09-28.6,39.73-30.8,65.3-1.65,18.15-9.12,34.24-17.61,50-3.39,2.89-5.18,6.7-6.25,10.92-4.1,2.83-4.55,7.38-5.52,11.69-7.39,14.66-7.39,29.15,1,43.46,2.66,8.95,11.47,13.83,14.82,22.32q-.93,5.19-1.85,10.38c-6.28,4.87-12.59,9.7-18.82,14.64-16.94,13.44-17.9,24.39-3.66,41.2q3.39,6.52,6.75,13c3,14.5-6.93,29.22.69,47.11,3.85-17.81,12.22-31.63,4.91-47.2,5.34.6,7,6.5,11.55,8.15l.71,6.09a3.34,3.34,0,0,0-.51,2.71c-1.47,5.91-3.3,11.77-4.35,17.76-3.64,20.77,17.85,54.36,41.08,46.14-6.23-10.54-14.45-20.64-10.48-36.15,9.33,11.42,17.53,21.39,25.65,31.43,4,4.91,11.55,11,14.61,9.4,13.15-7.06,27.49-.52,40.38-5.53-18.5,13.57-37.3,26-61.89,24.79-25.74-1.27-51.89-5-77.19-2A957.24,957.24,0,0,0,514.71,604.6c-3.62-22.64,0-45.51-2.15-68.19Zm127.53-43-3.18-.69c-.73,1.09-1.79,2.09-2.13,3.29-1.12,4-6.95,7.1-6.12,3.19,3.62-16.91-10.55-10.57-16.25-13.45-14.72-7.42-28.62.88-41.15,6.92-9.32,4.49-3.19,16.3-4.46,24.75-.48,3.22.14,6.58-.11,9.85-.6,7.89,4,11.59,10.82,11.74,16.88.37,33.8.49,50.66-.37,4.78-.25,11.92-1,11.92-9.15Q640.1,307.9,640.08,289.86Zm130.4-281H968.77L968.71,5C902.83,6.44,836.9,2.36,770.48,8.89Z"/><path class="cls-3" d="M1374,570c-5.68-6.4-9-15.42-18.84-17.22-2.6-4-8.61-.63-11-5,7.41.6,8.2-4,8.24-9.84.48-64.86,5.86-129.77,2.08-194.54-2.6-44.68.64-89.38-2.72-133.84-3.29-43.35-3.43-86.94-10.06-130.13-2.91-18.88-3.12-38.19-9-56.63,11.8,3.82,13.33,15,16,24.36,3.44,12,4.71,24.69,6.91,37.08.8,12.56,1.6,25.11,5.14,37.29.52,2.09,1,4.17,1.56,6.26-1.67,1.23-1.32,2.79-.71,4.4a18.65,18.65,0,0,0,.86,11.36q2.55,45,5.09,90c-8.72,16.52-1.64,33.63-3,50.43,3.74-13.56-.82-27.62,3.7-41.11.29,4.2.69,8.4.85,12.61q2.27,61.14,4.44,122.28.53,89.15,1,178.31C1374.62,560.65,1374.23,565.31,1374,570Zm-10.76-167.29-3.42.1V548.51C1366.73,499.87,1360.57,451.29,1363.28,402.69Z"/><path class="cls-4" d="M1365.16,954.4q-.24,12.86-.47,25.71l-.18,8.35q-.42,12.76-.86,25.53c-.09,3.74-.19,7.48-.28,11.23-4.61,36.62-5.12,73.54-7.9,110.3.08,9.84-7.28,7.8-13,8-48.87,1.22-97.73,2.93-146.6,3.39-123.15,1.18-246.32,1.13-369.47-1.29-12.19-.24-24.36-1.28-36.55-2-5.06-4.56-11.23-1.62-16.84-2.49,15.36-6.08,31.39-1.22,47-2.87,4.57-.48,10,2,14.15-3.56-7-3.26-13.67-2.79-19.84-1.06-5,1.4-8.15.87-10.27-3.9a16.93,16.93,0,0,0,5.76-11.18l11.21-.12h5.66l8.45.07c161.73-.16,323.48,1.49,485.2-2.61,12.09-.3,14.75-6.56,14.69-15.53-.33-52.1,2.44-104.06,5.62-156,3-1.07,5.82-2.32,6.36-6,15.27,2.3,8.47-12.3,13.6-17.77,6.86,7.42-.27,17.43,4.67,25.2l0,6.21c-.22.23-.65.49-.63.7A10,10,0,0,0,1365.16,954.4Z"/><path class="cls-3" d="M775.84,1144.51l-2.72-.81c-.2-.75-.39-1.5-.55-2.26l.44-.31c5.61.87,11.78-2.07,16.84,2.49Z"/><path class="cls-5" d="M521.64,986.77c14.4-11.06,32.21-12.14,48.81-14.3,82.31-10.68,164.82-7.46,247.3-1.3,17.76,1.33,35.68.07,53.37,3.16,3.66.64,7.58,0,10.43,3.13-13.25,8.81-30.75,9.63-41.91,22.36-6.66,8.78-13.48,18.59-11.61,29.45,1.7,9.93-2.08,10.61-9.13,10.09-16.35-1.2-25.53,7.5-32.85,21.11-3.3,6.12-1,15.53-10.06,18.45-5.41-5.84-12.69,3.27-18.37-2.44-3-3-6.75-8.81-11.42-3.86-3.77,4-3.62,9.63-1.32,15.7,3.1,8.19,5.47,15.38,15.69,17.18,6,1.07,8.59,6.8,9.89,12.61l-8.54.47c-2-3.14-5.32-2.93-8.44-3.16-11.18-6.05-21.89-7.27-31.53,3l-5.18.15c-31.85-1.25-63.67.4-95.63-2a575.16,575.16,0,0,0-92.15.3c-7.23-5.2-3.75-13-4-19.42C523.48,1060.54,522.68,1023.65,521.64,986.77Z"/><path class="cls-3" d="M529,1116.82a575.16,575.16,0,0,1,92.15-.3c32,2.42,63.78.77,95.63,2q-4.49,11.1-9,22.2L677,1141c-17.65-5.22-36-3-54-5.32-26-3.38-52.31-4.51-77.79-11.41C539.4,1122.69,533.19,1121.9,529,1116.82Z"/><path class="cls-6" d="M998.27,141.54c-24.77-7-49.56-13.45-75.73-12.17-67.28,3.3-127.54,24.24-178.17,69.87-8.49,5.38-13.08,15.53-23.39,20.44.61-12.07,13-17.25,12.18-28.35,31.71-36.62,70.56-63.57,116.66-77.35,18.12-5.43,38.89-5.4,58.68-4,3.45.25,8.29,2.85,10.27-1.25,2.27-4.7-3-7.32-5.53-10.32-14.8-17.5-34.68-26.68-57.77-33.93C865,54.16,875.78,48,888.64,49c20.57,1.61,29.89,17.2,37.82,35.19,9.27-11.06,18.23-21,34.29-20.47,14.75.49,25.06,9.77,37.31,15.24.88,3.38,2.65,5.73,6.55,5.55l-.21-.13c-14.47,8.73-32.57,6.86-46.92,16.13-5.74,3.71-15.92,6.5-15.57,12,.46,7.31,11.39,4.93,17.25,8A115.82,115.82,0,0,1,998.27,141.54Z"/><path class="cls-7" d="M1083.51,498.85c14.85-9.31,30.77-16.89,38.69-34.62,3.25-7.28,13.58-5.58,20.49-6.28,12.27-1.26,19.29-7.35,24.49-17.71,11.09-22.11,24-43.59,20.5-69.95,20.76-1.7,28.34,7.12,23.9,27.16-4.51,20.3-13.18,38.49-25,55.61-6,8.66-13,12.49-23.23,12.77-10.38.28-19.31,2.44-25.13,13.63-5.37,10.32-16.13,16.53-26.16,22.6C1102.55,501.14,1092.38,505.87,1083.51,498.85Z"/><path class="cls-2" d="M640.08,289.86q0,18,0,36.08c0,8.13-7.14,8.9-11.92,9.15-16.86.86-33.78.74-50.66.37-6.86-.15-11.42-3.85-10.82-11.74.25-3.27-.37-6.63.11-9.85,1.27-8.45-4.86-20.26,4.46-24.75,12.53-6,26.43-14.34,41.15-6.92,5.7,2.88,19.87-3.46,16.25,13.45-.83,3.91,5,.84,6.12-3.19.34-1.2,1.4-2.2,2.13-3.29Zm-35.4.67c-15.14,0-20.93,5.33-21,19.38-.09,13,7.2,20,20.9,20.19s18.86-5.7,18.68-21.59C623.06,294.4,619.06,290.53,604.68,290.53Z"/><path class="cls-8" d="M733.16,191.33c.83,11.1-11.57,16.28-12.18,28.35,10.31-4.91,14.9-15.06,23.39-20.44,2.81,16.65-2.49,29.6-17.48,38.07-6.06,3.42-7.88,8.66-7.75,15.39.08,4.27,2.19,9.87-4.19,12-7.49,2.54-9.36-3.89-12.59-8.1C704.56,231.06,713,208.42,733.16,191.33Zm-20.85,61.4-.18,2.12c.27-.33.73-.64.76-1S712.53,253.11,712.31,252.73Z"/><path class="cls-9" d="M1185.37,367.09l-10.6-7c1.21-6.38-3-16.22,10.15-14.81-2.07-5.23-7.19-4.28-10.21-6.68-.35-2.34.09-5.11-3.22-5.81l.06.06c-1.58-10.94-10.17-20.36-7-32.33,12.37,3.63,18.49,11.37,20.31,24.68,1.71,12.48,3.17,12.28,9.4,13.33,5.8,1.22,9.39,8,18.86,4.57-6.15,7.52-10,12.08-17.46,13.74C1191.38,357.82,1186,360.87,1185.37,367.09Z"/><path class="cls-9" d="M770.48,8.89C836.9,2.36,902.83,6.44,968.71,5l.06,3.9Z"/><path class="cls-7" d="M959.16,120.48c-5.86-3.09-16.79-.71-17.25-8-.35-5.49,9.83-8.28,15.57-12,14.35-9.27,32.45-7.4,46.92-16.13,2.62.8,5.31,1.42,7.84,2.45s5.54,2.56,5.24,5.72c-.36,3.77-4.16,2.77-6.64,3.44-10.69,2.9-21.66,5.06-32,8.86C970.88,107.74,961.41,109.92,959.16,120.48Z"/><path class="cls-10" d="M1125.67,227.93c-2.42-2.18-4.94-4.3-5.42-7.82,19,.64,30,12.31,31.68,31.77,1.13,12.93-4.37,25.81.39,38.61l-1,.16-5.48-.61c.65-8.28-.52-16.59,1.41-24.9C1151.52,246.55,1144.24,234.36,1125.67,227.93Z"/><path class="cls-11" d="M664.46,461.23c-14.24-16.82-13.28-27.77,3.66-41.21,6.23-4.94,12.54-9.77,18.82-14.64l1.78,1.42c0,6.42-9,7.34-8.65,14-21.82,8-24.67,15.88-13.88,38.41A25.88,25.88,0,0,1,664.46,461.23Z"/><path class="cls-7" d="M676.81,474.18c7.31,15.57-1.06,29.39-4.91,47.2-7.62-17.89,2.3-32.61-.69-47.11Z"/><path class="cls-11" d="M676.81,474.18l-5.6.09q-3.36-6.52-6.75-13a23.53,23.53,0,0,0,1.72-2l2.61-4.88,7.45-6.06c.7,4.37,1.81,8.5-2.09,11.74l-1.25-1.12c.37.42.73.85,1.1,1.28,2,9.22,15.59,10.89,14.36,22.17C683.76,480.68,682.15,474.78,676.81,474.18Z"/><path class="cls-10" d="M1194.25,338.55c-6.23-1.05-7.69-.85-9.4-13.33-1.82-13.31-7.94-21.05-20.29-24.67a3,3,0,0,0-.22-2.36l7.05.44c8.62.48,13,4.71,14.71,13.54C1187.82,321.16,1191.46,329.77,1194.25,338.55Z"/><path class="cls-11" d="M676.85,367,674,372.68c-8.38-14.31-8.38-28.8-1-43.46.44.33.87.67,1.3,1,.15,2.9.31,5.81.47,8.71-.23,1.76-.45,3.53-.68,5.29-3.67,3.74-3.31,7.59-.3,11.52C674.3,359.64,673.1,364,676.85,367Z"/><path class="cls-9" d="M1171.39,298.63c-2.35-.15-4.7-.29-7-.46q-3.54-1.05-7.1-2.05l.13.1-6.11-5.57,1-.16C1160.88,288,1168.71,287.31,1171.39,298.63Z"/><path class="cls-11" d="M688.79,395l5.08,2.64c-.28,3.86-1.65,7.11-5.15,9.16l-1.78-1.42Q687.87,400.19,688.79,395Z"/><path class="cls-11" d="M684.75,306.61l2.84,3.61c-1.24,4-4.23,6.54-7.44,8.9l-1.66-1.59C679.57,313.31,681.36,309.5,684.75,306.61Z"/><path class="cls-11" d="M673,329.22c1-4.31,1.42-8.86,5.52-11.69l1.64,1.59c-1.07,4.17-2.46,8.17-5.86,11.11C673.85,329.89,673.42,329.55,673,329.22Z"/><path class="cls-7" d="M1004.61,84.47c-3.9.18-5.67-2.17-6.55-5.55C1002.05,78.63,1004.58,80.07,1004.61,84.47Z"/><path class="cls-11" d="M689.07,488.42a11.48,11.48,0,0,1,.45,2c0,.21-.63.45-1,.67A3.34,3.34,0,0,1,689.07,488.42Z"/><path class="cls-3" d="M1365.29,945.8c-4.94-7.77,2.19-17.78-4.67-25.2C1361.08,897.82,1366.52,914.89,1365.29,945.8Z"/><path class="cls-4" d="M1363.28,402.69c-2.71,48.6,3.45,97.18-3.42,145.82V402.79Z"/><path class="cls-4" d="M1367.56,233.46q.36,4.66.73,9.32c-4.52,13.49,0,27.55-3.7,41.11C1365.92,267.09,1358.84,250,1367.56,233.46Z"/><path class="cls-3" d="M1365.16,954.4a10,10,0,0,1-.53-1.69c0-.21.41-.47.63-.7A1.93,1.93,0,0,1,1365.16,954.4Z"/><path class="cls-5" d="M1335.38,944.65l5.28-.3c-3.18,52-6,103.93-5.62,156,.06,9-2.6,15.23-14.69,15.53-161.72,4.1-323.47,2.45-485.2,2.61-2.79-3.6-5.61-3.61-8.45-.07H821c-.45-4.89,6.25-6.35,5.47-11.4l.07.06c3.2,0,6.68.75,8.48-3.09l2.86-2.46c6.53,1,8.25-4,11.47-8.12,6.09-7.81,3.07-18.28,8.74-25.94,4.41.81,8.37,2.47,13.38.84,15.94-5.2,18.65-16.12,8.43-37,5.91-1.12,12-1.64,17.7-3.48,20.45-6.62,43.16-6.23,61.35-19.8l3.51-32.47c8.23-3,17.31.56,25.44-3.27l29.22.13c4.7,11.17,1,24.88,10.37,34.64.47,4.11,4,5.08,6.94,6.12,33.24,12,68,15,102.91,17.41a13.2,13.2,0,0,0,12.65-6.77c-5.27-3.62-10.63-5.17-15.65-7.45-9.4-4.28-21.72-2.19-28.31-12.6,8.24-1.77,16.54-3.32,24.7-5.42,4-1,9-2.5,9.21-7.43.17-4.48-5.09-4.57-8.09-6.5-10.77-7-24.6-6.16-35-14,24.24-3.56,48.76-2.15,73.13-3.53,53.5-3,106.6-8.07,159.16-18.58l3.36-1.63.5-.36C1333.83,945.76,1334.6,945.21,1335.38,944.65Z"/><path class="cls-5" d="M858.13,1067.5c-5.67,7.66-2.65,18.13-8.74,25.94-3.22,4.13-4.94,9.15-11.47,8.12,2.48-4,5.15-7.8,7.39-11.89,6.49-11.82,4.84-22.7-2.3-34.14-8.31-13.33-20.73-11.88-32.38-9.82-12.46,2.21-21,11.53-22.6,24-2.58,19.65,6.36,37.86,38.48,37.31.78,5-5.92,6.51-5.47,11.4l-11.21.11c-5.66-8.28-13.25-2.4-20-2.72-14.45-9.73-17.89-18.91-13.84-36.92,9-2.92,6.76-12.33,10.06-18.45,7.32-13.61,16.5-22.31,32.85-21.11,7.05.52,10.83-.16,9.13-10.09-1.87-10.86,5-20.67,11.61-29.45,1.56,7.08,9.07,4.39,12.85,7.82-.15,1.13-.29,2.25-.44,3.37-15.41,3.6-18.38,8-17,23.06,1.12,11.88,11.09,10.94,18.55,13.17,2.67.8,6.18-1.67,9.37-2,3.7-.41,7.92-.63,8.63,4.58.52,3.9-1.51,6.45-5.52,6.37C857.65,1056,857.56,1061.46,858.13,1067.5Z"/><path class="cls-3" d="M761.92,1118.58l8.53-.47,4.84.81c6,13.16,15.77,16.31,28.78,10.82,2.12,4.77,5.25,5.3,10.27,3.9,6.17-1.73,12.79-2.2,19.84,1.06-4.11,5.55-9.58,3.08-14.15,3.56-15.63,1.65-31.66-3.21-47,2.87l-.44.31Z"/><path class="cls-4" d="M804.07,1129.74c-13,5.49-22.78,2.34-28.78-10.83,4.8-1.3,10.48,1.65,14.54-3.07,6.75.32,14.34-5.56,20,2.72A16.93,16.93,0,0,1,804.07,1129.74Z"/><path class="cls-9" d="M826.7,1118.45c2.84-3.54,5.66-3.53,8.45.07Z"/><path class="cls-4" d="M761.92,1118.58l10.65,22.86c.16.76.35,1.51.55,2.26l-14.85-1.16c-3.31-9.25-6.24-19.51-19-18.18-9.5,1-16.53,6-17.21,16.78l-14.27-.4q4.47-11.1,9-22.2l5.18-.14c10.5-1.1,21.52,3.31,31.53-3C756.6,1115.65,759.89,1115.44,761.92,1118.58Z"/><path class="cls-3" d="M722.08,1141.14c.68-10.77,7.71-15.78,17.21-16.78,12.74-1.33,15.67,8.93,19,18.18l-7.89,1.25-16.4-1.91-3.77-.31Z"/><path class="cls-12" d="M852.49,1007.64c-3.78-3.43-11.29-.74-12.85-7.82,11.16-12.73,28.66-13.55,41.91-22.36,13.27-4.65,26.91-2.2,40.28-1.45a177.63,177.63,0,0,0,37.75-1.55l2.92,1.12L959,1008c-26,3.07-52.15,2.68-78.28,2.55C871.6,1006.73,861.88,1008.75,852.49,1007.64Z"/><path class="cls-12" d="M1027.53,1007.08c-9.41-9.76-5.67-23.47-10.37-34.64l79.77-2c10.36,7.86,24.19,7.07,35,14,3,1.93,8.26,2,8.09,6.5-.2,4.93-5.19,6.4-9.21,7.43-8.16,2.1-16.46,3.65-24.7,5.42Z"/><path class="cls-13" d="M1159.7,807.67c-6.1,0-12.29-.7-18.26.13-14.29,2-18.08-5.84-18-17.91,0-6.09.38-12.22-.1-18.27s2.54-10.91,7-12.75c20.8-8.59,41.82-9.58,62.51,1,2.31,1.18,3.66,2.78,3.86,5.32.11,1.4.16,2.81.14,4.21C1196.16,815.71,1203.2,806.68,1159.7,807.67Zm-19.37-26.42c0,13.39,9.57,23.84,21.34,23.2,8.24-.44,20.39-14.05,20.17-22.59-.28-11-9.52-19.35-21.48-19.41C1143.35,762.36,1140.37,765.16,1140.33,781.25Z"/><path class="cls-14" d="M1056.85,487.38c5.81,5.42,18.23,3.35,17.86,15.78-1,8.19-2.9,12.6-13.93,12.47-8.13-.09-18,2.36-25.8,1.56-10.29-1.05-20.13-7.67-31.5-6.78-.39,0-1.17-5.08-1.77-7.8,6.9-10.3,10.59-23.81,29.35-15.74C1037.08,489.47,1048.2,492.38,1056.85,487.38Z"/><path class="cls-14" d="M824.5,544.69c-.17-6.38-2.83-13.37,4.46-17.87,11.43-6.9,24.84-10.08,35.18-19.15,5.25-4.6,11.53-3.51,16.77.06,5,3.38,9.16,7.84,13.7,11.83a31,31,0,0,1-.9,5.5c-3.24,9.2-22.38-4.2-20.75,14.18.07.86-15.94,5.9-24.93,8S831.63,553.54,824.5,544.69Z"/><path class="cls-1" d="M962.5,975.58l-2.92-1.12c-.06-24.16,9-69.3,17.89-85.41,10.81,28.06,8.56,56,10.47,83.25C979.81,976.14,970.73,972.57,962.5,975.58Z"/><path class="cls-15" d="M1056.85,487.38c-8.65,5-19.77,2.09-25.79-.51-18.76-8.07-22.45,5.44-29.35,15.74-7.48-.46-14.64,3.59-22.23,1.67q-1.5-9.51-3-19a103.75,103.75,0,0,1,27.58-16.71c10.63,1,21.26,2.7,31.89,2.76C1047.54,471.36,1054.27,476.31,1056.85,487.38Z"/><path class="cls-15" d="M894.61,519.56c-4.54-4-8.75-8.45-13.7-11.83-5.24-3.57-11.52-4.66-16.77-.06-10.34,9.07-23.75,12.25-35.18,19.15.17-10.51,9.49-13.92,15.64-19.59,3.64-3.35,8.63-5.22,11.25-9.81l52.41,5.19q.57,5.68,1.13,11.36C906.52,521.27,899.63,517.94,894.61,519.56Z"/><path class="cls-16" d="M909.39,514q-.55-5.69-1.12-11.36c25,3.18,46.67-6.84,68.2-17.37q1.5,9.52,3,19Z"/><path class="cls-4" d="M1335.38,944.65c-.78.56-1.55,1.11-2.31,1.68C1333.27,945,1333.85,944.16,1335.38,944.65Z"/><path class="cls-4" d="M1332.57,946.69l-3.36,1.63Z"/><path class="cls-5" d="M789.83,1115.84c-4.06,4.72-9.74,1.77-14.54,3.07l-4.84-.8c-1.29-5.81-3.83-11.54-9.88-12.61-10.22-1.8-12.59-9-15.69-17.18-2.3-6.07-2.45-11.71,1.32-15.7,4.67-4.95,8.4.82,11.42,3.86,5.68,5.71,13-3.4,18.37,2.44C771.94,1096.93,775.38,1106.11,789.83,1115.84Z"/><path class="cls-5" d="M753.48,1115.42c-10,6.29-21,1.88-31.53,3C731.59,1108.15,742.3,1109.37,753.48,1115.42Z"/><path class="cls-17" d="M730.21,1141.57l3.77.31C732.61,1143.12,731.36,1143,730.21,1141.57Z"/><path class="cls-14" d="M976.47,485.24c-21.53,10.53-43.18,20.55-68.2,17.37l-52.42-5.19c-19-2.79-38.09-5.74-55.06-15.68-4.18-2.45-8.06-1.39-12.22-.89C745.18,486.07,703,448.73,703,405.22a49.56,49.56,0,0,1,4.84-20.39c3.35-7.42,7.75-16,15.41-17.16,6.55-1,7.5,9.25,11.6,14,7.6,8.85,14.62,18.21,21.88,27.35-12.07,7.37-15,18.85-8.66,33.43,3,6.85,21.39,18.42,27.36,17,5.51-1.31,5.86-4.54,3.81-9.48-5.5-13.24-10.52-26.69-15.73-40.05-11.63-31.34-19.95-63.63-28.27-95.95-2.14-8.31-.72-13.51,5.93-18,1.17-.78,2.07-2.05,3.32-2.61,18.44-8.25,26.6-23.34,28.72-42.61.23-2.11.27-4.83,3.75-5.56,3.69,7.68-1.89,20.68,6.38,23.31,6,1.91,15-6,22.86-9.14,10.49-4.16,20.95-8.56,31.77-11.59,10.66-3,18.32-6.82,14.49-19.92-.56-1.94.3-4.3.5-6.48,1.76.2,3.17,0,3.37.44,8.12,16.49,20.94,15.83,36.3,11.67,18.12-4.9,36.88-7.21,55.69-8.37,16.5-1,16.39-1,11.67-16.87-.7-2.38-3.33-4.69-1-8.23,6.94,2.39,7.65,9.23,9.08,14.45,2.19,7.94,7.12,9.51,14.25,10.49,9.71,1.33,13-1.73,10.81-11.26-.72-3.08-.55-6.36-.82-10,5.27,1.1,6.05,5.31,7.14,8.35,4.17,11.64,11.4,18.81,24.24,19.91,8.26.72,11.37,6.08,12.58,14.15,4.33,28.81,9.32,57.53,14,86.29.86,14.89,1.69,29.78,2.58,44.68.3,5-1.56,10.89,4,14,6.13,3.46,10.44-1.46,15.19-4.25,5.84-3.42,8.09-8.75,8.85-15.08,2.54-21.3-4.15-30.38-28.79-39,2.71-12.87,6.38-25.65,7.81-38.66,1.09-9.94,5.61-10,13.09-8.22,20,4.83,35.15,22.66,38.46,45.74,5.58,38.87-16.61,74.49-54,86.53-2.71.87-5.81,1.14-7.09,4-9.61,21.32-29.52,32.3-46.31,46.42A103.75,103.75,0,0,0,976.47,485.24ZM903.31,378.47c7.68-3.9,14.94-2.58,21.86,2.94-6.19-11.69-13.39-12.53-22.69-3.8-6.18,1.33-5.34,5.12-2.66,9.6Zm-83.57,90.1c16.46.1,26.47-10.46,26.72-28.19.21-15.1-9.15-25.29-23.43-25.5-18.75-.28-27.35,6.93-27.44,23C795.45,461.1,801.24,468.45,819.74,468.57Zm203.2-45c4.77-2.39,15.49,4.59,15.33-7.5-.11-8.41,7.28-13.22,7.85-20.1.84-10-19.69-24.32-31.69-23.43-15.69,1.16-22.43,12-21,33.72C994.3,420.09,1002.85,425.25,1022.94,423.55Zm-207.53-147c-18.75,1.85-36.12,7.7-49.08,23.05-3.5,4.14-6.67,8.89-1.13,13.35,4.45,3.58,8.59,1.55,12.08-2.68,10.24-12.38,24-17.49,39.59-18.36,5.53-.31,12.58.71,12.63-7.39C829.56,275.26,821.75,277.09,815.41,276.5Zm160.71-34.34a64.4,64.4,0,0,0-32.57,7.4c-4.94,2.51-11.43,5.14-7.72,12.36,3,5.93,8.51,4.1,13.47,1.64,15-7.41,30.2-9.61,46-2.3,4.09,1.89,8.47,1.82,10.8-3.12,2.74-5.8-1.15-8.91-5.46-11.11C993,243.11,984.69,241.77,976.12,242.16Zm-51,214c10.86-1.26,20.54-5,26.67-15,2.59-4.21,3.15-9.12-.1-13.17-3.65-4.55-7.75-1.28-11.21.72-7.86,4.57-16.29,6.44-25.26,7.32-4.08.4-10.76-1.42-11.56,4.91-.88,6.83,4.35,11.08,10.15,13.46C917.18,455.8,921.15,455.61,925.16,456.16Zm-98-65.6a55.42,55.42,0,0,0,40.17-16.8c2.59-2.67,6.78-6.66,1.71-10.66-4.46-3.52-6.45,1.27-8.9,3.75-12.15,12.29-26.87,16.22-43.64,13.46-3.79-.62-9.2-4.92-10.73.92-1.83,7,5.26,7.42,10.09,8.48C818.55,390.3,821.41,390.16,827.14,390.56Zm121.69-45.8c-2.44,2.24-10.66-5.2-11.21,2.93-.53,7.84,8.68,6.65,13.29,6.4,18.5-1,34.91-7.29,46.09-23.24,2.18-3.11,4.56-7.12.68-10.06-4.62-3.51-6.19,1.36-8.37,4.26C979.61,338,966.46,344,948.83,344.76Z"/><path class="cls-16" d="M1052.12,332.73c24.64,8.65,31.33,17.73,28.79,39-.76,6.33-3,11.66-8.85,15.08-4.75,2.79-9.06,7.71-15.19,4.25-5.55-3.14-3.69-9.06-4-14-.89-14.9-1.72-29.79-2.58-44.68A3.46,3.46,0,0,1,1052.12,332.73Z"/><path class="cls-16" d="M763.52,409.93c5.21,13.36,10.23,26.81,15.73,40.05,2,4.94,1.7,8.17-3.81,9.48-6,1.42-24.35-10.15-27.36-17-6.38-14.58-3.41-26.06,8.66-33.43Z"/><path class="cls-7" d="M1174.71,338.62c3,2.4,8.14,1.45,10.21,6.68-13.19-1.41-8.94,8.43-10.15,14.81-13.62,4-19.28-.83-20.88-15.2-1.39-12.56-1.77-25-2.1-37.55l7.3-.12c2.49,9.35-.18,21.21,12.46,25.63l-.06-.06C1171.1,335.56,1171.8,337.7,1174.71,338.62Z"/><path class="cls-7" d="M1120.65,231.15l5.8,2.84-.17-.09-.36,28c-6.36,13.26-1.93,23.54,8.85,32.08.11,1.39.23,2.79.35,4.19-12.2,1.11-17-5.82-17.58-16.7a87.42,87.42,0,0,1,.6-15.51c1.76-14.33-1.4-27-11.6-37.6C1111.92,225.92,1115.33,233.3,1120.65,231.15Z"/><path class="cls-9" d="M1125.67,227.93c18.57,6.43,25.85,18.62,21.53,37.21-1.93,8.31-.76,16.62-1.41,24.9l-8.14-2.47c3.78-17.11,6.39-34-8-48.1-.75-2.07-.51-4.73-3.33-5.57l.17.09Z"/><path class="cls-10" d="M668.79,454.32l-2.61,4.88c-10.78-22.54-7.93-30.43,13.88-38.42,3,1.91,2.37,5,2.41,7.77C670.9,433.42,668.1,442.94,668.79,454.32Z"/><path class="cls-7" d="M674.28,330.23c3.4-2.94,4.79-6.94,5.86-11.11,3.22-2.36,6.21-4.89,7.45-8.9,1.61-5.92,7.87-7.1,11.79-14.34.37,10.39-1.36,16.94-5.45,22.9-5.55-2.31-5.06,3.53-7.41,5.53-4.84,4.11-4.46,12.47-11.77,14.63C674.59,336,674.43,333.13,674.28,330.23Z"/><path class="cls-9" d="M674.75,338.94c7.31-2.16,6.93-10.52,11.77-14.63,2.35-2,1.86-7.84,7.41-5.53-3.66,10.23-9.82,19.5-11.84,30.38A23.21,23.21,0,0,0,678,364c-.4,1-.79,2-1.19,3-3.75-3-2.55-7.39-3.08-11.28l.3-11.52C674.3,342.47,674.52,340.7,674.75,338.94Z"/><path class="cls-7" d="M682.47,428.55c0-2.82.57-5.86-2.41-7.77-.32-6.64,8.62-7.56,8.66-14,3.5-2.05,4.87-5.3,5.15-9.16C702.55,409,700,416,682.47,428.55Z"/><path class="cls-9" d="M1120.65,231.15c-5.32,2.15-8.73-5.23-14.11-2.82l-20.48-10.8C1102.12,216.42,1113.56,218.54,1120.65,231.15Z"/><path class="cls-9" d="M1135.12,298.14c-.12-1.4-.24-2.8-.35-4.19,7.73-1.19,14.72,5,22.61,2.27l-.13-.1q.91,5.55,1.84,11.12l-7.3.12C1146.42,303.94,1141.54,299.64,1135.12,298.14Z"/><path class="cls-11" d="M678,364a23.21,23.21,0,0,1,4.05-14.88C681.51,354.33,685.63,360.78,678,364Z"/><path class="cls-2" d="M604.68,290.53c14.38,0,18.38,3.87,18.55,18,.18,15.89-4.89,21.75-18.68,21.59s-21-7.2-20.9-20.19C583.75,295.86,589.54,290.53,604.68,290.53Z"/><path class="cls-18" d="M712.32,252.73c.21.38.6.77.57,1.13s-.49.66-.76,1C712.19,254.14,712.25,253.43,712.32,252.73Z"/><path class="cls-11" d="M1159.09,307.24c-.62-3.71-9.39-11.51-4.13-12.57,2.37.68,7,2.8,9.39,3.5a3.14,3.14,0,0,1,.21,2.38c-3.18,12,5.41,21.38,7,32.32C1158.91,328.45,1161.58,316.59,1159.09,307.24Z"/><path class="cls-11" d="M1174.71,338.62c-2.91-.92-3.61-3.06-3.22-5.81C1174.8,333.51,1174.36,336.28,1174.71,338.62Z"/><path class="cls-11" d="M1160.22,296.78c-7.88,2.7-17.72-4-25.45-2.83-10.78-8.54-15.21-18.82-8.84-32.08.53,3-.28,6.35,2.35,8.79.57,7.06,1.17,14.09,9.38,16.91l8.13,2.47,5.48.61A55.51,55.51,0,0,0,1160.22,296.78Z"/><path class="cls-18" d="M674,460.16c-.37-.43-.73-.86-1.1-1.28l1.25,1.12Z"/><path class="cls-7" d="M674.07,344.23l-.3,11.52C670.76,351.82,670.4,348,674.07,344.23Z"/><path class="cls-5" d="M826.51,1107.05c-32.12.55-41.06-17.66-38.48-37.31,1.64-12.5,10.14-21.82,22.6-24,11.65-2.06,24.07-3.51,32.38,9.82,7.14,11.44,8.79,22.32,2.3,34.14-2.24,4.09-4.91,7.94-7.39,11.89l-2.86,2.46c-3,.42-6.48-.2-8.48,3.09Zm-11.74-13.73c12.74-.31,22.44-9.79,22.24-18-.23-9.67-9.61-18.78-19.37-18.82-8.33,0-19.76,11.41-18.09,19.73C801.51,1085.94,807.27,1093.21,814.77,1093.32Z"/><path class="cls-10" d="M1027.53,1007.08l78.54-3.29c6.59,10.41,18.91,8.32,28.31,12.6,5,2.28,10.38,3.83,15.65,7.45a13.2,13.2,0,0,1-12.65,6.77c-34.87-2.38-69.67-5.41-102.91-17.41C1031.57,1012.16,1028,1011.19,1027.53,1007.08Z"/><path class="cls-5" d="M858.13,1067.5c-.57-6-.48-11.47,8-11.32,4,.08,6-2.47,5.52-6.37-.71-5.21-4.93-5-8.63-4.58-3.19.34-6.7,2.81-9.37,2-7.46-2.23-17.43-1.29-18.55-13.17-1.41-15.06,1.56-19.46,17-23.06,3.35.19,6.9-.22,9.08,3.24-.8,4.62-3.45,7.23-8.11,8.2-3.34.69-6.52,2.59-5.35,6.58,1.28,4.39,5.19,5.14,9,3.67,7.68-3,15.49-1.47,23.27-1.37,10.22,20.89,7.51,31.81-8.43,37C866.5,1070,862.54,1068.31,858.13,1067.5Z"/><path class="cls-10" d="M879.94,1031.33c-7.78-.1-15.59-1.59-23.27,1.37-3.81,1.47-7.72.72-9-3.67-1.17-4,2-5.89,5.35-6.58,4.66-1,7.31-3.58,8.1-8.2l19.59-3.66c26.13.13,52.26.52,78.28-2.55-18.19,13.58-40.9,13.19-61.35,19.81C892,1029.69,885.85,1030.21,879.94,1031.33Z"/><path class="cls-9" d="M826.58,1107.11c2-3.29,5.43-2.67,8.48-3.09C833.26,1107.86,829.78,1107.12,826.58,1107.11Z"/><path class="cls-19" d="M880.71,1010.59l-19.59,3.66c-2.17-3.46-5.72-3-9.07-3.24.15-1.12.29-2.24.44-3.37C861.88,1008.75,871.6,1006.73,880.71,1010.59Z"/><path class="cls-13" d="M1140.33,781.25c0-16.09,3-18.89,20-18.8,12,.06,21.2,8.41,21.48,19.41.22,8.54-11.93,22.15-20.17,22.59C1149.9,805.09,1140.29,794.64,1140.33,781.25Z"/><path class="cls-20" d="M819.74,468.57c-18.5-.12-24.29-7.47-24.15-30.69.09-16.07,8.69-23.28,27.44-23,14.28.21,23.64,10.4,23.43,25.5C846.21,458.11,836.2,468.67,819.74,468.57Z"/><path class="cls-20" d="M1022.94,423.55c-20.09,1.7-28.64-3.46-29.54-17.31-1.4-21.74,5.34-32.56,21-33.72,12-.89,32.53,13.39,31.69,23.43-.57,6.88-8,11.69-7.85,20.1C1038.43,428.14,1027.71,421.16,1022.94,423.55Z"/><path class="cls-8" d="M815.41,276.5c6.34.59,14.15-1.24,14.09,8,0,8.1-7.1,7.08-12.63,7.39-15.63.87-29.35,6-39.59,18.36-3.49,4.23-7.63,6.26-12.08,2.68-5.54-4.46-2.37-9.21,1.13-13.35C779.29,284.2,796.66,278.35,815.41,276.5Z"/><path class="cls-8" d="M976.11,242.18a48,48,0,0,1,24.55,4.85c4.31,2.2,8.2,5.31,5.46,11.11-2.33,4.94-6.71,5-10.8,3.12-15.82-7.31-31-5.11-46,2.3-5,2.46-10.43,4.29-13.47-1.64-3.71-7.22,2.78-9.85,7.72-12.36A64.16,64.16,0,0,1,976.11,242.18Z"/><path class="cls-18" d="M925.16,456.16c-4-.55-8-.36-11.31-1.73-5.8-2.38-11-6.63-10.15-13.46.8-6.33,7.48-4.51,11.56-4.91,9-.88,17.4-2.75,25.26-7.32,3.46-2,7.56-5.27,11.21-.72,3.25,4.05,2.69,9,.1,13.17C945.7,451.14,936,454.9,925.16,456.16Z"/><path class="cls-21" d="M827.14,390.56c-5.73-.4-8.59-.26-11.3-.85-4.83-1.06-11.92-1.48-10.09-8.48,1.53-5.84,6.94-1.54,10.73-.92,16.77,2.76,31.49-1.17,43.64-13.46,2.45-2.48,4.44-7.27,8.9-3.75,5.07,4,.88,8-1.71,10.66A55.42,55.42,0,0,1,827.14,390.56Z"/><path class="cls-21" d="M948.83,344.76c17.63-.73,30.78-6.81,40.48-19.71,2.18-2.9,3.75-7.77,8.37-4.26,3.88,2.94,1.5,6.95-.68,10.06-11.18,15.95-27.59,22.24-46.09,23.24-4.61.25-13.82,1.44-13.29-6.4C938.17,339.56,946.39,347,948.83,344.76Z"/><path class="cls-16" d="M902.47,377.6c9.31-8.72,16.51-7.88,22.7,3.81-6.92-5.52-14.18-6.84-21.86-2.94Z"/><path class="cls-16" d="M903.31,378.47l-3.49,8.74c-2.68-4.48-3.52-8.27,2.66-9.61C902.47,377.6,903.31,378.47,903.31,378.47Z"/><path class="cls-18" d="M1128.28,270.66c-2.63-2.44-1.82-5.79-2.35-8.79.11-9.33.24-21.47.36-30.79,2.82.83,2.57,6.32,3.32,8.39C1131.71,250,1130,260.32,1128.28,270.66Z"/><path class="cls-7" d="M1128.28,270.66c1.71-10.34,3.43-20.68,1.33-31.19,14.43,14.07,11.82,31,8,48.1C1129.45,284.75,1128.85,277.72,1128.28,270.66Z"/><path class="cls-5" d="M814.77,1093.32c-7.5-.11-13.26-7.38-15.22-17.12-1.67-8.32,9.76-19.77,18.09-19.73,9.76,0,19.14,9.15,19.37,18.82C837.21,1083.53,827.51,1093,814.77,1093.32Z"/><path class="cls-18" d="M1083.51,498.85l-8.8,4.31c.37-12.43-12-10.36-17.86-15.78-2.58-11.07-9.31-16-20.91-16.09-10.63-.06-21.26-1.78-31.89-2.76,16.79-14.12,36.7-25.1,46.31-46.42,1.28-2.85,4.38-3.12,7.09-4,37.42-12,59.61-47.66,54-86.53-3.31-23.08-18.45-40.91-38.46-45.74-7.48-1.81-12-1.72-13.09,8.22-1.43,13-5.1,25.79-7.81,38.66a3.46,3.46,0,0,0-1.82-.35c-4.73-28.76-9.72-57.48-14-86.29-1.21-8.07-4.32-13.43-12.58-14.15-12.84-1.1-20.07-8.27-24.24-19.91-1.09-3-1.87-7.25-7.14-8.35.27,3.66.1,6.94.82,10,2.21,9.53-1.1,12.59-10.81,11.26-7.13-1-12.06-2.55-14.25-10.49-1.43-5.22-2.14-12.06-9.08-14.45-2.3,3.54.33,5.85,1,8.23,4.72,15.91,4.83,15.84-11.67,16.87-18.81,1.16-37.57,3.47-55.69,8.37-15.36,4.16-28.18,4.82-36.3-11.67-.2-.42-1.61-.24-3.37-.44-.2,2.18-1.06,4.54-.5,6.48,3.83,13.1-3.83,16.93-14.49,19.92-10.82,3-21.28,7.43-31.77,11.59-7.84,3.11-16.83,11.05-22.86,9.14-8.27-2.63-2.69-15.63-6.38-23.31-3.48.73-3.52,3.45-3.75,5.56-2.12,19.27-10.28,34.36-28.72,42.61-1.25.56-2.15,1.83-3.32,2.61-6.65,4.49-8.07,9.69-5.93,18,8.32,32.32,16.64,64.61,28.27,95.95l-6.78-.9c-7.26-9.14-14.28-18.5-21.88-27.35-4.1-4.76-5.05-15-11.6-14-7.66,1.18-12.06,9.74-15.41,17.16A49.56,49.56,0,0,0,703,405.22c0,43.51,42.17,80.85,85.56,75.63,4.16-.5,8-1.56,12.22.89,17,9.94,36,12.89,55.08,15.68-2.64,4.59-7.63,6.46-11.27,9.81-6.15,5.67-15.47,9.08-15.64,19.58-7.29,4.51-4.63,11.5-4.46,17.88-10.28,1.33-18.38,9.34-29,9.49-12.89,5-27.23-1.53-40.38,5.53-3.06,1.64-10.64-4.49-14.61-9.4-8.12-10-16.32-20-25.65-31.43-4,15.51,4.25,25.61,10.48,36.15-23.23,8.22-44.72-25.37-41.08-46.14,1-6,2.88-11.85,4.35-17.76.33-.22,1-.46,1-.67a11.48,11.48,0,0,0-.45-2c-.24-2-.47-4.06-.71-6.09,1.23-11.28-12.41-12.95-14.36-22.17l.15-.16c3.9-3.24,2.79-7.37,2.09-11.74l-7.45,6.06c-.69-11.38,2.11-20.9,13.68-25.77C700,416,702.55,409,693.87,397.64L688.79,395c-3.35-8.49-12.16-13.37-14.82-22.32l2.88-5.65c.4-1,.79-2,1.19-3,7.59-3.26,3.47-9.71,4.05-14.89,2-10.87,8.18-20.14,11.84-30.37,4.09-6,5.82-12.51,5.45-22.9-3.92,7.24-10.18,8.42-11.79,14.34l-2.84-3.61c8.49-15.74,16-31.83,17.61-50,3.23,4.21,5.1,10.64,12.59,8.1,6.38-2.16,4.27-7.76,4.19-12-.13-6.73,1.69-12,7.75-15.39,15-8.47,20.29-21.42,17.48-38.08,50.63-45.62,110.89-66.56,178.17-69.86,26.17-1.28,51,5.18,75.73,12.17,16.45,9.25,28.72,22.76,41.28,36.71,14.71,16.34,34.78,26.16,56.27,31.74a84.21,84.21,0,0,1,24.43,10.12c.48,3.52,3,5.64,5.42,7.82.26,2,1.67,3.68,1.93,5.7,1.05,12.63-5-1.53-6.95-2.48-7.09-12.61-18.53-14.73-34.59-13.62l20.48,10.8c10.2,10.58,13.36,23.27,11.6,37.6a87.42,87.42,0,0,0-.6,15.51c.6,10.88,5.38,17.81,17.58,16.7,6.42,1.5,11.3,5.8,16.67,9.21.33,12.54.71,25,2.1,37.56,1.6,14.37,7.26,19.23,20.88,15.19l10.6,7,2.31,3.2c3.52,26.36-9.41,47.84-20.5,69.95C1162,450.6,1155,456.69,1142.69,458c-6.91.7-17.24-1-20.49,6.28C1114.28,482,1098.36,489.54,1083.51,498.85Z"/><path class="cls-1" d="M1374,570c25.21,28.42,73.67,17.9,106.61,17.46,68.44-.9,136.88-2.81,205.35-2.81,43.69,0,157-26.55,184.37,21.19,5.91,10.3,6,22.81,5.85,34.68q-.63,70.41-1.42,140.81-.35,34.49-.62,69c-.09,11.73-.54,23.7.19,35.4.61,9.86,3.73,20.19-1.83,29.33-3.92,6.43-11.07,10.06-18,12.87-30.29,12.2-63.56,14.82-96.21,14.68-92.27-.41-184.52-1.05-276.83-1h-47.54c-4.91,0-86.89,0-86.89-3.16-.09-31,.12-61.83,1.92-92.82,3.12-53.87-.69-107.91,2.76-161.94,2.78-43.48-.19-87.29,3.5-130.86,9.85,1.8,13.14,10.76,18.77,17.15Z"/><path class="cls-13" d="M1347,938.37c-.54,3.67-3.36,4.92-6.36,6l-5.28.3c-1.53-.49-2.11.34-2.31,1.68l-.5.36-3.36,1.63c-52.56,10.51-105.66,15.54-159.16,18.58-24.37,1.38-48.89,0-73.12,3.52l-79.76,2-29.23-.14c-1.91-27.3.34-55.19-10.47-83.25-8.91,16.11-18,61.25-17.89,85.41A177.63,177.63,0,0,1,921.83,976c-13.37-.75-27-3.2-40.27,1.45-2.86-3.17-6.78-2.49-10.44-3.13-17.69-3.09-35.61-1.83-53.37-3.16-82.48-6.16-165-9.38-247.3,1.3-16.6,2.16-34.41,3.24-48.81,14.3-7.28,3.61-10.1-.19-11.22-6.78-.69-13.38.9-26.91-2.66-40.11q-.08-3.57-.13-7.15c1.88-4.06,2.33-8.08-.26-12a1614.71,1614.71,0,0,0-9.28-198.37c-.19-1.78-1.15-3.47-1.75-5.2a192.91,192.91,0,0,0-8.46-55.3c-6.45-21.06,2.7-34.87,16.35-48,3.34-3.22,7-6.14,10.48-9.19a957.24,957.24,0,0,1,141.66-27.67c25.3-3,51.45.77,77.19,2,24.59,1.22,43.39-11.22,61.89-24.79,10.67-.15,18.77-8.16,29-9.49,7.13,8.85,14.44,4.78,23.53,2.6s25-7.19,24.93-8c-1.63-18.38,17.51-5,20.75-14.18a31,31,0,0,0,.9-5.5c5-1.62,11.91,1.71,14.78-5.59l70.09-9.7c7.59,1.93,14.75-2.12,22.23-1.66.6,2.72,1.38,7.83,1.77,7.8,11.37-.89,21.21,5.73,31.5,6.78,7.81.8,17.67-1.65,25.8-1.56,11,.13,12.89-4.28,13.93-12.47l8.8-4.31c8.87,7,19,2.29,28.59,3.2,60.64,5.57,120.2,17.15,179.16,32.07,17.64,4.47,35.26,9.07,52.89,13.61,2.44,4.4,8.45,1,11,5-3.69,43.56-.72,87.37-3.5,130.85-3.45,54,.36,108.07-2.76,161.94C1347.14,876.54,1346.93,907.41,1347,938.37ZM1159.7,807.67c43.5-1,36.46,8,37.13-38.31,0-1.4,0-2.81-.14-4.21-.2-2.54-1.55-4.14-3.86-5.32-20.69-10.54-41.71-9.55-62.51-1-4.47,1.84-7.49,6.69-7,12.75s.12,12.18.1,18.27c-.05,12.07,3.74,19.89,18,17.91C1147.41,807,1153.6,807.66,1159.7,807.67Z"/></g></g></svg>