<svg xmlns="http://www.w3.org/2000/svg" viewBox="0 0 2566.43 973"><defs><style>.cls-1{fill:#b6e6fc;}.cls-2{fill:#dd9870;}.cls-3{fill:#1d3343;}.cls-4{fill:#fdfdfd;}.cls-5{fill:#172734;}.cls-6{fill:#e2f6fd;}.cls-7{fill:#e6b291;}.cls-8{fill:#e3aa82;}.cls-9{fill:#7dd0ec;}.cls-10{fill:#174272;}.cls-11{fill:#b4ecfd;}.cls-12{fill:#dbf7ff;}.cls-13{fill:#4e94b1;}.cls-14{fill:#ef6146;}</style></defs><g id="Layer_2" data-name="Layer 2"><g id="Layer_2-2" data-name="Layer 2"><path class="cls-1" d="M2556.16,16.67a21.43,21.43,0,0,0-2-3.68c-5.62-8.35-16.66-11.17-26.73-11.32-16.64-.24-33.31.21-50,0Q2421.69,1,2365.9.85c-74.39-.3-148.77-.2-223.16-.39Q2020.31.14,1897.86,0C1558.91.09,353,.09,14,0c-3.08,0-3.55.75-3.54,3.62C10.59,32.44.54,19.26.54,48.07V749c2.67,2.33,872.74,1.24,875.61.81,23.73-3.59,47.7-3.86,71.6-4.83,29.92-1.2,59.85.86,89.78.93.84,0,1.67,0,2.5.11,20.51,2,41.17,1.68,61.7,3.65,4.87.47,9.88,1.54,14.86.27,1.42-.66,1.6-2,1.9-3.31,9.49-41.28,24.88-80.42,43.11-118.52,4.82-10.07,3.77-11.59-7.57-12.66-16.82-1.59-33.3-4.83-48.91-11.53-20.34-8.74-35.76-22.27-42.59-44.12-7.7-24.61-6.32-47.9,9.5-69.33,3.79-5.14,8.31-9.53,12.83-13.95,3.28-3.2,4-6.44,2.32-10.77a170.14,170.14,0,0,1-7.53-23.78,42.16,42.16,0,0,0-4.79-12,50.79,50.79,0,0,1-7.35-29.64,290.81,290.81,0,0,0,.89-30.84c-.72-20.74-1.55-41.56.57-62.31.23-2.3.37-4.67-.88-6.83l-.75-.25.16,0a1.9,1.9,0,0,1,2-2c-1.37-4-1.06-7.19,4-8-1.48-1.77-3-.24-4.46,0,2.2-3.53,2-7.54,2.24-11.46a3,3,0,0,0-.08-.52c4.12.36,8-.78,11.7-2.39,1.68-.73,3.47-2.31,2-4.2-1.22-1.57-3.23-4.3-5.54-2.37-2.82,2.36-5.76,1.91-8.82,1.94a7.92,7.92,0,0,1-.24-1,35,35,0,0,0,2.14-14l.92-.2c1.59.29,3.28.07,4.7,1.2,2.73,2.17,4.45,0,5.59-1.87,1.55-2.53-1.06-3.28-2.62-4.26-1.92-1.22-4.41-1.18-6.26-2.59a3.81,3.81,0,0,0,.65-.72,14.74,14.74,0,0,0,1.44-4.76q2.72-15.75,6.29-31.34c5.76-25,12.25-49.78,20.26-74.16a14.07,14.07,0,0,1,7.91-9,71.48,71.48,0,0,1,6.91-2.88c15.8-5.29,31.73-10,48-13.82,10.85-2.53,22-3.78,32.57-7.53a9,9,0,0,0,1.31-1c1.22,0,2.47.2,3.4-1l.06-.11a5,5,0,0,0,.26.64c4,1.29,7.77,1,11-2,0-.2-.09-.4-.13-.61l2.68-.93h3.1c3.09,1,5.66-.19,8.09-1.93l1.89-.11c.57.3,1.16.88,1.7.84,8.77-.63,17.54-2.76,26.29,0,1,.32,1.23-.34,1.4-.85,1.44-4.46,5.41-3.42,8.62-4l3.89-.1,4.19-.07,2.91.16c.26,4.56-2.75,2.28-4.64,1.72-.14,1.24.1,1.76.81,2,4.68,1.75,4.51-2.35,5.79-4.7a6.07,6.07,0,0,0,.61.74c1.72.86,3.54.64,5.38.46,23.2-2.25,46.51-2.47,69.77-3.38,14.27-.55,28.59-.07,42.92.59,20.11.93,40.22,1.64,60.28,3.4,4.19.37,8.72-.13,12.26,3.19.93.88,2.17.14,3.28-.3,4.58-1.8,7.18-1.1,10.32,2.77,1.18,1.46,3.17,1.81,3.81.58,2.25-4.28,6.29-2,9.37-3.11a3.36,3.36,0,0,0,1.32-.95.36.36,0,0,1,0-.11l.7,0c2.49,1.51,5.24,1,7.93,1a39.25,39.25,0,0,0,13,2,70.25,70.25,0,0,0,16,2.07c1.85,1.52,4,.85,6.08.94.14.3.29.59.44.89,5.36,3.55,11.7,3.56,17.66,4.63,31.29,5.61,62.25,12.64,93,20.86,4.16,1.11,5.86,3.26,6.44,7.52,1.76,12.85,2.88,25.77,4.29,38.66,2.26,20.62,4.24,41.26,5.71,62a16.15,16.15,0,0,0-9.24.59c-4.72,1.5-7.73,4.76-8.16,9.64-.4,4.53,1.85,7.91,6.1,9.89,3.59,1.68,7.12,3.51,10.66,5.31,2.44,1.24,2.34,3.49,1.91,5.64s-2,3.3-4.31,3.4c-3.34.13-6.68.28-9.36-2.32s-3.69.61-5,1.79c-1.94,1.77-.21,2.71,1.21,3.76,6.32,4.66,13,4.37,19.88,2.05a4.21,4.21,0,0,0-.33.88,14.48,14.48,0,0,0,1.38,7.54,2,2,0,0,0,.7.55v.12c-.17.15-.34-.13-.49-.07-1.92-.12-3.41.41-3.76,2.6,0,.08.1.14.15.22l-.1.22.12-.2a3.27,3.27,0,0,0,.84.94c1.59,1.28,3.13,2.51,1.92,5-1.41,2.85-2,5.71.33,8.51.47.58.28,1.61.32,2.45,1.15,23.6,1.08,47.23,2,70.84.45,10.84-1.4,21.58-1.07,32.42.32,10.49-.72,20.95-1.76,31.37-.64,6.32.4,11.78,4.93,16.57a88.69,88.69,0,0,1,14.34,21c8.16,16.09,12.17,33,9.73,51.18a100.28,100.28,0,0,1-7,24.93c-10.88,26.42-29.64,44.12-57.53,51.76-16.8,4.59-33.89,4.69-51.07,4-2.25-.09-4.91-1.18-6.35,1.39-1.33,2.36.34,4.47,1.44,6.5,4,7.47,8.1,14.89,11.73,22.59a529.16,529.16,0,0,1,38.4,113.3c.42,1.93.57,4,2.64,5.09a27.82,27.82,0,0,0,9.78,1.66c12-.13,23.91,1.1,35.87,1.1,48.36,0,96.73.83,145-2.77,18.88-1.4,37.79-2.51,56.64-4.33,2.52-.25,679.95-.73,681.78-2.71V454c0-74.15.44-148.3-.48-222.45-.47-37.07-1.25-74.13-2.6-111.17C2562.13,89.92,2568.21,45.21,2556.16,16.67ZM1163.53,84Zm1-.4a4.57,4.57,0,0,0-.71.17l.13-.1c.23,0,.47-.09.7-.12Zm-3,2.41h0V86Zm3.6,4.46-.18-.28a2.48,2.48,0,0,0,.32.17Zm10.35,4.54h0v0l.07,0-.07,0v-.07Zm23.93-3a.39.39,0,0,1-.1-.08A.39.39,0,0,0,1199.4,92Zm-37.93-5.92h0s0,0,0,.06l-.13-.07Zm43.06,7,0,0,0,.06Zm23-3.85s0,.07,0,.11l-.1-.2Zm-68-2.12c.26-.29.52-.57.8-.84.08,0,.13-.11.2-.16h.06A9.1,9.1,0,0,0,1159.52,87.07Zm361.9,0,0,0a.08.08,0,0,1,0,0l.11.07Zm13.9,8.92.08,0,0,0ZM1678.1,274.72l-.37,0,.12-.13Zm-.44-.26.16.1-.14.13h-.08a1.84,1.84,0,0,1-.26.29l0,0A1,1,0,0,0,1677.66,274.46Zm-8.1-22.73c-2.13-1-5.49-1.32-5-4.5s3.7-2.52,6.09-2.62a13.73,13.73,0,0,0,1.59-.09,61.31,61.31,0,0,1,1.53,9.49A18.32,18.32,0,0,0,1669.56,251.73Z"/><path class="cls-1" d="M1073.5,290h0Z"/><path class="cls-1" d="M1069.5,298h0Z"/><path class="cls-1" d="M875.54,801.94c.06.89.3,1.65,1.28,1.94l-.3-1.94A4,4,0,0,0,875.54,801.94Z"/><path class="cls-1" d="M1640,804c-13.23.87-26.51,1.61-39.73,1.76-26.24.29-52.53,1.45-78.77-.66a3.16,3.16,0,0,0-3.14,1.06,8.87,8.87,0,0,0,1.85.65c20.19,2.13,40.43,3.61,60.72,4a703.69,703.69,0,0,0,121.84-8.09c12.29-1.88,24.64-3.56,36.7-6.73-12.84,1.31-25.65,2.88-38.5,3.88C1680.62,801.43,1660.29,802.62,1640,804Z"/><path class="cls-1" d="M1112,796c-14.28,0-28.51-1.74-42.74-1.8-28.75-.12-57.52-1-86.29.6-15.55.87-31.15,1-46.72,2.11-16.85,1.21-33.74,2.07-50.61,3.07-1.18.07-2.35,0-3.11,1.17,23.61-.63,47.22-1.47,70.83-1.86,46.58-.76,93.16-1.72,139.75-1.35,7.48.06,15,0,22.44-.06C1115.1,795.88,1113.52,796,1112,796Z"/><path class="cls-1" d="M1123.39,798.1c7.32,1.26,14.71.7,22.08.89-6.52-2-13.37-.55-20-1.91C1124.9,797,1124.1,797.74,1123.39,798.1Z"/><path class="cls-1" d="M1501.17,804.08c2.63,1.26,5.45,1,8.23,1C1506.88,803,1503.94,804.2,1501.17,804.08Z"/><path class="cls-1" d="M1511,805.25c1.73,1,3.61.8,5.48.66C1514.76,804.4,1512.84,805,1511,805.25Z"/><path class="cls-1" d="M1740.34,795.85a4.06,4.06,0,0,0,3.31-.69A3.14,3.14,0,0,0,1740.34,795.85Z"/><path class="cls-1" d="M1117.64,276.19c-3.53-3.36-6.47-6.5-9.77-9.19-3.79-3.08-5.09-5.68-.14-8.86a23.57,23.57,0,0,0,4.62-4.53c1-1.15,3.33-2,2.33-3.85-.72-1.37-2.75-.56-4.2-.65a7.93,7.93,0,0,0-6.21,2.69c-1.52,1.54-3,3.08-4.61,4.56-.69.64-1.44,1.75-2.48.93a3.2,3.2,0,0,1-.66-2.22c-.06-4.83-.12-9.66,0-14.48.06-2.55-.89-3.58-3.49-3.58s-3.53,1-3.52,3.55c.08,11,.11,22,0,32.95,0,3,1.41,3.64,4,3.54,4.25-.16,2.59-3.35,3-5.51.32-1.69-1-4.16,1.09-4.9,1.57-.54,2.63,1.69,3.81,2.8C1105.64,273.45,1109,279.22,1117.64,276.19Z"/><path class="cls-1" d="M1646.37,277.09c2.57,0,4.07-.55,4-3.58-.14-6.82-.11-13.65,0-20.47,0-2.59-.54-4.08-3.56-4-2.8.07-4.47.86-4.4,4,.08,3.49,0,7,0,10.48,0,3.33.12,6.66,0,10C1642.24,276.48,1643.77,277.09,1646.37,277.09Z"/><path class="cls-1" d="M1651,289.65c-2.7-.76-5.81-.1-7.51-3.4,1.57,4.33,1.26,8.41.09,12.82,3.1-.54,6.11.92,8.83-1h0C1655,293.93,1654.64,290.7,1651,289.65Zm-2.45,6.25c-.92-.7-1.26-1.65-.2-2.45.81-.61,1.59-.15,2,.65.64,1.1.76,2.45,1.56,3.47C1650.9,296.77,1649.52,296.66,1648.5,295.9Z"/><path class="cls-1" d="M1661.36,296h0Z"/><path class="cls-1" d="M1658,291.22c-.15-1.08-.08-2-1.44-2-.45,0-1.13.16-1.31.48-.53.95.56,1.35.88,2,.9,1.95,1.31,4.32,2.69,5.79,1.53,1.63-2.39,4.18.55,4.2,2.44,0,1.28-3.41,2-5.2a1.28,1.28,0,0,0,0-.48C1658.68,295.54,1658.27,293.31,1658,291.22Z"/><path class="cls-1" d="M1073.5,290l0,0h0Z"/><path class="cls-1" d="M1077.84,299.7c-.51-4-.53-7,.36-10.15l-4.67.49C1076.72,292.08,1074.12,296.63,1077.84,299.7Z"/><path class="cls-1" d="M1081.48,291.07c-2.47,2-1.83,4.49-.4,6.45,1.65,2.27,4.08,2,6.34.53C1082.21,298.49,1081.1,295.41,1081.48,291.07Z"/><path class="cls-1" d="M1081.48,291v.05l0,0Z"/><path class="cls-1" d="M1087.48,298l-.06,0h.09v0l0,0Z"/><path class="cls-1" d="M1661.36,296h0v0Z"/><path class="cls-1" d="M1664.3,291c.67-.75.67-1.54-.53-1.74-.81-.14-1.79-.17-1.93.94-.23,1.93-.31,3.88-.45,5.81C1663.1,294.77,1663,292.46,1664.3,291Z"/><path class="cls-1" d="M1104.44,297.51c3.65,2,5.34,1.95,5.87-.07.59-2.25-.38-3.5-2.8-3.4.62,1,2.54,1.57,1.6,3.21C1108,299.27,1106.09,296.19,1104.44,297.51Z"/><path class="cls-1" d="M1088.45,301.05h-5.92C1084.5,305.06,1086.47,302.33,1088.45,301.05Z"/><path class="cls-1" d="M1088.45,301.05h.06l0,0Z"/><path class="cls-1" d="M1088.51,301.05V301l0,0Z"/><path class="cls-1" d="M1088.76,294c-.42,1.33-.83,2.67-1.25,4,1.11.73,1,1.87,1,3C1090.24,298.87,1089.27,296.49,1088.76,294Z"/><path class="cls-1" d="M1672.12,295.2v-4C1671.7,292.54,1670.93,293.79,1672.12,295.2Z"/><path class="cls-1" d="M1107.46,294l0,0h0v0Z"/><path class="cls-1" d="M1105.47,290.09c-1.84,2.57-1,3.79,2,3.93C1106.38,292.92,1105.18,291.87,1105.47,290.09Z"/><path class="cls-1" d="M1105.47,290v.07l0,0Z"/><path class="cls-1" d="M1074.42,298h-4.91C1070.67,299.27,1071.93,299.23,1074.42,298Z"/><path class="cls-1" d="M1069.5,298h0Z"/><path class="cls-1" d="M1477.33,96.58a1.5,1.5,0,0,0,2.16,0A1.53,1.53,0,0,0,1477.33,96.58Z"/><path class="cls-1" d="M1105.48,290l0,0,.07,0Z"/><path class="cls-1" d="M1107.1,289.22l-1.53.79,1.79-.2C1107.27,289.61,1107.18,289.42,1107.1,289.22Z"/><path class="cls-1" d="M1086.42,290l.06,0,0,0Z"/><path class="cls-1" d="M1084.62,289.81l1.8.2-1.54-.79C1084.79,289.42,1084.71,289.62,1084.62,289.81Z"/><path class="cls-1" d="M1082.45,301l0,0h0l0,0Z"/><path class="cls-1" d="M1081.54,300.86l.91.15-.66-.63C1081.71,300.54,1081.63,300.7,1081.54,300.86Z"/><path class="cls-1" d="M1081.48,291l0,0,.21-.36Z"/><path class="cls-1" d="M1086.5,290l0,0,.38.2Z"/><path class="cls-2" d="M1533.38,748.69a8.34,8.34,0,0,0,7.51-5.88c3.56-9.38,9.88-17.11,15.44-25.31,3.8-5.62,6.12-12.15,10.4-17.51,1.09-1.37,1.75-3.61,4.13-2.57,2.63,1.13,3,3.66,2.33,5.94-1.25,4.1-3,8.06-4.55,12.08-.64,1.64-2.27,3.51-.47,5,1.65,1.35,3-.69,4.3-1.55,6.57-4.48,12.89-9.36,19.62-13.57,3.2-2,1.22-4.34,1.58-6.52,1.69,2.46,3.28,4.06,6.81,2.33,4.58-2.24,8.21-.39,9.42,4.6.68,2.82,2.94,4.27,4.11,6.36,3.31,6,6.43,12.3,8,18.88.74,3.08-.94,6.76.93,10.38,1.43,2.78-.26,5.26-3.07,7-4.4,2.71-9.76,3.34-13.86,6.62-15.91,0-31.67-2.18-47.49-3.52C1550.12,750.71,1541.76,749.61,1533.38,748.69Z"/><path class="cls-3" d="M1210.49,584l-2.11,0a4.07,4.07,0,0,0-2,.72l-1.49.39a14.71,14.71,0,0,1-8.22,1.44c-17.32-1.64-34.27-4.64-49-14.66a81.71,81.71,0,0,1-28.58-33.13,116.5,116.5,0,0,1-9.61-31.75c3.92-11.78,11.43-20.94,20.94-28.63,5.51,3.32,6,3,6.92-4.78,3-2.95,1.88-5.91,0-8.87a15.19,15.19,0,0,1-.3-2.94c-.32-6.59-.4-6.65-7-5.29-4.52-1.39-5.23-5.9-7.48-9.15-2-4.17-4.14-8.25-5.87-12.52-4.2-10.34-4.21-20.9-1.11-31.54.88-7.35,5.74-12.47,10.1-17.82a54,54,0,0,1,6.74-6.61c13.78-11.71,30.21-18,47.19-23.23,10.82-3.34,21.92-5.78,32.5-9.9,2.49-1,4.87-2.16,7.25-3.36,7.39-3.74,11.53-9.52,12.69-17.9,2.65-19.14,5.87-38.21,9.92-57.12,2.76-12.88,6.23-25.57,11.59-37.67,7-15.94,19.12-25.66,36-29.48,2.29-.52,4.73-1.15,6.92-.49,6.17,1.86,10.48-1.38,15-4.62,12.31-8.77,25.59-15.59,40.28-19.46a74.9,74.9,0,0,1,39.45-.07c16,4.32,31.7,9,46.14,17.36,22.68,13.17,36.13,33.43,44.88,57.42a118.13,118.13,0,0,1,5.16,17.75,9.38,9.38,0,0,0,6.08,7.29,72.07,72.07,0,0,0,15.4,4.18c18.86,3.36,37.89,5.71,56.47,10.62a133,133,0,0,1,28.67,11.56c1.79.95,3.46,2,4.31,4a74.89,74.89,0,0,0,6,15.23c3.28,6.71,4.55,14.21,6.75,21.34,3.95,12.82,5.59,25.93,3.39,39.36-2.78,17-11.23,30.71-24.22,41.78a19.1,19.1,0,0,0-3,2.55,7.55,7.55,0,0,0-.41.88,35.48,35.48,0,0,0,10.44,2.13c2.45.08,4.29,1.54,6.24,2.77a150.08,150.08,0,0,1,21.17,16.21c1.74,1.58,4.6,3.2,2.5,6.47a5.85,5.85,0,0,1-3.76,1.09c-3.38-.15-6,1.19-8.55,3.37-1.8,1.57-3.83,4.17-6.38,2.86s-1.57-4.45-1.69-6.88c-.13-2.65.1-5.32-.12-8-.12-1.34-.33-2.73-2.13-2.86-2.11-.16-2.54,1.33-2.56,2.9-.14,10.13-.22,20.27,0,30.41,0,1.38.46,2.67,2.26,2.7s2.12-1.24,2.37-2.62c.41-2.21-.52-5.43,1.94-6.28,2.89-1,4.49,2.19,6.41,3.88,2.8,2.46,5,5.93,10.33,5-2.52-3.14-5.28-5.44-7.69-8.05-3.92-4.22-4-5.84.11-10.06,2.75-2.86,5.34-6,9.38-7.21,2.51-1.26,4,0,5.19,2.08,6.75,8.4,13.68,16.68,18.14,26.64.67,1.5,1.19,3.06,1.79,4.59,0,.66.08,1.33.11,2a.57.57,0,0,1,0,.67c2.45,6.12,1.85,12.5,1,18.73-3.58,27.74-18.86,46.67-43.59,59.23-16,8.14-33.13,10.65-50.47,12.93a6.55,6.55,0,0,0-1,.06c-8.33,2.35-15,.58-19.09-7.65l0,0a12.4,12.4,0,0,0-3-4l0,0c-5.64-8.95-13.57-15.77-21.29-22.78l.17.06a36,36,0,0,0-5.17-4l.2,0c-.8-1.08-2.34-1.1-3.13-2.2l.14.17c-.87-1.53-2.8-1.21-3.94-2.26l0,0c-3.48-3.09-7.8-4.47-12.05-6l0,0a32.28,32.28,0,0,0-17.67-4c-1.89.12-3.76.34-5.24-1-9.26-8.12-20-14.35-28.82-23.09A62.65,62.65,0,0,1,1427,486.56c-4.64-10.08-4-20,2.9-29.18,6.71-8.91,14.33-17.13,20.26-26.62,8.23-13.18,9.93-27.3,5.65-42.17-.78-2.72-1.91-5.39-.7-8.26a9,9,0,0,1,2-3.13c.42-.58.84-1.16,1.23-1.76,5.41-6.95,11.12-13.69,14.12-22.21a32.58,32.58,0,0,0,1.9-8.23c.53-6.72-3.55-10.37-10.19-9.2a18.69,18.69,0,0,0-7.25,3.22c-3.65,2.49-7,2.09-10.67-.06-10.07-5.87-20.09-11.79-29.82-18.2-4.62-3-9.39-4.84-15-4.28a27.26,27.26,0,0,1-5.49-.09c-1.32-.15-2.91-.23-3.4-1.64s.7-2.56,1.82-3.24c4-2.41,2.36-4.15-.46-6.09-2-1.37-4.52-2.36-5-5.23a2,2,0,0,1,.65-1.22c2-.5,3.15-1.42,3-3.8s-.5-5.15,3.1-5,2.67,3.12,2.84,5.32a10.42,10.42,0,0,0,.09,1.36c.32-2.39-1.58-6.11,2.79-6.57,4-.42,3.82,3,4.06,5.67-.55-5.68-.56-5.71-6-5.27a4.49,4.49,0,0,1-1.93-.23c-3.63-1.22-5.44-.16-5,3.91.24,2.14-.14,4-2.75,4.48a1.53,1.53,0,0,1-1.28.51,3,3,0,0,1-1.63-1.36c-.7-2.71-.06-5.48-.35-7.82-.25,2,.62,4.47-.6,6.77-2.21,1.26-3.92-.15-5.41-1.31-5.75-4.5-11.56-8.94-17.19-13.6-1.14-.95-2.23-2-2.13-3.75,1.13-2.91,1-5.16-2.73-5.94-3.08-.65-4.25-2.93-4.42-5.88-.09-1.67,0-3.33-.08-5-.1-4,1.09-6.87,5.71-7.12,1.1-.06,2.52-.21,2.57-1.79s-1.37-1.79-2.48-1.86c-3.55-.2-5.47-2-6-5.49a2.15,2.15,0,0,0-2.3-2.14c-1.48,0-2,1.08-2.21,2.28-.47,3.25-2.23,5-5.53,5.39-1,.1-2,.52-1.92,1.84.07,1,.87,1.26,1.64,1.63,6.07,2.93,6.7,4.53,4.89,12.17-1.34,1.8-2.73.76-3.85-.13a261.75,261.75,0,0,1-21.24-18.84c-1-1-1.69-2.08-1-3.55,2.94-2.64,6.32-2.2,9.78-1.46,1.48.31,3.3.5,3.74-1.33s-1.47-2.38-2.82-2.76c-5.18-1.45-10.1-1.23-14.24,2.8a9.45,9.45,0,0,0-2.37,10.53,14.53,14.53,0,0,1,.65,6.91c-1.59,10.35-3.44,20.65-7.44,30.42a4.9,4.9,0,0,1-1.64,1.53c-1.25.57-2.45.46-4.18-.77,2.61,3.8-.61,7.26.77,10.65.39,4.33-2.57,7.74-3.54,11.86,2.39.09,4-1.27,5.8-1.94,9.68-3.61,19.23-3.57,28.57,1.06,2,1,4.92,2.09,4.42,4.78-.55,2.92-3.7,2.37-5.9,2.33-12.6-.25-24.35,3.17-35.9,7.76-3.6,1.43-6.36,3.51-8,7.07-.55,1.21-1.49,2.23-2.05,3.42-3,6.29-6.79,9.48-14.53,6.89-6-2-12,2.87-13,9.25a18.94,18.94,0,0,0,2.3,12.53c3.91,7.12,9.8,12.58,15.14,18.51a12,12,0,0,0,3.13,3.81,4.52,4.52,0,0,1,.72,1.33,206.85,206.85,0,0,0,3.61,25.18c3.54,16.43,8.92,31.95,20.74,44.67,10,10.75,12.72,23.51,9.61,37.94-3.29,15.3-11,27.68-22.67,37.78a4.82,4.82,0,0,1-2.64,1.13c-2-.31-3.86-.37-5.53,1a7.68,7.68,0,0,1-1.25.43,8.09,8.09,0,0,0-3.69,1.34c-5.07,2.16-10.48,3.09-15.78,4.36-17,4.06-30.64,13-40.88,27.12-2.33,3.22-4.92,6.23-7.34,9.38C1214.11,581,1213.21,583.55,1210.49,584Z"/><path class="cls-4" d="M1597.42,305.92c-10.32-7.76-22.37-11.54-34.59-14.8-17.88-4.79-36.3-6.79-54.47-10.13-5.72-1.06-11.42-2.3-16.77-4.76a8.63,8.63,0,0,1-5.36-6.54c-4.11-18-10.51-35-21.46-50.14-15.59-21.49-37.85-32.2-62.48-39.57-18.27-5.46-36.37-8-54.92-1.67a133.56,133.56,0,0,0-38.2,20.31c-3.35,2.55-6.22,3.64-10.74,2.92-14.75-2.36-33.08,8.73-41.08,24.07-9.2,17.67-13.11,36.95-16.75,56.25-2.78,14.72-5.08,29.54-7.27,44.35-1.28,8.64-6.25,14.06-13.64,17.82-10.32,5.25-21.55,7.86-32.58,11-19.5,5.48-38.36,12.26-54.44,25.11-2.21,1.33-3.83.29-5.11-1.43-4.63-6.21-9.77-12.06-13.83-18.7a78.93,78.93,0,0,1,.28-14.9c.65-3.63,1.39-7.26.75-11,1.09-20.12,4.2-40,8-59.72a676.16,676.16,0,0,1,21.45-83,11,11,0,0,1,6.65-7.44c14.34-6,29.28-10,44.31-13.71a597.33,597.33,0,0,1,63.19-11.73c16.45-2.22,33-3.9,49.55-5.21a811.12,811.12,0,0,1,89.83-2q42.11,1.38,84,6.45a971.8,971.8,0,0,1,103.49,18.45c10.69,2.47,21.24,5.55,31.89,8.21,2.76.69,3.78,2.44,4,4.94q1.61,15.36,3.15,30.73c.18,1.35,0,2.76.66,4l.38,6c.51,3,.34,6,.94,9l.07,2a6.28,6.28,0,0,0,.49,2.05l1.32,14.94a.93.93,0,0,0,.08,1l.12,3c.1,1.37-.1,2.78.6,4.05q.21,4,.41,7.95c.18,1.69-.34,3.48.74,5q.12,3.48.26,7a8,8,0,0,0,.47,3.05c.09,1.65.19,3.3.29,4.95a1,1,0,0,0,.09,1l.23,7a4.56,4.56,0,0,0,.4,2.09c.09,1.66.17,3.32.26,5-.22,1.65-.55,3.3.2,4.91-.09,4,1.43,8,.86,12a.93.93,0,0,0,0,1c.06,2.33.11,4.67.17,7,.07,2-.09,4,.16,6l0,1.76A5.49,5.49,0,0,1,1634,343l.17,7a.81.81,0,0,0,.06,1c0,1.35,0,2.69,0,4,.06,9,1.37,18.2-3.82,26.44-1.38,2.18-2.33,5-5.87,4-2-1.63-1.65-3.85-1.39-6,2.23-18.88-1.94-36.67-9.42-53.81-2.61-6-6.92-10.92-11.89-15.19A23.86,23.86,0,0,1,1597.42,305.92Z"/><path class="cls-5" d="M1539.37,574c2,0,2.89,1.5,3.6,3,1.68,3.56,4.52,4.43,8.18,4,17.56-2,35.4-3.42,51.75-10.55,19.21-8.37,35.55-20.72,43.83-40.84,3.47-8.45,5.85-17.52,5.66-26.95-.08-4,0-8,.08-12,2.34.85,2.17,3.16,2.76,4.95,10.87,32.54-7.85,88.7-60.54,97.4a167,167,0,0,1-41.71,1.2C1547.68,588,1543.63,580.93,1539.37,574Z"/><path class="cls-5" d="M1109.44,507c3.78,5.11,4,11.5,5.69,17.26a86.06,86.06,0,0,0,16.07,30.85A74.85,74.85,0,0,0,1168.54,580a124.87,124.87,0,0,0,36.36,5.13c-2.19,5.56-4.37,11.13-8.09,15.93-17.79-1.43-35.3-4-51.9-11.2-31-13.35-47.53-49.65-36.55-80.63A20.47,20.47,0,0,1,1109.44,507Z"/><path class="cls-6" d="M1624,385.07c3.11.53,4.09-2.15,5-4,2.93-6.07,5.43-12.3,4.53-19.37-.27-2.16-.84-4.64.81-6.69,1.44,1.55.91,3.48.92,5.24,0,19.79.49,39.59-.12,59.36-.38,12.38-.68,24.85-2.7,37.15-1.75-.45-2.18-3.31-4.61-2.52h0c1-.82.22-1.45-.31-1.95-9.11-8.68-18.81-16.58-30-22.5-3.17-2.43-.19-3.67,1.13-4.92,3.36-3.19,7.27-5.71,10.2-9.45a67.63,67.63,0,0,0,12.07-24.38C1621.48,388.88,1621.69,386.42,1624,385.07Z"/><path class="cls-6" d="M1651.21,224c0,4.51,0,9.5,0,14.5a12.24,12.24,0,0,1-.51,3.41c-.66,2.07-2.15,3.58-4.32,3.57a4.4,4.4,0,0,1-4.27-3.61,3.74,3.74,0,0,1,2.71-4.69c3.34-.95,3.63-3.09,3.62-6,0-14.64-.58-29.21-3-43.7-1.27-7.69-5.46-12.2-12.75-15-28-10.64-57.24-15.81-86.62-20.44q-26.55-4.19-53.22-7.6c-13.65-1.76-27.38-3-41.08-4.41-12.23-1.22-24.47-2.19-36.68-3.47-1.33-.14-4.13.42-3.88-1.91.23-2.06,2.62-1.4,4.23-1.25,17,1.59,34.06,3,51.06,4.84,17.15,1.86,34.27,4,51.37,6.32,21.54,2.93,43,6.19,64.34,10.63,18.54,3.86,37,8.17,54.56,15.53,9.11,3.8,11.09,11.43,12.36,19.51A161,161,0,0,1,1651.21,224Z"/><path class="cls-6" d="M1113.73,360c5.68,3.86,8.49,10.15,12.82,15.14,1.74,2,2.63,5.11,6.12,5-6.91,6.83-13.2,14.1-17.1,23.15a81,81,0,0,1-2-19.06C1113.61,376.12,1113.68,368,1113.73,360Z"/><path class="cls-6" d="M1122.55,447.31l6.93,8.7a16.59,16.59,0,0,1,8.83,9.21l3.92,4.36-3.93,3.17c-1.92,2.68-3.48,6-7.78,4.67-.11-7.64-4.45-14.14-5.85-21.44C1124.12,453.06,1123.26,450.2,1122.55,447.31Z"/><path class="cls-3" d="M1130.52,477.42l7.78-4.67c0,1.67.16,3.33.13,5,0,1.91.54,4.24-2.66,4.25-2.66,0-5.65.6-5.39-3.66A1.94,1.94,0,0,1,1130.52,477.42Z"/><path class="cls-2" d="M1592.77,694.08a12.76,12.76,0,0,1-3-9.4C1592,687.42,1592.53,690.71,1592.77,694.08Z"/><path class="cls-6" d="M1114.76,334.09c.79,3.73,2,7.5-.75,11C1113,341.33,1114.8,337.77,1114.76,334.09Z"/><path class="cls-6" d="M1633.52,340.07c-1.69-2-1.6-4-.16-6A5.54,5.54,0,0,1,1633.52,340.07Z"/><path class="cls-6" d="M1626.25,239c-1-2.92-2-5.82-.93-9C1627,232.9,1626.21,236,1626.25,239Z"/><path class="cls-6" d="M1630.08,279.09c-2.58-1.34-2-3.14-.74-5C1630.7,275.57,1630.24,277.35,1630.08,279.09Z"/><path class="cls-6" d="M1628.93,266.1c-2.11-1.07-1.92-2.47-.6-4.05C1629.53,263.25,1629.33,264.66,1628.93,266.1Z"/><path class="cls-6" d="M1624.93,224.1c-2.09-1-1.91-2.44-.66-4C1625.52,221.25,1625.36,222.66,1624.93,224.1Z"/><path class="cls-6" d="M1630.81,289.1c-1.65-.79-1.79-1.81-.47-3.05A2.3,2.3,0,0,1,1630.81,289.1Z"/><path class="cls-2" d="M1586.81,674.07c-1.92-.81-1.48-2.46-1.41-4A3.67,3.67,0,0,1,1586.81,674.07Z"/><path class="cls-6" d="M1632.28,314a3.89,3.89,0,0,1-.2-4.92C1632.14,310.73,1632.21,312.37,1632.28,314Z"/><path class="cls-2" d="M1588.92,681.07c-1.69-.61-1.64-1.88-1.26-3.29C1588.8,678.6,1589.47,679.6,1588.92,681.07Z"/><path class="cls-6" d="M1626.81,243.11c-1.12-.45-1.68-1-.49-2.05A1.47,1.47,0,0,1,1626.81,243.11Z"/><path class="cls-5" d="M1652.42,490c-.94-.61-1-1.27-.11-2A1.33,1.33,0,0,1,1652.42,490Z"/><path class="cls-6" d="M1631.82,304.11c-1.19-.5-1.67-1.12-.4-2.09A1.49,1.49,0,0,1,1631.82,304.11Z"/><path class="cls-6" d="M1634.23,351a3.34,3.34,0,0,1-.32-.69c0-.07.17-.2.27-.3C1634.19,350.36,1634.21,350.69,1634.23,351Z"/><path class="cls-6" d="M1634,343c-.18-.39-.35-.77-.52-1.16C1633.65,342.22,1633.82,342.6,1634,343Z"/><path class="cls-2" d="M1587.46,676.86a5.08,5.08,0,0,1-.47-.57,2.84,2.84,0,0,1,.31-.27A.69.69,0,0,1,1587.46,676.86Z"/><path class="cls-6" d="M1631.19,295a4.12,4.12,0,0,1-.32-.67c0-.07.15-.2.23-.31Z"/><path class="cls-6" d="M1628.21,259a4.22,4.22,0,0,1-.32-.68c0-.07.16-.2.24-.31C1628.16,258.38,1628.19,258.71,1628.21,259Z"/><path class="cls-6" d="M1633.19,327a5,5,0,0,1-.3-.68c0-.08.16-.21.25-.31C1633.16,326.37,1633.17,326.7,1633.19,327Z"/><path class="cls-2" d="M1210.49,584l4-5c7.55-.1,14.81,2,22.17,3.17,25.88,4.18,51.79,6.4,78,4.42,16.89-1.27,33.33-4.12,49.26-9.9,9.16-3.33,17.6-7.81,24.63-14.73,7.72-7.6,8.26-16.56.7-24.21-11.76-11.92-18-26.62-22.2-42.4a208.07,208.07,0,0,1-4.78-23.47c-.37-2.47-.82-5,.89-7.21,1.63-1.22,3.48-.94,5.29-.69a33.6,33.6,0,0,0,19-2.94c2.49-1.13,5-2.86,8-1.47,2.64,4.17,1.74,9,2.38,13.53.8,5.6,1.52,11.21,2.6,16.75,4.19,21.36,19,33.59,42.18,35.49,9.72.8,19.56.86,29,3.69a3.12,3.12,0,0,1,1.66,1c-3.5,13.4-10.21,25.09-18.54,36.06-9.2,12.12-22.66,16.9-36.07,21.86a208.34,208.34,0,0,1-43,10.36c-10.33,1.47-20.7,3.07-31.1,3.44-10.13.35-20.26,1.44-30.38,1.11-32.77-1.07-65.36-3.56-96.58-14.79C1215.06,587.16,1212.2,586.58,1210.49,584Z"/><path class="cls-5" d="M1473.34,530.06c-12.83-1.42-25.75-2.3-38.46-4.4-20.18-3.34-32.64-16.6-36.29-37.09-1.69-9.48-2.65-19.05-3.57-28.62.26-3.25,3.08-4.14,5.26-5.44a133.61,133.61,0,0,0,31.11-26.19c9.25-10.33,13.08-22.92,14.54-36.37.54-5,2.37-8.91,6.71-11.53,1.15-.7,2.26-1.46,3.68-.72-1.67,4.87,1.42,9,2.26,13.45,3.44,18.14-2,33.55-13.41,47.42-5.73,7-12.15,13.6-16.63,21.32s-4,16.45,0,24.77c6.42,13.32,17.11,22.53,28.83,30.92,3.73,2.67,8,4.82,10.83,8.6,1.56,2,3.76,1.87,5.92,1.81a40.54,40.54,0,0,1,14.58,2.63c1.25.43,2.66.68,2.68,2.45C1485.38,532,1479.71,528.92,1473.34,530.06Z"/><path class="cls-5" d="M1515.09,547.24c8.9,5.92,17.05,12.52,21.29,22.78Z"/><path class="cls-5" d="M1491.34,533c4.75.53,9.42,1.22,12.05,6Z"/><path class="cls-5" d="M1510.09,543.27c2.93-.22,4.17,1.76,5.17,4A7.13,7.13,0,0,1,1510.09,543.27Z"/><path class="cls-5" d="M1536.36,570c2.58.15,3.11,1.85,3,4A6.24,6.24,0,0,1,1536.36,570Z"/><path class="cls-5" d="M1503.36,539c1.77,0,3.42.11,3.94,2.26A4.86,4.86,0,0,1,1503.36,539Z"/><path class="cls-5" d="M1507.16,541.1c1.27.41,2.62.7,3.13,2.19A2.85,2.85,0,0,1,1507.16,541.1Z"/><path class="cls-2" d="M1206.39,584.68c.28-1.3.83-1.85,2-.72A1.63,1.63,0,0,1,1206.39,584.68Z"/><path class="cls-7" d="M1456.32,379.7c-5.63,3-8.62,7.27-9.15,14.05-2.06,26.38-18.82,43.08-38.92,57.36-4.32,3.07-8.81,5.9-13.23,8.84-3.5,1.39-7,2.76-10.5,4.17-6.92,2.79-14,2-21.08.89-3.67.92-6.53-1.51-9.82-2.35-2,3.24.68,8.4-4.2,10.52-1.92-1.92-1.73-4.4-1.17-6.58,1.15-4.54-1-6.7-4.76-8.48a205.18,205.18,0,0,1-27.93-16.46c-12.88-8.74-22-19.91-24.26-35.59-1.11-7.81-5.14-13.35-10.74-18.23l.06.07a6.4,6.4,0,0,1-3.15-2.56c-5.58-5.69-11.61-11-15.58-18.08a25.37,25.37,0,0,1-3.5-9.79c-1.13-11.41,7.63-18.65,18.37-14.74,3.88,1.42,5.88.78,7.26-2.83,6.41-16.77,21.83-18.6,36.35-21.81,6.12-1.35,12.45-1,20.21-1.27-7.53-6.34-15-7.86-23.09-7.48-6,.28-11.26,2.73-16.62,5-.9.38-1.52,2.32-2.79.8-.95-1.13.37-2.1.78-3.07,1.69-4,3.47-7.93,5.21-11.89a3.06,3.06,0,0,1,1.59-3.6c3.27-.33,5.06-1.46,2.75-4.93a2.53,2.53,0,0,1-.08-2.77c2.94-9.92,5.81-19.86,7.26-30.15a17.88,17.88,0,0,0-.73-8.27c-1.39-4.27-.37-8,3.5-10.7a5.49,5.49,0,0,1,4.2,4.31c1.06,3,3.83,4.43,6,6.37,6.22,5.65,12.62,11.09,18.94,16.61,5.8,2.62,10.68,6.33,14,11.92,7.85,6.26,15.54,12.73,24,18.18a1.61,1.61,0,0,1,1.89,1l.82,1.36c.72-.3,1-.07.87.69,3,2.15,5.8,4.47,8.89,6.39s2.67,3.12-.37,4.48a9.19,9.19,0,0,0-4.84,4.11c4.35,0,8.18.13,12,0a17,17,0,0,1,10.7,3.23c10.44,7.11,21.38,13.4,32.28,19.76,2.89,1.69,5,2.08,8-.06,5.11-3.64,11.06-6.81,16.89-2s3.28,11.22,1.36,17c-3,9-9.08,16.09-14.6,23.54a1.77,1.77,0,0,1-1.32,1.28A2.39,2.39,0,0,0,1456.32,379.7Z"/><path class="cls-8" d="M1349.47,473c1.72-3,2-6.22,2-9.56,0-1.84.1-3,2.88-1.95,3,1.13,6.13,2.13,9.08,3.51.34,9.15,2.56,17.94,4.62,26.81a116.45,116.45,0,0,0,11.35,30.5c2.66,4.79,5.75,9.4,9.91,13,10.27,8.83,8.78,21.55-1.92,30.19-15.64,12.61-34.22,17.18-53.37,20.56-17.44,3.08-35,3.6-52.61,2.78-15.35-.72-30.71-2-45.83-5.25-5.82-1.23-11.71-2.12-17.6-3-1.37-.21-2.61-.37-3.52-1.5,12.77-20.55,30.15-34.64,54.5-39.07,3.56-.64,7-1.88,10.51-2.84,1.21-1.28,3-.14,4.31-1a.46.46,0,0,0,.67-.12c1.54-.8,3-1.71,4.91-1.21a1.88,1.88,0,0,0,2.11-.61c8-4.12,16.58-6.57,24.8-10.08,16.47-7,25.46-19.55,29-36.63.63-3.09,1.31-6.17,1.72-9.31C1347.22,476.16,1347.39,474.1,1349.47,473Z"/><path class="cls-5" d="M1349.47,473c-1.64,7.1-2.42,14.37-4.57,21.4-3.82,12.53-10.75,22.26-22.78,28.17-9.87,4.84-19.74,9.52-30.64,11.56,9.41-8.32,16.65-18.24,20.73-30.13,5.17-15,4.49-32.49-8.76-45.7-6.56-6.54-11-14.68-14.15-23.54a149.24,149.24,0,0,1-8.82-45.44c0-.5,0-1,.08-1.49,6.53,2.79,10.37,7.23,11.25,14.73,2.07,17.6,12.23,29.94,26.69,39.41,8.77,5.74,17.62,11.3,27.24,15.46,3.79,1.63,4.87,3.79,4.16,7.63A59.82,59.82,0,0,0,1349.47,473Z"/><path class="cls-5" d="M1624,385.07c-2.27,9.52-5.26,18.74-10.88,26.9a55.67,55.67,0,0,1-14.2,14.39c-1.13.79-3.52,1.26-1.42,3.46-4.47,1.53-8.66-.75-12.9-1.34-2.3-.32-.51-2.57.92-3.5,5.5-3.58,9.67-8.45,14-13.33,8-9,11.56-19.81,13.79-31.25s.61-23-2.35-33.89-5.75-22.32-11.49-32.48a13.72,13.72,0,0,1-2-8.11,45.7,45.7,0,0,1,19,22.23C1624.07,346.44,1627,365.36,1624,385.07Z"/><path class="cls-3" d="M1497.29,441a14.75,14.75,0,0,1,7.69,1.79c1.39.69,4.18.84,2.64,3.62-1.08,2-2.09,4.52-5.25,2.64a6,6,0,0,0-2.32-.87c-3.2-.36-6.93-.8-8.26,2.79-1.47,3.94,2.39,4.85,5,6.13,2.39,1.17,4.93,2,7.26,3.3,4.32,2.33,6.84,5.95,6.2,11-.68,5.29-4,8.72-8.94,10.4-6,2-11.47.36-16.61-2.77-1.21-.74-3.83-1.37-2.11-3.48,1.36-1.66,2.64-4.95,5.88-2.75a15.57,15.57,0,0,0,6.36,2.75c3,.44,5.71-.27,7-3.39,1.38-3.29-.88-5-3.27-6.33a54,54,0,0,0-5.92-2.62c-7.35-3.08-10.29-7.26-9.11-13C1484.65,444.79,1490.38,441,1497.29,441Z"/><path class="cls-3" d="M1155.42,482.82c-4.14-.55-8.19-1.41-11.75-3.78-1.44-1-3.15-2-1.61-3.87,1.33-1.63,2.49-4.37,5.56-2.37s5.9,3.66,9.73,2.47a5.13,5.13,0,0,0,3.89-4.09,4.15,4.15,0,0,0-2.4-4.54c-2.32-1.27-4.74-2.39-7.18-3.43-7.3-3.09-10.26-7.31-9.05-13,1.13-5.39,6.86-9.14,13.82-9.19a16.61,16.61,0,0,1,7.69,1.83c1.4.7,4.11.87,2.56,3.67-1.14,2.05-2.21,4.25-5.34,2.64a9.44,9.44,0,0,0-6.79-.94c-1.77.47-3.58,1.15-4,3.32s1,3.5,2.66,4.34c2.54,1.24,5.21,2.2,7.76,3.42,6.57,3.14,9.41,7.81,8.15,13.2C1167.8,478.27,1161.74,482.83,1155.42,482.82Z"/><path class="cls-3" d="M1286.8,454.71c-3.1,2.89-5.9,5.92-9.14,8.39-3.75,2.87-3.15,5,.11,7.71,3.68,3.07,7,6.52,11.55,10.75-5.33.27-9.19,1.86-12.42-1.68-2.67-2.93-5.31-5.91-8.5-9.45-1.58,3.3-1.1,5.63-1,7.78.16,3.25-1.39,3.86-4.22,3.86s-3.81-.92-3.78-3.75q.18-16.47,0-32.93c0-3.07,1.47-3.52,4-3.54s4,.64,4,3.62c-.15,5.24,0,10.49,0,16.85C1273.48,457.39,1278.19,451.38,1286.8,454.71Z"/><path class="cls-3" d="M1627.78,454.27h0c-3.44,3.34-6.78,6.79-10.35,10-2.15,1.93-2.09,3.3,0,5.23,4,3.72,7.73,7.64,11.72,11.63-10.53,4.22-13.9-5.43-20.84-10.13,0,2.76-.11,4.81,0,6.85.19,2.8-.54,4.23-3.8,4.26s-4.22-1.25-4.17-4.4q.23-15.7,0-31.42c0-3.07.69-4.46,4.12-4.48,3.76,0,3.91,2,3.85,4.76-.1,4.81,0,9.62,0,15.65C1614.33,457,1619.71,451.78,1627.78,454.27Z"/><path class="cls-3" d="M1458.68,277.56c-5.4,1.15-10,.49-13.35-4.77-1.64-2.58-4.09-4.66-6.76-7.61-1.49,3.84-1,6.5-1,9,.07,2.84-1,3.8-3.82,3.77s-3.45-1.11-3.44-3.61q.12-17,0-33.95c0-2.58,1-3.5,3.51-3.55,2.87,0,3.79,1.13,3.73,3.87-.12,5.47,0,10.94,0,17.56,6.57-4.44,10.75-12.93,20-8.4-2.17,3.41-5.87,5.48-8.87,8.19-3.17,2.85-3.86,4.86-.17,7.75,4,3.14,7.71,6.69,11.55,10.06Z"/><path class="cls-3" d="M1552.11,453.27c8.28.23,15.29,7.07,15.2,14.86s-7.57,15-15.36,14.69c-9.45-.37-16.41-6.68-16.36-14.85S1543.37,453,1552.11,453.27Z"/><path class="cls-3" d="M1226.39,468.1c-.06,7.84-7.13,14.59-15.35,14.67-9,.08-16.42-6.67-16.38-14.79s7.77-14.94,16.5-14.71C1219.44,453.49,1226.46,460.32,1226.39,468.1Z"/><path class="cls-3" d="M1396.52,264c-.1,8.33-6.48,14.19-15.36,14.1-8.58-.08-14.84-6.38-14.75-14.84.09-8.3,6.56-14.34,15.3-14.29C1390.91,249,1396.63,254.82,1396.52,264Z"/><path class="cls-3" d="M1530.61,482.85c-8.74,0-13.13-4.31-13.23-11.93a45.94,45.94,0,0,1,0-5c.36-3.82-.17-6.66-5.12-5.9-2.14.33-2.88-1-2.9-3s.71-3.25,2.88-3c3.66.41,5.79-.61,5.15-4.83-.36-2.35.91-3.26,3.22-3.17s4.82-.1,4.53,3c-.41,4.54,1.84,5.38,5.61,5,1.94-.21,3.59,0,3.65,2.75s-1.3,3.65-3.65,3.26c-5-.82-6,1.84-5.53,6a24.83,24.83,0,0,1,0,4.48c-.25,3.46,1.13,5.53,4.75,5.4,2.7-.1,3.44,1.17,3.45,3.6C1533.47,482.35,1531.78,482.84,1530.61,482.85Z"/><path class="cls-3" d="M1188.75,482.85c-7.63.1-12.19-4.28-12.29-11.82a54,54,0,0,1,0-6c.32-3.42-.46-5.54-4.51-5-2,.27-3.48-.3-3.54-2.9-.07-2.9,1.53-3.38,3.78-3.13,3.22.37,4.67-.89,4.24-4.19-.35-2.71.73-3.95,3.62-3.83,2.45.1,4.53.46,4.21,3.46-.42,3.94,1.42,4.95,4.94,4.58,2.2-.23,4.35-.3,4.27,3.11s-2.5,3.08-4.52,2.87c-3.89-.4-5.07,1.34-4.66,4.92a25.89,25.89,0,0,1,0,5c-.3,3.77.87,6.25,5.13,6.05,3-.13,3.07,1.83,3,3.95C1192.46,482.47,1190.71,482.79,1188.75,482.85Z"/><path class="cls-3" d="M1228.42,470.22c-.12-8.58,3.11-12.73,8.45-15.31,5.78-2.81,11.32-1.73,16.47,1.78,1,.71,2.66,1.86,1.3,3.14s-2.7,3.67-5.38,2.63c-1.23-.48-2.39-1.16-3.64-1.59a6.59,6.59,0,0,0-8.22,2.94,7.31,7.31,0,0,0,.3,8.87c2.28,2.77,5.3,3.94,8.89,2.32,2.32-1,4.35-3.16,7.26-.83,2,1.61,2.73,2.78.41,4.55-5.3,4-11,5.15-17.29,2.5C1231.24,478.8,1228.4,474.35,1228.42,470.22Z"/><path class="cls-3" d="M1414.63,278.08c-7.52,0-12.74-3.45-14.85-9.42-2-5.75-.23-12.86,4.15-16.31,5.28-4.16,13.39-4.74,18.7-1.2,1.42.95,3.89,2.09,2.26,4.1-1.22,1.5-2.49,4.52-5.94,2.18-3.62-2.47-7.62-2.49-10.68,1.34-2.5,3.14-2.57,6.58.08,9.57,3.1,3.48,7.13,3.88,10.77,1.18,3.26-2.41,5.21-.44,6.61,1.61,1.62,2.37-1.21,3.44-2.62,4.49A11.7,11.7,0,0,1,1414.63,278.08Z"/><path class="cls-3" d="M1569.31,468.39c0-6.86,3.23-11,8.57-13.52,5.79-2.77,11.3-1.65,16.43,1.86,1,.7,2.63,1.86,1.24,3.13s-2.71,3.65-5.38,2.59c-1.23-.49-2.39-1.16-3.64-1.58-3.48-1.18-6.25.13-8.25,2.9a6.78,6.78,0,0,0,.18,8.75c2.26,2.79,5.22,4.08,8.82,2.55,1.22-.51,2.31-1.38,3.55-1.8,2.49-.84,4.3.82,5.5,2.45,1.46,2-1,2.95-2.11,3.72-5.49,3.7-11.34,4.38-17.38,1.29C1571.55,478,1569.19,473.61,1569.31,468.39Z"/><path class="cls-3" d="M1361.42,279l-14-11.92c0-2-.15-4,0-6,.37-3.67-.6-5.8-4.83-5.15-2.33.35-3.23-.86-3.24-3.2s.6-4,3.33-3.61c3.75.52,5.21-1,4.73-4.75-.42-3.28,1.85-3.24,4.17-3.27s4.11.41,3.69,3.23c-.64,4.28,1.58,5.2,5.2,4.78,2.53-.29,4,.41,4,3.47s-1.75,3.68-4.16,3.34c-4.43-.63-5.51,1.56-5.06,5.46a38.52,38.52,0,0,1,0,5.48c-.06,2.89,1.28,4.49,4.19,4.26,2.7-.21,3.56,1,4.35,3.46C1364.88,277.46,1363,277.93,1361.42,279Z"/><path class="cls-3" d="M1309.43,263.54c0,3.66-.14,7.32,0,11,.16,3.12-1.55,3.45-4,3.47s-4-.47-4-3.53q.24-11,0-21.93c-.06-3.12,1.57-3.46,4.06-3.48s4.13.48,4,3.54C1309.29,256.23,1309.43,259.89,1309.43,263.54Z"/><path class="cls-3" d="M1471.45,467.78c0-3.32.16-6.64,0-9.94s1.22-3.94,4.11-3.89c2.62.05,4,.62,3.91,3.6q-.24,10.43,0,20.86c.06,2.93-1.19,3.63-3.86,3.66-2.84,0-4.35-.65-4.16-3.86C1471.62,474.74,1471.45,471.26,1471.45,467.78Z"/><path class="cls-3" d="M1528.08,490.49c1.52.46,2.46,5.44,4.7.64.56-1.2,1.33-.43,1.63.45s.89,1.89,1.58,1.69c4.87-1.35,5.24,2.26,5.85,5.77,2.07-1.15,2.69-2.39,2.05-4.24-.38-1.12.36-1.56,1.24-1.6a3.51,3.51,0,0,1,2.32.43c.83.83-.5,1.29-.74,2-1.12,3.18-3.67,5.89-2.9,9.72.37,1.84-1.36,1.52-2.41,1.47-1.56-.06-1.91-.6-1-2.2,1.88-3.34-.84-5.86-2-8.61-.45-1-1.54-1.15-2.59-.86a1.77,1.77,0,0,0-1.27,1.89c0,1.48-.31,3,.66,4.33.56.75.89,1.55-.16,2a1.55,1.55,0,0,1-2.22-1.28,37.09,37.09,0,0,1-.25-4c-.1-1.27.17-3.06-1.75-2.92s-1.52,1.92-1.49,3.18a14.49,14.49,0,0,0,.51,3.4c.25.95.28,1.65-.88,1.76-.75.07-1.49-.47-1.36-1.11C1528.34,498.48,1524.51,494.36,1528.08,490.49Z"/><path class="cls-3" d="M1187.36,490.5c1.37,1,2.51,5.06,4.56.52.38-.85,1-.44,1.45.22s1,1.91,1.38,1.86c4.31-.6,6.17,1.55,5.92,5.48,4.15.21,0-7.85,6.07-4.91-1.36,3.89-4.67,7.09-3.84,11.78.3,1.71-1.51,1.43-2.56,1.34-1.76-.17-1.5-.89-.8-2.31,1.62-3.32-.89-5.9-2.2-8.61-.48-1-1.6-1.06-2.63-.72a1.73,1.73,0,0,0-1.14,2,17.32,17.32,0,0,0,.49,3.88c.23.87,1.48,1.78-.11,2.33s-2.11-.62-2.25-1.89,0-2.65-.13-4-.19-2.5-1.84-2.31c-1.24.15-1.35,1.3-1.38,2.31s.11,2,.05,3,2,2.81-.54,3c-1.83.12-1.64-2-1.37-3.11C1187.24,497.08,1183.49,493.51,1187.36,490.5Z"/><path class="cls-3" d="M1322.56,244.08a7.49,7.49,0,0,1-4.2-4.31c4-4.54,15.55-5,19.25-.86,1.18,1.33.75,2.43-.18,3.48-1.13,1.29-2,3.32-4.35,2C1329.62,242.5,1326.1,243.21,1322.56,244.08Z"/><path class="cls-3" d="M1510,499.56c-1.36-1.21-3-.22-4-1.51a1,1,0,0,1,1.3-1c2,.36,4.92-1.46,5.84,1.91.3,1.14.67,3.45-.73,3.44-2.42,0-4.31,1.92-6.68,1.37-3.63-.82-6-3-6.16-6.84-.19-3.34,3.2-6.73,6.61-6.85a9.74,9.74,0,0,1,2.94.39c1.17.34,3.61-.82,3.05,1.83-.58,2.81-2.3.8-3.39.32-3.09-1.38-5.27-.16-6.68,2.43s0,4.5,2.09,5.9S1508.22,501.81,1510,499.56Z"/><path class="cls-3" d="M1168.94,499.84c-1-1.81-3.15-.22-4.38-3.3,3,1.59,6.59-2.22,7.74,3.09,1,4.37-3.14,2.66-4.86,3.62-2.73,1.53-5.19.06-7-2s-2.46-4.31-1.09-6.89,3.38-4.52,6.67-4.28a5.17,5.17,0,0,1,1.94.33c1.18.59,4.11-1,3.29,2.07-.7,2.58-2.4.51-3.51.06-2.86-1.17-4.85-.08-6.38,2.23s-.39,4.25,1.28,5.72C1164.83,502.43,1167,502,1168.94,499.84Z"/><path class="cls-3" d="M1220.13,499.33c2-1.93-2.22-4.88,1.09-5.85a8.45,8.45,0,0,1,6.27.32c.71.38,2,0,2.85-.28,2.16-.77,3.93,0,4.47,1.91.66,2.3.55,4.82.65,7.26a5.93,5.93,0,0,1-2.29.23c-1-.2-.44-.82-.19-1.43a6.78,6.78,0,0,0,.46-2.4c0-1.64.22-3.75-2.1-3.83-2.59-.09-1.91,2.22-2,3.73-.06,1,.43,2,.37,2.94-.09,1.5-1.39,1.11-2.27,1.09-1,0-1.4-.49-.82-1.6a5.72,5.72,0,0,0,.69-2.82c-.07-1.48-.36-3.28-2.23-3.39-2.29-.14-2.49,1.75-2.57,3.48a7.17,7.17,0,0,0,.73,3.33c.6,1.36-.89,1-1.48,1C1218.22,502.81,1221.7,500.31,1220.13,499.33Z"/><path class="cls-3" d="M1253.63,503.79c-2.9-1.89-4.81-4.28-3-7.85,2.07-4.14,6.13-2.08,9.33-2.66.26,0,.84.25.84.36-.18,3.25-.21,6.53-.7,9.73-.34,2.17-2.1,3.31-4.29,3.56-1.55.18-3.24.09-4-1.32-1.21-2.1.7-1.33,1.59-1.43.55.27,1.21.2,1.72.52l.26-.21c.08-.08,0-.07-.36,0C1254.42,504.42,1253.87,504.38,1253.63,503.79Z"/><path class="cls-3" d="M1594.56,503.79c-2.71-1.88-5-3.93-3.14-7.69,2.21-4.36,6.32-2.24,9.64-2.79a.74.74,0,0,1,.45.14c-.22,3.65.59,7.49-1,10.9-1.29,2.84-4,3.19-6.77,2.12-.76-.29-2-.81-1.35-2.08.17-.31,1.2-.16,1.83-.22.55.28,1.2.21,1.72.53l.25-.21c.09-.08,0-.07-.35,0C1595.35,504.43,1594.8,504.38,1594.56,503.79Z"/><path class="cls-3" d="M1561.32,499c1.73-1.66-2.48-4.59.83-5.56a8.35,8.35,0,0,1,6.23.32,4,4,0,0,0,2.83-.26c2.13-.78,3.91-.08,4.49,1.81.69,2.28.61,4.8.79,7.23a2.1,2.1,0,0,1-1.29.37c-.41-.05-1.07-.41-1.12-.7-.09-.62.29-1.3.24-1.94-.13-2,.94-5.1-2.29-5-2.78.11-1.47,3.08-1.76,4.86-.15.95,1.41,2.31-.62,2.78a2.62,2.62,0,0,1-1.93-.1c-1.41-1.15.56-1.87.56-2.94,0-1.7,0-3.37-1.5-4.48a2.09,2.09,0,0,0-1.83-.08c-1.79,1-1.12,2.89-1.64,4.35-.43,1.21,2.9,2.85-.21,3.24C1559.34,503.43,1562.14,500.47,1561.32,499Z"/><path class="cls-3" d="M1389.45,299c2.47-1.74,2.48-4.41,1.78-6.73-1-3.24.63-3.08,2.9-3.17,2.73-.12,5.34,1.22,8.24.11,1.76-.67,2.83,1.16,3.26,3,.53,2.19,1.12,4.38.59,6.62,0,.22-1.61.33-2.33.08-1.34-.46-.21-1.22-.06-1.91a13.07,13.07,0,0,0,.42-3.39,2.39,2.39,0,0,0-2.52-2.52c-1.73,0-2.27,1.17-2.26,2.65a11.12,11.12,0,0,0,.31,3.43c.32,1,1.24,1.83-.62,1.87-.87,0-2.15.34-2-1.31,0-.33.27-.66.23-1-.29-2,1.52-5.47-2.06-5.46-3.1,0-2.1,3.37-1.81,5.21.73,4.66-2.75,1.69-4.1,2.49Z"/><path class="cls-3" d="M1421.38,300.22c3.15.47,5.38,2,7.4-.45-.37-.29-.59-.61-.82-.62-2.8,0-5.72.41-7-3.15-.78-2.17-.12-3.77,1.31-5.4,2.61-3,6-.46,8.85-1.32a.63.63,0,0,1,.46.14c.7.55-.52,10.89-1.55,11.8C1427.29,303.67,1424.57,303.93,1421.38,300.22Z"/><path class="cls-3" d="M1310.44,241c-.36,3-2,5-5.16,4.9a4.51,4.51,0,0,1-4.7-4.8c0-3.14,1.93-5,5.06-4.94C1308.53,236.23,1310.07,238.1,1310.44,241Z"/><path class="cls-3" d="M1139.52,445.73c-.52,3-2.12,5.11-5.14,5.06a4.63,4.63,0,0,1-4.75-4.73c-.08-3.1,1.88-4.93,5-4.93C1137.49,441.12,1138.93,443.06,1139.52,445.73Z"/><path class="cls-3" d="M1480.4,446.14c-.62,2.72-2.23,4.85-5.28,4.65a4.65,4.65,0,0,1-4.57-4.92c.07-3.09,2.07-4.88,5.16-4.74C1478.54,441.27,1480.07,443.13,1480.4,446.14Z"/><path class="cls-3" d="M1435.92,295.68c2.07,3.95,4.38.9,6.57.63-2.13,3.72-3.76,4.29-6.66,2.39-2.64-1.73-3.46-5.72-1.35-7.78s4.9-2.78,7.58-.58a4,4,0,0,1,1.72,3.44c-.31,1.87-2.11,1-3.3,1.22C1439.07,295.23,1437.54,294.55,1435.92,295.68Z"/><path class="cls-3" d="M1483.43,495c.27-2.19,1.88-2.06,3.35-1.77,2,.39.73,1.75.68,2.75a4.6,4.6,0,0,0,1.39,3.39,3.89,3.89,0,0,0,1.39-4.19c-.33-1.29.37-1.87,1.5-2a2.66,2.66,0,0,1,1.85.34c1.13,1.08-.38,1.6-.68,2.41-1.14,3-3.23,5.71-3,9.19.16,2.22-1.57,1.7-2.71,1.58-1.4-.16-1.06-.79-.59-2,1.55-4-.17-7.18-3.23-9.79Z"/><path class="cls-3" d="M1249.43,492.85c-2.25,3.77-2.68,6.68-.6,9.57-8.26,1.57-11.2.77-11.29-3.47C1237.36,490.15,1244.39,494.61,1249.43,492.85Z"/><path class="cls-3" d="M1418.22,294c2.1,5.08-1.44,5.45-4.76,5.51-3.57.06-5.77-2.1-5.53-5.6.21-3.15,2.29-5.19,5.75-4.82C1416.53,289.42,1421.23,288.23,1418.22,294Z"/><path class="cls-3" d="M1590.27,492.77c-2.24,4.76-2.26,5.45-.85,9.83-8.38,1.13-11,.33-11-3.86C1578.58,490,1585.56,494.86,1590.27,492.77Z"/><path class="cls-3" d="M1140.47,495l2,0,0,0c0,8.21-.63,8.66-11,7.76.87-3.6,2-7.23,0-10.77-.4-.7-.5-1.19.19-1.6a1.47,1.47,0,0,1,.92,0c.6,4.87,5.1,1.65,7.14,3.47a7.34,7.34,0,0,1,.87,1.18c-1.08,1.67-4.12,1-4.38,3.52-.17,1.57,1.67,1.06,2.81-1A9.12,9.12,0,0,1,1140.47,495Z"/><path class="cls-3" d="M1142.49,495c1.56-2.71,3-2.87,3.84.37.38,1.42.35,2.92,1.7,3.92a4.86,4.86,0,0,0,1.55-4.05c0-1.18.37-2,1.6-2a2.24,2.24,0,0,1,1.7.59c.59.9-.57,1.36-.86,2.07-1.19,3-3.25,5.74-3,9.21.15,2.26-1.58,1.81-2.68,1.62-2.2-.4-.54-1.31-.32-2.31.85-3.82-.5-7-3.54-9.47Z"/><path class="cls-3" d="M1481.4,495l2,0,0,0c0,8.21-.64,8.66-11.05,7.75.87-3.6,2-7.24,0-10.77-.39-.7-.5-1.19.2-1.6a1.55,1.55,0,0,1,.92,0c.59,4.89,5.11,1.64,7.14,3.47a8,8,0,0,1,.87,1.18c-1,1.67-4.15,1-4.27,3.57-.07,1.58,1.76,1.05,2.79-1.05A7.78,7.78,0,0,1,1481.4,495Z"/><path class="cls-3" d="M1138.31,465.22a52.39,52.39,0,0,1-8.83-9.21c2-2.76,5-2.48,7.5-1.7s1.23,3.62,1.42,5.55A43.62,43.62,0,0,1,1138.31,465.22Z"/><path class="cls-3" d="M1605.37,495c1.21-2.22,3-2.26,5.11-1.43,1.84.74,3.44,2.07,3.25,4-.26,2.55-2.62,1.1-4,1.39a24.66,24.66,0,0,1-3.69.2c1.58,4.59,4.28,2.06,7.2.66-.77,3.18-2.65,3.85-4.51,3.84a5.15,5.15,0,0,1-4.78-3.11c-.92-2.12-1-4.23,1.49-5.57a6.28,6.28,0,0,0,1.42,1.25C1606.39,495.76,1605.79,495.49,1605.37,495Z"/><path class="cls-3" d="M1264.44,495c1.22-2.21,3-2.27,5.11-1.43,1.84.73,3.44,2.06,3.25,4-.25,2.55-2.62,1.1-4,1.39a24.44,24.44,0,0,1-3.68.2c1.55,4.72,4.34,1.71,7.11,1a4.11,4.11,0,0,1-4.44,3.46,5.11,5.11,0,0,1-4.77-3.1c-.93-2.12-1-4.23,1.49-5.57a6.5,6.5,0,0,0,1.42,1.25C1265.46,495.76,1264.86,495.49,1264.44,495Z"/><path class="cls-3" d="M1181.46,495a2.36,2.36,0,0,1,2.43,3c-.23,1.52-1.86.86-2.92,1-1.54.25-3.23-.52-4.86.68,1.86,3.67,4.25,1.7,7.41,0-1,3.37-2.94,4.11-5,4a5.28,5.28,0,0,1-4.8-4.36c-.69-2.72.85-4.53,3-5.62,1.72-.87,3.86-1.53,4.73,1.35-.42.48-1,.75-1.45,1.22A6.5,6.5,0,0,0,1181.46,495Z"/><path class="cls-3" d="M1522.39,495a2.35,2.35,0,0,1,2.42,3c-.26,1.52-1.89.92-3,1-1.47.09-3,0-4.6,0,1.92,3.34,1.92,3.34,6.38,1.54-1.56,3.24-3.49,4.11-6.14,2.41-2.87-1.84-4.24-4.49-1.83-7.51,1.85-2.32,4.28-4.11,6.76-.42-.43.48-1,.75-1.46,1.22A6.56,6.56,0,0,0,1522.39,495Z"/><path class="cls-3" d="M1447.7,291.88c.41,1.44,1.67,1.21,2.44,1.74,1.29.88,2.44,1.85,2,3.6a3.3,3.3,0,0,1-2.37,2.34,5.8,5.8,0,0,1-4.62-1.11,1.49,1.49,0,0,1-.29-1.33,1,1,0,0,1,1.57-.49c1.06.69,2.46,2.18,3.24.43,1-2.19-1.68-1.75-2.71-2.51-2.06-1.54-2.12-3.31-.32-4.95,1-.92,2.51-.64,3.8-.25a1.19,1.19,0,0,1,.8,1.57C1450.49,292.77,1448.73,290.29,1447.7,291.88Z"/><path class="cls-3" d="M1617.71,495.86c.16,1.2,1.08,1.38,1.77,1.72,1.92.94,3.7,2,2.17,4.46s-3.64,1.65-5.72.95c-.91-.32-1.43-1-1.07-1.89.46-1.06,1.29-.69,2-.12.94.76,2.27,1.62,2.92.28.87-1.79-1-1.92-2.19-2.43-2.56-1.17-3.07-3-1.1-5,1.12-1.16,2.76-.93,4.16-.21a1.39,1.39,0,0,1,.52,1.23C1620.54,496.83,1618.74,494.3,1617.71,495.86Z"/><path class="cls-3" d="M1276.58,496.35a22.93,22.93,0,0,0,2.09,1.29c1.76.84,3.39,1.83,2.23,4.1-1.27,2.47-3.38,2.15-5.57,1.36-1.07-.39-1.88-1-1.33-2.12s1.39-.41,2,.09c1,.78,2.28,1.44,2.91.08s-.83-1.87-2-2.21c-1.6-.46-2.65-1.39-2.48-3.18.2-2.1,1.62-2.73,3.48-2.63,1,0,2.31.05,2.23,1.35C1280.05,497.14,1277.54,494.07,1276.58,496.35Z"/><path class="cls-8" d="M1308.33,288.89c.39.71.61,1.64,1.2,2.07,2.14,1.54,2.54,3.63,1.34,5.65-1.31,2.22-3.38,1.44-5.23.4-2.76-3.11-.13-5.05,1.56-7.2Z"/><path class="cls-3" d="M1307.2,289.81c.78,2.68-2.83,4.41-1.56,7.2l-1.57,3.18c-.56-.91-2.63-.84-1.51-2.89,1.5-2.76.93-5.7-.06-8.55-.28-.82-1.31-1.86.12-2.43,1.19-.47,1.82.43,1.88,1.56C1304.6,289.7,1305.74,290,1307.2,289.81Z"/><path class="cls-3" d="M1214.62,497.12a43.64,43.64,0,0,0-.58-5c-.29-1.27,0-1.92,1.24-2,1.42-.06,2,.4,1.6,2.08a21.81,21.81,0,0,0-.15,8.78c.11.76,1.61,1.74-.36,2-1,.11-2.5.48-2.14-1.58C1214.45,500.14,1214.47,498.82,1214.62,497.12Z"/><path class="cls-3" d="M1555.31,497.59c0-1.5,0-3,0-4.49,0-.91-1.12-1.91,0-2.67a2.25,2.25,0,0,1,1.9-.07c1.74.79.17,2,.22,3a59.28,59.28,0,0,0,.4,7.91c.21,1.2.69,1.8-.87,1.77-.94,0-2.1.16-1.86-1.48.19-1.31.27-2.63.4-3.95Z"/><path class="cls-3" d="M1387.32,298.19a1.92,1.92,0,0,1-1.89-1c-.39-3.5.82-7.21-1.7-10.65,2.75-.58,4.82-1.42,3.8,2.83C1386.86,292.15,1387.35,295.23,1387.32,298.19Z"/><path class="cls-3" d="M1624.5,492.22c-.63-1.87.1-2.5,1.28-2,1.48.64,3.78-.5,4.43,1.77.31,1.08-.62,1.05-1.55,1.12C1627,493.26,1626,491.59,1624.5,492.22Z"/><path class="cls-3" d="M1289.19,491.87c-1.15,3.28-3.35-1.31-5,.7-.72.86-.87-1.13-.8-1.29,1-2.26,2.48-.73,3.8-.43C1287.91,491,1289.3,490,1289.19,491.87Z"/><path class="cls-5" d="M1289.37,534.75a10.26,10.26,0,0,1-4.91,1.21C1285.69,533.92,1287.29,533.36,1289.37,534.75Z"/><path class="cls-5" d="M1277.47,385.35a6.29,6.29,0,0,1,3.15,2.56C1278.66,388.18,1277.35,387.64,1277.47,385.35Z"/><path class="cls-5" d="M1283.79,536.08c-1.26,1.07-2.81,1-4.31,1C1280.61,535.52,1282.29,536.16,1283.79,536.08Z"/><path class="cls-5" d="M1458,377.94l1.32-1.28Z"/><path class="cls-3" d="M1389,300.24l-.86-.69,1.3-.51,0,0Z"/><path class="cls-6" d="M1211,249.09c.62-7.91,4.26-14.71,7.6-21.4,6.91-13.86,15.53-26.68,28.06-36.24,14.2-10.83,30.16-15.42,48.24-12.48C1256,189.32,1230.84,215.91,1211,249.09Z"/><path class="cls-6" d="M1517.5,263.62c18.07-3.27,35.49-4.91,53.29-2.44,12.59,1.74,23.49,7,33.6,14,8,5.56,13.23,13.73,17.59,22.36a1.9,1.9,0,0,1-.21,1.76c-1.09.77-1.8-.26-2.47-.92a95.6,95.6,0,0,0-12.82-11c-11.26-7.61-23.25-13.88-36.32-17-15.89-3.84-32.15-6.32-48.67-5.4A4.1,4.1,0,0,1,1517.5,263.62Z"/><path class="cls-6" d="M1163.77,341a161.48,161.48,0,0,0,19.53-9.73c12.44-7.41,22.72-16.89,29.86-29.6.66-1.16,1.18-2.62,2.82-2.36,1.88.28,1.43,2,1.46,3.21.33,11.83-5.4,20.49-14.51,27.25-10.78,8-23.65,9.94-36.4,12.11C1166.11,342,1165.62,341.63,1163.77,341Z"/><path class="cls-6" d="M1472.75,200.43c-4.69-2.07-7.73-6.13-11.41-9.32-8.16-7.1-17.58-12-27.35-15.91-5.3-2.12-11.07-4.39-17.19-4.18-1.1,0-2.56.33-3-1.12-.49-1.66,1.18-1.66,2.09-2.21,9.74-5.87,19.65-4.59,28.78.71C1457.45,175.81,1466,187.38,1472.75,200.43Z"/><path class="cls-9" d="M1706.25,508.47a91.58,91.58,0,0,0-16.4-42.63c-3.78-5.24-8.19-10.22-10.22-16.35-1.77-5.34-1.57-11.09-1.36-16.71,1.42-37.15,3.25-74,.65-111.14-.32-4.56.95-9.15.45-13.7-5.58-50.68-7.9-101.93-11.79-152.77-.57-7.39-1.21-15.06-4.88-21.5-8.47-14.9-41.29-13.85-56.4-17.29-24.28-5.53-48.37-12-73-15.94a957.21,957.21,0,0,0-121.59-12.15c-29.94-1-59.89.43-89.79,1.82a936.17,936.17,0,0,0-156,20,352.65,352.65,0,0,0-53.82,16.06c-4,1.58-8,3.39-9.69,8.49-5.39,16.72-10.06,33.64-14.57,50.62-3.79,14.3-6.66,28.82-9.71,43.29a531.91,531.91,0,0,0-8.87,59.71c-3.12,33-3,66-2.84,99.2.15,28.06,8.48,52.92,19.17,78.51,1.64,3.93,1.43,6.52-1.92,9.45-10.81,9.45-19.67,20.62-23.84,34.46-11.79,39.15,6.42,78.75,43.62,95.15,19.12,8.43,40.2,11.11,60.94,13.7a583.25,583.25,0,0,0-47.77,129.76l27.4,2.87c1.73.18,3.61.33,5.07-.62,1.83-1.18,2.3-3.61,2.62-5.77,7.34-49,25.1-91.93,44.24-137.06.87-2.06,1.65-4.64.23-6.37-.92-1.15-2.49-1.5-3.94-1.78-22.57-4.33-46.08-6.51-64.21-22.16-22.82-19.71-27.48-57.21-10.17-81.9,3.69-5.26,8.24-10,10.73-15.94,8.27-19.64-8.65-35.72-11.82-54.06-1.26-7.26-1.3-14.66-1.35-22l-.17-28.1a505.56,505.56,0,0,1,5.69-80.69c5.18-33.68,13.57-66.55,23.47-99.11,2-6.61,5.84-10.35,12.21-12.51a439.89,439.89,0,0,1,51.5-14.28,763.12,763.12,0,0,1,78.46-12.15c20.38-2.09,40.82-3.48,61.26-3.88,20.13-.39,40.27-.31,60.44.58q46.21,2.07,92,8.33a880.62,880.62,0,0,1,111,22.84h0c18.53,5,15.83,75.23,17.05,89.63q4.13,48.48,4.82,97.16.35,24.33-.16,48.65c-.24,11.44-3.52,27.73.49,38.61,1.62,4.58,5,8.31,7.85,12.2a76.61,76.61,0,0,1-42.94,120c-14.7,3.67-30.1,2.9-45.24,2.11l41.1,104c.7,1.76,1.49,3.65,3.09,4.68,2.19,1.4,5.13.75,7.56,1.68s3.92,3.23,5.3,5.4c4.85,7.68,9.86,15.8,10.38,24.87s-5.23,19.2-14.27,20.16a70.44,70.44,0,0,0,30.43,2.49,503.32,503.32,0,0,0-53.72-145.73c20.14.87,40.74,1.41,60-4.59a92.67,92.67,0,0,0,59.29-58.16A91.13,91.13,0,0,0,1706.25,508.47Zm-427.16-412a2.53,2.53,0,0,0,.92-1.75C1280.09,95.51,1280.06,96.25,1279.09,96.42Z"/><path class="cls-9" d="M1680.89,294.71c0,.21-.05.42-.07.63.08-.09.22-.19.23-.29S1681,294.83,1680.89,294.71Z"/><path class="cls-8" d="M1322.11,376.09c6.83,0,12.62,3.59,14.52,9,2.27,6.5-.87,11.9-7.68,12.82-2.29.3-4.58.47-6.88.89-6.89,1.27-13.71-2.76-14.51-8.3-1-6.65,4.4-13.37,11.55-14.41A21.44,21.44,0,0,1,1322.11,376.09Z"/><path class="cls-8" d="M1413.76,395c-2.15-.31-4.82.54-7.39-.68-4-1.89-5.59-4.85-5-9.23.69-4.93,2.76-9.07,7.47-10.9,5.54-2.16,11.08-1.26,16,2.12,4.78,3.28,6.91,7.94,5.33,12.38-1.71,4.8-6.38,5.34-10.54,6.24C1417.94,395.32,1416.05,395,1413.76,395Z"/><path class="cls-2" d="M1353.88,342.66c5.06,5.31,6.88,12,8.33,18.66,2.22,10.25,3.06,20.68-.09,30.94-1.07,3.49.36,4.86,3.31,5.91,1.9.68,4.18.84,6.06,3.37-5.77.43-10.59-1.46-15.56-1.78-2.1-.14-.82-2.17-.47-3.23,1.13-3.45,2.63-6.71,3.12-10.44,1.47-11-.15-21.76-2.41-32.48C1355.4,350,1354.64,346.31,1353.88,342.66Z"/><path class="cls-10" d="M1593.67,698.78l-.9-4.7c-1.13-3.09-2.07-6.24-3-9.4-.29-1.2-.57-2.4-.85-3.61a20.12,20.12,0,0,1-1.26-3.29,1.85,1.85,0,0,0-.2-.92c-.1,0-.21-.07-.32-.23s-.07-.37.16-.61c-.17-.65-.33-1.3-.49-1.95-.66-1.26-.62-2.76-1.41-4-5.58-18.3-13-35.86-21.05-53.19-3.58-7.67-8.51-14.65-11.37-22.66,0-2-1.35-3.31-2.31-4.81-3.3-5.12-6.9-10-10.09-15.23a8.12,8.12,0,0,0-.8-1.12,14.81,14.81,0,0,1-2.44-3.24,7.28,7.28,0,0,0-.84-1.08c-6-7.88-13.8-14.15-20.19-21.7a5.13,5.13,0,0,0-1-.86,7.74,7.74,0,0,1-4-3.15,6.11,6.11,0,0,0-1-.84,21.43,21.43,0,0,1-2.11-1.4,7.42,7.42,0,0,0-1.08-.66,13.46,13.46,0,0,1-3.26-1.85,9,9,0,0,0-1.13-.66c-3.71-1.88-7.48-3.68-11.16-5.63a6.51,6.51,0,0,0-1.42-.45c-2.33-.89-4.79-1.29-7.17-2-3.36-1-6.76-1.79-10,.31-3.1,5.35-4.79,11.32-7.54,16.82-8,15.9-18.52,29.14-36,35.53-10.3,3.79-20.59,7.52-31.29,10.16a295.52,295.52,0,0,1-53.76,7.67c-10.92.64-21.91,1.9-32.86,1.13-13.92-1-27.92-.91-41.77-2.82-20-2.75-39.75-6.31-58.29-14.76a5.49,5.49,0,0,0-2.36-.46,30.37,30.37,0,0,0-3,.58,5.89,5.89,0,0,0-2,.9c-2.77,5.32-5.82,10.51-7.2,16.43a25.91,25.91,0,0,1-1.1,3.29c-14.26,29.36-26.58,59.49-35.34,91-5.13,18.44-9.12,37.13-10.55,56.28,4.14.44,8.27.93,12.41,1.33,36.44,3.59,72.83,7.63,108.92,13.91,22.09,3.85,43.66,3,65.07-4,16.94-5.56,33.37-12.44,50.25-18.14,21.12-7.13,42.58-11,64.83-7.3,27.26,4.53,54.61,8.43,82.08,11.38,2.74-.56,6.1.71,7.62-3.13,5.31-13.41,15.56-23.87,21.9-36.67a34.88,34.88,0,0,1,3.8-6.42c1-1.21,1.79-3.47,3.7-2.54s1.28,3.21.71,4.93c-1,3-2,6-3.24,8.88-1,2.4-2.91,5.22-.29,7.29s5-.51,7.12-1.88c5.73-3.67,11-8,16.72-11.7C1595,705.09,1596,702.46,1593.67,698.78Z"/><path class="cls-5" d="M1414,358.82a21.28,21.28,0,0,1-10.86-3.67,2.66,2.66,0,0,1-1.16-3.44c.64-1.56,2-.69,3-.43a34.92,34.92,0,0,0,18.7-.21c1-.28,2.15-1.45,3,.18s0,2.84-1.28,3.81A18.5,18.5,0,0,1,1414,358.82Z"/><path class="cls-5" d="M1318.81,362.65a15.79,15.79,0,0,1-11.32-5.13,2.3,2.3,0,0,1-.64-2.74c.72-1.15,1.74-.34,2.62.05,6.16,2.79,12.23,2.43,18.28-.44.85-.4,2.13-1.72,2.86.1a3,3,0,0,1-.78,3.64A18,18,0,0,1,1318.81,362.65Z"/><path class="cls-8" d="M1357.19,292v6.34c-1.56-2.54-3.35-2.77-5.39-1.17a2.38,2.38,0,0,1-3.17.25c-.34-.26-.72-.9-.62-1.23.48-1.53,1.9-1.16,2.93-1C1353.73,295.42,1355.61,294.48,1357.19,292Z"/><path class="cls-8" d="M1351.68,288.4c-.47.27-.75.55-1,.54a6.28,6.28,0,0,1-1.3-.4c.26-.15.53-.43.79-.43A7.56,7.56,0,0,1,1351.68,288.4Z"/><path class="cls-8" d="M1356.89,288.18a2.75,2.75,0,0,1-.28-.82c0-.1.35-.21.54-.32,0,.14.18.31.15.42A4.85,4.85,0,0,1,1356.89,288.18Z"/><path class="cls-3" d="M1551.85,460.23a7.77,7.77,0,0,1-.24,15.54c-4.88-.16-8.08-3.13-8.17-7.58S1547,460.24,1551.85,460.23Z"/><path class="cls-3" d="M1211,475.79c-5,0-8.49-3.18-8.45-7.82s3.79-7.88,8.63-7.73a7.78,7.78,0,0,1-.18,15.55Z"/><path class="cls-3" d="M1381.86,256a7.54,7.54,0,1,1-.49,15.07c-4.51-.05-7.13-2.95-7-7.78S1377.14,255.92,1381.86,256Z"/><path class="cls-3" d="M1255.17,501.87c-2.11-.23-2.85-1.55-2.85-3.38,0-2.07.87-3.51,3.18-3.42a2.77,2.77,0,0,1,2.9,3.19A3.64,3.64,0,0,1,1255.17,501.87Z"/><path class="cls-3" d="M1253.63,503.79l3.61,0,.35.35a2.76,2.76,0,0,1-4.27.05Z"/><path class="cls-3" d="M1257.24,503.77l.69-.31c-.12.21-.23.43-.34.65Z"/><path class="cls-3" d="M1599.39,498c-.2,2.19-1.26,3.65-3.29,3.78-2.23.13-3.23-1.7-3.28-3.52-.06-2,1.45-3.21,3.53-3.22S1599.21,496.3,1599.39,498Z"/><path class="cls-3" d="M1598.52,504.11a2.75,2.75,0,0,1-4.27.06l.31-.38,3.62,0Z"/><path class="cls-3" d="M1598.18,503.77l.67-.31-.33.65Z"/><path class="cls-3" d="M1429.37,294.08c-.14,2-1.2,3.57-3.25,3.71a3.19,3.19,0,0,1-3.5-3.41,3.1,3.1,0,0,1,3.46-3.38A3,3,0,0,1,1429.37,294.08Z"/><path class="cls-3" d="M1245.55,498.42c0,2-1.06,3.19-2.9,3.26-2.11.09-3.29-1.2-3.24-3.38,0-1.88.87-3.15,2.88-3.23C1244.56,495,1245.48,496.32,1245.55,498.42Z"/><path class="cls-3" d="M1413.32,297.92a3.59,3.59,0,0,1-3.49-3.72c0-2.07,1.54-3.19,3.62-3.15s3,1.23,2.93,3.17C1416.35,296.37,1414.91,297.32,1413.32,297.92Z"/><path class="cls-3" d="M1583.51,501.77c-1.73-.22-3-1-3.15-3s.55-3.59,2.85-3.72c2-.12,3,.93,3.23,2.86C1586.66,500.07,1585.67,501.32,1583.51,501.77Z"/><path class="cls-3" d="M1140.47,495a28.65,28.65,0,0,1,0,3.47c-.28,2-1.45,3.45-3.6,3.33-2-.11-2.86-1.82-2.92-3.49-.08-1.87,1.27-3,3.12-3.23a30.84,30.84,0,0,1,3.47-.05Z"/><path class="cls-3" d="M1481.4,495c0,1.14,0,2.28,0,3.42a3.18,3.18,0,0,1-3.38,3.41c-2,.06-2.93-1.5-3.16-3.17-.3-2.17,1.15-3.28,3.14-3.58a24.2,24.2,0,0,1,3.41-.05Z"/><path class="cls-3" d="M1605.37,495c.48,0,1,.06,1.46.05,1.59,0,3.49-.53,4.1,1.57.27.94-.85,1.16-1.69,1.25-2.2.24-4-.08-3.84-2.9Z"/><path class="cls-3" d="M1264.44,495c.49,0,1,.06,1.46.05,1.59,0,3.49-.53,4.1,1.58.27.93-.86,1.15-1.7,1.24-2.19.24-4-.08-3.83-2.9Z"/><path class="cls-3" d="M1181.46,495c0,1.36.06,2.85-1.86,2.84-1.2,0-3.09.78-3.4-.9s1.48-1.84,2.8-1.93c.83-.05,1.66,0,2.49,0Z"/><path class="cls-3" d="M1522.39,495c0,1.37,0,2.86-1.87,2.84-1.2,0-3.09.78-3.4-.9s1.48-1.85,2.81-1.93c.82-.05,1.66,0,2.49,0Z"/><path class="cls-11" d="M2566.32,891.93V770c-1.73-1.47-678.77-1.09-680.74-.9-8.28.82-16.47,2.38-24.74,3.32-20.19,2.3-40.36,4.72-60.55,6.93-15.72,1.72-31.48,3.14-47.12,5.59a24.19,24.19,0,0,1-5.16,1.77c-12,2.4-24,4.89-36.15,6.8q-30.19,4.75-60.68,7.3c-16.39,1.38-32.81,1.28-49.19,2.58-6.92.55-13.94-.47-20.88-.64-20.76-.49-41.4-2.05-62.06-4-17.66-1.69-35.08-4.79-52.55-7.55-18.18-2.86-36.13-7-54.27-10.21a141.49,141.49,0,0,0-70.21,5c-18.91,6.27-37.18,14.4-56.45,19.62-14.22,3.85-28.52,6.53-43.28,2.87-7.91-2-15.58-4.67-23.39-6.9-30-8.55-60.77-10.69-91.61-10.83-49.1-.22-98.22-1.29-147.32.67-15.47.62-31-.29-46.47.29-18.42.7-36.81,2.11-55.27,1.69-1.18-.21-869.08-1-870.19-1.39-2.64-.74-5.22-1-7.5,1v167a93.82,93.82,0,0,1-.07,9.49c-.31,3,.59,3.6,3.57,3.59,22.12-.06,911.25-.08,933.37-.08V973h926v-.06q12.21,0,24.41.06c3,0,678.61-.6,678.59-3.58C2566.26,943.59,2566.32,917.76,2566.32,891.93ZM929.68,898.87l0,0a.5.5,0,0,1,0-.13l.15-.1Zm6.75,1.06a3.78,3.78,0,0,1-3.25-2.25c1.39.08,3.13,1.15,4.23,1v.93A2.31,2.31,0,0,1,936.43,899.93Z"/><path class="cls-12" d="M1862.1,934.79c-7.14-2.56-14.6-4.06-21.89-6-6.69-1.81-13.18-4.27-19.94-5.86-10.24-2.4-20.15-6-30.39-8.59-5.15-1.27-10.29-3.76-15.5-5.12-46.18-12.13-82.14-30-131.26-22.18-28.83,4.59-57.21,12.89-86.39,13.93-47.65,1.7-93.59-16-140.5-24.51a372.2,372.2,0,0,0-138.89,1.25c-46.48,9.24-87.47,25.78-136.12,19.8-26.68-3.28-47.93-16.19-73.18-22.83-33.33-8.77-64.32,4.16-96.38,12-10.36,2.52-20.93,4.37-31.19,7.44-.65.18-1.13.73-1.79.84-1.44.23-3.81-1-3.68,1.78s2.66,1.89,4.29,2.17a2.81,2.81,0,0,0,2.25-.89c.44-3.2,2.29-2.74,4.75-2.26,11.18,2.19,22.43,3.92,33.6,6.26,9.54,2,19,4.33,28.48,6.5s19.35,4.14,28.86,6.8c5.93,1.66,12.23,2.41,17.7,6-36.4-5.2-71,1.84-104.8,15.05,41.44,1.53,81.31,10.84,120.83,22.36-15.16,3.3-30.27,5.7-45.33,8.36-3.85.69-8.28.19-11.12,3.93h766.84c-.18-.85-.5-1.78-1.43-1.81-5.84-.18-11.37-2.36-17-3-15.34-1.71-30.28-5.42-45.41-8.16-.91-.17-2.25.24-2.51-1-.31-1.5,1.14-1.87,2.13-2.34,6-2.79,12.53-4.17,18.88-5.46,12-2.43,24.12-4.06,36.29-5.5q26.89-3.18,53.92-4.46c11.75-.56,23.53-1.75,35.35-1.28,1.23,0,3.07.51,3.37-1.23C1865.25,934.75,1863.22,935.19,1862.1,934.79Z"/><path class="cls-4" d="M2566.32,779c0,.48-762.41,11.78-769.19,12.69q-52.7,7.13-105.79,10.78-73.62,5.08-147.51,3.48c-47.79-1-91.59-10.91-138.72-17.23-22.83-3-44.9,0-66.56,7.42-16.62,5.71-32.86,12.43-49.73,17.52-21.24,6.4-41.94,6.63-63-.79-52.76-18.56-118.18-16.46-173.59-17-61.46-.6-989.88,2.66-1051.2,6.59C.81,796.54-.83,749.13.54,749c10.54-1,888-2.64,898.58-3.52,6.61-.55,13.25-.8,19.84-1.22,27-1.74,54.19-1.84,81.27-1,19.07.61,38.18.39,57.24,1.73,75.84,5.32,150.43,11.17,225.77,21.58a110.64,110.64,0,0,0,47.41-3.92c19.63-5.9,38.48-14,57.9-20.43,23.06-7.67,46.29-10,70.34-5.52,23.23,4.31,46.7,7.22,70.2,9.73a32.8,32.8,0,0,1,4.92.82c13.37,1.53,26.78,2.49,40.16,3.91,10.74,1.15,21.52,1.8,32.3,2.42,7.47.84,15,1.44,22.48,1.62,2.6.06,5.3-.22,7.44,1.79,45.22,2.94,90.51,2.4,135.76,1.76,23-.33,46.1-1.62,69.11-3.49,14-1.14,28.12-2.09,42.17-3.29,2.64-.22,680.26-.65,682.89-1Z"/><path class="cls-13" d="M1739.43,796a2.17,2.17,0,0,0,.91-.13c1-.68,2.26-.21,3.31-.69,3.32.41,6.55-3,9.93-.24-4.19,2.76-9.16,2.77-13.82,3.72a730.17,730.17,0,0,1-127.84,14.48,699.88,699.88,0,0,1-139.66-10.85c-20.14-3.6-40.32-7.08-60.44-10.84-27.48-5.14-53.94-1.66-79.86,8.34-18,6.94-36,13.84-54.86,18.45a78.4,78.4,0,0,1-45.2-2.24c-27.17-9.34-55.29-13-83.86-14.19-53.62-2.16-107.24-1.31-160.86-.63-36.79.47-73.58,1.78-110.36,2.72-.94-.52-.85-1.19-.3-1.94l6-.8c5.49-1.67,11.17-.66,16.74-1,14.74-1,29.52-1.51,44.28-2.17,13.14-.58,26.27-.66,39.41-.94,27.62-.59,55.25-1.29,82.88-.93,15.3.2,30.59.94,45.9.9a6,6,0,0,1,3.81.91l7.83.23c7.36.21,14.74,0,22.08.89,31.07,1.23,61.53,5.84,91.16,15.67,18.76,6.22,37.11,2.15,55.35-3.3,14.85-4.43,29.2-10.2,43.67-15.62,30-11.25,60.46-11.28,91.37-4.67,23.09,4.93,46.28,9.36,69.68,12.66,1.48.21,3,.23,4.47.35,2.64,1.17,5.65-.6,8.23,1l1.55.14c1.79.51,3.75-.29,5.48.66l1.89.2q16.88,1,33.77,1.68c23.06,1,46.1,2,69.23.75,18.92-1,37.82-2.07,56.62-4.38,18.57-2.28,37.23-4,55.62-7.55C1735.51,796.23,1737.56,797,1739.43,796Z"/><path class="cls-14" d="M1385.73,423c.63-.48,1.53-1,1.22-2-.41-1.25-1.66-1-2.56-.82a82.47,82.47,0,0,1-38.91-1.45C1353.48,430.54,1373.51,432.34,1385.73,423Z"/></g></g></svg>