<svg xmlns="http://www.w3.org/2000/svg" viewBox="0 0 1006.8 1067.41"><defs><style>.cls-1{fill:#4580c3;}.cls-2{fill:#63bec3;}.cls-3{fill:#fccf47;}.cls-4{fill:#252e57;}.cls-5{fill:#fdfdfd;}.cls-6{fill:#30acc0;}.cls-7{fill:#fabb32;}.cls-8{fill:#f7a6a7;}.cls-9{fill:#fcc1c0;}.cls-10{fill:#fcadad;}.cls-11{fill:#fb9899;}.cls-12{fill:#2f353e;}</style></defs><g id="Layer_2" data-name="Layer 2"><g id="Layer_3" data-name="Layer 3"><path class="cls-1" d="M1002.39,868c1.6-18.81,7-35.26-2.95-52.5C991.11,801,976,791.36,966,778.14c-19.82-26.13-19.89-62-20-93.38-.16-36.34-7.93-63.66-28.52-94.25-18-26.74-39.28-52.67-46.44-84.11-6.34-27.82-.72-57.29,10.48-83.54C901,377,934.41,338.39,956.19,293.51c11.71-24.12,20.31-49.2,23-76.08,4-40.27-10.15-74.08-36.34-103.82-46.11-52.37-104-85-171.09-102-71.28-18-142.28-14-213,4.22-39.68,10.24-77.14,26.22-114.23,43.3-23.3,10.72-47,20.33-72.31,25.66-28.91,6.1-56.87,3.35-84.27-7.47C265.63,68.55,244.59,56.93,222.35,48c-13.64-5.49-27.57-9.93-42.26-11.49-30.44-3.22-57.1,6.15-79.94,25.73C68.4,89.42,52,123.77,55.59,166.27c1.33,16,5.52,31.49,9.07,47,6.76,29.6,2,57.17-10.7,84.51-10.4,22.41-23.54,43.9-29.08,68C10.46,428.42,50,495.38,31,556.76,19.34,594.25,2.12,622.4.5,663.66-1,701.57,5,738.78,6.22,776.51c1.39,42.83-5,85.44-6.1,128.2-.4,16.08,0,32.42,4.57,47.83,14.47,48.35,82.9,95.5,128.85,109.63,38.82,11.94,80,2.28,114.79-16.84,34.26-18.81,61.46-47.24,102.1-53.52,25.19-3.89,50.8,1.05,75.86,5.7a3381.35,3381.35,0,0,0,384.21,48.63c32.6,2.24,51.91-9.32,77.5-27.55,17.53-12.48,39.09-35.05,60.57-40.23,34.06-8.23,60.18-27.34,58.11-65.11-.77-13.93-5-26.94-4.55-40.92C1002.17,870.89,1002.26,869.45,1002.39,868ZM228.91,181.75c.8-5.17,3.51-7.77,8.33-8.37,13.61-1.71,27.26-1,40.89-.35,21.8,1,43.44,4,65.26,4.86,15.21.61,30.38.17,45.27-2.77a152.44,152.44,0,0,1,66.84,1.26c41.66,10.25,83.18,8.55,124.69-1.13,23.15-5.4,46.62-4.7,70.1-2.75,7.94-34.54,32.47-54,63.11-66.23C767.76,84.54,822,85.92,875.06,111.48a104.11,104.11,0,0,1,35.25,27.39c23.08,27.8,22.63,61.54-1.41,88.52-18,20.23-41.25,31.9-67,38.62-44.18,11.56-87.7,9.54-130.16-8.11a9.8,9.8,0,0,0-1.44-.37c-1.25,20.19.5,40.27,3.11,60.22,4.28,32.65,4.81,65.33,2.69,98.13a257.91,257.91,0,0,0,.45,39.89c.59,6.51.44,6.42-6.27,5.84-13.87-1.2-27.55.91-41.25,2.51,3.52,7.32,8,14.18,10.18,22.14,5.81,21.52-6.21,41.37-28,46A110.54,110.54,0,0,1,638,534.43c-13.7,1.19-25.83,5.91-36,15.29.21.48.42.95.62,1.42L320.92,533.69l.42-1.09c-2.58.1-5.15.34-7.71.64l-46.78-2.9a18.6,18.6,0,0,1-6.82-13c-1.61-16.08,0-31.55,11.12-44.52,3.81-4.45,9-7.34,13.36-11.11a446.56,446.56,0,0,1-46.85,1.44c-7.07-.22-8-1.06-7.53-8.26.34-5.47.5-11,.74-16.44a47.88,47.88,0,0,1,0-11.16.57.57,0,0,1,0-.7c-.38-14.42,2.47-28.5,4.85-42.6,3-18,2.75-36.11,2.3-54.29-.68-28.25-5.61-55.92-9.92-83.73C224.8,224.61,225.62,203.14,228.91,181.75Z"/><path class="cls-2" d="M187.19,955.84c-25.52.85-53.4-4.26-72.06-23-11.28-11.34-17.94-26.46-22.77-41.7A233.35,233.35,0,0,1,82.1,805.45c2-30.5,14.2-57,19.41-86.55,5-28.13,2.64-55.61-6.34-82.8-.73-2.19-1.2-4.47-1.78-6.72,11.23-1.1,22.45-2.31,33.79-2.06,8.32.19,16.17,1.26,22.95,6.74a65.41,65.41,0,0,0,9.3,5.77c37.65,21.23,78.48,30.29,121.32,31.5a346.59,346.59,0,0,0,47.78-2,405.31,405.31,0,0,0,46.13-7.81c21.65-5,41.91-14,62.94-20.86,25.1-8.13,50.6-12.63,77-9.1,6.42.86,13.32.79,18.84,5.23-1.46,1.06-2.87,2.2-4.4,3.16Q495.58,661,462.12,682c-1.83,1.16-4.56,1.88-3.66,5.09a177.75,177.75,0,0,0-40.32,1.36c-1.68.26-4.34,0-4.44,2.22s2.48,2.45,4.2,2.7c5.53.8,11.09,1.4,17.81,2.21C422.93,702.2,409.82,705.85,399,714c10,.33,19-4.17,28.66-5.32-9.08,5.92-19.51,9.35-27.73,16.61,11.91-1,22.31-7.2,33.92-9a6.68,6.68,0,0,1-2.3,2.76c-6.05,4.13-12.16,8.17-18.18,12.34-1.27.88-3.57,1.84-2.77,3.6.9,2,3,.53,4.39,0,5.75-2.19,11.41-4.59,17.11-6.91l.88.89c-2.64,2.26-5.32,4.48-7.89,6.81-.66.6-1.68,1.51-.8,2.48a3,3,0,0,0,2.3.3c4.31-.88,8-3.21,11.58-5.56,10.72-7,20.17-15.62,30.19-23.51,1.05,1.9,2.64,2.25,4.64,1.74,3.69-.94,7.46-1.64,11.11-2.73,37.22-11.15,74-23.53,109.26-40,1.48,3.31,4.82,3.88,7.67,4.91,17.74,6.39,35.27,4,52.78-1.28C673,666.31,691.41,658,711,653.3c14.08-3.37,28.37-6,42.81-5.68,18.08.45,35.54,4.31,51.62,13.25,7,3.88,14.49,6.62,21.9,9.57,11,4.4,22.43,3.64,33.86,2.89.24,15,6.23,28.48,11.65,42.06,9.72,24.38,16.77,49.48,20.13,75.51,3.08,23.87-1.17,47.28-1.22,71.09,0,15.35,10.23,27.58,17.78,40,5.15,8.47,9.13,18.62,6.48,28.17-1.46,5.25-4.8,9.79-8.57,13.72C893.51,958.38,873,967,854.22,973.26c-54.08,18-106.59,2.22-161.47,6-68.52,4.71-138.9-.44-202.85-27.18-48.45-20.25-104.42-37.28-157.72-30.46C282.45,928,236.4,954.21,187.19,955.84Z"/><path class="cls-3" d="M230.87,438.44a47.88,47.88,0,0,1,0-11.16.48.48,0,0,0,0-.7c-.38-14.42,2.47-28.5,4.85-42.6,3-18,2.75-36.11,2.3-54.29-.68-28.25-5.61-55.92-9.92-83.73-3.3-21.35-2.48-42.82.81-64.21.8-5.17,3.51-7.77,8.33-8.37,13.61-1.71,27.26-1,40.89-.35,21.8,1,43.44,4,65.26,4.86,15.21.61,30.38.17,45.27-2.77a152.44,152.44,0,0,1,66.84,1.26c41.66,10.25,83.18,8.55,124.69-1.13,23.15-5.4,46.62-4.7,70.1-2.75-1.41,13.18,0,25.91,6.32,37.79,1.14,2.17.26,3.73-.71,5.55q-13.89,25.95-27.65,52c-.71,1.34-1.81,2.64-1.64,4.83,2.49-.65,4.55-1.18,6.61-1.73l50-13.5c3.31,2.64,1.71,6.54,2.37,9.82,2.44,12.19,2.78,24.37-.92,36.45C681.38,314.61,678,325.44,677,337c-.86,10.81-1.91,21.74-7,31.82-6.86,13.6-16.75,22.84-32.41,24.76-6.74.82-13.43,2.27-20.19,2.57-7.2.33-13.89,3.45-21.1,3.28a20.62,20.62,0,0,1-1.58-13.63c1.14-6,2.8-12,4.06-18,4.2-20.09.13-37.62-17.16-50.13-13.16-9.52-21.48-21.82-25.72-37.4-4.65-17.06-15.2-30.14-29.23-40.56-15.32-11.38-31.83-15.72-50.14-7.93-12,5.12-23.75,5.37-35.61-.66a34,34,0,0,0-18.44-3.25c-31.36,2.56-63,29.83-64.24,66.65-.36,10.69-4.45,19.68-11.76,27.83-10.23,11.42-21.11,22.07-32.29,32.57-19.11,17.94-25.08,39.78-15.83,65,1.25,3.42,2.84,6.77,3,10.51-6.49-.65-12.89.73-19.32,1.15-9.37.59-18.86,1.39-27.74,5C246.69,439.74,238.71,438.15,230.87,438.44Z"/><path class="cls-4" d="M301.39,430.46c-.13-3.74-1.72-7.09-3-10.51-9.25-25.22-3.28-47.06,15.83-65,11.18-10.5,22.06-21.15,32.29-32.57,7.31-8.15,11.4-17.14,11.76-27.83,1.24-36.82,32.88-64.09,64.24-66.65A34,34,0,0,1,441,231.15c11.86,6,23.59,5.78,35.61.66,18.31-7.79,34.82-3.45,50.14,7.93,14,10.42,24.58,23.5,29.23,40.56,4.24,15.58,12.56,27.88,25.72,37.4,17.29,12.51,21.36,30,17.16,50.13-1.26,6-2.92,12-4.06,18a20.62,20.62,0,0,0,1.58,13.63c.78,3.37,2.93,5.89,5.21,8.31,5.38,5.7,12.2,9.08,19.39,11.77,7,2.62,14.1,4.89,21,7.61,9,3.54,15,10,18.16,19.24a71.14,71.14,0,0,0,8.9,17.72c3.52,7.32,8,14.18,10.18,22.14,5.81,21.52-6.21,41.37-28,46A110.54,110.54,0,0,1,638,534.43c-13.7,1.19-25.82,5.91-36,15.29-3.62-6.91-7.22-13.84-10.86-20.74-13-24.64-34.24-38.81-59.94-47.29-2.86-.94-6-2.46-9,.06q-13-.62-25.93-1.22c-8-.37-10.86-3.45-10.75-11.63,0-1.16-.08-2.32-.12-3.48,1.13-6,1.07-12,.93-18.09,4.62-4.3,10-7.63,14.42-12.23,12.05-12.57,20.44-27.41,27.43-43.17,2.52-5.69,4.25-11.29,10.22-15.47C546.58,370.68,549,350,544.13,341c-2.72-5-6.76-5.55-10.88-1.43-2.23,2.23-3.4,5.19-5.34,8.27-1.33-3.54-2.41-6.46-3.52-9.37-8.7-22.72-22.89-40-46.95-47.62-8.41-2.66-17-4.77-25.55-6.78-1.35-.32-2.46-.64-3.6.6-9.59,10.44-22.1,17-33.4,25.22-13.41,9.72-26,20.3-35.31,34.23a26.94,26.94,0,0,0,1.57,31.42c1.82,2.25,4,4.65,7.09,3.62s3,.77,3.65,2.43c9.65,25.8,22.59,49.3,45.77,65.67q.51,10.08,1,20.17l.12,5a.87.87,0,0,0-.12.88c-1.83,5.33-5.69,7.19-11.15,7.22-8.45,0-16.93-.34-25.36.69-2-1.61-4.23-1.59-6.6-1.19-33.21,5.54-59.36,21.05-74.22,52.52-8.15.33-16.13,1.87-24.15,3.22-7.07,1.19-14.24,1.59-21.2-.67-8.7-2.83-15-8.3-16-17.82-1.61-16.08,0-31.55,11.12-44.52,3.81-4.45,9-7.34,13.36-11.11a40.48,40.48,0,0,0,10.5-8.15C301.28,447,303.83,439.42,301.39,430.46Z"/><path class="cls-5" d="M522.14,481.75c3-2.52,6.15-1,9-.06,25.7,8.48,47,22.65,59.94,47.29,3.64,6.9,7.24,13.83,10.86,20.74,7.32,16.58,14.48,33.23,26,47.5,6.5,8,9.48,17.86,13.54,27.13,2.65,7.82-2.12,12.68-7.22,17.06a192.94,192.94,0,0,1-41,27.05c-35.27,16.48-72,28.86-109.26,40-3.65,1.09-7.42,1.79-11.11,2.73-2,.51-3.59.16-4.64-1.74a193.25,193.25,0,0,0-9.86-22.34c-.9-3.21,1.83-3.93,3.66-5.09q33.42-21.09,66.91-42.12c1.53-1,2.94-2.1,4.4-3.16l43.19-25.28c-18.77-11.91-37.79-20.67-59-24.12-29-4.72-57.7-2-86.28,3.57-30.37,6-59.9,15.37-90.12,21.91-18.37,4-36.82,7.56-55.74,7.52,12.94-28.85,24.42-58.29,35.88-87.75,14.86-31.47,41-47,74.22-52.52,2.37-.4,4.62-.42,6.6,1.19a15.8,15.8,0,0,0,1.14,1.63A80.3,80.3,0,0,0,522.14,481.75Z"/><path class="cls-6" d="M285.46,620.35c18.92,0,37.37-3.55,55.74-7.52,30.22-6.54,59.75-15.94,90.12-21.91,28.58-5.61,57.26-8.29,86.28-3.57,21.23,3.45,40.25,12.21,59,24.12l-43.19,25.28c-5.52-4.44-12.42-4.37-18.84-5.23-26.39-3.53-51.89,1-77,9.1-21,6.82-41.29,15.91-62.94,20.86a405.31,405.31,0,0,1-46.13,7.81,346.59,346.59,0,0,1-47.78,2c-42.84-1.21-83.67-10.27-121.32-31.5a65.41,65.41,0,0,1-9.3-5.77c-6.78-5.48-14.63-6.55-22.95-6.74-11.34-.25-22.56,1-33.79,2.06-3.14-6.69-3.81-14-4.82-21.14-1.19-8.35.86-16.5,2.9-24.58.84-3.33,3.44-3.23,5.92-3.2a188.55,188.55,0,0,1,39,4.41c19.65,4.41,38.51,11.3,57.34,18.25,16.53,6.12,33.32,11.42,50.58,14.85C257.81,620.66,271.65,620.93,285.46,620.35Z"/><path class="cls-6" d="M593.33,668.46a192.94,192.94,0,0,0,41-27.05c5.1-4.38,9.87-9.24,7.22-17.06,12.31-2.28,24-6.58,35.67-10.94,27.28-10.19,55-17.91,84.55-16A107.83,107.83,0,0,1,805,609.82c13.92,7.25,28.08,14,44.31,13.48a90.81,90.81,0,0,0,22.09-3.4c5.09-1.45,5.94-.55,4.85,4.66-2.09,10-6.62,19.15-10.49,28.5a62.46,62.46,0,0,0-4.54,20.27c-11.43.75-22.83,1.51-33.86-2.89-7.41-3-14.94-5.69-21.9-9.57-16.08-8.94-33.54-12.8-51.62-13.25-14.44-.36-28.73,2.31-42.81,5.68-19.6,4.68-38,13-57.23,18.79-17.51,5.26-35,7.67-52.78,1.28C598.15,672.34,594.81,671.77,593.33,668.46Z"/><path class="cls-7" d="M683.27,257.42c5.1-1.53,10.11-3.48,15.31-4.45,4.52-.84,7.86,2.92,11.75,4.56-1.25,20.19.5,40.27,3.11,60.22,4.28,32.65,4.81,65.33,2.69,98.13a257.91,257.91,0,0,0,.45,39.89c.59,6.51.44,6.42-6.27,5.84-13.87-1.2-27.55.91-41.25,2.51a71.14,71.14,0,0,1-8.9-17.72C657,437.2,651,430.7,642,427.16c-6.94-2.72-14.06-5-21-7.61-7.19-2.69-14-6.07-19.39-11.77-2.28-2.42-4.43-4.94-5.21-8.31,7.21.17,13.9-3,21.1-3.28,6.76-.3,13.45-1.75,20.19-2.57,15.66-1.92,25.55-11.16,32.41-24.76,5.07-10.08,6.12-21,7-31.82.92-11.6,4.34-22.43,7.68-33.35,3.7-12.08,3.36-24.26.92-36.45C685,264,686.58,260.06,683.27,257.42Z"/><path class="cls-7" d="M301.39,430.46c2.44,9-.11,16.57-6.38,23.09a40.48,40.48,0,0,1-10.5,8.15,446.56,446.56,0,0,1-46.85,1.44c-7.07-.22-8-1.06-7.53-8.26.34-5.47.5-11,.74-16.44,7.84-.29,15.82,1.3,23.46-1.82,8.88-3.62,18.37-4.42,27.74-5C288.5,431.19,294.9,429.81,301.39,430.46Z"/><path class="cls-7" d="M230.87,426.58a.48.48,0,0,1,0,.7A.57.57,0,0,1,230.87,426.58Z"/><path class="cls-8" d="M458.46,687.12a193.25,193.25,0,0,1,9.86,22.34c-10,7.89-19.47,16.52-30.19,23.51-3.6,2.35-7.27,4.68-11.58,5.56a3,3,0,0,1-2.3-.3c-.88-1,.14-1.88.8-2.48,2.57-2.33,5.25-4.55,7.89-6.81.37-.38,1.34-.52.77-1.3-.13-.17-1.08.26-1.65.41-5.7,2.32-11.36,4.72-17.11,6.91-1.37.53-3.49,2-4.39,0-.8-1.76,1.5-2.72,2.77-3.6,6-4.17,12.13-8.21,18.18-12.34a6.68,6.68,0,0,0,2.3-2.76c-11.61,1.85-22,8-33.92,9,8.22-7.26,18.65-10.69,27.73-16.61C418,709.85,409,714.35,399,714c10.86-8.17,24-11.82,36.75-18.41-6.72-.81-12.28-1.41-17.81-2.21-1.72-.25-4.29-.54-4.2-2.7s2.76-2,4.44-2.22A177.75,177.75,0,0,1,458.46,687.12Z"/><path class="cls-9" d="M437.66,447.27c-23.18-16.37-36.12-39.87-45.77-65.67-.62-1.66-.73-3.41-3.65-2.43s-5.27-1.37-7.09-3.62a26.94,26.94,0,0,1-1.57-31.42c9.32-13.93,21.9-24.51,35.31-34.23,11.3-8.19,23.81-14.78,33.4-25.22,1.14-1.24,2.25-.92,3.6-.6,8.59,2,17.14,4.12,25.55,6.78,24.06,7.62,38.25,24.9,46.95,47.62,1.11,2.91,2.19,5.83,3.52,9.37,1.94-3.08,3.11-6,5.34-8.27,4.12-4.12,8.16-3.6,10.88,1.43,4.84,9,2.45,29.67-5.79,35.45-6,4.18-7.7,9.78-10.22,15.47-7,15.76-15.38,30.6-27.43,43.17-4.4,4.6-9.8,7.93-14.42,12.23-8.46,3.38-16.8,6.86-26.33,6.2C452,453,444.8,450.37,437.66,447.27Zm17.58-103.22c0-3.49.06-7,0-10.46a2.56,2.56,0,0,0-2.53-2.61c-1.74-.11-2.2,1.28-2.27,2.68-.1,2.15-.16,4.32-.06,6.47.63,13-1,25.81-3.32,38.55-1.29,7.21,1.89,10.63,9.19,9.74,1.36-.16,2.82-.2,2.79-2.06,0-1.53-1.24-2-2.44-1.86-6.34.5-5.34-3.29-4.71-7.41C453.53,366.14,455.58,355.21,455.24,344.05Zm11.21,77.67c2.83-.2,5.68.08,8.27-1.4,1.11-.63,2.76-1.1,2.18-2.8s-2.11-2-3.7-1.49c-2.54.79-5.07,1.6-7.79,1.26-3.77-.48-7.52-1.11-11.31-1.41-4.57-.36-8.88.53-12.45,3.68-1,.94-1.71,2.17-.81,3.53,1,1.52,2.28.9,3.43.06,4.54-3.34,9.63-3,14.79-2.23C461.51,421.27,464,421.46,466.45,421.72Zm22-72.35c0-2,.15-4-.95-5.8a3.85,3.85,0,0,0-4.64-2c-3.06,1-4.05,3.67-4.56,6.56-1,5.64.84,9.69,4.51,10.06S488.37,355.31,488.42,349.37Zm-69.51.59a33.48,33.48,0,0,0,.81,5.06,4.54,4.54,0,0,0,4.29,3.54,4.64,4.64,0,0,0,4.91-3.44,12.23,12.23,0,0,0-1.77-11.33,4,4,0,0,0-4.29-1.81,4.33,4.33,0,0,0-3.51,3.71C419.12,347,419.07,348.31,418.91,350Zm-8.86-9.55a44.12,44.12,0,0,0,4.85-1.15c5.38-1.84,10-6.07,16.25-5.31,1.13.14,2.05-1.09,2-2.42s-1.13-1.89-2.38-2c-4.13-.56-7.82.77-11.43,2.56-3.23,1.61-6.31,3.76-10.15,3.58-1.9-.09-4.14-.28-4.13,2.22C405.06,340.69,407.67,340.17,410.05,340.41Zm14.75,25.11c3.71.49,7.61-1.69,11.23-4.41,1.42-1.07,3.11-2.59,1.46-4.56s-2.73-.06-4,1c-6.08,4.84-11.52,4.82-17.5.08-1.1-.87-2.15-2.67-3.71-1.1s-.91,3.48.56,4.82C415.88,364.09,419.58,365.35,424.8,365.52ZM493,336.42c1.95-.12,4.34.28,4.76-2.42a2.13,2.13,0,0,0-2.55-2.37c-4.25.62-7.74-1.45-11.46-2.83a12.39,12.39,0,0,0-8.77-.46c-1.46.52-3.06,1-2.41,3a2.26,2.26,0,0,0,3.19,1.5c3.28-1.17,6.18.11,9.11,1.35C487.45,335.31,490.06,336.41,493,336.42Zm-9.5,28.07c4.64-.14,8.76-1.07,11.8-4.66.9-1.07,1.45-2.41.34-3.59s-2.44-.67-3.58.16c-1.45,1.06-2.64,2.35-4.44,3.07-4.06,1.62-7.4.16-10.8-1.75-1.4-.78-3.21-2-4.48-.26-1.59,2.17.8,3.27,2,4.34C477,364.15,480.38,364.17,483.48,364.49Z"/><path class="cls-10" d="M522.14,481.75A80.3,80.3,0,0,1,403.3,482.9a15.8,15.8,0,0,1-1.14-1.63c8.43-1,16.91-.66,25.36-.69,5.46,0,9.32-1.89,11.15-7.22l.12-.88-.12-5c2.59-.29,4.82.7,7.17,1.68,13.79,5.76,26.91,3.73,39.5-3.7,0,1.16.13,2.32.12,3.48-.11,8.18,2.74,11.26,10.75,11.63Q509.19,481.12,522.14,481.75Z"/><path class="cls-11" d="M485.34,465.42c-12.59,7.43-25.71,9.46-39.5,3.7-2.35-1-4.58-2-7.17-1.68q-.51-10.1-1-20.17c7.14,3.1,14.33,5.72,22.28,6.26,9.53.66,17.87-2.82,26.33-6.2C486.41,453.38,486.47,459.44,485.34,465.42Z"/><path class="cls-11" d="M438.79,472.48l-.12.88A.87.87,0,0,1,438.79,472.48Z"/><path class="cls-12" d="M746.27,217.87c-8.21,2.25-15.77,2.47-23.3.23-21-6.23-28.09-27.77-14.84-45.17a28.45,28.45,0,0,0,4.62-9.14c3.69-11.78,12-18.92,24-21.44,2.72-.57,4.85-1.41,6.68-3.68a20.19,20.19,0,0,1,12.11-7.41c3.29-.62,4.85-2.1,6.06-5.28,4.3-11.32,17.21-18,28.88-15.19,6.39,1.51,10.9,5.47,14.11,11.66,1.66-2.06,3.07-4,5.1-5.34,1.23-.81,2.4-1.23,3.54,0s.74,2.52-.44,3.44c-7.4,5.78-6.35,13.49-5.24,22,3.81-3.37,7.59-5.51,10.12-9.41,5.31-8.2,13.55-10.62,22.63-7.11a17.75,17.75,0,0,0,5.29,1.24c13.19.85,22.15,7.77,26.77,19.9s3.52,23.54-5.9,33.33c-.34.35-.62.77-1.06,1.33,3.56,2.21,6.73,4.76,8.82,8.43,5.73,10.06.3,21.19-11.77,22.21-7.68.65-10.49,7.67-16.56,10-.9.35-.36,1.45-.16,2.24,2.51,10.31-3.26,20.94-12.39,23.85-9.37,3-19.63-1.64-25.53-11.71-.25-.43-.5-.85-1-1.63-1.24,1.35-2.36,2.64-3.56,3.85-5.85,5.92-13.44,7.06-18.89,2.88-5.11-3.93-6.32-12.56-2.62-19.2,2.87-5.14,7.58-8.27,12.4-11.32,1.18-.74,3.75-.58,2.87-3.14-.67-2-2.08-2.21-4.23-2.29-3.61-.14-5.49,1.06-7.34,4.17-4.53,7.67-10.82,13.89-17.87,19.34a23.41,23.41,0,0,1-8.84,4.47c-7.65,1.85-14.14-3.86-13.33-11.67C745.6,221.12,745.91,219.85,746.27,217.87ZM848,151.23c-4.12,1.66-6.24,5.13-8.11,8.85-.55,1.1-1.07,2,.41,2.89,1.28.73,2.14.32,3-.68,2.59-3,4.74-6.31,5.53-10.31.05-.39.09-.77.14-1.15Zm19.12-2.62c.14.38.14,1,.78.66a4.92,4.92,0,0,0-.3-1.16c-3.2-8.28-9.12-13.35-18.52-15.9a24.49,24.49,0,0,1,4.66,9.77c.28,1.39.72,2.46,2.53,2.34C860.52,144,863.78,146.44,867.11,148.61Zm-86.7,24.93c-5.1,1.82-10.84,2.56-12.59,9.22-.85,3.22-3.08,5.89-5.51,8.21-5,4.81-10.92,7.29-17.76,4.74-7-2.61-9.89-8.46-10.48-15.61a20.27,20.27,0,0,1,3.51-13.74c1.27-1.81,1-3.43.12-5.11-.63-1.21-1.7-.65-2.63-.35-10.2,3.28-19.4,8-25.11,17.66-4.56,7.68-5.55,15.65-.87,23.66,8.6,14.69,32.44,17.35,44.22,5.09a36.14,36.14,0,0,1,7.25-6.06c10.65-6.43,15.55-16.81,19.69-27.78l.24-.71-.45.09ZM802.06,134c.13-9.67-4.88-16.7-12.5-18.46a21,21,0,0,0-23.3,11.16c-1.27,2.72-1.19,4,2.12,4.71,6.25,1.35,11.68,4.66,14.75,10.19,3.21,5.76,9.59,3.49,13.61,6.66,2.79-2.85,3.77-6.51,4.62-10.22C801.73,136.38,801.93,134.73,802.06,134Zm27,26.61c3.91,2.08,6.09-.71,8.07-5.05a17.75,17.75,0,0,1,9.57-9c2.94-1.22,2.94-2.84,2-5.4-2.9-8.09-7-10.55-15.06-8-15.14,4.84-16.34,5.52-16.3,21.88,0,4.49,1.11,7.32,6.48,5.6C825,160.23,826.44,160.56,829,160.56ZM750.18,222c-.2,5.94,3.27,8.68,8.37,7.17A15.31,15.31,0,0,0,763,227a69.24,69.24,0,0,0,19.9-21.31c2.06-3.46.41-6.39-3.49-6.18-5.18.29-10.15,1.17-13.87,5.52a37.06,37.06,0,0,1-10.05,8.08C751.7,215.29,750.7,218.78,750.18,222Zm60.2-.49c-1.23,9.45,1.33,16.56,9.17,21.11,5.07,2.94,10.48,3.54,15.55.08s6.77-8.79,6.38-14.83c-.12-1.86-.39-3.18-2.91-2.46C828.82,228.15,819.53,226.73,810.38,221.47Zm22.2-34.11c-2.81-1.8-5.88-2.88-7.59-5-3.48-4.38-7.67-4.82-12.67-4.32-2.3.22-3,.79-3.38,3-1.18,6.88-2.72,13.7-6.82,19.55-.85,1.21-.67,1.83.19,2.92,2.58,3.27,7.43,4,10.09.72C818,197.29,824.89,192,832.58,187.36ZM805.37,222c.61-2.86-.62-5.65-3.49-7.55s-4.4,1.1-6.5,1.92a17.08,17.08,0,0,0-4.15,2.72c-3.73,3-6.78,6.44-7,11.55-.29,7.52,5.78,11.37,12.37,7.73C802.75,235,805.18,229.39,805.37,222Zm61.76-60.43a14.67,14.67,0,0,0-3-8.7c-2.11-2.64-5-4.24-8.23-3.93s-1.76,3.76-2.82,5.61c-.24.43-.35.94-.57,1.38-1.76,3.45-5.61,7.57-4.76,10.17,1.08,3.3,6.09,5.21,8.67,8.53a3,3,0,0,1,.32.39c.89,1.59,1.87,1.39,3.16.35A18.6,18.6,0,0,0,867.13,161.56Zm-15.2,50.3c-8.12-3.77-12.36-10.13-15.28-17.65-.36-.93-.15-3.45-2.2-2.29-5.8,3.27-11.32,7-16.17,13,8.88.55,15.9,3.22,21.5,8.92,4.76,4.83,4.8,4.88,10.1.21C850.49,213.48,851,212.84,851.93,211.86ZM741.36,169c-3.63,6.74-3.76,12.72-.1,18.55a9.14,9.14,0,0,0,10.32,4.26c6.61-1.43,10-6.25,12.72-12.49C754.82,179.51,747.35,176.61,741.36,169Zm98.55,19.91c2.31,7.64,5.22,14,12,17.73,1.67.93,3.26,1.76,4.5-.72a23.46,23.46,0,0,0,2-17.34c-.45-1.62-1-2.22-2.71-1.52C850.81,188.93,845.68,189.07,839.91,188.87Zm-79.72-14.22c4.47.68,5.72-1.36,5-5.46a47.67,47.67,0,0,0-2.69-9c-1.1-2.78-3.18-3.5-5.54-2.77a22.79,22.79,0,0,0-11.88,7.78c-1.14,1.52,6.09,7.35,10.74,8.63C757.24,174.19,758.73,174.37,760.19,174.65Zm78.28,45.72c-4.28-7.2-14.6-12.08-22.23-10.91-3,.46-3,3.11-4.13,5-.89,1.51-.23,2.36,1.13,3.16C821.22,222.3,829.52,223.53,838.47,220.37Zm-40.69-21.85c3.94-4.9,5-10.82,6.24-16.61.31-1.38,1.6-3.54-.53-4.34-1.87-.71-3.94-1.06-5.92.88C793.21,182.73,793.1,190.58,797.78,198.52Zm62.7,9.83c7.31-1.43,10.8-4.34,11.46-9s-2.8-9.72-9.06-12.91A32.06,32.06,0,0,1,860.48,208.35ZM717.57,163.41c4.87-2.24,8.46-4.74,12.39-5.52,6.54-1.29,8.38-5,7.78-11.18C728.47,148.82,722,154.07,717.57,163.41ZM779.83,145a17.32,17.32,0,0,0-6.16-6.39c-2.67-1.69-6.23-4.38-8.58-2.82-2.55,1.71-.39,5.75.1,8.77.46,2.81,1.57,3.94,4.65,2.85A99,99,0,0,1,779.83,145Zm64.31,35.39c3.17-.21,7.61.26,8.34-1.91.83-2.45-3.19-4.37-5.3-6.34-.72-.66-1.63-1.11-2.4-1.73-1.16-.94-2.1-.9-3.5-.14-2.93,1.59-4.5,3.46-3.67,7C838.59,181.55,842,179.63,844.14,180.4ZM774.5,194.81c9.86,2.63,9.26-6.42,12.61-10.83,2.51-3.32,0-6.64-1.43-10.71A89.88,89.88,0,0,1,774.5,194.81Zm-12.93-44.74c-.66-3.31-1.24-5.86-1.67-8.44-1.15-6.95-2.54-7.6-8.56-3.66-1.59,1-3.53,1.9-4.14,4.24C752.54,143.33,756.88,146.3,761.57,150.07Zm22.07,11.2c-.3-3.78-.44-6.52-.78-9.23-.18-1.4-.89-2.48-2.68-2.14-3.77.74-7.73.81-11.94,3.42C773.85,155.33,778.66,157.29,783.64,161.27Zm49.5,6c-.08-.48.26-1.37-.59-1.55a29.26,29.26,0,0,0-11.79.09,1.34,1.34,0,0,0-.61,1.14c.56,2.79,2.13,5,5,5.35C828.7,172.77,833.21,169.74,833.14,167.3Zm-77-15c-2.69-3.24-5.91-4.36-9.2-5.32-1.33-.38-2.89-1.26-3.8.82-.8,1.84-1.89,3.92-1.21,5.68s2.63.15,4,.05C749.11,153.3,752.33,152.78,756.1,152.3Zm44.76,7.35c-2,2.7-3,5.79-4.14,8.83-.32.87-1,1.9-.06,2.7s1.78.09,2.66-.41C804.93,167.55,805.24,165.6,800.86,159.65Zm-30.48,12.5c7.75-2.9,7.75-2.9,2-8-1.28-1.13-2.54-2.29-4.25-3.84C769,164.71,769.67,168.42,770.38,172.15Zm24-19.6c-2.55-1.29-5.59-3.18-6.3-1.75-1,2.06,0,5.15.3,8.89ZM812.24,155c-.15-3.33.79-6.53.85-10.22C806.85,148.13,810.87,151.71,812.24,155ZM817,172.93c-1.6-1.89-1.67-5.62-5.46-4.21-1.53.57-2.91,1.73-2,3.27C811.32,175.21,814.4,172.77,817,172.93Zm-23.08-13.05c-2,2.16-3.77,3.85-5.29,5.73-1.3,1.61,0,2.84,1.21,3.58,1.57.94,2-.58,2.22-1.62C792.52,165.22,794.52,163.3,793.93,159.88ZM805.61,153l-1.29.38c.06,3.56,3,6.21,3.71,9.58.17.85.56,1.76,1.6,1.33,1.34-.56.7-1.57.26-2.47C808.46,158.92,807,156,805.61,153Z"/><path class="cls-2" d="M432.06,728.05c.57-.15,1.52-.58,1.65-.41.57.78-.4.92-.77,1.3Z"/><path class="cls-10" d="M455.24,344.05c.34,11.16-1.71,22.09-3.37,33-.63,4.12-1.63,7.91,4.71,7.41,1.2-.1,2.42.33,2.44,1.86,0,1.86-1.43,1.9-2.79,2.06-7.3.89-10.48-2.53-9.19-9.74,2.28-12.74,3.95-25.55,3.32-38.55-.1-2.15,0-4.32.06-6.47.07-1.4.53-2.79,2.27-2.68a2.56,2.56,0,0,1,2.53,2.61C455.3,337.07,455.24,340.56,455.24,344.05Z"/><path class="cls-11" d="M466.45,421.72c-2.47-.26-4.94-.45-7.39-.8-5.16-.73-10.25-1.11-14.79,2.23-1.15.84-2.4,1.46-3.43-.06-.9-1.36-.24-2.59.81-3.53,3.57-3.15,7.88-4,12.45-3.68,3.79.3,7.54.93,11.31,1.41,2.72.34,5.25-.47,7.79-1.26,1.59-.49,3.13-.2,3.7,1.49s-1.07,2.17-2.18,2.8C472.13,421.8,469.28,421.52,466.45,421.72Z"/><path class="cls-4" d="M488.42,349.37c-.05,5.94-2.11,9.18-5.64,8.83s-5.49-4.42-4.51-10.06c.51-2.89,1.5-5.57,4.56-6.56a3.85,3.85,0,0,1,4.64,2C488.57,345.37,488.39,347.39,488.42,349.37Z"/><path class="cls-4" d="M418.91,350c.16-1.65.21-3,.44-4.27a4.33,4.33,0,0,1,3.51-3.71,4,4,0,0,1,4.29,1.81,12.23,12.23,0,0,1,1.77,11.33,4.64,4.64,0,0,1-4.91,3.44,4.54,4.54,0,0,1-4.29-3.54A33.48,33.48,0,0,1,418.91,350Z"/><path class="cls-4" d="M410.05,340.41c-2.38-.24-5,.28-5-2.57,0-2.5,2.23-2.31,4.13-2.22,3.84.18,6.92-2,10.15-3.58,3.61-1.79,7.3-3.12,11.43-2.56,1.25.16,2.29.65,2.38,2s-.85,2.56-2,2.42c-6.3-.76-10.87,3.47-16.25,5.31A44.12,44.12,0,0,1,410.05,340.41Z"/><path class="cls-10" d="M424.8,365.52c-5.22-.17-8.92-1.43-12-4.21-1.47-1.34-2.17-3.21-.56-4.82s2.61.23,3.71,1.1c6,4.74,11.42,4.76,17.5-.08,1.28-1,2.35-2.93,4-1s0,3.49-1.46,4.56C432.41,363.83,428.51,366,424.8,365.52Z"/><path class="cls-4" d="M493,336.42c-2.91,0-5.52-1.11-8.12-2.22-2.93-1.24-5.83-2.52-9.11-1.35a2.26,2.26,0,0,1-3.19-1.5c-.65-2,.95-2.49,2.41-3a12.39,12.39,0,0,1,8.77.46c3.72,1.38,7.21,3.45,11.46,2.83a2.13,2.13,0,0,1,2.55,2.37C497.32,336.7,494.93,336.3,493,336.42Z"/><path class="cls-10" d="M483.48,364.49c-3.1-.32-6.53-.34-9.15-2.69-1.21-1.07-3.6-2.17-2-4.34,1.27-1.75,3.08-.52,4.48.26,3.4,1.91,6.74,3.37,10.8,1.75,1.8-.72,3-2,4.44-3.07,1.14-.83,2.47-1.36,3.58-.16s.56,2.52-.34,3.59C492.24,363.42,488.12,364.35,483.48,364.49Z"/></g></g></svg>