<svg xmlns="http://www.w3.org/2000/svg" viewBox="0 0 434.72 208.47"><defs><style>.cls-1{fill:#174272;}.cls-2{fill:#fcfbfc;}.cls-3{fill:#fce1b0;}.cls-4{fill:#d7b0a8;}.cls-5{fill:#c3b0d5;}</style></defs><g id="Layer_2" data-name="Layer 2"><g id="Layer_2-2" data-name="Layer 2"><path class="cls-1" d="M108.71,42.56c11.53-4.8,22-6.42,32.66-2,3.17,1.32,4.45.62,6.22-2.08,4.11-6.25,9.47-11.18,17-13.21,2.24-.61,4.49-1.22,6.91-.22-1.49,4.62-3,9.17-4.4,13.77-.84,2.86.07,4.57,3.43,4.06a3.66,3.66,0,0,1,1,0,52.88,52.88,0,0,0,34.08-6.28c6.51-3.59,11.83-6.33,15.68-13.21,7.7-13.75,21-20.14,36.11-22.26,23.34-3.26,45.58.73,65.47,13.55,6.26,4,11.09,6.24,19,4.59,12.05-2.52,23.28,2.26,33.23,9.35,2.32,1.65,3.71,2.3,6.17-.17,4.69-4.73,10.46-5.77,16.4-2.21,2.45,1.47,3.66.75,5.34-1.14,6.26-7,12.14-9,18.36-6.58,7.06,2.82,13.64,12.28,13.41,19.63-.17,5.18-2.78,9.25-6.89,12.17-2,1.42-2.2,2.66-1.66,4.94,2.73,11.45-2.19,19.17-13.77,21.6-2.79.59-3.48,1.51-2.82,4.35,3.55,15.28.85,29.42-8.29,42.23a6.15,6.15,0,0,0-1.1,5.13c2.75,13.94.42,27.2-5.89,39.76-1.93,3.82-1.57,6,2.52,7.76A89.41,89.41,0,0,0,408.09,180c8.75,2.35,16.58,6.2,20.86,14.85,4,8.1,1,13-8,13-79,.16-157.92.07-236.88.55-42.48.25-85,0-127.43-.08-17,0-34-.4-50.93-.64C.47,207.57-.82,206,.45,200.79c1.78-7.27,7.4-11.17,13.4-14.59,7.87-4.48,16.48-7,25.21-9.11a14,14,0,0,0,8.47-5.47c4-5.28,8.77-10,13.17-15,1.5-1.71,3.48-3.27,2.41-6.06-1.58-4.14.17-7.4,2.74-10.51A67.92,67.92,0,0,1,75,130.82c1.86-1.52,2.87-3,1.7-5.54-6-12.91-2.1-24.41,5.51-35.11,9.92-14,23.56-23.8,37.79-32.91,2.16-1.39,5.79-2.11,5.69-5-.11-3.06-3.75-3.88-6.19-5.13C116.41,45.58,113.13,44.41,108.71,42.56Zm-19.82,122-.82,1.14c-5.09,7.53-8.94,15.39-6.79,24.89,2.4,8.16,7.83,12.36,16.41,12.38q37.43.07,74.84,0a76,76,0,0,0,34.55-8.51c11.49-5.85,19.84-14.67,22.7-27.55,3.64-16.35-.82-31.51-7.83-46.15l-.79-2.08a2.36,2.36,0,0,0-1-2.24,69.85,69.85,0,0,0-7-13.79c-.23-.41-.47-.82-.71-1.23l0-.08-1.2-1.77v0c-.73-1.3-1.37-2.65-2.19-3.88-3.34-5-5.69-5-9.17-.21-3.7,5.06-8.55,8.07-15,7-2.9-.5-4,.44-5.36,2.74-3.08,5.3-8.14,8-13.91,9.53-3.93,1-7.9-3-10.91-1.42s-3.27,6.56-6.29,9.16c-7.73,6.64-16.4,7.38-25.71,4.41-1.94-.62-3.41-1.22-5.16.88-4.47,5.37-10.23,7.82-17.31,6.13-2.49-.6-2.72.45-2.31,2.59.64,3.42,1,6.89,1.48,10.35l-.18,1.89c-.19.9-.39,1.8-.58,2.7l.27.18-.29-.15L98,152.66l0,0c-.43.58-.87,1.16-1.3,1.75l-.06,0L94,157.69h0l-1.37,1.65,0,0-.85,1.06.28.24-.29-.23-.86,1.15,0,0-1.25,1.75-.07.06-.72,1.16ZM20.94,195.76c-.19,2.54.74,5.09,2.9,5.84a22.68,22.68,0,0,0,13.2.17c2.21-.61,3.21-5,3.45-8.19-2.36-3.35-1.88-7-.39-11-5.26.87-9.5,2.66-13.89,3.91C21.21,188,19.73,191,20.94,195.76ZM255.45,122l.44-1.31c.88-7.21-3.09-12.38-7.47-17.24-6.42-7.11-14.31-12.37-22.49-17.21-6.16-3.66-6.17-3.64-10,2.35-3.12,1.56-3,3.37-1.17,6.21,3.08,4.69,5.71,9.68,8.36,14.64,5.25,9.83,14,14.65,24.37,16.88,3.34.72,6.73.08,7.84-4.13Zm19.29,68.38c-2,4-3.71,8.18-7.63,12.12h54.3c5.91,0,7.13-1.23,7.82-7.71.59-4.26-1.14-6.6-5.34-8.06-12.59-4.4-25.56-7-38.68-8.9-7.59-1.12-7.61-1-9.17,6.73C275.64,186.48,275.17,188.41,274.74,190.35Zm-206.65-.69c-3-3.65-2.84-7.48-1-11.61a108.28,108.28,0,0,1,24.3-33.7c2.53-2.4,1.73-4.51,1.25-7.13-.62-3.41-2.89-1.59-4.56-1.78a5.12,5.12,0,0,1-2.4-.54c-3.81-2.88-6.51-.81-9.15,1.86-1.74,1.77-3.61,3.43-5.25,5.3-4.81,5.43-4.71,5.7,2.05,8.43.23.09.34.48.57.81-6.86,6.92-14.43,13.22-19.88,21.45A41.61,41.61,0,0,0,44.75,186c-1.14,2.41-.81,4.4,1.69,5.29,3.16,1.14,2.19,2.57.76,4.32a20.67,20.67,0,0,0-2.7,3.55c-.81,1.63-1,3.54,1.61,3.56,11.68.08,23.37,0,35.68,0-3.94-4.88-5.15-11.26-12.05-12C69.16,190.64,68.64,190,68.09,189.66ZM391.46,50.22c.66,2.81-.82,6.93,2.32,8.17,5.13,2,7.49,6.27,10.47,10.16.88,1.15,1.25,2.68,2.95,3.18,4.11,1.19,10.73-1.58,13-5.55a11,11,0,0,0-1.9-13.67c-1.18-1.09-2.95-1.59-3.59-3.38,1.64-1,3.51-.81,5.25-1.19,4.36-.94,7.87-3.2,8.93-7.7,1.55-6.57-2.25-11.15-6.74-15.11-3.16-2.79-6.78-3.37-10.44-.65-5.66,3.08-8.06,8.86-11.48,14.36-.79-1.79-1.33-3.17-2-4.48a8.14,8.14,0,0,0-13.34-2.21c-1.58,1.58-2.33,2.89-.39,5A32.13,32.13,0,0,1,391.46,50.22Zm19.46,145.43c-.09-3.83,1.43-9.05-3.56-10.22-9.93-2.32-18.27-7.63-27-12.4-5.24-2.88-10.64-5.37-16.66-6.23-2.34-.34-3.83-.1-3.69,2.87.35,7.21-1.53,14.11-3.22,21l-7,11.72c19.7,0,38.71.15,57.71-.13C411.28,202.23,412.73,199.36,410.92,195.65ZM236.41,152.78l.12,8.91c-2.91,17.42-12.06,30.24-28,38.1-1.35.67-3.13.87-4.08,2.94H251.6c9,0,13.15-3,16.6-11.86,3.76-7.58,4.07-15.64,3.33-23.84-.62-6.93-3.53-8.73-10.18-6.41-2.77,1-5.22.23-7.49-1.47a72.79,72.79,0,0,1-10.81-10.32c-1.41-1.6-2.29-3.25-5.17-2.12-3.12,1.23-1.28,3.24-1.53,4.94ZM81.52,122l.19.14c0,2.37,1.61,3.94,2.94,5.61,2.26,2.82,5.07,3.18,6.95.09,2-3.29,3.6-2,5.94-.73,6.38,3.46,12.9,2.37,16.56-3.79,2.69-4.53,4.89-3.93,8.88-2.23,13.27,5.68,24.5-.1,27.05-13.76.61-3.3,1.61-2.75,3.82-1.57,11.31,6,18.86,3.3,23.07-8.33.76-2.12,1.45-2.37,3.52-1.74,9.82,3,13.79,1.19,17.32-8.26,1.18-3.16,2.29-2.7,4.6-1.53,3.55,1.8,7,1.84,9.85-1.64,4.79-5.93,4.79-15.51,0-21.66C208.73,56.79,202.91,54.2,197,52a62.4,62.4,0,0,0-31.94-3.16c-3.52.56-4.17-.54-4.18-3.77,0-4.48,1.6-8.67,2.08-13.4-8.45,3.93-12.27,11.19-15.48,18.9-9.91-6.87-14.49-8.18-21.09-6.2,1.74,1.5,3.61,2.88,5.19,4.53,4.41,4.61,4.21,5.44-1.18,8.53C113.71,67,98,77.91,86.37,93.57c-5.93,8-9.75,17-5.41,27.25Zm180.36-3.54c-2.56,10-5.21,12.94-12,13.21-7.05.29-13-3.16-19.94-6.75,2.65,6.11,2.83,11.93,6.07,17,2.31-2.44,1.49-5.23,3-7.86,1.19,1.74,2.22,3.16,3.18,4.62a64.67,64.67,0,0,0,12.52,14.09c1.34,1.13,2.68,3.2,4.54,2.42s.26-3.05.9-4.54c.1-.22.43-.34.65-.51,8.94,5.69,10.51,6.25,17.33,6.26,11.09-1.93,14.39-6.82,12.05-17.7a55.33,55.33,0,0,0-6.8-16.5c-1.9-3.22-3.91-6.38-6-9.81,2.56-.83,5,.24,7.35-1.11-8-10.46-19.12-16.33-29.93-22.84,1.91-1.54,4-1.54,5.05-3.28a3,3,0,0,0-.43-.89c-10.29-9.74-23.71-12.08-36.68-15.5a1.21,1.21,0,0,0-1.57.7c-1.32,2.61.49,8.18,3.19,9.63a126.93,126.93,0,0,1,20.8,13.67C253.35,99.64,260.19,107.4,261.88,118.5Zm92.31,43.19c.61-5.58-1.58-10.64-3.32-16.28,3.43,1.74,4.68,4.64,6.33,7.19a52.71,52.71,0,0,1,1.91,5.64,3.56,3.56,0,0,0,3.72,3.19c7.5.5,14.18,3.52,20.56,7.17,2.61,1.5,4.06,1.83,5.6-1.41,6-12.66,9.13-25.67,5.5-39.6-.6-2.29-.52-3.83,1.12-5.82,11.05-13.4,12.44-28.59,7.35-44.64-.88-2.77-1.71-6.19-5.26-7.31-2.16-2.43-3.11-5.87-6.22-7.51-3.7-2-6.22-4.23-5.36-9.17.53-3.09-1.21-6.14-3.05-8.77-9.23-13.13-21.93-19.75-37.93-20.51-5.73-.27-11.28,5.73-15.54,3.2-4.52-2.69-8.11-7.64-13.16-10.27-17.38-9-35.92-13.24-55.38-10.91-18.39,2.2-33.11,10.49-39.87,29-1,2.67-2.46,3.41-5,3.79a39.45,39.45,0,0,0-18.38,7.64c8.44,3.41,15.87,7.37,20.46,15.1.68,1.13,1.81,1.31,3,1.55,13.57,2.8,26.64,7,38.76,13.84,1.37,2.78,5.49,4,5,7.6s1.56,4.84,4.05,6.43c6.89,4.39,13.41,9.29,18.66,15.66,1.9,2.3,3.7,5.28,1.71,7.69-4.67,5.68,1.3,8,2.45,13.26,5-10.66,11.1-18.07,20.35-22.64,6.24-3.08,13.05-3.63,19.68-5,2.18.5,4.58,0,7.32,1.58-1.81.2-2.89.29-4,.44-18.83,2.52-32.6,11.6-39.22,30.08a12.34,12.34,0,0,0-.48,6.76c1.1,5.85,1.54,12.18-3.12,16.49-5.8,5.37-3.06,10.72-1.58,16.35.41,1.56,1.53,1.92,2.93,2.21,8.29,1.75,16.56,3.57,24.84,5.36,10.31,4.1,21.1,7.36,28.61,16.34C353.24,188.83,356.54,172.43,354.19,161.69Zm-81.43.16c.78,1.89,1.7,3.2,1.84,4.59.55,5.33,4.41,5.35,8.31,5.54,1.46.07,2-.31,1.91-1.94-.26-7.67-.75-8.23-8.23-8.19C275.59,161.86,274.6,161.85,272.76,161.85Zm-194,7.37a40.62,40.62,0,0,0-7.49,12.92,3.14,3.14,0,0,0,2,4.4c.94.36,1.7,0,1.74-1.06C75.32,179.82,77.34,174.59,78.79,169.22Z"/><path class="cls-2" d="M357.2,152.6c-1.65-2.55-2.9-5.45-6.33-7.19,1.74,5.64,3.93,10.7,3.32,16.28a15.57,15.57,0,0,0-2.32,2.5c-4,6.83-10.14,10.8-17.43,13.26-5.13,1.72-10.53,1.13-15.79,1.66-8.28-1.79-16.55-3.61-24.84-5.36-1.4-.29-2.52-.65-2.93-2.21-1.48-5.63-4.22-11,1.58-16.35,4.66-4.31,4.22-10.64,3.12-16.49a12.34,12.34,0,0,1,.48-6.76c6.62-18.48,20.39-27.56,39.22-30.08,1.07-.15,2.15-.24,4-.44-2.74-1.63-5.14-1.08-7.32-1.58-.09-.31-.08-.82-.28-.92-6.87-3.29-10.89-8.89-13.1-16-.71-2.28-2.37-1.68-4.06-1.19-4.46,1.29-8.9,2.36-13.69,1.54-7.64-1.32-12.71-6.13-17.12-11.9-2.08-2.71-3.64-4.27-7-1.2-3.2,2.9-7.58,4-11.91,4.62-1.76.26-3.72.1-4.75,2.06C247.86,70,234.79,65.8,221.22,63c-1.16-.24-2.29-.42-3-1.55-4.59-7.73-12-11.69-20.46-15.1a39.45,39.45,0,0,1,18.38-7.64c2.56-.38,4.05-1.12,5-3.79,6.76-18.55,21.48-26.84,39.87-29,19.46-2.33,38,1.86,55.38,10.91,5.05,2.63,8.64,7.58,13.16,10.27,4.26,2.53,9.81-3.47,15.54-3.2,16,.76,28.7,7.38,37.93,20.51,1.84,2.63,3.58,5.68,3.05,8.77-.86,4.94,1.66,7.22,5.36,9.17,3.11,1.64,4.06,5.08,6.22,7.51-.32,5.2-.12,10.49-1.05,15.59-2.23,12.31-10.23,19.86-21.76,23.6-3.4,1.1-3.67,2.66-2.89,5.35a40.79,40.79,0,0,1,1,15.34C372,140.11,367.15,148.2,357.2,152.6Z"/><path class="cls-3" d="M213.19,102.64a69.85,69.85,0,0,1,7,13.79,2.29,2.29,0,0,0,1,2.24l.79,2.08c-1.45,4.89,1.24,9.3,1.72,14,1.63,16-2.48,29.73-14.81,40.31s-27.2,15-42.81,15.46c-28.24.75-56.51.12-84.77.08-2.15-9.5,1.7-17.36,6.79-24.89l.82-1.14h0l.72-1.16.07-.06a2,2,0,0,0,1.25-1.75l0,0,.86-1.15.29.23-.28-.24c.28-.36.56-.71.85-1.06l0,0A1.93,1.93,0,0,0,94,157.68h0a2.9,2.9,0,0,0,2.6-3.26l.06,0a1.83,1.83,0,0,0,1.3-1.75l0,0,.68-1.24.29.15-.27-.18c1.27-.67,1.18-1.63.58-2.7l.18-1.89c2.23-1.81.68-7.08,6.09-6.12,6,1,10.76-1.5,14.23-6.31,1.58-2.2,3.19-2.24,5.53-1.43,13.38,4.64,23.64.7,29.87-11.59,1.19-2.36,1.95-3.09,4.7-1.91,8.77,3.76,17.05.84,21.44-7.6,1.48-2.85,3-3.4,5.88-2.68,5.22,1.31,9.79-.3,12.64-4.76s6.13-6.68,11.41-4.86v0a1.7,1.7,0,0,0,1.2,1.77l0,.08C212.72,101.82,213,102.23,213.19,102.64Zm-51.1,60.88c-5.53-6.82-15.67-5-18.89,3.38a9.36,9.36,0,0,0,10,5.29,12.63,12.63,0,0,0,9.61-8.08C162.81,164,162.33,163.72,162.09,163.52ZM176,138.38c3.33,5.82,9.26,6.87,15.44,3.14,4.93-3,6.07-7.68,3-12.41C191.31,137.21,185,140.53,176,138.38Zm-40.31,10.37c-1.26,5.34-4.09,7.54-7.94,8.92s-7.57.72-11.61-.65c2.87,5.93,8.24,7.65,14.44,5.1C136.15,159.82,137.93,156.09,135.65,148.75ZM150.16,189c2.63-.49,6.72-.26,6.64-4.11-.09-4-4.28-4.16-7.37-4.1-2.92.06-6.9.4-6.66,4.29C143,188.81,146.88,188.77,150.16,189Zm37.24-29.19c2.92-.54,6.65-.68,7.22-4.86.27-2-2-2.41-3.7-2.22-3.46.41-7.43.82-8.11,5C182.42,160.13,185.37,159.54,187.4,159.85Zm-64.83,16.83c2.38-.7,6.11-.59,7.05-4.24.63-2.42-1.9-2.75-3.72-2.68-3.11.12-6.69,0-7.54,4C117.83,176.21,120.05,176.53,122.57,176.68Z"/><path class="cls-2" d="M81,120.82c-4.34-10.29-.52-19.24,5.41-27.25C98,77.91,113.71,67,130.41,57.43c5.39-3.09,5.59-3.92,1.18-8.53-1.58-1.65-3.45-3-5.19-4.53,6.6-2,11.18-.67,21.09,6.2,3.21-7.71,7-15,15.48-18.9-.48,4.73-2.11,8.92-2.08,13.4,0,3.23.66,4.33,4.18,3.77A62.4,62.4,0,0,1,197,52c5.9,2.2,11.72,4.79,15.16,10.63,0,1.66-.12,3.32-.11,5,.05,8.92-3,11.92-11.79,10.62-3.08-.46-3.88,1.28-4.83,3.1C192,87.85,186.6,90,179.61,88.65c-1.75-.34-2.94-.46-4.19,1.36-7.65,11-10.65,12.13-24.21,9-2.49-.58-3.41.1-4.33,2.48-4.81,12.38-15.3,16.8-27.84,11.67-2.77-1.13-4.35-1.12-6.26,1.4-4.67,6.17-10.79,7.93-18.1,5-1.39-.56-3-1.45-4.21-.23-2.5,2.51-5.67,2.45-8.76,2.84l-.19-.14C81.33,121.64,81.15,121.23,81,120.82Z"/><path class="cls-4" d="M81.28,190.58c28.26,0,56.53.67,84.77-.08,15.61-.42,30.58-5,42.81-15.46s16.44-24.36,14.81-40.31c-.48-4.68-3.17-9.09-1.72-14,7,14.64,11.47,29.8,7.83,46.15-2.86,12.88-11.21,21.7-22.7,27.55A76,76,0,0,1,172.53,203q-37.41.1-74.84,0C89.11,202.94,83.68,198.74,81.28,190.58Z"/><path class="cls-5" d="M357.2,152.6c9.95-4.4,14.75-12.49,15.76-22.9a40.79,40.79,0,0,0-1-15.34c-.78-2.69-.51-4.25,2.89-5.35,11.53-3.74,19.53-11.29,21.76-23.6.93-5.1.73-10.39,1.05-15.59,3.55,1.12,4.38,4.54,5.26,7.31,5.09,16.05,3.7,31.24-7.35,44.64-1.64,2-1.72,3.53-1.12,5.82,3.63,13.93.53,26.94-5.5,39.6-1.54,3.24-3,2.91-5.6,1.41-6.38-3.65-13.06-6.67-20.56-7.17a3.56,3.56,0,0,1-3.72-3.19A52.71,52.71,0,0,0,357.2,152.6Z"/><path class="cls-5" d="M260,76.84c1-2,3-1.8,4.75-2.06,4.33-.64,8.71-1.72,11.91-4.62,3.39-3.07,4.95-1.51,7,1.2,4.41,5.77,9.48,10.58,17.12,11.9,4.79.82,9.23-.25,13.69-1.54,1.69-.49,3.35-1.09,4.06,1.19,2.21,7.12,6.23,12.72,13.1,16,.2.1.19.61.28.92-6.63,1.37-13.44,1.92-19.68,5-9.25,4.57-15.36,12-20.35,22.64-1.15-5.26-7.12-7.58-2.45-13.26,2-2.41.19-5.39-1.71-7.69-5.25-6.37-11.77-11.27-18.66-15.66-2.49-1.59-4.51-2.8-4.05-6.43S261.35,79.62,260,76.84Z"/><path class="cls-2" d="M261.88,118.5c-1.69-11.1-8.53-18.86-16.78-25.64a126.93,126.93,0,0,0-20.8-13.67c-2.7-1.45-4.51-7-3.19-9.63a1.21,1.21,0,0,1,1.57-.7c13,3.42,26.39,5.76,36.68,15.5a3,3,0,0,1,.43.89c-1,1.74-3.14,1.74-5.05,3.28,10.81,6.51,21.93,12.38,29.93,22.84-2.38,1.35-4.79.28-7.35,1.11,2.11,3.43,4.12,6.59,6,9.81a55.33,55.33,0,0,1,6.8,16.5c2.34,10.88-1,15.77-12.05,17.7C278,141.56,270.88,129.63,261.88,118.5Z"/><path class="cls-5" d="M81.71,122.18c3.09-.39,6.26-.33,8.76-2.84,1.21-1.22,2.82-.33,4.21.23,7.31,2.91,13.43,1.15,18.1-5,1.91-2.52,3.49-2.53,6.26-1.4,12.54,5.13,23,.71,27.84-11.67.92-2.38,1.84-3.06,4.33-2.48,13.56,3.14,16.56,2,24.21-9,1.25-1.82,2.44-1.7,4.19-1.36,7,1.34,12.39-.8,15.83-7.32.95-1.82,1.75-3.56,4.83-3.1,8.78,1.3,11.84-1.7,11.79-10.62,0-1.66.07-3.32.11-5,4.83,6.16,4.83,15.74,0,21.67-2.81,3.48-6.3,3.44-9.85,1.64-2.31-1.17-3.42-1.63-4.6,1.53-3.53,9.45-7.5,11.24-17.32,8.26-2.07-.63-2.76-.38-3.52,1.74-4.21,11.63-11.76,14.33-23.07,8.33-2.21-1.18-3.21-1.73-3.82,1.57-2.55,13.66-13.78,19.44-27,13.76-4-1.7-6.19-2.3-8.88,2.23-3.66,6.16-10.18,7.25-16.56,3.79-2.34-1.27-3.93-2.56-5.94.73-1.88,3.09-4.69,2.73-6.95-.09C83.32,126.12,81.74,124.55,81.71,122.18Z"/><path class="cls-2" d="M236.53,161.69l-.12-8.91c.11-.11.33-.26.31-.34a5.13,5.13,0,0,0-.37-.79c.25-1.7-1.59-3.71,1.53-4.94,2.88-1.13,3.76.52,5.17,2.12a72.79,72.79,0,0,0,10.81,10.32c2.27,1.7,4.72,2.44,7.49,1.47,6.65-2.32,9.56-.52,10.18,6.41.74,8.2.43,16.26-3.33,23.84-7.93-.37-15.85-.8-23.78-1.1-8.19-.31-7.76-.21-6.88-8.3C238.25,174.92,239.82,168.12,236.53,161.69Z"/><path class="cls-3" d="M356.83,190.7c1.69-6.92,3.57-13.82,3.22-21-.14-3,1.35-3.21,3.69-2.87,6,.86,11.42,3.35,16.66,6.23,8.69,4.77,17,10.08,27,12.4,5,1.17,3.47,6.39,3.56,10.22-2.11-.31-4.21-.74-6.34-.92Q380.72,192.68,356.83,190.7Z"/><path class="cls-5" d="M261.88,118.5c9,11.13,16.12,23.06,16.21,38-6.82,0-8.39-.57-17.33-6.26-.22.17-.55.29-.65.51-.64,1.49.82,3.81-.9,4.54s-3.2-1.29-4.54-2.42a64.67,64.67,0,0,1-12.52-14.09c-1-1.46-2-2.88-3.18-4.62-1.52,2.63-.7,5.42-3,7.86-3.24-5.12-3.42-10.94-6.07-17,7,3.59,12.89,7,19.94,6.75C256.67,131.44,259.32,128.52,261.88,118.5Z"/><path class="cls-5" d="M411.69,24.48c3.66-2.72,7.28-2.14,10.44.65,4.49,4,8.29,8.54,6.74,15.11-1.06,4.5-4.57,6.76-8.93,7.7-1.74.38-3.61.15-5.25,1.19.64,1.79,2.41,2.29,3.59,3.38a11,11,0,0,1,1.9,13.67c-2.25,4-8.87,6.74-13,5.55-1.7-.5-2.07-2-2.95-3.18-3-3.89-5.34-8.14-10.47-10.16-3.14-1.24-1.66-5.36-2.32-8.17,2.86-.76,6.76-.63,8.08-3.24,2.88-5.72,7.73-6.59,13.1-7.06A3.62,3.62,0,0,0,414,39.4c3.45-2,6.22-4.47,5.52-9S415.75,24.51,411.69,24.48Z"/><path class="cls-4" d="M211.22,99.54c-5.28-1.82-8.56.4-11.41,4.86s-7.42,6.07-12.64,4.76c-2.86-.72-4.4-.17-5.88,2.68-4.39,8.44-12.67,11.36-21.44,7.6-2.75-1.18-3.51-.45-4.7,1.91-6.23,12.29-16.49,16.23-29.87,11.59-2.34-.81-4-.77-5.53,1.43-3.47,4.81-8.27,7.36-14.23,6.31-5.41-1-3.86,4.31-6.09,6.12-.48-3.46-.84-6.93-1.48-10.35-.41-2.14-.18-3.19,2.31-2.59,7.08,1.69,12.84-.76,17.31-6.13,1.75-2.1,3.22-1.5,5.16-.88,9.31,3,18,2.23,25.71-4.41,3-2.6,3.33-7.59,6.29-9.16s7,2.45,10.91,1.42c5.77-1.51,10.83-4.23,13.91-9.53,1.33-2.3,2.46-3.24,5.36-2.74,6.4,1.09,11.25-1.92,15-7,3.48-4.76,5.83-4.74,9.17.21C209.85,96.89,210.49,98.24,211.22,99.54Z"/><path class="cls-5" d="M236.53,161.69c3.29,6.43,1.72,13.23,1,19.78-.88,8.09-1.31,8,6.88,8.3,7.93.3,15.85.73,23.78,1.1-3.45,8.89-7.59,11.86-16.6,11.86H204.46c.95-2.07,2.73-2.27,4.08-2.94C224.47,191.93,233.62,179.11,236.53,161.69Z"/><path class="cls-2" d="M54.06,172.75c5.45-8.23,13-14.53,19.88-21.45-.23-.33-.34-.72-.57-.81-6.76-2.73-6.86-3-2.05-8.43,1.64-1.87,3.51-3.53,5.25-5.3,2.64-2.67,5.34-4.74,9.15-1.86a5.12,5.12,0,0,0,2.4.54c1.67.19,3.94-1.63,4.56,1.78.48,2.62,1.28,4.73-1.25,7.13a108.28,108.28,0,0,0-24.3,33.7c-1.88,4.13-2.08,8,1,11.61-6.89,2.16-13.12-2.1-13.8-9.53C54.07,177.69,54.13,175.21,54.06,172.75Z"/><path class="cls-3" d="M274.74,190.35c.43-1.94.9-3.87,1.3-5.82,1.56-7.7,1.58-7.85,9.17-6.73,13.12,1.93,26.09,4.5,38.68,8.9,4.2,1.46,5.93,3.8,5.34,8.06a20.46,20.46,0,0,1-4.41.62c-12.7-.9-25.42-1.61-38.06-3.06C282.78,191.87,278.39,193,274.74,190.35Z"/><path class="cls-4" d="M356.83,190.7q23.88,2,47.75,4c2.13.18,4.23.61,6.34.92,1.81,3.71.36,6.58-3.35,6.64-19,.28-38,.13-57.71.13Z"/><path class="cls-4" d="M274.74,190.35c3.65,2.64,8,1.52,12,2,12.64,1.45,25.36,2.16,38.06,3.06a20.46,20.46,0,0,0,4.41-.62c-.69,6.48-1.91,7.7-7.82,7.71h-54.3C271,198.53,272.72,194.35,274.74,190.35Z"/><path class="cls-5" d="M54.06,172.75c.07,2.46,0,4.94.23,7.38.68,7.43,6.91,11.69,13.8,9.53.55.36,1.07,1,1.65,1,6.9.76,8.11,7.14,12.05,12-12.31,0-24,.05-35.68,0-2.57,0-2.42-1.93-1.61-3.56a20.67,20.67,0,0,1,2.7-3.55c1.43-1.75,2.4-3.18-.76-4.32-2.5-.89-2.83-2.88-1.69-5.29A41.61,41.61,0,0,1,54.06,172.75Z"/><path class="cls-3" d="M215.94,88.56c3.82-6,3.83-6,10-2.35,8.18,4.84,16.07,10.1,22.49,17.21,4.38,4.86,8.35,10,7.47,17.24-.14.44-.29.88-.44,1.31l-.11.19A206.41,206.41,0,0,1,215.94,88.56Z"/><path class="cls-4" d="M215.94,88.56a206.41,206.41,0,0,0,39.4,33.6c-1.11,4.21-4.5,4.85-7.84,4.13-10.38-2.23-19.12-7.05-24.37-16.88-2.65-5-5.28-10-8.36-14.64C212.91,91.93,212.82,90.12,215.94,88.56Z"/><path class="cls-2" d="M411.69,24.48c4.06,0,7.16,1.34,7.86,5.88s-2.07,7-5.52,9a3.62,3.62,0,0,1-1.39.52c-5.37.47-10.22,1.34-13.1,7.06-1.32,2.61-5.22,2.48-8.08,3.24a32.13,32.13,0,0,0-7-13.08c-1.94-2.1-1.19-3.41.39-5a8.14,8.14,0,0,1,13.34,2.21c.66,1.31,1.2,2.69,2,4.48C403.63,33.34,406,27.56,411.69,24.48Z"/><path class="cls-5" d="M318.65,179.11c5.26-.53,10.66.06,15.79-1.66,7.29-2.46,13.43-6.43,17.43-13.26a15.57,15.57,0,0,1,2.32-2.5c2.35,10.74-.95,27.14-6.93,33.76C339.75,186.47,329,183.21,318.65,179.11Z"/><path class="cls-3" d="M20.94,195.76c-1.21-4.77.27-7.81,5.27-9.23,4.39-1.25,8.63-3,13.89-3.91-1.49,4-2,7.61.39,11C34,194.93,27.33,193.84,20.94,195.76Z"/><path class="cls-4" d="M20.94,195.76c6.39-1.92,13.1-.83,19.55-2.17-.24,3.19-1.24,7.57-3.45,8.18a22.68,22.68,0,0,1-13.2-.17C21.68,200.85,20.75,198.3,20.94,195.76Z"/><path class="cls-5" d="M272.76,161.85c1.84,0,2.83,0,3.83,0,7.48,0,8,.52,8.23,8.19.06,1.63-.45,2-1.91,1.94-3.9-.19-7.76-.21-8.31-5.54C274.46,165.05,273.54,163.74,272.76,161.85Z"/><path class="cls-4" d="M78.79,169.22c-1.45,5.37-3.47,10.6-3.71,16.26,0,1-.8,1.42-1.74,1.06a3.14,3.14,0,0,1-2-4.4A40.62,40.62,0,0,1,78.79,169.22Z"/><path class="cls-4" d="M96.63,154.43a2.9,2.9,0,0,1-2.6,3.26C94.9,156.6,95.77,155.52,96.63,154.43Z"/><path class="cls-4" d="M99.25,148.69c.6,1.07.69,2-.58,2.7C98.86,150.49,99.06,149.59,99.25,148.69Z"/><path class="cls-4" d="M212.43,101.33a1.7,1.7,0,0,1-1.2-1.77Z"/><path class="cls-4" d="M98,152.64a1.83,1.83,0,0,1-1.3,1.75C97.12,153.8,97.56,153.22,98,152.64Z"/><path class="cls-4" d="M94,157.68a1.93,1.93,0,0,1-1.37,1.65Z"/><path class="cls-4" d="M90.92,161.58a2,2,0,0,1-1.25,1.75Z"/><path class="cls-4" d="M221.16,118.67a2.29,2.29,0,0,1-1-2.24A2.36,2.36,0,0,1,221.16,118.67Z"/><path class="cls-4" d="M98.65,151.42,98,152.66Z"/><path class="cls-5" d="M236.35,151.65a5.13,5.13,0,0,1,.37.79c0,.08-.2.23-.31.34Z"/><path class="cls-5" d="M81,120.82c.19.41.37.82.56,1.22C81.33,121.64,81.15,121.23,81,120.82Z"/><path class="cls-4" d="M92.62,159.38c-.29.35-.57.7-.85,1.06C92.05,160.09,92.33,159.73,92.62,159.38Z"/><path class="cls-4" d="M91.76,160.45l-.86,1.15Z"/><path class="cls-4" d="M89.6,163.39l-.72,1.16Z"/><path class="cls-4" d="M88.89,164.55l-.82,1.14Z"/><path class="cls-4" d="M255.45,122c.15-.43.3-.87.44-1.31C255.75,121.1,255.6,121.54,255.45,122Z"/><path class="cls-4" d="M213.19,102.64c-.23-.41-.47-.82-.71-1.23C212.72,101.82,213,102.23,213.19,102.64Z"/><path class="cls-1" d="M176,138.38c9,2.15,15.35-1.17,18.45-9.27,3.06,4.73,1.92,9.44-3,12.41C185.22,145.25,179.29,144.2,176,138.38Z"/><path class="cls-1" d="M135.65,148.75c2.28,7.34.5,11.07-5.11,13.37-6.2,2.55-11.57.83-14.44-5.1,4,1.37,7.74,2,11.61.65S134.39,154.09,135.65,148.75Z"/><path class="cls-1" d="M150.16,189c-3.28-.27-7.16-.23-7.39-3.92-.24-3.89,3.74-4.23,6.66-4.29,3.09-.06,7.28.07,7.37,4.1C156.88,188.78,152.79,188.55,150.16,189Z"/><path class="cls-1" d="M162.09,163.52c.24.2.72.48.69.59a12.63,12.63,0,0,1-9.61,8.08,9.36,9.36,0,0,1-10-5.29C149.81,167.53,156,165.72,162.09,163.52Z"/><path class="cls-4" d="M162.09,163.52c-6.11,2.2-12.28,4-18.89,3.38C146.42,158.52,156.56,156.7,162.09,163.52Z"/><path class="cls-4" d="M187.4,159.85c-2-.31-5,.28-4.59-2.11.68-4.15,4.65-4.56,8.11-5,1.69-.19,4,.2,3.7,2.22C194.05,159.17,190.32,159.31,187.4,159.85Z"/><path class="cls-4" d="M122.57,176.68c-2.52-.15-4.74-.47-4.21-2.92.85-4,4.43-3.88,7.54-4,1.82-.07,4.35.26,3.72,2.68C128.68,176.09,125,176,122.57,176.68Z"/></g></g></svg>