<svg xmlns="http://www.w3.org/2000/svg" viewBox="0 0 1389.22 963.08"><defs><style>.cls-1{fill:#773423;}.cls-2{fill:#9963de;}.cls-3{fill:#4694bc;}.cls-4{fill:#e3487a;}.cls-5{fill:#7d51b9;}.cls-6{fill:#d3b6a7;}.cls-7{fill:#98d9f8;}.cls-8{fill:#e94a7b;}.cls-9{fill:#e3a890;}.cls-10{fill:#e74879;}.cls-11{fill:#783828;}.cls-12{fill:#f7c4b0;}.cls-13{fill:#7f4c47;}.cls-14{fill:#fbd2c6;}.cls-15{fill:#f6d1c7;}.cls-16{fill:#542b23;}.cls-17{fill:#fe9c98;}.cls-18{fill:#c9aaa2;}</style></defs><g id="Layer_2" data-name="Layer 2"><g id="Layer_2-2" data-name="Layer 2"><path class="cls-1" d="M934.11,277.61c-7.16-7.47-12.56-16.4-17.92-25.35-21.43-35.75-36.88-74.43-55.36-111.62-12.37-24.9-22.77-50.93-39-73.76C805.51,43.83,781.22,31,757,18.32c-12.56-1.53-24.16-9-37.45-6.05C737,21.34,755.33,28.78,770.43,42c24.66,21.65,39.68,48.67,46.2,80.6.32,1.56-.58,3.37-1.25,6.76-15.22-12.36-27-26.32-41.34-37.48C747.18,71,719,51,686.7,39.49,647.21,25.4,602.29,21.6,561.52,32.36c-22.06,5.83-47.67,15.93-65,31.25-8.78,7.78-17.39,15.92-24.07,25.64-8.48,12.34-10.23,26.49-10.2,41.1,0,16.11-.34,31.11-2.95,47.07-6.14,37.71-21.14,71.71-32.23,108-5.9,19.28-16.32,43.7-8,63,10.69,24.8,45.78,32.56,67,45,7.92,4.65,21.41,2.2,27.08,11,.27-3.58,3.12-5.48,5.21-7.89,2.62,2.17,23.31,23.57,27.71,18.85,5.18,5.46,79.28,18.95,86,17,3.58-1.05,90.18-61.92,12-56-.25,0-99.25,7.57-101.87,6.24-2.82-1.43-5.76-2.63-8.64-4-5.67-2.57-11.48-5.67-14.77-11.19-3.27-.4-5.25-2.48-6.77-5.17a33.76,33.76,0,0,1-12.25-13.78L490,342.32c-17.3-5.56-26.59-19.24-33-34.71-10-24.1-11.66-48.61,1.32-72.45,2.88-5.29,6.5-10.41,13.29-12.32l15.25,48.28,3.44.43c1.83-6.12-2.33-13,2.31-18.74q1.56-3.66,3.14-7.32c-3.84-.48-5.41-2.65-5.55-6.51q-.63-17.44-1.38-34.89c-.22-5.11-.62-10.22-.86-15.33-.32-6.83-.66-11.43,5.34-15.68,7.53-5.34,15.56-12.18,25.27-12.44,4.2-.11,8.32,1.06,12.5,1.46a33.83,33.83,0,0,0,11.47-.86,2.11,2.11,0,0,0,1.38-.77A2,2,0,0,0,544,159c-1.14-5.88-6.21-9.82-7.45-15.62,6.86-.35,9.64,5.64,13.8,8.65,19.81,14.34,40.27,26.47,66,25.48,10.14-.39,19.47-2.74,27.19-9.73,3.61-7,11.77-7.32,17.11-11.77,1.84-8.38,8.51-13.63,12.3-21.9,5,7.61.05,12.93-.39,18.56,7.46,3.18,14.65,1.23,21.83-1.12,13.06-11.31,21.08-26.06,28.43-44.33,3.4,11.84,1.44,21,1.36,30.06,0,4-2.58,9.72,2.06,11.64,5.26,2.17,8.25-3.51,11-7,5.15-6.6,9.63-13.73,15.14-21.74,13.89,23.83,16,48.55,12.68,74.26-.84,6.56-1.34,13.15-2,19.73,4.33,3.42,2.63,8.26,2.9,12.6s-.76,9.47,5.84,10.24c14-14.25,29.77-22.83,50.67-16.85,23.77,6.81,38.33,28,36.5,53.94-3.16,44.64-43,76.43-86.7,69-2.38-.41-4.73-1.53-6.39.66-17.15,22.6-44.09,27.77-68,38.35.61,3,0,6.29,2.6,8.65,11.89-1.54,23.77-4.45,35.8-1.89,4.76,1,10.42,1,13.21,6.43,5.25-.49,8.48,3.59,12.63,5.59,23.47-9.9,48.33-16.06,71.3-27.42,39.25-19.43,76.15-41.54,101.59-78.83C939.52,287.93,939.89,283.63,934.11,277.61Z"/><path class="cls-2" d="M12.49,782.09c-15-70.58-26.67-142.06,28.3-199,18.36-19,42.6-39.72,70.18-41.85,31.37-2.41,69.4,12.09,100.33,18.44,12.31,2.53,24.77,5.08,37.33,4.58,21.4-.85,41.34-10.38,62-16.06a175.32,175.32,0,0,1,56.85-5.94c15.23.92,30.18,8.9,44.72,1.69,18.76-9.31,38.38-9.93,58.09-7.84,27,2.87,50.28-4.74,71.43-20.79,7.6-3.71,17.56-3.22,22.11-12.37a38.89,38.89,0,0,0,17.38-7.14c5.5-3.13,14.08-.06,17-8.43,15.95-6.21,28.3-1.79,40.07,10.62,8.28,8.73,19.11,15.33,29.5,21.73,23.71,14.62,47.59,13.68,70.34-2.19,13.62-9.5,20.71-24.14,27.37-38.83l7.76-.6a279,279,0,0,0,51.8,6.72c12.15,7.49,26.45,5.59,39.6,8.94a360.37,360.37,0,0,0,85.28,10.73c55.21.6,110.51-2.76,165.61,3.26,31.14,3.41,66.63-3.47,97.7-5.85,47.82-3.67,95.7-6.39,143.55-9.5,2.69-.18,5.57-.31,7.88,1.06s3.67,4.14,4.69,6.74c18.55,47.62,10.52,109.34,11.47,159.42,0,53.54,1,107.46,3,161,.5,13.26,12.89,103.82-1.75,108.82-3,1-277.93.13-280.89,1.14-69.28,13.4-139.56,16.64-209.77,20.33-35.43,1.86-70.92,2.67-106.4,3.29-57.54,1-114.58,9.76-172.59,6.36-57.56-3.38-115.36-4.37-173-7.16-52.53-2.53-105-3.92-157.55-1.84C267,951.45,70.48,969.81,61.08,960.4,37,936.26,31.38,916.16,29.55,882.12,27.84,850.15,19.77,816.22,12.49,782.09Zm385.13-143C411.19,619.53,416.07,598,416,575.21c-.05-13.31-7.11-20.88-18.34-19.63-13.6,1.51-13.3,12.89-12.08,21.54C388.53,597.92,393.48,618.44,397.62,639.08Z"/><path class="cls-3" d="M757,18.32c26.15,2.63,49.89,11.57,72.66,24.77C864.06,63,879,97.33,897.14,129.66c23,41.09,44.66,83.06,73.2,120.81,5.11,6.76,10,14.2,16.52,19.26,7.75,6,5.23,10.56,1.18,16.55-24.32,35.9-57.08,62.42-93.32,85.37-32.85,20.8-68.64,35.06-107.17,49.19,26.86,14.39,33,38.72,37.49,64a278.13,278.13,0,0,1-51.81-6.71c3.47-3.59,7.23-6.29,7.4-12.61.63-23.64-2.69-45.85-18.58-64.6,23.47-9.9,48.33-16.06,71.3-27.42,39.25-19.43,76.15-41.54,101.59-78.83,4.58-6.72,4.95-11-.83-17-7.16-7.47-12.56-16.4-17.92-25.35-21.43-35.75-36.88-74.43-55.36-111.62-12.37-24.9-22.77-50.93-39-73.76C805.51,43.83,781.22,31,757,18.32Z"/><path class="cls-4" d="M765.47,478.71c-18.29-3.19-37.71-2.22-53.47-14.65,1.57-11-5.81-24.53,9.47-31.78,1.67-.8,2-6.1,1.64-9.18-.87-8.27,4.68-13.33,7.8-19.87,4.61-9.7,14.69-.51,18.51-7.93,5.25-.48,8.48,3.6,12.63,5.6,15.89,18.75,19.21,41,18.58,64.6-.17,6.32-3.93,9-7.4,12.61Z"/><path class="cls-5" d="M397.62,639.08c-4.14-20.64-9.09-41.16-12-62-1.22-8.65-1.52-20,12.08-21.54,11.23-1.25,18.29,6.32,18.34,19.63C416.07,598,411.19,619.53,397.62,639.08Z"/><path class="cls-6" d="M581.2,495.81c-8.63-7.41-20.18-10.94-27.11-21.26,14.11,6.75,30.7,3.94,44.1,12.83C595.28,495.75,586.7,492.68,581.2,495.81Z"/><path class="cls-7" d="M507.61,50l-3.18,2.3Z"/><path class="cls-7" d="M511.05,47.62c-1.07.73-2.13,1.46-3.18,2.2Z"/><path class="cls-8" d="M632.74,396.42c.64,0,1.28-.05,1.93,0,6,26.12,12.33,30.93,36.86,28.16,21.61-2.44,29.21-11.33,28.88-33.78,11.89-1.54,23.77-4.45,35.8-1.89,4.76,1,10.42,1,13.21,6.43-3.82,7.41-13.9-1.78-18.51,7.92-3.12,6.54-8.67,11.6-7.8,19.87.33,3.08,0,8.38-1.64,9.18-15.28,7.25-7.9,20.79-9.47,31.78l-7.51.79c-8.41.91-18.86-7.08-24.55,5.65-18.67-9.21-37.06-18.44-47.48-38.25-5.31-10.09-13.92-17.84-23.1-24.7,2.2-11.17,11.44-3.23,16.68-6.15C630.16,402.27,631.75,399.75,632.74,396.42Z"/><path class="cls-4" d="M679.94,470.5c5.69-12.73,16.14-4.74,24.55-5.65C699,478.55,690.3,478.11,679.94,470.5Z"/><path class="cls-9" d="M700.41,390.77c.33,22.45-7.27,31.34-28.88,33.78-24.53,2.77-30.82-2-36.86-28.16,21.24-3.86,42.67-6.95,63.14-14.27C698.42,385.08,697.8,388.41,700.41,390.77Z"/><path class="cls-10" d="M543.32,43.89A52.32,52.32,0,0,1,553.66,40c4.2-1.06,12.29-3.76,16.23-.86,7.31,5.39,1.64,20.46-3.71,25.11-5.78,5-15,5.87-21.24,1.48-4.69-3.29-7.44-8.89-9.25-14.16l7.63-7.71"/><path class="cls-11" d="M771.71,237c-2.58,4.19-4.08,9.27-10,12-1.33-12.11-1.87-23.51,1.26-34.85,4.33,3.42,2.63,8.26,2.9,12.6S765.11,236.22,771.71,237Z"/><path class="cls-12" d="M672.5,152.66,660.59,156c1.84-8.37,8.51-13.62,12.3-21.89C677.89,141.71,672.94,147,672.5,152.66Z"/><path class="cls-11" d="M570,40.32a4,4,0,0,1,1.19,2.14c.43,1.92.16,4,.22,5.95a27.27,27.27,0,0,1-1,8.71,18,18,0,0,1-12,12.06c-9.25,3-15.51-1.79-20.23-8.89C536,57,535.77,52,538.3,48.92c2.89-3.55,9-5.78,13.17-7.19a47.9,47.9,0,0,1,15.59-2.28,4.53,4.53,0,0,1,2.79.76Z"/><path class="cls-12" d="M490.06,322.25c-1.78,6.68,4.77,13.4-.07,20.07-17.3-5.56-26.59-19.24-33-34.71-10-24.1-11.66-48.61,1.32-72.45,2.88-5.29,6.5-10.41,13.29-12.32l15.25,48.28c-5-.34-8,1.25-8.21,7-.33,11.86-.9,23.69,8.67,32.9C486.78,315.1,488.13,318.75,490.06,322.25Z"/><path class="cls-13" d="M495.71,245.49c18.75,9.57,37.37,11.95,55.65-1.12,3.27-2.33,6.44-2.33,8.38,1.14,2.11,3.8-1.32,6-3.74,8.06-14.71,12.46-45.34,12-63.43-.76Q494.13,249.15,495.71,245.49Z"/><path class="cls-1" d="M460.43,338.55l-1,2.36c-.78-.34-2-.51-2.23-1.07s.55-1.53.89-2.32Z"/><path class="cls-14" d="M512.05,362.35c3.6,0,6.24,1.18,6.77,5.16C515.55,367.12,513.57,365,512.05,362.35Z"/><path class="cls-15" d="M552.63,379.15a4.22,4.22,0,0,1,1.83,4.87l-.4,0c-.47-1.62-.95-3.26-1.44-4.89Z"/><path class="cls-13" d="M684.55,255.15c-12.72-.54-25.44-1.69-35.88-10.19-2.64-2.16-6.58-5-2.91-9.32,2.78-3.26,5.76-1.58,8.74.32,18.26,11.63,37,12.75,55.82,1.64,3.4-2,6.4-2.85,8.61.19,3,4-.21,7.42-3.34,9.31A55.12,55.12,0,0,1,684.55,255.15Z"/><path class="cls-9" d="M579.44,283.6c-1.39-12.4,6-14.33,12.44-15.23,8.56-1.19,14.94,2.41,16.32,12.87C598.43,271.12,589.16,270.88,579.44,283.6Z"/><path class="cls-9" d="M632.74,396.42c-1,3.33-2.58,5.85-6.7,5C626.8,397.75,628.85,395.84,632.74,396.42Z"/><path class="cls-15" d="M552.62,379.15l-1.17-.65,1.18.65Z"/><path class="cls-16" d="M697.05,154.46c.62.25,1.22.51,1.81.78,3.95,1.76,12.23,6.53,10.18,11.92a3.32,3.32,0,0,1-3.64,2.44,10.26,10.26,0,0,1-3.25-1.26c-17.73-9-36.33-.63-54.7.39-2.48.13-4.08-1-2.52-3.44a32.67,32.67,0,0,1,6.6-7.33A37.34,37.34,0,0,1,669,149.91C677.65,148.45,688.71,151,697.05,154.46Z"/><path class="cls-10" d="M524.93,58.41a13.29,13.29,0,0,0,.42,3.72,19.59,19.59,0,0,0,3.1,5.94c7.06,9.46,19.19,15.58,31.16,13.69,12.29-1.94,22.9-12.09,25.22-24.31a42.73,42.73,0,0,0-.53-16.32,8.2,8.2,0,0,1-.17-4c.59-2,2.69-3.15,4.73-3.33,8.82-.74,5.35,5.13,10.22,8.5a8.59,8.59,0,0,0,6.66,1c6-1.29,10.12-5.85,15.19-8.93,5.46-3.31,14.34-.12,20.25.74,8.37,1.21,16.73,2.52,25,4.36a250.41,250.41,0,0,1,38.5,12c25,10,48.18,24,69.38,40.45,14.35,11.16,26.12,25.12,41.34,37.48.67-3.39,1.57-5.2,1.25-6.76-9.81-48.08-42.59-94-89.94-111.11A201.12,201.12,0,0,0,648.83.26c-26.3,1.3-52.55,3.84-78,11.12-24.84,7.1-52.21,17.51-67.67,39.49-2.51,3.57-8,11.67-5.89,16.43s7.25-.89,10.8-1.88c3-.83,5.13-5,7-7.13A11.84,11.84,0,0,1,519.12,55c1.31-.59,3.75-1.69,4.94-.35a3.32,3.32,0,0,1,.71,1.7A16.32,16.32,0,0,1,524.93,58.41Z"/><path class="cls-15" d="M506.54,478.08c-3.61-4.41-5.73-10.27-6.79-15.81a9.37,9.37,0,0,1-.06-4.31c1.86-6.45,12.06-4.45,16.39-2.28,3.34,1.68,10,8,14.08,6.11-.66.3-6.32-12.26-6.81-13.46-1.9-4.66-19.25-46.91-10.25-52.91,7.44-5,19.22,13.72,20.17,14.17s-.84-12.83,4-17,15.93,14.26,16.84,10.83c.73-2.78-3.05-13.4,5-17s24.38,25.69,29,22c5-4-5-12,1-15,8.94-4.47,14.93,8.2,17,10,4.55,3.95,8.72,7.78,13.22,11.95a63.38,63.38,0,0,1,13.14,16.88c10.42,19.81,28.81,29,47.48,38.25,10.36,7.61,19.08,8.05,24.55-5.64l7.51-.8c15.76,12.43,35.18,11.46,53.47,14.65-6.66,14.69-13.75,29.33-27.37,38.83-22.75,15.87-46.63,16.81-70.34,2.19-7.75-4.77-15.59-9.53-22.62-15.35-12.59-10.42-24.26-12.65-40.22-9.72-8.42,1.54-16.67,4-25.15,5.09a79.16,79.16,0,0,1-27-1.5A165.45,165.45,0,0,1,530,491.33c-6.57-2.43-13.36-4.45-18.93-8.84A29,29,0,0,1,506.54,478.08Z"/><path class="cls-9" d="M487.28,311c-9.57-9.21-9-21-8.67-32.9.17-5.72,3.22-7.31,8.21-7l3.44.43q-.06,14-.11,27.95Q488.71,305.25,487.28,311Z"/><path class="cls-17" d="M714.27,333.64c-17.62,0-25.26-7.45-25.14-24.37.09-12.45,11.3-23.78,23.73-24,16.61-.28,24.52,7.83,24.62,25.24C737.58,329.55,733.43,333.69,714.27,333.64Z"/><path class="cls-9" d="M771.42,301.76c1.32-8.32,1.88-18.23,7.54-27.66,4.91-8.17,11.2-9.93,18.86-8.5,8.44,1.57,14.2,7.55,16.14,15.88,4,17.14-11.55,39-29,40.33C772,322.78,771.35,313.07,771.42,301.76Z"/><path class="cls-16" d="M612.54,346.76c-6.57-.6-13.42-2.54-13.12-9.87.37-9.07,7.91-11.82,16.07-11.91,6.6-.07,13.39,2.19,13.09,9.45C628.2,343.37,620.32,345.85,612.54,346.76Z"/><path class="cls-15" d="M822.38,220.14c-20.9-6-36.65,2.6-50.67,16.85-2.58,4.19-4.08,9.27-10,12-1.33-12.11-1.87-23.51,1.26-34.85.66-6.58,1.16-13.17,2-19.73,3.28-25.71,1.21-50.43-12.68-74.26-5.51,8-10,15.14-15.14,21.74-2.72,3.5-5.71,9.18-11,7-4.64-1.92-2.09-7.62-2.06-11.64.08-9.07,2-18.22-1.36-30.06-7.35,18.27-15.37,33-28.43,44.33.92,6.94,8.36,4.85,11.77,8.47,2,2.11,4.22,3.8,2.94,7.15-.81,2.14-3,3.19-4.46,2.35-18.48-10.58-37-3.46-55.62-.65-1.73.26-3.65-.7-5.48-1.09-7.72,7-17.05,9.34-27.19,9.73-14.12.54-27.83-3.15-40.4-9.43a147.81,147.81,0,0,1-19.43-11.62q-4.73-3.33-9.16-7c-2.64-2.21-5.32-5.39-9-5.75-2.41-.23-4.59.87-6.88,1.39-9.5,2.18-19.12-1.33-28.24,3.67-6.37,3.49-9.63,9.54-11.37,16.37-1.22,4.76-2.65,9.48-3.4,14.35s-.29,9.75-.08,14.69l.63,14.95q.61,15,1.17,29.91c.14,3.86,1.71,6,5.55,6.51,18.75,9.57,37.37,11.95,55.65-1.12,3.27-2.33,6.44-2.33,8.38,1.14,2.11,3.8-1.32,6-3.74,8.06-14.71,12.46-45.34,12-63.43-.76.06,0-2.14,16.56-2.31,18.39-1.93,21-4.31,41.38-.66,62.37,2.69,15.44,19.62,29.08,31.89,37.32,14.6,9.8,31.3,16.16,48.27,20.5,25.78,6.59,51.75,8.75,78.18,4.63,23.83-3.72,46.87-11.47,69.15-20.73,17.55-7.3,35.21-15.91,47.84-30.12a7.8,7.8,0,0,1,2.83-2.35c4-1.55,12.48,1.36,17.09,1.36a73.48,73.48,0,0,0,44.47-15,76.13,76.13,0,0,0,29.56-55.13C860.71,248.15,846.15,227,822.38,220.14ZM579.44,283.6c-1.39-12.4,6-14.33,12.44-15.23,8.56-1.19,14.94,2.41,16.32,12.87C598.43,271.12,589.16,270.88,579.44,283.6Zm33.1,63.16c-6.57-.6-13.42-2.54-13.12-9.87.37-9.07,7.91-11.82,16.07-11.91,6.6-.07,13.39,2.19,13.09,9.45C628.2,343.37,620.32,345.85,612.54,346.76Zm72-91.61c-12.72-.54-25.44-1.69-35.88-10.19-2.64-2.16-6.58-5-2.91-9.32,2.78-3.26,5.76-1.58,8.74.32,18.26,11.63,37,12.75,55.82,1.64,3.4-2,6.39-2.85,8.61.19,3,4-.21,7.42-3.34,9.31A55.12,55.12,0,0,1,684.55,255.15Zm29.72,78.49c-17.62,0-25.26-7.45-25.14-24.37.09-12.45,11.3-23.78,23.73-24,16.61-.28,24.52,7.83,24.62,25.24C737.58,329.55,733.43,333.69,714.27,333.64ZM785,321.81c-13,1-13.62-8.74-13.55-20.05,1.32-8.32,1.88-18.23,7.54-27.66,4.91-8.17,11.2-9.93,18.86-8.5,8.44,1.57,14.2,7.55,16.14,15.88C817.93,298.62,802.41,320.51,785,321.81Z"/><path class="cls-17" d="M503,295.46c10.32-8.41,18.6-1.82,25.22,5.78,5.42,6.22,1.34,28.12-5.7,32.25-10.35,6.06-18.9,3.43-24.17-7.55C496.48,322,498.92,298.81,503,295.46Z"/><path class="cls-16" d="M557.62,171.5c-4.17,4.68-9.57,3-15.12,1.33-19.44-5.78-37.51-1.35-54.58,8.66-1.51.88-.78-5.36-.69-5.89a20.6,20.6,0,0,1,4-9.16c5.91-7.55,16.07-8.71,25-8.44a101.85,101.85,0,0,1,37.3,8.66C555,167.28,559.56,169.33,557.62,171.5Z"/><path class="cls-18" d="M519.1,434.42s29.13,31.07,48,38,47.8,21.09,47.8,21.09S565,481.78,556.1,474.42,519.1,434.42,519.1,434.42Z"/></g></g></svg>