<svg xmlns="http://www.w3.org/2000/svg" viewBox="0 0 1637.38 1152.91"><defs><style>.cls-1{isolation:isolate;}.cls-2{fill:#a17027;}.cls-3{fill:#f9ae3c;}.cls-4{fill:#874637;}.cls-5{fill:#f569a2;}.cls-6{fill:#ee5e89;}.cls-7{fill:#f8af3d;}.cls-8{fill:#b34e79;}.cls-9{fill:#dfa68e;}.cls-10{fill:#fd79b1;}.cls-11{fill:#cc614a;}.cls-12{fill:#f4714d;}.cls-13{fill:#fcd4c6;}.cls-14{fill:#5c848f;}.cls-15{fill:#f3def7;}.cls-16{fill:#486e7b;}.cls-17{fill:#d54c7b;}.cls-18{fill:#fac8af;}.cls-19{fill:#e7b2f3;}.cls-20{fill:#d6b4a8;opacity:0.6;mix-blend-mode:multiply;}.cls-21{fill:none;}</style></defs><g class="cls-1"><g id="Layer_2" data-name="Layer 2"><g id="Layer_2-2" data-name="Layer 2"><polygon class="cls-2" points="739.91 67.62 1007.15 135.32 1077.87 296.71 1017.35 515.55 1033.87 743.75 608.9 766.58 489.29 360.18 495.71 108.03 739.91 67.62"/><path class="cls-3" d="M1175.8,685c-.28-4.13-.49-8.28-.5-12.47-.06-24.07,2.18-50,2.52-74.78.45-32.68,5.59-65,6.08-97.6.51-33.41-2.47-66.8-1-100.19,2.6-58.91,7.7-118.66,4.43-177.61-1-18.64-1.18-37.33-2.68-56s-5.47-36.75-6.43-55.42q-1.18-23.21-4.69-46.21c-1.51-9.92-1-20.2-1.29-30.21a21.62,21.62,0,0,0-.88-6.76c-4.9-13.7-32.51-9.85-43.51-10.63-50.87-3.63-101.86-6-152.78-8.73C815.8-.13,652.88-6.73,493.43,12.37c-14.3,1.71-28.57,3.54-42.15,8.7q-2,12.42-3.92,24.84c2.71,33.09-3.07,66.21-3.87,99.26-.85,35.12-1.21,70.24-2.79,105.34-2,45.38-6.87,89.92-5.65,135.41,1.41,52.89,2.62,105.86,2.53,158.73-.09,54-.18,108,.9,162,.66,33.32,4.21,66.5,5.42,99.79,2.05,56.64-1.34,114.08,2.55,170.53.17,2.57.42,5.23,1.71,7.47,3.31,5.74,11.37,6,18,5.47a10.59,10.59,0,0,0,6.67-2.57c.84.95,2.2,2,3,3,.09-2.54-.15-5.36-.33-8a3.81,3.81,0,0,1,.06-2c-3.81-7,.49-13.8.42-20.71a1.53,1.53,0,0,1,.26-1.6c-2.35-14,3.17-27.11,4.22-40.72.56-19.94,1.61-39.83,4.7-59.52l152.4-42.71,34.12-89.89c7.75-.5,15.49-1.24,23.24-1.92,1-14,10-25.3,12.93-38.66-4.27-7-2.15-29.14,4.46-34.35,7.28-5.73,12.82-13.41,14.52-22.65,1-5.42.67-11,.37-16.43-.32-5.73.29-11.4.37-17.12a4,4,0,0,0-.3-1.91c-.66-1.22-2.29-1.41-3.67-1.59a20.94,20.94,0,0,1-7.68-2.56,4.74,4.74,0,0,1-1.56-1.24,3.53,3.53,0,0,1-.21-3.27c.82-2.1,2.74-3.73,4-5.55,2.14-3,4.33-6,6.36-9.17A177.54,177.54,0,0,1,737.21,551l22.54-26.88.14-.16L593.73,207.28l171.59-71L806.1,95.9c1.42-1.42,18.26,2.63,20.92,3a135,135,0,0,1,21.74,4.34c11.1,3.44,21.38,10.12,30.09,17.71,11.91,10.38,24.46,25.68,29.32,41,4.38,13.83,2.58,30.37,12.23,42.19,4,4.9,9.58,8.2,14.82,11.75,27.88,18.87,49.56,49.37,48.65,84.18-.28,11.07.33,22,7.56,31.23,10.58-6.57,10.4-20.25,18.83-28.37,4.55-4.39,8.26-8.85,13.91-1.79,5.84,3,.64,13.82,10.11,14.23,4.33.87,10.8-4.4,12.38,4.33,6.13,3,1.73,6.85.7,10.31-1.93,6.47-2.18,12.17,5.73,14.75,9.46,12.06-5.63,10.66-8.69,15.85q.18,7,.35,14c8.89,4.41,6.75,8.63-.48,12.21-2.82,1.4-6.16,1.73-9.27,2.55-24.26,7.08-44.08,19.69-60,40.24-15.72,20.25-36,37.25-35.62,65.9-4.34,11.3-10.22,21.68-18.89,30.23-4.88,4.81-6.22,9.57-1.08,15,13.28,29.31,24,60,45.63,84.83,1,1.21,2.26,3.33,3.36,3.31,24.24-.62,19.27,22.56,28.07,34.43,2.07,2.78-.67,4.72-2.11,7.29a10.89,10.89,0,0,0,8.58,16.52c5.34.48,6,3.79,6.9,7.27,2.45,9.31,3,21.54-1.59,30.77.8-1.61,84.88,3.75,86,3.9,12.12,1.66,24.32,1.76,36.52,2.26,9.13.37,43.5,14,45.83-.72C1179,715,1176.85,700.15,1175.8,685Zm4.51-204.23c-2.57-4.68-1.25-9.21-.17-13.74-1.08,4.53-2.4,9.06.17,13.74-.54,14.15-1.32,28.3-1.67,42.45C1179,509,1179.77,494.87,1180.31,480.72Zm-2.14,58.86c-.75,3.59-2.55,7.69.65,10.7C1175.62,547.27,1177.42,543.17,1178.17,539.58Z"/><path class="cls-3" d="M439.3,748l.07.06v0Z"/><path class="cls-4" d="M1198.75,260c.93,29.85,2,59.71,2.75,89.56.44,16.92.24,33.86.77,50.77a80.25,80.25,0,0,1-2.2,22.25c-3.61,19.39-4.15,39.16-3.24,58.59.57,12.14-2,24.06-.79,35.79,2.78,26,1.47,51.86-.64,77.77l-15.17-1.77-1.87-3.34q1.31-18.93,2.63-37.84c.43-1.31.87-2.61,1.3-3.92,1-5.75,3.15-11.63,2.57-17.21-.93-8.89,5-18.54-2.68-26.68l2.73-19.69c-1-29.52,10.38-58.75,2.16-88.49-.62-2.24.7-4.94.49-7.37-1.42-16.24,4.4-32.74-1.73-48.8.07-1.75.15-3.5.23-5.25.75-4.4,2.26-8.83,2.09-13.2-.3-7.53,3.6-15.81-3.23-22.41a246.86,246.86,0,0,0-1.52-41.13c1.95-17.63-.13-35.25-.22-52.88q-.63-7.91-1.25-15.82c4.26-2,1.37-8.94,7.47-11.09,1.92,20.6,6.17,39.93,5,60C1194,245,1191.72,253.72,1198.75,260Z"/><path class="cls-4" d="M1181,41.88q.95,13.69,1.9,27.39c-2.31,9.74-1.65,18.86,5.5,26.64,2.55,24.87,5.81,49.67,5.86,74.73-11,1-8.06-9.77-12.18-14.57q-.4-7.68-.8-15.37c2.63-12.25,4.89-24.47-2.67-36L1172.29,55q-.76-2.61-1.55-5.22l.09.19c4.63-7.22-1.89-14.73.57-22C1177.26,30.8,1178.89,36.52,1181,41.88Z"/><path class="cls-4" d="M1200.29,585.11q-.54,7.75-1.09,15.51l-3.79-5.93c2.1-25.91,3.41-51.74.63-77.77-1.25-11.73,1.36-23.65.79-35.79-.91-19.43-.37-39.2,3.24-58.59,5.18,15.64,1.64,31.73,2.1,47.57.74,25.15-.31,50.35-.6,75.53l-.48,35.18C1200.82,582.25,1200.55,583.68,1200.29,585.11Z"/><path class="cls-4" d="M1182.12,156.07c4.12,4.8,1.14,15.55,12.18,14.57,4,29.65,4.4,59.48,4.46,89.32-7-6.24-4.8-14.94-4.37-22.18,1.18-20.05-3.07-39.38-5-60-6.1,2.15-3.21,9.08-7.48,11.09C1184.54,178,1178.55,167,1182.12,156.07Z"/><path class="cls-5" d="M615.38,1123.81c5.38-4.58,11.91-2.61,17.91-2.82,32.19-1.12,64.32-.3,96.31,3.88-16,3.31-32.07.37-48.11.2C659.45,1124.83,637.42,1124.25,615.38,1123.81Z"/><path class="cls-6" d="M1050.67,1148.15c20.5-4.18,41,1.8,61.55,0a108.22,108.22,0,0,1,35.82,3.15C1115.44,1154.89,1083.05,1151.8,1050.67,1148.15Z"/><path class="cls-4" d="M447.66,987.94c7.82,2.57,15.87,2,23.89,1.66l4.46.64,1.32,10a60.85,60.85,0,0,1-30.53-9.86C447.09,989.57,447.37,988.75,447.66,987.94Z"/><path class="cls-4" d="M1188.44,95.91c-7.15-7.78-7.81-16.9-5.49-26.64l3.28,2.92Q1187.34,84.06,1188.44,95.91Z"/><path class="cls-5" d="M570.25,992.71c33.55,1.87,67.14,2.21,100.73,2.32,17,.06,34,1,51,1.47-2.52,10-15.77,10.06-18.46,19.9l-12.65.86c-25-2.41-50.06-5-75.12-7.13-13.35-1.12-25.59-6.58-38.62-8.85C572.32,1000.45,569.69,997.84,570.25,992.71Z"/><path class="cls-5" d="M690.84,1017.26l12.65-.86c-.46,3.71-3.15,5.69-5.9,7.64-42.73,30.28-84.17,62.38-128.05,91-2.32,1.51-4.43,5.3-7.12,2.1-2.91-3.47,1.5-5,3.52-6.44q43-31.24,86.12-62.22c11.12-7.92,21.49-17,33.87-23.06C689.38,1023.76,690.19,1020.58,690.84,1017.26Z"/><path class="cls-5" d="M1181.82,757.8l-10.69,3.43c-14.69-1.38-30,.55-43.6-7-10.94-6.07-23.84-10.05-27.8-24.21l31,1.27c13.13,2.05,25.93,7.16,39.6,4.47l4.15.86c-1.15,3.84-4.64,10.85-.45,4.81,3.52,1.94-3.16,7.18,1.17,8.73,1.71,2,4.37,3.51,3.93,7.47C1175.71,757.25,1184.9,754.8,1181.82,757.8Z"/><path class="cls-6" d="M1178,1003.64q3.51-5.8,7-11.63c14.8-4.27,25-15.83,37.49-23.69,3.46-2.17,7.49-9,11.08-4.48,3.73,4.72-3.54,7.25-6.85,9.78-14.6,11.13-29.42,22-44.16,32.94l-5-.54C1177.76,1005.24,1177.89,1004.44,1178,1003.64Z"/><path class="cls-4" d="M1185.83,339.58c6.13,16.06.31,32.56,1.73,48.8.21,2.43-1.11,5.13-.49,7.37,8.22,29.74-3.17,59-2.16,88.49l-2.51-3.1a87.09,87.09,0,0,0,.08-26l.63-9.57c.83-2.11,1-4.16-.55-6a814.61,814.61,0,0,0,1.32-88Z"/><path class="cls-4" d="M1180,620.32c-2.37-9.15-1.74-18.28.21-27.4l15.17,1.77q1.9,3,3.8,5.93c2.07,1.27,1.9,3.44,2.2,5.42l-1.29,15.18C1193.48,619.44,1186.87,617.32,1180,620.32Z"/><path class="cls-4" d="M1182.29,547.82c-2.29-14.62.49-29.26-.11-43.89,7.67,8.14,1.75,17.79,2.68,26.68C1185.44,536.19,1183.24,542.07,1182.29,547.82Z"/><path class="cls-4" d="M1183.85,318.53c1.85-6.53-1.63-13.34,1.07-19.81,6.83,6.6,2.93,14.88,3.23,22.41.17,4.37-1.34,8.8-2.09,13.2C1182.16,329.51,1187.37,323.41,1183.85,318.53Z"/><path class="cls-4" d="M1200,631.23l-.63,4.79c-7,4.57-13.87-.21-20.8-.41a3.37,3.37,0,0,0-1.71-1.62l.29-3.67a3.73,3.73,0,0,0,.17-2.24q1.17-2.57,2.35-5.11l.33-2.65c6.84-3,13.45-.88,20.08.9.27.84.54,1.68.82,2.52Z"/><path class="cls-4" d="M1192.31,760.58c-4.19,6-20.3-6.67-17.85-24,.4-1.31.8-2.63,1.19-3.94l0,.18q.11-8.21.2-16.4l11.52-6.18c4.78-.26,6.13,3.92,8.61,6.64-.14,1.62-.29,3.24-.43,4.86C1193.3,724.48,1194.35,753.21,1192.31,760.58Z"/><path class="cls-4" d="M1196,716.89c-2.48-2.72-3.83-6.9-8.61-6.64,2.23-5.4,4.63-10.74,4.9-16.71,5.12-8.64.31-18.9,4.51-27.69a7.71,7.71,0,0,1,1.93.49l.51,2.83C1197.12,685,1199.85,701.17,1196,716.89Z"/><path class="cls-4" d="M1181.32,140.7c-2.68-11.85-2-24-2.67-36C1186.21,116.23,1184,128.45,1181.32,140.7Z"/><path class="cls-7" d="M570.75,464.5c-6.56-1.27-6.94-8.65-11.94-11.88-6.56-4.24-12.12-5.27-17.39,1A22.37,22.37,0,0,1,523.16,462c11.64-16.88,21-20.26,39.29-14.43,2.74.88,5.71,1.06,8.57,1.56,4.28,3.47,5.17,8.35,5.54,13.44Z"/><path class="cls-7" d="M533.31,240c3.48-.92,5.55-3.08,6-6.73,2.09-7.44.26-16.5,8.78-21.29-9,22.44-9.57,45.9-8.44,69.56-5-5.33-5.47-12.42-4.51-18.59C536.36,254.88,535.11,247.53,533.31,240Z"/><path class="cls-7" d="M576.56,462.61c-.37-5.09-1.26-10-5.54-13.44l-1.44-7.79c.1-.85.19-1.7.29-2.54.18-1.66.36-3.32.55-5L568.7,431l1.08-7.33c.28-.91.55-1.82.83-2.73l5.1,13.68c2,5.33,1.14,11.48,4.8,16.31l.5,6.73c0,1.93.07,3.86.1,5.79Z"/><path class="cls-7" d="M522.71,464.3l-2.79,2.33Z"/><path class="cls-8" d="M761.09,879.53c16.94-6.8,32.6-16.1,48.55-24.83,21-11.48,21-11.52,12.23-34.32-4.29-11.21-11.72-21.59-16-32.78-9.49-1.93-12.83-35.91-17.47-40.41-.74-2.51,2.53-5.83,1.79-8.34,30,2.5,30.51,2.19,32.41-18.44L849.75,722l.45.44c.06,3.72.34,7.45.13,11.15-1.26,22.87-1.31,23.28-24.34,22.76-11.92-.27-7.18,6.58-5.32,11.24q14.28,35.94,29.5,71.51c2.07,4.8,1.88,7.46-2.29,10.46-25.66,18.41-49.83,39.07-79,52.12-2.28,1-4.49,2.6-6.87,2.93-4.64.65-10.41,5.12-13.75,0-2.65-4.08,2.3-8.39,4.81-11.91,2.21-3.09,4.84-5.7,4.91-9.77.25-.73.53-1.44.83-2.14Z"/><path class="cls-8" d="M970.42,874.06c17,1.42,33.52-2.39,50.25-4a31.36,31.36,0,0,0,20.77-10.14c8.11,4.11,16.47,7.8,24.21,12.5,3.84,2.32,10.52,3.84,9.1,10.17-1.24,5.54-7.42,4.48-11.62,5.31-18.25,3.61-36.24-.19-54.27-2.49L996.56,883,977,879.73C973.63,879.17,970.16,878.76,970.42,874.06Z"/><path class="cls-5" d="M924.8,856.37l1.88,2.86-129,92.29c.46-8.11,3.9-9.22,6.21-10.91,37.61-27.57,75.3-55,112.83-82.67C919.49,855.89,921.92,855.94,924.8,856.37Z"/><path class="cls-6" d="M739,735c.15,3.08,50.3,75.59,38.7,84-1.26.94-14.22,29-18.31,23.57-12.28-16.24-41.09-93.78-42.31-101.5-.35-2.23-1-4.1-3.39-4.45-2.74-.41-4.73,1-6.06,3.36-2.11,3.67-.84,12.23-8.54,8.26-6.69-3.46,0-8.44,1-12.73.26-1.21.34-2.45.5-3.68l.29-.23,5.88,1,3.49.33C716.27,733.48,733,734.45,739,735Z"/><path class="cls-6" d="M647.81,730.64l-5.09-.61,0-.35,3.63-4.13c16.26.79,32.39-.9,48.53-2.31,3.32.33,4.12,3.06,5.24,5.49l.72,2.88-.29.23c-12.26-2.84-24.57-3.78-37-.91A34.16,34.16,0,0,1,647.81,730.64Z"/><path class="cls-9" d="M862.6,717.3q-.24,4.58-.46,9.13l-11.95-4-.44-.43A48.37,48.37,0,0,1,857.41,704C858.15,708.79,859.49,713.39,862.6,717.3Z"/><path class="cls-5" d="M609.36,795.66c8,1.84,9.86,8.49,13.79,17.08-9.65-4.09-13-9.61-13.86-17Z"/><path class="cls-5" d="M638.43,835.92c-7.47-3.35-11.61-9.11-12.5-17.23l.06-.05c8.53,2.59,11.53,9.18,12.47,17.26Z"/><path class="cls-5" d="M675.91,887.59c8,1.88,10,8.37,13.39,16.92-9.25-3.93-12.56-9.44-13.45-16.87Z"/><path class="cls-5" d="M692.54,910.58c7.71,2.06,10.5,8,12.55,16.54-8.41-3.55-11.7-9.07-12.61-16.49Z"/><path class="cls-5" d="M642.64,841.63c8,1.85,9.94,8.43,13.58,17-9.44-4-12.76-9.52-13.65-17Z"/><path class="cls-5" d="M659.26,864.61c8.54,2.59,11.54,9.18,12.48,17.25l0,0c-7.47-3.34-11.61-9.1-12.5-17.22Z"/><path class="cls-5" d="M671.74,881.86c3.16.62,4.58,2.52,4.17,5.73l-.06,0q-4.82-.9-4.14-5.76Z"/><path class="cls-5" d="M605.18,789.93c3.17.62,4.58,2.51,4.18,5.73l-.07.05c-3.21-.61-4.58-2.53-4.14-5.76Z"/><path class="cls-5" d="M642.57,841.67q-4.82-.9-4.14-5.75l0,0c3.17.61,4.58,2.51,4.18,5.73Z"/><path class="cls-5" d="M659.21,864.66l-3.07-1.48.78-.85,2.34,2.28Z"/><path class="cls-5" d="M692.48,910.63l-3.06-1.49.78-.84,2.34,2.28Z"/><path class="cls-10" d="M707.48,932.35l-1.13.14c0-.33-.2-.9-.1-1C707.32,931,707.75,931.31,707.48,932.35Z"/><path class="cls-5" d="M625.93,818.69l-3.06-1.48.77-.84,2.35,2.27Z"/><path class="cls-6" d="M912.2,808.26c.84,1.1,1.69,2.19,2.53,3.28-.39.78-.78,1.56-1.18,2.34C911.81,812.32,911.76,810.35,912.2,808.26Z"/><path class="cls-2" d="M707.84,684.58a3.13,3.13,0,0,0,.82-1.24l3,.21c-.35,6.47,8.73,10.08,5.31,17.49-10.08-1.33-15.37,2-14.42,13.25.4,4.71-1.55,9.62-2.43,14.44-1.12-2.43-1.92-5.16-5.24-5.49C695.87,709.24,704.94,697.94,707.84,684.58Z"/><path class="cls-4" d="M1177.58,658.53c.14-7.66-1.62-15.39,1-22.93,6.93.21,13.77,5,20.8.42a5,5,0,0,1,1.72.52c-.3,3.32-.59,6.64-.89,10l-.69,5.11c.31,1.11.61,2.23.92,3.34q-.89,5.7-1.78,11.39a7.68,7.68,0,0,0-1.94-.49c-4.2-3.72-8.42-7.39-14.72-5.78Z"/><path class="cls-4" d="M1175.82,716.43c-2.15-10.72.7-21.06,2.35-31.49l2.74-.79c5.74.76,7,6.91,11.33,9.39-.27,6-2.67,11.31-4.9,16.71Z"/><path class="cls-4" d="M1192.24,693.54c-4.32-2.48-5.59-8.63-11.33-9.39-2.94-8.18.86-16,1.11-24.08,6.3-1.61,10.52,2.06,14.72,5.78C1192.55,674.64,1197.36,684.9,1192.24,693.54Z"/><path class="cls-9" d="M771.12,473.31c-.12-4.31-.43-8.54-4.54-11.24.84-2.89,2.86-3.52,5.67-3.32,18.61,1.31,36.57-2.75,54.52-6.8l1.44,8.21c2,7.16,5.88,15.37,2.65,21.69C824.3,494.7,810.45,497,797.63,497.8c-9.87.6-20.47-1.07-23.24-13.95-.67-3.09-2.33-5.28-5.5-6.12C769.43,476.15,772.78,476,771.12,473.31Z"/><path class="cls-9" d="M639.55,429.85c-21-3.46-31.5-18.49-26.66-38.17,3.44-14,17.36-19,27.75-9.4,9.5,8.79,16.82,19.44,20.37,32.14C664.47,426.83,656.31,432.6,639.55,429.85Z"/><path class="cls-11" d="M828.21,460.16,826.77,452c32.89-9.39,62.14-25.08,87.23-48.68,6-5.68,4.47-14.32,10.35-19.43,12.8,2.94,6.64,12.75,7.27,20.09-12.49,8.86-22.16,21.17-35.54,28.94-2.42-.26-5.44-1.59-7.16-.62-14.31,8.06-28.39,16.54-42.53,24.89-4.89-.11-9.76-.17-13.3,4.11Z"/><path class="cls-4" d="M813.28,411.38c-11.36,1.33-13.63-7.32-16.66-15.15-1.15-10.49,1.1-14.61,11.84-7.56,8.54,5.61,17.61,2.39,25.85-1.77,3.64-1.84,6.66-4.82,11.17-4.15,7.53,9.36,5.07,17.31-3.44,24.41C829.52,399.85,820.84,401.12,813.28,411.38Z"/><path class="cls-4" d="M723.6,344.11c18.11.85,34.76-2.37,47.09-17.37,2.24-2.73,3.69-7.7,8.36-4.38,4,2.85,1.76,6.45-.35,9.87-9.09,14.77-40.4,26.54-56.84,21.14-4-1.31-8.92-2.84-7.58-8.13C715.81,339.21,720.25,343.45,723.6,344.11Z"/><path class="cls-9" d="M909.5,269.75c22.92,3.63,32.45,27.11,19.94,49.16C921.33,303.12,915.81,286.28,909.5,269.75Z"/><path class="cls-4" d="M873.4,208.92c1.92,2.32,5.41,3.83,4.11,7.85-16.53-1.25-32.71-.36-47.75,7.7-1.88,1-4.33,1.7-5.38-.78-1.47-3.49,1.55-5.38,3.85-6.78C842.21,208.37,857.06,204.33,873.4,208.92Z"/><path class="cls-4" d="M733.24,257.58c-15,6.6-33,8.15-42.94,24-1.45,2.31-4.23,3.08-6.4.88-3.16-3.21-.88-6.14,1.25-8.73C697.79,258.41,713.42,251.76,733.24,257.58Z"/><path class="cls-4" d="M843.86,304.26c9.22-.07,15.7.46,22-.32,9.7-1.19,18.44-5,24.49-13.14,1.67-2.26,3.15-4.09,5.88-2.26,2.57,1.72,1.86,4,.68,6.52C889.83,310.08,859.31,316.79,843.86,304.26Z"/><path class="cls-12" d="M813.28,411.38c7.56-10.26,16.24-11.53,28.76-4.22C832.28,417.38,825,418.46,813.28,411.38Z"/><path class="cls-8" d="M809.09,346.1c-2.43-6.7.31-11.65,5.94-13.8,7-2.7,13.69-1.36,18.73,7-5.92-.7-9-6.63-14.73-5C812.85,336.09,811,340.79,809.09,346.1Z"/><path class="cls-4" d="M892,231.53c1.13,4.22,3.39,8.34,1.14,12.86-5.25-6.38-9.33-13.26-9.41-21.86Z"/><path class="cls-4" d="M893.1,244.22c3.47.74,1.71,3.23,1.72,5.14C894.25,247.64,893.67,245.93,893.1,244.22Z"/><path class="cls-4" d="M881.67,221.76c1.83-1.49,2.1-.55,1.85,1.2l-1.2-.17Z"/><path class="cls-4" d="M895.26,250a7,7,0,0,0,.65,1.39A1.48,1.48,0,0,0,895.26,250Z"/><path class="cls-12" d="M554.45,266.2c1.48.71,3.45,1,4.36,2.19q19.56,25,38.84,50.22c2,2.54,5.09,6.18,1.63,8.64-3.82,2.71-5.4-2.31-7.12-4.63-11.58-15.69-22.95-31.53-34.41-47.31-2-2.73-3.9-5.44-3.35-9.08Z"/><path class="cls-12" d="M768.58,102c2.38.44,7.37,2,6.87,4.08-.25,9.3,9.91,13.77,10,23.18C777.9,122.32,765.75,114.33,768.58,102Z"/><path class="cls-12" d="M554.4,266.23c-5.3-2.35-9.94-5.39-10.5-11.84-.13-1.5,1-3.7,2.94-2.49,5.13,3.24,7.25,8.37,7.61,14.3Z"/><path class="cls-13" d="M798.62,163.83c-1.43-2.31-4.26-4.1-2.7-7.69,3.79.19,4,3.51,5.26,5.83C800.33,162.58,799.47,163.2,798.62,163.83Z"/><path class="cls-7" d="M489.71,464.12c-1,2.1-1.81,5.72-4.73,2.13-1.59-2-3.43-5.41.29-7.5,3-1.68,6.26-2.54,8.86,1,2,2.78,4.58,6.36,1.5,8.89-6.55,5.38-2.44-4.85-5.91-4.56l-1-.75Z"/><path class="cls-8" d="M943.92,724.55l0,0c1.27-1.86,9.33-.71,11.43-.82,4.19-.23,8.39-.45,12.59-.51,4-.07,8,0,12,.31,2,.15,4,.37,6,.66.83.12,5.5,1.53,6,1.12a8.37,8.37,0,0,1-1.94,1.53c-18.56,6.95-18.84,7-13.06,26.38,5.1,17.11,8.51,34.55,11.48,52.08.61,3.58,1.69,7.7,4.07,8.49,10.89,3.63,8,11.56,7,19.12.18-1.41-9.67-3.65-10.68-3.95-11.13-3.24-20.7-7.43-25.24-18.75-1.54-3.82-2.73-7.82-4.72-11.45-2.6-4.74-6.44-8.44-7.36-14-.5-3-.18-5.93-1-8.92-2-7-7.24-11.8-10.3-18.23-3.9-8.16-5.58-18.48.41-26.11a14.69,14.69,0,0,0,2.43-3.24C943.54,727.09,943.17,725.71,943.92,724.55Z"/><path class="cls-4" d="M958.13,788.06c4.61,1.48,9.13,3,9,9.17-2.78-2.28-5,.87-7.55.76Z"/><path class="cls-4" d="M967.1,797.19c11.09,2.84-.37,9.94,2.7,14.3C965.46,807.37,966.54,802.23,967.1,797.19Z"/><path class="cls-4" d="M969.71,812.75c3.54,2.14,4.22,5.36,3.49,9.14C969,820,969,816.51,969.71,812.75Z"/><path class="cls-13" d="M802.85,773.63l-1.49-4.27c-1.84-5.47-3.75-10.93-5.83-16.31-.91-2.36-1.92-5-2.74-7.46-.46-1.37-1-6.21-2.64-6.74-20.25-6.49-41.21-2.65-61.8-4.26.79.17.37,4.86.4,5.53.27,6.42,4.75,11.87,7.7,17.32s5.81,11.17,8.59,16.81c2.56,5.2,5.77,10.43,7.46,16,1.51,5,3.1,9,8.67,9.63a46.58,46.58,0,0,0,16.13-1c10.45-2.45,19.88-7.89,29.22-13C807,785.66,804.53,778.48,802.85,773.63Z"/><path class="cls-4" d="M806.52,785.89,803,773.58c7.24,2,6.18,7.81,5.91,13.22Z"/><path class="cls-14" d="M700.14,728.73c.88-4.82,2.83-9.73,2.43-14.44-1-11.28,4.34-14.58,14.42-13.25,2.78-.7,5.77-2.43,8.32-1.92,31,6.1,63,2.85,93.71,10.72L822.8,713l-.24,7.39c-1.9,20.63-2.45,20.94-32.41,18.44-20.25-6.49-41.21-2.65-61.8-4.26l-18.11-1.66c-1-1.89-2.13-2.31-3.5-.34l-5.88-1Z"/><path class="cls-4" d="M801.46,768.28l-2.53-5.47C801.76,763.71,802,765.83,801.46,768.28Z"/><path class="cls-4" d="M803.17,773.64a5.89,5.89,0,0,1-1.82-5.52C803.75,769.37,803.61,771.46,803.17,773.64Z"/><path class="cls-4" d="M944.41,727.83c9.13,5.17,9.3,14,10.08,23,1,12.06,6.34,23.66,4,36.12C951.94,767.71,947.82,747.86,944.41,727.83Z"/><path class="cls-4" d="M819,709.84c1.88-7.61.94-15.94,5.48-22.87s9.39-14.94,19.41-12.12c12.2,3.42,20.39,15.9,19.05,26.79l-.36,15.66c-3.11-3.91-4.45-8.51-5.19-13.33,0-9.37-8.52-23.48-15-22.79-10.22,1.09-16,7.72-17,18.32-.44,4.55-1.67,9-2.55,13.53Z"/><path class="cls-9" d="M706.74,732.59c1.37-2,2.51-1.55,3.5.34Z"/><path class="cls-4" d="M1176.61,675.93c0-1-.09-1.94-.13-2.91q.55-7.24,1.1-14.5l4.44,1.55c-.25,8-4,15.9-1.11,24.08l-2.74.79C1175.24,682.35,1177.08,678.94,1176.61,675.93Z"/><path class="cls-13" d="M896.08,432.87c13.38-7.77,23-20.08,35.54-28.94,13.57-7.6,20.54-22,32.59-31.41,7-5.45,1.72-14.9,2.09-22.44.56-11.13-.93-22.37-1.5-33.57-.12-2.32-1.67-5.45,1.54-6.48s5.37,1.51,7.15,3.87c3.1,4.1,3.68,9.2,5.46,13.82,2.33,6,5.95,10.8,12.48,3.54,10.58-6.57,10.4-20.25,18.83-28.37,4.55-4.39,8.26-8.85,13.91-1.79-3.17,9.13-6.33,18.26-10.66,30.74l20.77-16.51c4.33.87,10.8-4.4,12.38,4.33-3.85,11.4-13.58,18.57-22.21,28.88,11-1.48,19.61-4.42,28.64-3.82,9.46,12.06-5.63,10.66-8.69,15.85-6.69.49-15.89,2.42-15.91,8.26,0,7.22,9.62,4.1,15,5.59a9.69,9.69,0,0,0,1.22.19c8.89,4.41,6.75,8.63-.48,12.21-2.82,1.4-6.16,1.73-9.27,2.55-13.64-3-26.9,3.8-40.61,1.69-1.68-.25-4.28,3.47-6,5.71-19.94,26-40.6,51.4-63.63,74.77-3.56,3.61-7.08,7.13-6,12.85C914.15,465.91,910,447.24,896.08,432.87Z"/><path class="cls-11" d="M919.87,492.59c0,.1-2.43,1.84-2.65,2a33.94,33.94,0,0,0-3.3,3.48,17.15,17.15,0,0,0-3.58,5.89,8.15,8.15,0,0,1-4,4.83c-5.18,3.07-11.73,4.31-17.59,5.35-.61.11-6.62.77-6.66,1a32,32,0,0,0,7.59,16.38c.21.18,2.28-.85,2.55-1,1.22-.47,2.45-.9,3.68-1.34a17.77,17.77,0,0,0,6.92-4.1c2.17-2.22,3.9-4.86,6.11-7.08s4.66-4.37,6.79-6.76a38.42,38.42,0,0,1,3-3.07,6,6,0,0,0,2.08-3.44C921.58,500.79,920.5,496.55,919.87,492.59Z"/><path class="cls-4" d="M748,485.15c-9-1.7-15.69,5-23.76,6.75C738,481.14,751,468.28,771.11,473.31c1.67,2.69-1.68,2.84-2.21,4.42l-6.57,1C756.13,477.7,749.79,476.34,748,485.15Z"/><path class="cls-4" d="M721.51,493.87c-7.63,7.9-14.24,16.46-17.68,27.09C701.26,501.78,707.07,492.88,721.51,493.87Z"/><path class="cls-4" d="M724.39,491.65,721.3,494Z"/><path class="cls-15" d="M767.44,621.58c1.35,9.11-6.64,19.09-16.89,17.59-6.88-1-13.88-1.15-20.82-1.68.65,0,.68-18.08.7-19.36.06-4.18.38-8.35.68-12.51.22-3.2,1.57-8.41-.38-11.3C739.32,607,756.1,611.57,767.44,621.58Z"/><path class="cls-15" d="M755.06,485.37c1.35,9.12,28.3,91.6,18.06,90.1-6.88-1-54.78,6.88-61.72,6.36-30-9.94-15.88-70.51-15.86-71.79.06-4.18-2.07-11.51-1.77-15.68.23-3.2,29,.37,32.48.08S739.65,485.47,755.06,485.37Z"/><path class="cls-16" d="M866.78,585.56c.21-1.52,1-2.21,2.56-1.82Z"/><path class="cls-15" d="M767.26,571.63l3.25,3.3Z"/><path class="cls-5" d="M569.89,740.88a5.57,5.57,0,0,1,1.82.15c4.93,5.4,11.16,9.94,13.54,20.48C576.24,755.21,569.8,750.53,569.89,740.88Z"/><path class="cls-15" d="M833.09,461.25c4.88,13.62,9.72,27.26,14.64,40.87,4.11,11.34-3.84,15.55-11.86,15.9-17.65.77-34.29,6.06-51.35,9.3-6.95,1.32-9.86-.07-11.53-6.72-3.53-14-10.1-27.15-10.65-41.86l6.56-1c3.16.84,4.82,3,5.49,6.12,2.77,12.88,13.37,14.55,23.24,13.95,12.82-.77,26.67-3.1,33.23-15.95,3.23-6.32-.66-14.53-2.65-21.69Z"/><path class="cls-7" d="M489.71,464.12l-.94-.75,1,.75Z"/><path class="cls-16" d="M766,643.17c-.54,1.56-1,3.31-3.11,3.16a2,2,0,0,1-1.17-1.6c.55-2.06,2.38-1.86,4-1.94Z"/><path class="cls-14" d="M754.33,651.21l1.23-.78-1.14.91Z"/><path class="cls-16" d="M869.18,568c.77-2.92,2-5.45,5.5-5.6a1.66,1.66,0,0,1,1.76,2.41c-1.26,3.2-4,3.69-7.05,3.48Z"/><path class="cls-16" d="M869.39,568.24c-.7,3.07-2.59,4.5-5.76,4.19l-.23-.37c.7-3.11,2.69-4.39,5.78-4.11Z"/><path class="cls-16" d="M863.63,572.43c-1,.45-2,.92-3.1,1.31a8.19,8.19,0,0,1-.56-1l3.43-.68Z"/><path class="cls-16" d="M958.9,660.47c4.41-12-1.37-22.6-4.85-33.45-1.25-3.89-3.52-9.2-8-8.11-7.64,1.88-9.13-3.38-11.92-7.65-2.1-3.23-4.65-5.78-8.73-6.2a17.56,17.56,0,0,1-16.35,7,56,56,0,0,0-20.52.9c1.33,7.34,7,3.35,10.34,5.24,5.84,3.27,8.91,12.76,3.42,16.38-7.77,5.13-18.62,8.84-26.09,6.74-26.33-7.41-45.06-11.88-71.28-13.7-11.77,2.56-23.17,2.06-34.89-.7a8.64,8.64,0,0,0-3.15-.35,2.78,2.78,0,0,0-2.38,1.83,11.75,11.75,0,0,0-.12,1.58,4.64,4.64,0,0,1-3.31,3.64c-5.17,1.73-12.39,1.53-17.84,2-4.7.38-9.7,0-13.81,2.78-2.59,1.74-4.34,4.44-6.17,7-7.32,10.16-17.71,22.38-13.68,36.08.7,2.35,12,18.46,7.39,19.62,2.78-.7,5.77-2.43,8.32-1.92,31,6.1,63,2.85,93.71,10.72,1.88-7.61.94-15.94,5.48-22.87s9.39-14.94,19.41-12.12c12.2,3.42,20.39,15.9,19.05,26.79,28.3-7.59,56.64-15.08,84.89-22.85,5.3-1.45,12.21-.22,14.73-7.39C959.76,668.3,957.19,665.13,958.9,660.47Zm-204.48-9.13-.09-.13,1.23-.78Z"/><path class="cls-6" d="M1631.79,917.45c-.09-27.38,12.14-58,.69-84.29-18-41.53-113.45-14.95-148.08-12.94q-77.3,4.5-154.49,10.49c-28.91,2.09-66.61,13.87-85.14-13.38a369.86,369.86,0,0,0-47.9-57.1c-3.07-3-8.56-5.76-11-2.22-1,1.42-.85,3.29-.69,5,4.62,48.85,1.32,96.1,1.32,145.06.29,24-1.41,48-2.23,72-.14,4-2.66,8.16.7,12,14.8-4.27,25-15.83,37.49-23.69,3.46-2.17,7.49-9,11.08-4.48,3.73,4.72-3.54,7.25-6.85,9.78-14.6,11.13-29.42,22-44.16,32.94-.91,7-2,13.78-12.21,10.49.52-5.14,7.36-5.83,7.25-11,.16-.78.29-1.58.39-2.38-7.38,3.13-13,8.42-17.74,14.69.27.31.79.88.77.89a174.33,174.33,0,0,1-16,14.25c-5.19,4.06-11.35,6.46-16.71,10.29-5.57,4-10.76,8.47-16.18,12.66-8.12,6.28-16.7,11.92-25.06,17.87-26.52,18.89-52.52,38.51-78.86,57.64-3,2.19-6.4,4.1-7.18,8.26,8.79,2.75,18.72.8,26.81,6.45,7.54,1.63,15.11,2.69,22.83,1.51,20.5-4.18,41,1.8,61.55,0a108.22,108.22,0,0,1,35.82,3.15c14.58.51,29.18,1.35,43.43-2.94-.71-.41-1.48-.78-2.27-1.15-1.17-.54-2.38-1.06-3.45-1.68a9.91,9.91,0,0,1-1.93-1.39,9.91,9.91,0,0,0,1.93,1.39c1.07.62,2.28,1.14,3.45,1.68.79.37,1.56.74,2.27,1.15l.71.22.69-.28c-.08-.25-.16-.5-.23-.75.07.25.15.5.23.75,46.48,8.07,103.47-3,150.28-4.82,74.62-2.87,150.43-10.12,224.93-8.44,15,.34,30.72-.28,43.88-7.52,33.26-18.27,14.66-62.21,16.53-91.61C1631,996.51,1631.91,957,1631.79,917.45Zm-506.88,136.67a7.65,7.65,0,0,0-3.1-1.11h0A7.65,7.65,0,0,1,1124.91,1054.12Zm-2.58,2.79a6.18,6.18,0,0,0,.43,1.4A6.18,6.18,0,0,1,1122.33,1056.91Z"/><path class="cls-17" d="M729.42,997.9c28.51-3.16,57.08-2.63,85.7-1.76,22.37.67,44.79.22,67.18.22,36.06,0,72.12.49,108.15-.22,13.63-.27,27.24-1,40.86-1.35,13.86-.37,27.72-.76,41.58-1,13.37-.21,26.89.5,40.23-.29,12.7-.74,25.43-1.9,38.15-1,9.91.67,12.29-3.6,12.59-11.86.58-15.72,1.42-31.43,2-47.15,1.61-40.5,3.64-81,4.47-121.51.35-16.89,4.07-33.77.76-50.71,1.25-14,.92-23.35,2.85-24,1.64-.53,4.76,12.65,7.84,20.54,10.07,18.19,5.81,38,5.77,57.11-.07,31.05-1.45,62.08-1.06,93.16.29,24,1.94,48.54,1.12,72.53-.14,4-.19,33.08-2.52,37-7.38,3.12-15.43.93-24.88.78l-12.56,1c-53.85.16-107.68,1.95-161.54,2.51-55.51.57-111-.2-166.5-.2-36.34,0-72.67-2.62-109.92-4.1C714.73,1008.31,726.29,1007.28,729.42,997.9Z"/><path class="cls-18" d="M926.07,233c23.62,26.82,30.34,57.94,23.06,92.42-1.62,7.66-4,15.28-11.15,20,.75-3.06-10.91,1.53-3.56-6.82,5.88-6.69-6-12.29-5-19.73,12.51-22.05,3-45.53-19.94-49.16-8.58-3.12-8.13-12.93-13.59-18.36a7,7,0,0,1-.65-1.39l-.44-.64c0-1.91,1.75-4.4-1.72-5.14l.08.17c2.25-4.52,0-8.64-1.14-12.86.27-5,4.63-6.22,7.89-8.45,5.61.6,12.14,1,16.84,1.79C924,226,924.32,231.06,926.07,233Z"/><path class="cls-13" d="M561.65,363.77c2.26-7,8.31-10.72,14.21-15.15,20.45-15.3,41.88-16.77,63.41-1.37,2,1.4,3.65,5.28,7.23,2.31,3.16-2.61,2.82-6.33,1.7-9.21-3.29-8.42-6.39-17.13-11.21-24.68-5.34-8.35-5.82-14.93,1.58-22,5.8-5.51,7.18-11.6,4.22-19.92-4.74-13.37-5.26-27.67-6.56-41.69l3.51-1.08c5.26,13.93,10.52,27.86,16.45,43.54,14.79-16.64,31.71-27.74,48.33-39.14,6.45-4.43,11.15-7.25,4.4-15.8-3.33-4.22-3-11.31-4.87-19.24,8.85,5.44,16.28,8.67,20.53,15.55,3.08,5,5.85,4.23,10.15,2a353.49,353.49,0,0,1,50.51-21.55c8.22-2.75,21.1-3.18,23.62-8.55,3.46-7.34-7.41-15.38-10.24-24l2.56-1.88c7.31,2.57,8.6,9.36,11.18,15.44,4,9.53,14,13.8,23.21,8.17,6.8-4.18-1-9.7-2.28-14.44-1.56-5.85-4-11.64-9.36-15.68a4.56,4.56,0,0,1-.22-7.35,135.09,135.09,0,0,1,24.55,29.85c2.4,3.9,4.9,7,10.36,7.82,11.8,1.72,16.38,9.55,14.78,23.16-16.34-4.59-31.19-.55-45.17,8-2.3,1.4-5.32,3.29-3.85,6.78,1,2.48,3.5,1.78,5.38.78,15-8.06,31.22-8.95,47.75-7.7,6.86.34,11.44,8.9,17.26,20.81,6.36,13,11.66,23.24,14.73,32.17,6.31,16.53,15.71,38.23,17.67,43.13s12.22,21.42,10.63,35-10.28,42.81-23.8,55.35c-25.25,23.42-40.87,33.47-87.23,48.68-11,3.62-49.07,10.7-60.19,10.12s-45.78-7.74-66.75-18.29c-10.57-5.32-19.63-10.37-28.64,3.41-4.42,6.76-13.85,8.69-22.31,9.67-14.56,1.67-27.22,1-43.15-2.94-31.62-7.79-42.19-37.31-44.22-46.57S555.46,383,561.65,363.77ZM830.21,374c-10.05,2.67-20.36,4.58-30.14,8-7,2.44-5.68,12.13-4.35,15s10.33,10.21,15.06,12.68,21.5,7.72,31.26-2.5c8.51-7.1,11-15.05,3.44-24.41C845.74,381.5,836.65,372.3,830.21,374ZM639.55,429.85c16.76,2.75,24.92-3,21.46-15.43-3.55-12.7-10.87-23.35-20.37-32.14-10.39-9.6-24.31-4.56-27.75,9.4C608.05,411.36,618.55,426.39,639.55,429.85Zm84.05-85.74c-3.35-.66-7.79-4.9-9.32,1.13-1.34,5.29,3.58,6.82,7.58,8.13,16.44,5.4,47.75-6.37,56.84-21.14,2.11-3.42,4.36-7,.35-9.87-4.67-3.32-6.12,1.65-8.36,4.38C758.36,341.74,741.71,345,723.6,344.11Zm9.64-86.53c-19.82-5.82-35.45.83-48.09,16.14-2.13,2.59-4.41,5.52-1.25,8.73,2.17,2.2,5,1.43,6.4-.88C700.27,265.73,718.23,264.18,733.24,257.58Zm110.62,46.68c15.45,12.53,46,5.82,53.06-9.2,1.18-2.49,1.89-4.8-.68-6.52-2.73-1.83-4.21,0-5.88,2.26-6.05,8.16-14.79,11.95-24.49,13.14C859.56,304.72,853.08,304.19,843.86,304.26ZM809.09,346.1c1.93-5.31,3.76-10,9.94-11.79,5.68-1.64,8.81,4.29,14.73,5-5-8.36-11.71-9.7-18.73-7C809.4,334.45,806.66,339.4,809.09,346.1Z"/><polygon class="cls-8" points="894.23 721.39 874.65 728.44 879.89 757.57 893.02 814.39 915.78 821.72 930.62 814.1 918.84 766.69 894.23 721.39"/><path class="cls-5" d="M758.83,814.34v.09l.09,0Z"/><path class="cls-5" d="M475.5,1140.16l.1-.06h-.08S475.51,1140.14,475.5,1140.16Z"/><path class="cls-5" d="M1171.13,761.23c-14.69-1.38-30,.55-43.6-7-10.94-6.07-23.84-10.05-27.8-24.21l-9.67-2.26c-27-1.36-54-1.07-80.76-5.48-4.45,8.53-11.65,1.33-17.3,3a8.37,8.37,0,0,1-1.94,1.53c-18.56,6.95-18.84,7-13.06,26.38,5.1,17.11,8.51,34.55,11.48,52.08.61,3.58,1.69,7.7,4.07,8.49,10.89,3.63,8,11.56,7,19.12-.62,4.7,3.1,4.8,6.08,6.09,12.78,5.53,25.22,11.68,35.82,20.95,8.11,4.11,16.47,7.8,24.21,12.5,3.84,2.32,10.52,3.84,9.1,10.17-1.24,5.54-7.42,4.48-11.62,5.31-18.25,3.61-36.24-.19-54.26-2.49L996.56,883,977,879.73c-3.33-.56-6.8-1-6.54-5.67-9.51-.75-19-1.87-28.52-2.15-8.71-.26-13.71-4.16-15.22-12.68l-129,92.29c.46-8.11,3.9-9.22,6.21-10.91,37.61-27.57,75.3-55,112.83-82.67,2.79-2.05,5.22-2,8.1-1.57.11,0-1.75-10.83-2-11.83-1.12-4.09-2.55-8.07-4-12.06s-2.75-7.75-3.81-11.73c-1.48-5.52-2.25-10.62-5.57-15.37s-6.62-9.76-9.55-14.87c-8.69-15.15-12.95-32-13.82-49.4-.15-3,.58-7.1-.62-9.93-2-4.79-9.54.54-12.61,1.22a9.05,9.05,0,0,1-5.75-.27,8,8,0,0,1-2.6-2c-.56-.61-1.8-3.55-2.35-3.73l-11.95-4c.07,3.72.35,7.45.14,11.15-1.26,22.87-1.31,23.28-24.34,22.76-11.92-.27-7.18,6.58-5.32,11.24q14.28,35.94,29.5,71.51c2.07,4.8,1.88,7.46-2.29,10.46-25.66,18.41-49.83,39.07-79,52.12-2.28,1-4.49,2.6-6.87,2.93-4.64.65-10.41,5.12-13.75,0-2.65-4.08,2.3-8.39,4.81-11.91,2.21-3.09,4.84-5.7,4.91-9.77-8.7,2.35-17.37,4.8-26.11,7-3.59.9-8.45,2-10.37-1.31-1.78-3.07,1.33-7,3.64-9.74,11.59-14,23.32-27.81,35-41.69.56-.66,1.16-6.24,1.3-7.12.25-1.48-1.13-10.74-1.9-11.85s-6-19.21-6.86-21.45c-5.08-13.81-12.47-26.28-18.9-39.52-.49-1-6.92-12.68-6.47-13-2.16,1.54-3.18,3.77-6.06,3.49h0c-3.28-.37-8.56-21.71-13.79-6.46-1.1,3.2-2,7.38-5.33,8-4.68.89-6.3-6.56-3.81-10.62,1.22-2,2.94-4.35,1.8-6.39-.9-1.59-3-1.88-4.85-2a650.09,650.09,0,0,0-82.81.83c-13.76,1-90.68,17.69-104.27,28.47-9.3,7.38-16.24,17.51-26,24.3-25.87,18-67.79,11.52-97.8,14.65C287,808.68,191.24,832,95.24,851.44c-13.1,2.66-26.62,5.49-37.6,13.12C30.82,883.2,25.34,925.27,16,954.34,1.51,999.11.68,1043.67,0,1090.15c-.13,8.41,1.84,17.59,8.38,22.89,3.54,2.87,8,4.27,12.48,5.27,45.61,10.25,91.59,4.11,137.72,5,49.35,1,97.54,14.51,147,14.66,82.9.25,165.8-8.54,248.76-9.79,135.85-2.05,271.76-.58,407,10.25,16.43,1.32,34.88,2.22,49.44-6.84,18.48-11.51,35.88-27.46,53.69-40.35l28.12-20.34c4.75-3.44,9.38-7,14.24-10.32,5-3.41,10.33-6.48,15.64-9.45,4.59-2.56,10.21-4.58,13.91-8.41,1.81-1.88,3.19-4.12,5-6s4.23-3.49,6.33-5.22c4.68-3.83,9.06-8,13.38-12.24,0,0-.5-.58-.77-.88l-12.56,1c-53.85.16-107.68,1.95-161.54,2.51-55.51.57-111-.2-166.5-.2-36.34,0-72.67-2.62-109.92-4.1,5-9.23,16.56-10.26,19.69-19.64,28.51-3.16,57.08-2.63,85.7-1.76,22.37.67,44.79.22,67.18.22,36.06,0,72.12.49,108.16-.22,12.91-.26,25.82-.7,38.73-1,6.46-.14,12.91-.25,19.37-.27,10,0,19.94-.6,29.91-.8,9.77-.2,19.51.78,29.27.51a12.25,12.25,0,0,0,3.42-.3c.23-.08,1.29-.74,1.35-.74,12.9-.75,25.83-1.95,38.76-1.09,9.91.67,12.29-3.6,12.59-11.86.58-15.72,1.42-31.43,2.05-47.15,1.6-40.5,3.63-81,4.46-121.51C1170.71,795.05,1174.44,778.17,1171.13,761.23ZM706.25,931.54c1.07-.54,1.5-.23,1.23.81l-1.13.14C706.31,932.16,706.15,931.59,706.25,931.54Zm-16-23.24,2.34,2.28c7.71,2.06,10.5,8,12.55,16.54-8.4-3.55-11.7-9.07-12.61-16.49l-3.06-1.49Zm-30.94-43.69c8.54,2.59,11.54,9.17,12.48,17.25,3.16.62,4.58,2.52,4.17,5.73,8,1.88,10,8.37,13.39,16.92-9.25-3.93-12.56-9.44-13.45-16.87q-4.82-.9-4.14-5.76c-7.47-3.34-11.61-9.1-12.5-17.22l-3.07-1.48.78-.85Zm-16.63-23c8,1.85,10,8.43,13.59,17-9.44-4-12.76-9.52-13.65-17q-4.82-.9-4.14-5.75c-7.47-3.35-11.61-9.11-12.5-17.23l-3.06-1.48.77-.84,2.35,2.27c8.53,2.59,11.53,9.18,12.47,17.26C641.63,836.51,643,838.41,642.63,841.63Zm-39.89-60.16a10,10,0,0,1,2.44,8.46c3.17.62,4.58,2.51,4.18,5.73,8,1.84,9.86,8.49,13.79,17.08-9.65-4.09-13-9.61-13.86-17-3.21-.61-4.58-2.53-4.14-5.76l0,0A10,10,0,0,0,602.74,781.47Zm33.62-42.12c-9.83,7.53-19.65,15.07-29.88,22C616.71,754.42,626.53,746.88,636.36,739.35Zm67.13,277c-.46,3.71-3.15,5.69-5.9,7.64-42.73,30.28-84.17,62.38-128.05,91-2.32,1.51-4.43,5.3-7.12,2.1-2.91-3.47,1.5-5,3.52-6.44q43-31.24,86.12-62.22c11.12-7.92,21.49-17,33.87-23.06,3.45-1.7,4.26-4.88,4.91-8.2-25-2.41-50.06-5-75.12-7.13-13.35-1.12-25.59-6.58-38.62-8.85-4.78-.83-7.41-3.44-6.85-8.57,33.55,1.87,67.14,2.21,100.73,2.32,17,.06,34,1,51,1.47C719.43,1006.51,706.18,1006.56,703.49,1016.4Z"/><path class="cls-13" d="M965.25,796.46l0,.07c-1.3,3.23-5.6,3.23-8.42,3.88A102.15,102.15,0,0,0,945,804.09c-5.33,1.92-10.6,4-16.08,5.52-3.67,1-12,3.93-15.5,1.65-2.17-1.39-2.35-5-3-7.21q-1.41-5-3-10c-4.46-14.15-10.31-27.81-14.79-41.95-.85-2.66-5.54-24-9.65-22.6,19.1-6.41,38.61-11.39,58.76-12.83.17,0,7.48,25.17,8.14,27.52,4.47,16,10.2,31.62,15,47.53C965.37,793.25,965.82,795,965.25,796.46Z"/><path class="cls-14" d="M941.73,716.63c-20.24,1.26-39.63,6.45-58.76,12.84-7.21.75-15.44,8.59-20.83-3q.23-4.56.46-9.13.18-7.83.35-15.66c28.31-7.59,56.65-15.08,84.9-22.85,5.3-1.45,12.21-.22,14.74-7.39,8.84,1.67,19.48,14.47,18.07,24.45-1.34,9.5-10.77,11.91-18.58,13.2C954.59,710.3,947.24,710.57,941.73,716.63Z"/><path class="cls-19" d="M970.42,874c-9.51-.6-19-1.83-28.52-2.12-3.62-.11-7.41-.88-10.28-3.22-5.2-4.25-6.68-13.69-8-19.81a163.82,163.82,0,0,0-5.33-18.27c-1-2.87-2.25-5.76-3-8.68s-1-5.93-2-8.8c-.45-1.22-1-2.4-1.39-3.64a.6.6,0,0,1,0-.54.65.65,0,0,1,.5-.2c4.14-.28,8.48.12,12.58-.5a96.17,96.17,0,0,0,12.94-3.07c8.53-2.59,16.89-5.72,25.42-8.34a3.72,3.72,0,0,1,3-.05c2.6,1.61,1.38,6.88,1.18,9.31-.45,5.51,1.42,11.44,5.69,15.12,3.44,3,7.93,4.09,12.14,5.46a83.73,83.73,0,0,1,12.32,5.48c9.12,4.71,17.82,10.2,27.13,14.54,4,1.87,17.72,7,16.74,13.23a31.41,31.41,0,0,1-20.78,10.14c-11.68,1.11-23.27,3.46-35,4.12A129.22,129.22,0,0,1,970.42,874Z"/><path class="cls-19" d="M759.25,882.64C755,884,750.6,885,746.14,886.13c-4.78,1.2-9.51,2.6-14.3,3.8-3.59.9-8.45,2-10.37-1.31-1.78-3.07,1.33-7,3.64-9.74q9.23-11.11,18.53-22.14c4.07-4.83,8-9.76,12.13-14.55,5.83-6.8,9.26-16.4,5.58-25.06a96.63,96.63,0,0,1-4.2-10.48c-1.07-3.64-1.23-7.51-2.74-11-.12-.28-1.28-3.65-1.43-3.66,2.49.23,5,2,7.18,3.11A34.86,34.86,0,0,0,764.1,797c1.64.59,3.42.59,5.1,1a31.81,31.81,0,0,0,4.52,1.3,11.39,11.39,0,0,0,4-.51,79.65,79.65,0,0,0,13.7-5c5.17-2.4,10.14-5.19,15.14-7.91l2.39.91c4.32,11.19,8.67,22.37,13,33.58,8.73,22.8,8.74,22.84-12.23,34.32-6.39,3.5-12.09,8.08-18.28,11.89C781.14,872.87,770.8,879.12,759.25,882.64Z"/><path class="cls-11" d="M873.4,208.92c1.6-13.61-3-21.44-14.78-23.16-5.46-.79-8-3.92-10.36-7.82a135.09,135.09,0,0,0-24.55-29.85,4.56,4.56,0,0,0,.22,7.35c5.39,4,7.8,9.83,9.36,15.68,1.26,4.74,9.08,10.26,2.28,14.44-9.18,5.63-19.18,1.36-23.21-8.17-2.58-6.08-3.87-12.87-11.18-15.42-1.28-2.32-1.47-5.64-5.26-5.83-1.56,3.59,1.27,5.38,2.7,7.69,2.83,8.62,13.7,16.66,10.24,24-2.52,5.37-15.4,5.8-23.62,8.55a353.49,353.49,0,0,0-50.51,21.55c-4.3,2.23-7.07,3-10.15-2-4.25-6.88-11.68-10.11-20.53-15.55,1.84,7.93,1.54,15,4.87,19.24,6.75,8.55,2.05,11.37-4.4,15.8-16.62,11.4-33.54,22.5-48.33,39.14C650.26,258.88,645,245,639.74,231l-3.51,1.08c1.3,14,1.82,28.32,6.56,41.69,3,8.32,1.58,14.41-4.22,19.92-7.4,7-6.92,13.61-1.58,22,4.82,7.55,7.92,16.26,11.21,24.68,1.12,2.88,1.46,6.6-1.7,9.21-3.58,3-5.27-.91-7.23-2.31-21.53-15.4-43-13.93-63.41,1.37-5.9,4.43-9.48,12-14.13,18.07-10.1-5.21-10.07-24.87-12.19-34.55-6.44-29.27-12.73-59-9.17-89.1,3.75-31.66,23.64-58.66,48.53-77.55,36.59-27.77,84-44.13,128.62-53.14L768.79,102c-.16.9-.31,1.81-.47,2.71,1.77,11,9.58,17.6,17.09,24.5,0-9.41-10.21-13.88-10-23.18a55.76,55.76,0,0,1,41.12.18c37.37,15.59,58.66,44.67,65,85.51,1.76,11.34,2.93,26.45,18.34,31.35-3.26,2.23-7.62,3.43-7.89,8.45l-8.27-9-.25.43c.25-1.75,0-2.69-1.85-1.2l-4.16-5C878.81,212.75,875.32,211.24,873.4,208.92ZM554.45,266.2c-.36-5.93-2.48-11.06-7.61-14.3-1.9-1.21-3.07,1-2.94,2.49.56,6.45,5.2,9.49,10.5,11.84-.55,3.64,1.37,6.35,3.35,9.08,11.46,15.78,22.83,31.62,34.41,47.31,1.72,2.32,3.3,7.34,7.12,4.63,3.46-2.46.32-6.1-1.63-8.64q-19.29-25.22-38.84-50.22C557.9,267.23,555.93,266.91,554.45,266.2Z"/><path class="cls-20" d="M922.28,599.39a40.27,40.27,0,0,0-5.7-5.6,7.88,7.88,0,0,0-2.75-1.69c-4.62-1.29-10.22-.08-11.17-6.64-.37-2.52.56-5.28-.59-7.55-1.43-2.83-5.22-3.36-8.39-3.17-11.81.72-23.79,4.93-35,8.55-2.65.86-5.37,1.81-7.44,3.68-1.45,1.31-2.5,3-3.84,4.42-4.56,4.83-12,2.4-17.58,1.24a155.57,155.57,0,0,1-16.71-4.14c-11.52-3.76-22.5-9.31-31.58-17.29-6.79-6-13.11-13.05-22.89-13.22-5.22-.09-10.3,1.61-15.14,3.73-5,2.21-9.79,5-14.76,7.33-1.52.71-6,1.64-6.78,3.13-3.17,5.74,3.87,12.08,7.26,15.29,9,8.54,15.84,18.88,24.25,27.87,8.12,8.67,18.79,14.88,30.08,18.73,15.29,5.22,31.61,6.27,47.65,6.3,16.35,0,32.72-1.93,48.89,1.68,14.67,3.28,26.37,2.49,38.69-6.42,6-4.32,2.81-15.4-3.44-19.15-2-1.18-6.65.2-8.86.27-1.9.07-7.09.18-3.87-3.15,5.68-5.87,18.45,3.32,22-6C925.8,604.64,924.08,601.66,922.28,599.39Z"/><path class="cls-13" d="M914,600.52c-1.12-3.58-9.67-3.25-13.64-4.26-5.75-.85-14.48,4.76-13.47-9.13.33-4.59-10.58-6.46-17.51-3.39a9.39,9.39,0,0,1-2.9,1.54c-1.3.42-2.76,1.27-5.53,2.54s-10.41,7.66-14,9.83c-3.77,3.74-8.09,4.13-13.29,3.44-23.42-3.13-44.86-10.76-63.14-26.16l-3.25-3.3.29-.06c-.83.22-5.85-3.34-7.1-3.79a24,24,0,0,0-7.35-1.38c-4.84-.14-9.52,1.25-14,3s-9,4.17-13.58,6.08c-1.4.58-5.49,1.32-6.24,2.58-2.87,4.86,3.73,10.36,6.9,13.13,9.45,8.26,16.72,18.65,26,27,8.72,7.86,20.37,12.92,31.68,15.65,15.73,3.8,32.06,4.19,48.16,3.7,14.82-.44,29.81-.32,44.19,3.73,7.47,2.1,18.32-1.61,26.09-6.74,5.49-3.62,2.42-13.11-3.42-16.38-3.36-1.89-9,2.1-10.34-5.24a56,56,0,0,1,20.52-.9C914.35,612.75,915.09,604.09,914,600.52Z"/><path class="cls-21" d="M713.22,576.69l-5.34-.38C698,567.23,701.51,555,701,544.05c-.37-7.63,1.81-15.39,2.86-23.09,3.44-10.63,10-19.19,17.68-27.09l-.21.09,3.09-2.31-.17.25c8.07-1.74,14.72-8.45,23.76-6.75,1.33,5.21,3.1,10.36,3.92,15.65,2.52,16.22,14.18,29.73,13.68,46.8-.23,8.06-4.14,16.43,2,24-17.79-12.67-32.22,1.3-47.81,6C717.66,576.64,715.58,575.67,713.22,576.69Z"/><path class="cls-16" d="M748,485.15c1.81-8.81,8.15-7.45,14.36-6.41.55,14.71,7.12,27.9,10.65,41.86,1.67,6.65,4.58,8,11.53,6.72,17.06-3.24,33.7-8.53,51.35-9.3,8-.35,16-4.56,11.86-15.9-4.92-13.61-9.76-27.25-14.64-40.87,3.54-4.28,8.41-4.22,13.3-4.11,4.12,11.27,9.3,22.3,12.06,33.9,2.82,11.88,9.13,21.76,14.65,32.14,12.33,23.18,23.13,46.86,27.22,73.08-5.75-.85-14.48,4.76-13.47-9.13.33-4.59-10.58-6.46-17.51-3.39-1.56-.39-2.35.3-2.56,1.82-.61.12-.81.47-.61,1.06-3.33.72-6.44,1.84-8.64,4.65l.1-.14-10.69,6.52c-3.77,3.74-8.09,4.13-13.29,3.44-23.42-3.13-44.86-10.76-63.14-26.16l-3.25-3.3.29-.06c-6.11-7.54-2.2-15.91-2-24,.5-17.07-11.16-30.58-13.68-46.8C751.08,495.51,749.31,490.36,748,485.15Zm115.65,87.28c3.17.31,5.06-1.12,5.76-4.19,3,.21,5.79-.28,7.05-3.48a1.66,1.66,0,0,0-1.76-2.41c-3.49.15-4.73,2.68-5.49,5.6-3.1-.28-5.09,1-5.78,4.11l-3.44.68a8.19,8.19,0,0,0,.56,1C861.58,573.35,862.61,572.88,863.63,572.43Z"/><path class="cls-11" d="M721.51,493.87h-.09l-.12.09Z"/><path class="cls-11" d="M766.58,462.07c-22.32-5.86-45.78-7.74-66.75-18.29-10.57-5.32-19.63-10.37-28.64,3.41-4.42,6.76-13.85,8.69-22.31,9.67a111.94,111.94,0,0,1-43.15-2.94c.16-5.44-4.83-4.45-7.68-6.14-7.7-3.95-12.89-12.17-22.34-13.17,1.41.15,1.95,8.68,2.09,9.95.5,4.59,2.65,8.1,4.78,12.1a135.25,135.25,0,0,1,6.51,14.2c1.92,4.92,3.26,10,5,15q3.35,9.27,7.51,18.22a191.67,191.67,0,0,0,21.19,35.44c15.57,20.34,37.58,38.41,64.32,39.11a64.13,64.13,0,0,0,10.27-.57c1.33-.18,9.61-2.73,10.25-2.19-9.37-7.93-6.17-21-6.7-31.8-.37-7.63,1.81-15.38,2.86-23.08-2.57-19.13,3.22-28,17.59-27.09l3-2.22-.17.25C738,481.14,751,468.28,771.11,473.31,771,469,770.69,464.77,766.58,462.07Z"/><path class="cls-15" d="M896.08,432.87c1,.1,3.18,3.53,3.81,4.33q1.83,2.3,3.44,4.75a72,72,0,0,1,5.49,10.1,137.2,137.2,0,0,1,7.29,21.84,82.45,82.45,0,0,0,3.41,11.56,8.09,8.09,0,0,1,.8,3.64c-.19,2.52-1.23,3.61-2.63,5.57-1.67,2.36-1.54,5.46-2.79,8-2.54,5.17-9.33,6.92-14.33,8.58a95.82,95.82,0,0,1-18.5,3.93,32,32,0,0,0,7.59,16.38c9,19.73,20.46,38.18,29.47,57.91-.85,3.37,13.48,13.82,12.78,15.63-1.21,3.15-16.41,14.26-23.91,11.45-5.75-2.14-3.56-17.56-7.68-20.28-4.09-26.22-14.89-49.9-27.22-73.08-5.52-10.38-11.83-20.26-14.65-32.14-2.76-11.6-7.94-22.63-12.06-33.9,14.14-8.35,28.22-16.83,42.53-24.89C890.64,431.28,893.66,432.61,896.08,432.87Z"/></g></g></g></svg>