<svg xmlns="http://www.w3.org/2000/svg" viewBox="0 0 1639.18 1126.18"><defs><style>.cls-1{fill:#11736f;}.cls-2{fill:#299597;}.cls-3{fill:#33b9b5;}.cls-4{fill:#136f6f;}.cls-5{fill:#12928e;}.cls-6{fill:#fa6036;}.cls-7{fill:#762f1e;}.cls-8{fill:#f4d3c7;}.cls-9{fill:#d8d6f9;}.cls-10{fill:#f6d4c7;}.cls-11{fill:#2c8e90;}.cls-12{fill:#e4a78f;}.cls-13{fill:#b94425;}.cls-14{fill:#137471;}.cls-15{fill:#f3c7b2;}.cls-16{fill:#fe9c98;}.cls-17{fill:#844c49;}.cls-18{fill:#6d3f26;}.cls-19{fill:#9f7f6f;}.cls-20{fill:#fbd3c7;}</style></defs><g id="Layer_2" data-name="Layer 2"><g id="Layer_2-2" data-name="Layer 2"><path class="cls-1" d="M350.85,1099l-5.49-3q-.17-7.1-.34-14.2c3.76,5.58,5.79,11.84,15.27,11.72,25.46-.31,51,1.4,76.39,2,104.49,2.25,209-.53,313.57,3.12,77.51,2.71,155-4.67,232.6-2.38,53.92,1.59,107.69-3.6,161.58-3,1.42,0,2.84-.08,4.26-.06,4.64.08,6.72-2.2,7.17-6.82.69-7,2.49-13.95,2.68-21,1.22-44.69,2.13-89.38,3.14-134.08,3.84-.66,8.3,1,11.27-3l16.75-2.93q-5.51,92-11,184.1c-.35,5.8,1.29,13.15-8.59,12.46-4.73,0-9.45-.25-14.17-.08-103.54,3.81-207.13,4.47-310.71,4.24-82.28-.18-164.55-2.45-246.82-3.8l-111.14-5.17C441.55,1112.77,395.5,1111.14,350.85,1099Z"/><path class="cls-2" d="M1189.7,925.42,1173,928.35c.56-31.07-.68-62.08,2.25-93.21,3.18-33.8.35-67.89,2.69-102,2.75-40,.79-80.25,3.23-120.39,1.51-24.8-1.5-49.95,1-74.59,3.68-35.94.89-71.79,2.09-107.7,1.7-4.52,81.22,9.86,89.65,9.76,69.59-.8,139.18-1.39,208.77-2.64,30.65-.55,61.31-.72,91.92-2.24,16.07-.8,47.33-5.84,58.34,9.94,9.76,14,5.06,56.46,5.55,73.35,1.44,49.39-.79,98.78-.37,148.18.4,46,.32,92.09-.85,138.12-.84,32.91,12.48,96.27-32.1,100.13-35,3-69.94,6.51-105,8.57-47,2.77-94.17,3.64-141.26,5.17C1303.86,920.62,1244.13,915.89,1189.7,925.42Z"/><path class="cls-3" d="M339.26,951.37c-6.44-1.39-13.58,13.86-19.46-.81-.26-1.79-.53-3.58-.79-5.37-2.35-10.77-111.27,0-120.79.54Q147,948.47,95.74,951.79c-14.51.93-80.13,14.28-88.75,2.54-11.77-16-5-58.72-5.38-77.71C.38,808.38.49,739.86,5.83,671.77c5.15-65.83,9-132.42,15.26-198,.74-7.82,1.59-16,5.82-22.6,8.82-13.81,28-15.52,44.36-15.42,80.85.51,162.31,9.77,242.9-.38,77.88-9.81,150.84-38.19,230.23-41.92a7,7,0,0,0,6-3.15c16.71,28.24,39.81,47,73.79,49.38,4.87,4.65,10.85,5.57,17.16,4.79,11.78-1.46,22.69-5.63,33.12-11.17,21.93,14.28,44.6,27,70,34.24q-.34,6.74-.68,13.45l-6,1c-21.53-2.08-40.63,3.26-57.41,17.4-9.32,7.86-19.72,14.42-29.43,21.84-20.85,15.94-22.87,10.61-4.59,34.28-20.22,18.28-40.58,36.41-60.54,55a37.43,37.43,0,0,1-17,9.43c-30.08,7.1-47.91,27-59.72,54.4-4.95,11.49-1.34,12.61,8.49,10-.46,6.35-.25,12.44,6.35,16l1,.62c5.84.48,7,10.47,12.68,8.19,10.59-4.26,25.69,6.86,32.59-9.54.24-.56,2.71-.72,3.82-.28,12.37,4.87,13.36,4.52,15.56-9.48,1.26-8,1.8-16.84,7.92-22.25,21.86-19.32,46.61-34.69,71.33-50,4.54-2.81,5.85-.61,6.56,3.37-1.1,5.92-1.3,12.2-3.47,17.71-7.53,19.09-7.51,35.61,13.2,46.49-5,25.69-6.5,52.08-15.36,77-2.22,6.25,1.43,9.57,6.34,12.16-8.37,22.87-23.07,42.16-35.42,62.77-15.4,13.37-26.41,30.65-40.39,45.27-3.49,3.64-2.2,6-.11,9.75C607,904.39,613.38,917,620,929.55c-4.69.48-9.37,1.33-14.06,1.38-66.13.72-132.39-2.5-198.28,5.9C384.46,939.78,360.8,940.73,339.26,951.37Z"/><path class="cls-3" d="M1176,427.14l8.25,3.39c-1.2,35.87,1.6,71.72-2.08,107.67-2.53,24.64.48,49.79-1,74.59-2.44,40.14-.48,80.41-3.23,120.39-2.34,34.07.49,68.16-2.69,102-2.93,31.13-1.69,62.14-2.25,93.21-3,4-7.43,2.32-11.27,3-23.92,1.79-47.85,5.22-71.76,5.07-80.83-.54-161.64,1.41-242.53-1.62-58.3-2.18-116.74-3.58-175.15-3.54-.12-.89-.27-1.77-.45-2.65,2.27-8-3.64-18.24,4.14-24.26C693.18,891,707.24,874.74,721,858.16c24.87-29.93,49.36-60.09,62-97.9,4.38-13.1,12.73-23.16,27.18-26.4,16.23,4.44,28.3,15.32,39.88,26.61,3.25,3.16,5.42,6.18,10.29,4.25q8.4,19.18,16.81,38.36a72.87,72.87,0,0,0,9,22.61c.23,2.85,0,5.84,2.56,7.94q0,3,.05,6.1c2.2,19.36,12.55,35.94,18.64,54,.65,1.91,4.61,2.71,7,4,2.11,3.64,5.46,4.47,9.45,5,31.21,4.48,62.53,6.72,94.07,5.54,6.52-.24,13.06.63,18.52-4.68,2.3-2.24,8.25-.37,7.85-6.07-.28-4.18-3.87-6.15-6.89-8.42-4.55-3.41-12.69-2.51-13.16-10.87.29-7.54-6.06-8.93-10.93-10.89C997.4,861,981.26,855.09,965.2,849c.44-16.19-10.46-29.08-13-44.42-.12-.71-2.4-1.06-3.67-1.57.51-13.79-2.73-26-9.29-38.72-5.17-10-9.56-25.45-6.54-34.23,6.83-19.81-6.35-20.87-17.09-26a1.19,1.19,0,0,1-1.19-.77c-.37-3.59-2.3-5.49-6-5.52a5.24,5.24,0,0,1-2.41-1.37c-.66-2.26-1.94-3.75-4.52-3.63a2.12,2.12,0,0,1-1.56-.8l-3.15-2.58-14-8.68c1.45-6.4,3.67-12.65,2.63-19.43-4.5-29.21-8.61-58.48-13.53-87.61-1.34-7.94.35-11.33,8.53-11.3,4.68,0,9.37-1.13,14-1,8.15.3,13.57-1.57,14.46-11.17.56-6.05,3.09-11.48,10.66-13.05,29.22-6.06,56.5-17.81,83.1-30.78,15.66-7.63,33-9.43,48.53-16.93l14.23,4.6c6.76,1.54,13.48,3.3,20.3,4.52,3.25.58,6.88,0,8.59-3.37,2.28-4.57-2.5-5.29-4.65-7.22-3.44-3.08-7.2-5.81-10.82-8.69l8.76-.35c4.09,6.18,10.84,3.63,16.4,4.94,3.6.85,6.78-.38,7.92-3.91s-1-6.37-3.53-8.46c-2.06-1.7-4.65-2.77-7-4.12l.23-.28,14.36.22,2.83-.16c2.3-10.31-5.62-16.07-18.1-13.16l-22.07-8.72c6.09-.21,12.22,0,18.24-.74,7-.86,19.29,3.88,19.56-4.4.32-9.64-12.15-5.89-19.41-7-3.26-.22-7,.55-9.69-.81-18.28-9.34-36-5.58-53.79,1.34q-2.13,1.07-4.24,2.15a.89.89,0,0,0-1.48.2l-5.44,3.06-.18.09c-3.51.08-5.2,2.34-6.3,5.28-2.46,0-4.36.92-5.14,3.46l-2.72,2.46-.06.07-3.86,4.15C967.67,462.4,932,474,894.72,477.89a6.36,6.36,0,0,1-.55-2.5c-.83-5.85,2.77-8.32,7.45-10.43,6.9-3.11,14.19-5.86,20.28-10.21C939.79,442,959,429.91,962.8,405.37a15.63,15.63,0,0,0,2.45-.49C1032,410.1,1098.54,417,1165,425,1168.69,425.45,1172.32,426.42,1176,427.14Z"/><path class="cls-4" d="M936.84,241.94c-4.05-18.81-3.91-38.38-10.72-56.72-2-5.32,1.07-8.49,6.45-10.52,7.87-3,15.87-6.13,22.91-10.62,13.58-8.66,14.38-21.63,2.41-32.67-12.87-11.88-29-16.6-45.79-19.45-2.6-.44-5.19-1-8.21-1.51,2.47-6.55,9-6.36,12.09-10.35,3.68-4.72,10-9.12,8.07-15.4-2-6.75-9.08-9.16-16-9.84-11.23-1.1-22.48-2-33.71-3,20.13-5.3,40.1-4,59.51,2.8,10.86,3.82,11.31,13.34,1.94,21.93-3.63,3.33-10.24,5.73-8.45,11.5,1.65,5.33,8.16,3,12.64,3.85,16.8,3.17,31.21,11,42,24.23,5.32,6.53,4.45,13.8-.67,20.81s-12.9,9.46-19.82,13.09c-19.06,10-19.75,9.81-13,29.23,3.52,10.09,3,20.59,4.11,30.68.91,8.2,4.06,11.71,10.13,12.18,16.36,1.25,25.06,12.86,29.52,25.21,12.95,35.86,16.28,72.1-3.89,107.32a53.37,53.37,0,0,1-16,17.59c-4.81,3.35-7.73,6.69-7.19,12.58a15.63,15.63,0,0,1-2.45.49l-16.31-.64c-.31-.93-.63-1.85-.94-2.78a.9.9,0,0,0,.13-1.54c3.68-3.37,6.14-7.09,3.55-12.28,13.54-.64,19.63-10.78,23.86-21,14-33.8,13.41-68.17-.24-101.87C966.62,249.86,955.44,239.48,936.84,241.94Z"/><path class="cls-4" d="M871.25,72.14c-2,2.44-4.92,2.83-7.71,2.54-6.41-.67-15,3.64-18.71-1.55-3.81-5.37,4.36-10.32,7.09-15.47,7.53-14.18,5.75-25.62-6.36-36.29C833.75,11,820,6,804.28,6.08q-17.62.07-35.25.08C788.29-3.75,808.65.82,828.45,2.7c11.83,1.12,23.65,4.08,32.63,14.47C873.3,31.29,876,45.05,865.53,60.55,859.68,69.21,859.84,72.94,871.25,72.14Z"/><path class="cls-5" d="M672.24,931.24c58.41,0,116.85,1.36,175.15,3.54,80.89,3,161.7,1.08,242.53,1.62,23.91.15,47.84-3.28,71.76-5.07-1,44.7-1.92,89.39-3.14,134.08-.19,7-2,13.95-2.68,21-.45,4.62-2.53,6.9-7.17,6.82-1.42,0-2.84.08-4.26.06-53.89-.63-107.66,4.56-161.58,3-77.57-2.29-155.09,5.09-232.6,2.38-104.53-3.65-209.08-.87-313.57-3.12-25.42-.55-50.93-2.26-76.39-2-9.48.12-11.51-6.14-15.27-11.72-4.59-37.2-2.16-74.72-5-112-.47-6.13-.51-12.29-.75-18.44,21.54-10.64,45.2-11.59,68.35-14.54,65.89-8.4,132.15-5.18,198.28-5.9,4.69,0,9.37-.9,14.05-1.38a64.08,64.08,0,0,1,12.68,18.12c.07,2.6.31,5.1,3.44,5.94,0,0-.11-.5-.12-.49,2.07,13.06,10.78,22.13,18.75,31.74,3.44,4.14,7.47,9.28,12.45,7,4.37-2,5-8.7,5.05-13.86C672.38,962.42,672.24,946.83,672.24,931.24Z"/><path class="cls-6" d="M685.05,685.13c-20.71-10.88-20.73-27.4-13.2-46.49,2.17-5.51,2.37-11.79,3.47-17.71a85.27,85.27,0,0,0,6-28.47c4.9-7.92,4.51-14-5.37-17.67-11.22-4.22-19.9-12.59-29.61-19.27-18.28-23.67-16.26-18.34,4.59-34.28,9.71-7.42,20.11-14,29.43-21.84,16.78-14.14,35.88-19.48,57.41-17.4.5,19,8.56,29.19,25.69,33.88,20.84,5.71,45.54-2.75,48.68-15.09,3.8-14.93,11.29-20.56,24.95-21.62,16.09-2.32,32.24-4.28,48.22-7.19,4.45-.81,7-.55,8.89,3.41a6.27,6.27,0,0,0,.55,2.49l-1.8,55.1c-5.06,23.52-5.14,24.25-27.28,21.92-12.92-1.36-12.21,4.19-10.66,13.57,4.67,28.33,8.49,56.81,12.92,85.18,1,6.3,1,12.11-2.71,17.52-4.7,2.08-9.61,3.78-14.06,6.3C797,708.18,742.11,719.36,685.05,685.13Z"/><path class="cls-7" d="M685.05,685.13c57.06,34.23,112,23,166.08-7.66,4.45-2.52,9.36-4.22,14.06-6.29l17.61,9.52,14,8.68,3.15,2.58a2.13,2.13,0,0,0,1.57.8c.8,2.08,1.86,3.85,4.51,3.63a5.24,5.24,0,0,0,2.41,1.37c.89,3,2.69,5.06,6,5.52a1.19,1.19,0,0,0,1.19.77c5.34,6.8-1.34,11.55-2.92,17.17l-52.29,43.49c-4.87,1.94-7-1.08-10.29-4.24-11.58-11.29-23.65-22.17-39.89-26.6-15.57-12.07-27.45-10-36.86,6.41-8.7,15.16-15.17,31.33-21.57,47.53-1.89,4.8-2.88,10.47-10.22,9a109.79,109.79,0,0,0-26.23-8.69A222.22,222.22,0,0,0,676,774.29c-4.92-2.59-8.57-5.91-6.35-12.16C678.55,737.21,680,710.82,685.05,685.13Z"/><path class="cls-8" d="M646.31,555.52c9.71,6.68,18.39,15.05,29.61,19.27,9.88,3.72,10.27,9.75,5.37,17.67-19.67,13-39.39,25.91-59,39-21,14.07-45.75,25.13-46.39,56.12a10.55,10.55,0,0,1-1.42,4c-1.34,2.8-3.61,4.57-6.72,3.92-2.74-.57-3.23-3.25-3.27-5.61-.13-6.51,0-13,0-19.52-3.9,5.76-6,11.48-7.92,17.23s-4,13-10.74,13.39c-7.46.37-2.86-9-6.58-14-3.89,7-6.09,14-14.36,13.92l-1-.61c-2.68-12.46,6.61-23.06,5.93-36.13-8.5,4.74-9.4,13-12.29,20.14-9.83,2.57-13.44,1.45-8.49-10,11.81-27.39,29.64-47.3,59.72-54.4a37.43,37.43,0,0,0,17-9.43C605.73,591.93,626.09,573.8,646.31,555.52Z"/><path class="cls-9" d="M632.62,947.67a64.08,64.08,0,0,0-12.68-18.12c-6.56-12.52-12.9-25.16-19.83-37.47-2.09-3.71-3.38-6.11.11-9.75,14-14.62,25-31.9,40.39-45.27,3.1,12.73,27.1,33.09,41.07,34.84-2.45,3.38-4.17,8.15-7.48,9.91-14.47,7.67-15.7,19.07-11.21,33,1.42,4.39,1.7,9.14,2.51,13.73.39,12.23.87,24.45,1.1,36.68.07,3.57,1.53,8.34-2.92,10-3.88,1.43-7.07-1.85-9.77-4.41-6.08-5.78-12-11.75-18-17.64l.11.5A6,6,0,0,0,632.62,947.67Z"/><path class="cls-10" d="M681.68,871.9c-14-1.75-38-22.11-41.07-34.84,12.35-20.61,27-39.9,35.42-62.77a222,222,0,0,1,39.27,13.86c-9.85,7.42-3.8,12.64,2.47,17.83q-2.81,17.1-5.59,34.22l0,0c-4.25.11-5.86,2.45-5.48,6.48C700.7,857.37,690.53,864,681.68,871.9Z"/><path class="cls-11" d="M524.86,701c8.27.07,10.47-6.89,14.36-13.92,3.72,5-.88,14.34,6.58,14,6.76-.34,8.74-7.55,10.74-13.39s4-11.47,7.92-17.23c0,6.51-.08,13,0,19.52,0,2.36.53,5,3.27,5.61,3.11.65,5.38-1.12,6.72-3.92a10.55,10.55,0,0,0,1.42-4c.64-31,25.38-42.05,46.39-56.12,19.59-13.12,39.31-26,59-39a85.27,85.27,0,0,1-6,28.47c-.71-4-2-6.18-6.56-3.37-24.72,15.34-49.47,30.71-71.33,50-6.12,5.41-6.66,14.21-7.92,22.25-2.2,14-3.19,14.35-15.56,9.48-1.11-.44-3.58-.28-3.82.28-6.9,16.4-22,5.28-32.59,9.54C531.88,711.42,530.7,701.43,524.86,701Z"/><path class="cls-12" d="M744.43,467.51c21.33,7.92,43.79,4.7,65.72,6.64l1.56,4.88c-3.28,11.58-3.06,24.41-19.31,28.48-27.36,6.86-41.55-.09-48.65-26.55Z"/><path class="cls-13" d="M743.75,481c7.1,26.46,21.29,33.41,48.65,26.55,16.25-4.07,16-16.9,19.3-28.48l25.36.14c-13.66,1.06-21.15,6.69-24.95,21.62-3.14,12.34-27.84,20.8-48.68,15.09C746.3,511.19,738.24,501,737.74,482Z"/><path class="cls-11" d="M624.16,439.65c13-.51,25-2.46,35.13-12.32,7.58-7.42,10.83,1.94,15.16,5.94C664,438.81,653.1,443,641.32,444.44,635,445.22,629,444.3,624.16,439.65Z"/><path class="cls-2" d="M517.52,684.35c2.89-7.09,3.79-15.4,12.29-20.14.68,13.07-8.61,23.67-5.93,36.13C517.27,696.79,517.06,690.7,517.52,684.35Z"/><path class="cls-10" d="M892.92,533l1.8-55.1c37.3-3.89,72.95-15.48,109.43-23.25,5.18,6.37,11.42,5.13,17.7,2.24.95-.44,2.1-2.74,1.73-3.4-3.84-7-9.2,2.13-13.51-1.13-.73-.56-1.37-1.24-2.06-1.86l.06-.07,2.72-2.46c.78-2.54,2.68-3.42,5.14-3.46,3.79.26,6-1.42,6.3-5.28l.18-.09c2.28-.19,4.33-.79,5.44-3.06a.9.9,0,0,1,1.49-.2l4.23-2.15c17.76-6.92,35.51-10.68,53.79-1.34,2.67,1.36,6.43.59,9.69.81-6.59,9.21-17.67,5.12-26.11,8.84l-14.67-3c-5.26-5-10.89-2.26-16.47,0h16.46c5.18,6.76-4.91,17.35,5.7,22.75-11.55,3.64,3.26,7.27,0,10.9-2.37,1-5.47-.73-7.5,2.11,4.8,2.85,9.76,5.37,14.26,8.56,9.16,6.5,4.47,9.18-3.28,10.75l-14.24-4.6c-5.43-5.13-11.57-8.15-19.09-5.37-18.4,6.83-37.44,11.47-55.54,19.63C949.65,515.85,922.45,528,892.92,533Z"/><path class="cls-9" d="M914.41,897.74c-2.43-1.32-6.39-2.12-7-4-6.09-18-16.44-34.62-18.64-54,12.93-2.16,24.79-7.57,36.73-12.56,5-2.1,13.26,1.58,14.71-7.54,5.47,3.3,7,9.23,7.44,14.54,1,11.38,6.9,15.62,17.59,14.84,16.06,6.08,32.2,12,48.12,18.38,4.87,2,11.22,3.35,10.94,10.89-13.68,5.35-27.51,10.35-42.17,12.09C959.55,893,937,895.3,914.41,897.74Z"/><path class="cls-11" d="M892.92,533c29.53-5,56.73-17.13,83.65-29.25,18.1-8.16,37.14-12.8,55.54-19.63,7.52-2.78,13.66.24,19.09,5.37-15.5,7.5-32.86,9.3-48.52,16.93-26.6,13-53.88,24.72-83.1,30.78-7.57,1.57-10.1,7-10.66,13.05-.89,9.6-6.31,11.47-14.46,11.17-4.66-.17-9.35,1-14,1-8.18,0-9.87,3.36-8.53,11.3,4.92,29.13,9,58.4,13.53,87.61,1,6.78-1.18,13-2.63,19.43l-17.61-9.52c3.72-5.42,3.69-11.23,2.71-17.53-4.43-28.37-8.25-56.85-12.92-85.18-1.55-9.38-2.26-14.93,10.66-13.57C887.78,557.23,887.86,556.5,892.92,533Z"/><path class="cls-11" d="M681.68,871.9c8.85-7.92,19-14.53,25-25.26a10.75,10.75,0,0,0,5.49-6.47l0,0c5.61-3.28,7.85-9.28,11.41-14.21h0c3.78-2.67,5.39-6.81,7.28-10.75l1.52-2.74c4.61-4.32,6.94-10,9.16-15.67,7.34,1.44,8.33-4.23,10.22-9,6.4-16.2,12.87-32.37,21.57-47.53,9.41-16.42,21.29-18.48,36.86-6.41-14.44,3.23-22.79,13.29-27.17,26.39-12.63,37.81-37.12,68-62,97.9-13.78,16.58-27.84,32.83-45.09,46.17-7.78,6-1.87,16.26-4.13,24.26l-6.3-.08c-.81-4.59-1.09-9.34-2.51-13.73-4.49-13.9-3.26-25.3,11.21-33C677.51,880.05,679.23,875.28,681.68,871.9Z"/><path class="cls-11" d="M837.06,479.17,811.7,479q-.76-2.44-1.55-4.88A233.28,233.28,0,0,0,882,460.81c28.53-10.22,50.41-28.83,64.45-56.08l16.31.64c-3.85,24.54-23,36.59-40.9,49.38-6.09,4.35-13.38,7.1-20.28,10.21-4.68,2.11-8.28,4.58-7.45,10.43-1.9-4-4.44-4.22-8.89-3.41C869.3,474.89,853.15,476.85,837.06,479.17Z"/><path class="cls-11" d="M914.41,897.74c22.56-2.44,45.14-4.71,67.68-7.37,14.66-1.74,28.49-6.74,42.17-12.09.46,8.36,8.6,7.46,13.15,10.87,3,2.27,6.61,4.24,6.89,8.42.4,5.7-5.55,3.83-7.85,6.07-5.46,5.31-12,4.44-18.52,4.68-31.54,1.18-62.86-1.06-94.07-5.54C919.87,902.21,916.52,901.38,914.41,897.74Z"/><path class="cls-2" d="M912.65,721.22c1.58-5.62,8.26-10.37,2.92-17.17,10.74,5.15,23.92,6.21,17.09,26-3,8.78,1.37,24.22,6.54,34.23,6.56,12.68,9.8,24.93,9.28,38.72l-11.34,0-1,.15q-4-14.25-8-28.49c-.4-6.12-1.47-12-4.93-17.3-.47-3.86-.12-8-3.07-11.14C920.2,737.11,914.37,729.78,912.65,721.22Z"/><path class="cls-8" d="M912.65,721.22c1.72,8.56,7.55,15.89,7.49,25-6.39,1.84-20.33-6-14.6,11.38h-5.63c-10.38-6.35-19.34-3.43-19.75,7.28-.48,12.74-4.89,26,2.62,38.21l0,.06-5.56-.07q-8.4-19.17-16.81-38.36Z"/><path class="cls-14" d="M665.5,928.51l6.3.08c.17.88.32,1.76.44,2.65,0,15.59.14,31.18,0,46.76-.07,5.16-.68,11.86-5.05,13.86-5,2.28-9-2.86-12.45-7-8-9.61-16.68-18.68-18.75-31.74,6,5.88,11.89,11.85,18,17.63,2.7,2.56,5.89,5.84,9.77,4.41,4.45-1.63,3-6.4,2.92-10C666.37,953,665.89,940.74,665.5,928.51Z"/><path class="cls-2" d="M940.17,819.63c-1-5.55-5.34-11.39-6.35-16.94,3.78,0,10.88.32,14.66.33,1.28.51,3.56.86,3.68,1.57,2.58,15.34,13.48,28.23,13,44.42-10.69.78-16.58-3.46-17.59-14.84C947.13,828.86,945.64,822.93,940.17,819.63Z"/><path class="cls-11" d="M1087.62,479c-2.63-12,7.86-17.08,13.11-24.93,12.48-2.91,20.4,2.85,18.1,13.16-1-1.51-2-1.36-2.83.16-4.79-.07-9.57-.15-14.36-.21-1-.62-2-1.26-3-1.82a8.71,8.71,0,0,0-.7,1l3.44,1.13c2.35,1.35,4.94,2.42,7,4.12,2.55,2.09,4.64,5.05,3.53,8.46s-4.32,4.76-7.92,3.91C1098.46,482.59,1091.71,485.14,1087.62,479Z"/><path class="cls-2" d="M1062,472.65l16.9,6.66c3.62,2.88,7.38,5.61,10.82,8.69,2.15,1.93,6.93,2.65,4.65,7.22-1.71,3.41-5.34,3.95-8.59,3.37-6.82-1.22-13.54-3-20.3-4.52,7.75-1.57,12.44-4.25,3.28-10.75-4.5-3.19-9.46-5.71-14.26-8.56C1056.49,471.92,1059.59,473.64,1062,472.65Z"/><path class="cls-11" d="M1078.66,445.31c-2.66-.88-6.44.83-7.72-3.29,8.44-3.72,19.52.37,26.11-8.84,7.26,1.1,19.73-2.65,19.41,7-.27,8.28-12.6,3.54-19.56,4.4C1090.88,445.32,1084.75,445.1,1078.66,445.31Z"/><path class="cls-8" d="M894.14,808.8c8.52,10.55-5.09,16.24-5.46,24.83-2.55-2.1-2.33-5.09-2.56-7.94,5.25-8.47-3.55-14.83-3.39-22.54l0-.06,11.33,0,0,5.74c-2,1.3-3,3.05-2.23,5.47.11.32.71.48,1.08.71C893.37,812.92,893.76,810.86,894.14,808.8Z"/><path class="cls-8" d="M1008,450.48c.69.62,1.33,1.3,2.06,1.86,4.31,3.26,9.67-5.87,13.51,1.13.37.66-.78,3-1.73,3.4-6.28,2.89-12.52,4.13-17.7-2.24Z"/><path class="cls-10" d="M882.73,803.15c-.16,7.71,8.64,14.07,3.39,22.54a72.87,72.87,0,0,1-9-22.61Z"/><path class="cls-8" d="M1022.23,439.21c-.34,3.86-2.51,5.54-6.3,5.28C1017,441.55,1018.72,439.29,1022.23,439.21Z"/><path class="cls-11" d="M914.38,703.28c-3.27-.46-5.07-2.5-6-5.52C912.08,697.79,914,699.69,914.38,703.28Z"/><path class="cls-8" d="M1027.85,436.06c-1.11,2.27-3.16,2.87-5.44,3.06Z"/><path class="cls-11" d="M906,696.39c-2.65.22-3.71-1.55-4.51-3.63C904.07,692.64,905.35,694.13,906,696.39Z"/><path class="cls-8" d="M1010.79,448l-2.72,2.46Z"/><path class="cls-2" d="M1116,467.35c.86-1.52,1.8-1.67,2.83-.16Z"/><path class="cls-11" d="M899.93,692l-3.15-2.58Z"/><path class="cls-8" d="M1033.57,433.71l-4.23,2.15Q1031.44,434.78,1033.57,433.71Z"/><path class="cls-15" d="M936.84,241.94c18.6-2.46,29.78,7.92,36,23.29,13.65,33.7,14.22,68.07.24,101.87-4.23,10.25-10.32,20.39-23.86,21l-3.87-.35c0-2.32.52-4.44,2.79-5.67l2.82-2.82.07-.09c5.8-8,1.39-17.24,3-25.76,13.06-9.28,16-40.75,4.77-51.16-3.94-3.65-8.18-6.55-13.66-2.66-4-8.37-1.77-20.29-13.73-24.13l2.77-4.47C939.26,261.71,934.71,251.52,936.84,241.94Z"/><path class="cls-16" d="M743.38,405.84c-.41,14.41-17,30.47-30.86,29.83-9.18-.42-31.93-14.3-31.54-19.25,1.5-19,18.07-40.17,30.9-39.52C730.13,377.82,743.82,390.4,743.38,405.84Z"/><path class="cls-12" d="M595.48,374.27c-1-13.48,6.22-21.89,18.16-24.95,10.8-2.77,17.43,5.28,22,13.83,5.72,10.68,12.66,21,11.19,34.28-1,8.5-4.92,12.6-13.35,13.28C613.1,412.38,595.75,395.87,595.48,374.27Z"/><path class="cls-7" d="M803.23,419.11c-9.25-.92-13.94-7.59-13.6-15.3s8.74-7.12,14.64-8.29a104.8,104.8,0,0,1,39.51,0c16.94,3.07,18.39,7.07,7.72,21-3.51-1.29-6.93-3-10.54-3.81C827.56,409.69,814.08,406.93,803.23,419.11Z"/><path class="cls-17" d="M753.58,344.65c-10.13-.28-18.89-1.83-26.65-6.77-2.72-1.73-5.63-3.95-3.58-8s5-3.35,8.31-1.78c20.83,9.88,40.07,6.85,57.93-7.23,2.54-2,5.15-4.92,8.5-1.54,3.66,3.69,1.31,7.13-1.41,9.82C784.44,341.2,768.7,343.56,753.58,344.65Z"/><path class="cls-18" d="M746.27,247.13c-13.61-.43-26.11,2.54-36.6,11.82-2.46,2.18-5.11,5.09-8.37,1.75-3.93-4-.3-6.91,2.43-9.33,13.54-12,29.65-15.58,47.19-13.5,3.77.45,9.71-.48,9.35,5.85-.4,7-6.09,3.61-9.79,3.83A23.29,23.29,0,0,1,746.27,247.13Z"/><path class="cls-12" d="M945.15,299.62c5.48-3.89,9.72-1,13.66,2.66,11.26,10.41,8.29,41.88-4.77,51.16C955.06,334.84,947.92,317.59,945.15,299.62Z"/><path class="cls-17" d="M898.12,328.09c-7.7.1-15-1.12-21.84-4.93-3-1.68-6.28-3.62-4.35-7.52,1.54-3.11,4.48-2.07,7.31-.76,16,7.43,31.08,5.94,45.23-4.64,2.44-1.82,5.27-3.14,7.33-.13,1.89,2.78-.1,5.71-2.17,7.46C920.57,325.22,909.64,327.64,898.12,328.09Z"/><path class="cls-19" d="M803.23,419.11c10.85-12.18,24.33-9.42,37.73-6.47,3.61.8,7,2.52,10.54,3.81C835.91,426.46,819.87,428.35,803.23,419.11Z"/><path class="cls-12" d="M825.27,347.29c6.07-7.5,12.19-7.91,18.36-.12a16.21,16.21,0,0,1-1.28,1.34l-16-.07C826,348.07,825.62,347.69,825.27,347.29Z"/><path class="cls-12" d="M826.38,348.44c-1.35,3.71-1.75,8.05-7.21,10.2-1.24-6.05.55-9.62,6.11-11.35A14.85,14.85,0,0,0,826.38,348.44Z"/><path class="cls-12" d="M843.63,347.17c2.09.81,4.47,1.46,3.76,4.47-.12.5-1.94,1.17-2.1,1a43.25,43.25,0,0,1-2.94-4.12A16.21,16.21,0,0,0,843.63,347.17Z"/><path class="cls-20" d="M945.68,400.41q-.16-6.32-.32-12.63l3.87.35C951.82,393.32,949.36,397,945.68,400.41Z"/><path class="cls-14" d="M632.62,947.67a6,6,0,0,1,3.44,5.94C632.93,952.77,632.69,950.27,632.62,947.67Z"/><path class="cls-8" d="M741.53,796.84c-2.22,5.71-4.55,11.35-9.16,15.67-1.72-9.15-6.25-12-14.55-6.57l-.05,0c-6.27-5.19-12.32-10.41-2.47-17.83A109.79,109.79,0,0,1,741.53,796.84Z"/><path class="cls-8" d="M730.85,815.25c-1.89,3.94-3.5,8.08-7.28,10.75-.83-1,1.24-4-2.2-3l2.22,3c-3.56,4.93-5.8,10.93-11.41,14.21Q715,823.08,717.77,806l.05,0Z"/><path class="cls-8" d="M712.21,840.17a10.75,10.75,0,0,1-5.49,6.47C706.35,842.62,708,840.28,712.21,840.17Z"/><path class="cls-8" d="M1056.26,439H1039.8c5.58-2.27,11.21-5,16.47,0Z"/><path class="cls-10" d="M730.85,815.25l-13-9.31c8.3-5.48,12.83-2.58,14.55,6.57Z"/><path class="cls-10" d="M894.11,803.06l-11.33,0c-7.51-12.25-3.1-25.47-2.62-38.21.41-10.71,9.37-13.63,19.75-7.28-1.8,3.85-4.24,7.54-5.27,11.58-4,15.93,5.8,31.41,19.4,31.05,4.41-.11,9.59-.12,7.63-6.67-2.45-8.17,2.23-13.33,6.47-18.91q4,14.25,8,28.49c-3.31,1.84-3.83,7.73-11,3.13C916.29,800.56,904.68,802.52,894.11,803.06Z"/><path class="cls-10" d="M928.14,774.65c-4.24,5.58-8.92,10.74-6.47,18.91,2,6.55-3.22,6.56-7.63,6.67-13.6.36-23.45-15.12-19.4-31.05,1-4,3.47-7.73,5.27-11.58h5.63l17.67-.24C926.67,762.6,927.74,768.53,928.14,774.65Z"/><path class="cls-10" d="M923.21,757.35l-17.67.24c-5.73-17.4,8.21-9.54,14.6-11.38C923.09,749.39,922.74,753.49,923.21,757.35Z"/><path class="cls-10" d="M1070.5,464.58c2.73-.4,6.06-4.83,7.91.77.91,2.74-1.2,4.26-3.82,4.71-4.85.83-6-1.21-4.11-5.45Z"/><path class="cls-10" d="M1073.8,453.4c-6,2.47-8.56-.12-13-1.34C1065.71,449.56,1068.88,450,1073.8,453.4Z"/><path class="cls-10" d="M1070.48,464.61c-3.12-.12-6.48.48-8.52-2.86,3.13.1,6.48-.48,8.54,2.83Z"/><path class="cls-2" d="M1101.41,467.41l-3.44-1.13a8.71,8.71,0,0,1,.7-1c1,.56,2,1.2,3,1.82Z"/><path class="cls-10" d="M894.14,808.8c-.38,2.06-.77,4.12-1.15,6.18-.37-.23-1-.39-1.08-.71-.81-2.42.19-4.17,2.23-5.47Z"/><path class="cls-20" d="M948.15,382.11l2.82-2.82Z"/><path class="cls-10" d="M723.59,826l-2.22-3c3.44-.94,1.37,2.1,2.2,3Z"/><path class="cls-18" d="M600.5,97.62c-34.44,41.53-55.56,94.7-53.68,149,.83,23.76,6.36,46.62,10.38,69.79,36.45-29.55,66.63-16.79,95.24,18.71a192.44,192.44,0,0,0-9.58-49c-6.46-19.58-9.27-39.53-7.13-60.15,1.21-11.68,3.84-19.94,18.76-14.5,5.5,2,12.19,1.24,18.3,1,8.07-.35,16.1-1.38,21.88-8.21s1.76-13.71-1.42-21.55c64.31,14.2,126.86,14.1,189.64,5.17,12.23-1.74,28.72-11.9,35.29-4.47,7,7.94,3.56,25.15,4.63,38.31,0,.39-.45.81-1.15,2-14.44-6.23-29.61-8.27-45-3.47-5.57,1.73-15.29,2.91-13.37,9.62,2.81,9.79,10.16.94,15-.35,15.57-4.17,30.46-1.71,44,5.22,8,4.08,4.9,15.21,8,22.79,1.78,4.33,2.66,9,3.94,13.56,5.07-9.31.52-19.5,2.65-29.08-4.05-18.81-3.91-38.38-10.72-56.72-2-5.32,1.07-8.49,6.45-10.52,7.87-3,15.87-6.13,22.91-10.62,13.58-8.66,14.38-21.63,2.41-32.67-12.87-11.88-29-16.6-45.79-19.45-2.6-.44-5.19-1-8.21-1.51,2.47-6.55,9-6.36,12.09-10.35,3.68-4.72,10-9.12,8.07-15.4-2-6.75-9.08-9.16-16-9.84-11.23-1.1-22.48-2-33.71-3l-3.12.26c-2,2.44-4.92,2.83-7.71,2.54-6.41-.67-15,3.64-18.71-1.55-3.81-5.37,4.36-10.32,7.09-15.47,7.53-14.18,5.75-25.62-6.36-36.29C833.75,11,820,6,804.28,6.08q-17.62.07-35.25.08a201.53,201.53,0,0,0-49.42,12.12C681.35,33.17,646.56,50.42,617,79.63Q608.33,88.2,600.5,97.62Z"/><path class="cls-20" d="M624.16,439.65c-34-2.43-57.08-21.14-73.79-49.38-11.64-25.91-12.36-50.82,6.83-73.87,36.45-29.55,66.63-16.79,95.24,18.71a192.44,192.44,0,0,0-9.58-49c-6.46-19.58-9.27-39.53-7.13-60.15,1.21-11.68,3.84-19.94,18.76-14.5,5.5,2,12.19,1.24,18.3,1,8.07-.35,16.1-1.38,21.88-8.21s1.76-13.71-1.42-21.55c64.31,14.2,126.86,14.1,189.64,5.17,12.23-1.74,28.72-11.9,35.29-4.47,7,7.94,3.56,25.15,4.63,38.31,0,.39-.45.81-1.15,2-14.44-6.23-29.61-8.27-45-3.47-5.57,1.73-15.29,2.91-13.37,9.62,2.81,9.79,10.16.94,15-.35,15.57-4.17,30.46-1.71,44,5.22,8,4.08,4.9,15.21,8,22.79,1.78,4.33,2.66,9,3.94,13.56l-2.77,4.47c12,3.84,9.72,15.76,13.73,24.13,2.77,18,9.91,35.22,8.89,53.82-.22,9.25,1,13.76-.22,23.25a98.07,98.07,0,0,1-7.33,28c-14,27.25-35.92,45.86-64.45,56.08a233.28,233.28,0,0,1-71.88,13.34c-21.94-1.94-44.4,1.28-65.73-6.64-25.39-7.21-48.06-20-70-34.24-4.33-4-7.58-13.36-15.16-5.94C649.2,437.19,637.12,439.14,624.16,439.65Zm218.2-91.15a40.45,40.45,0,0,0,2.93,4.13c.16.18,2-.49,2.1-1,.71-3-1.67-3.66-3.76-4.47-6.17-7.79-12.29-7.38-18.35.13-5.56,1.72-7.35,5.29-6.11,11.34,5.46-2.15,5.86-6.49,7.21-10.2C831.7,348.46,837,348.49,842.36,348.5Zm-39.13,70.61c16.64,9.24,32.68,7.35,48.27-2.66,10.67-13.91,9.22-17.91-7.72-21a104.8,104.8,0,0,0-39.51,0c-5.9,1.17-14.3.73-14.64,8.29S794,418.19,803.23,419.11Zm-59.85-13.27c.44-15.44-13.25-28-31.5-28.94-12.83-.65-29.4,20.56-30.9,39.52-.39,4.95,22.36,18.83,31.54,19.25C726.36,436.31,743,420.25,743.38,405.84Zm-147.9-31.57c.27,21.6,17.62,38.11,38,36.44,8.43-.68,12.4-4.78,13.35-13.28,1.47-13.29-5.47-23.6-11.19-34.28-4.58-8.55-11.21-16.6-22-13.83C601.7,352.38,594.44,360.79,595.48,374.27Zm158.1-29.62c15.12-1.09,30.86-3.45,43.1-15.54,2.72-2.69,5.07-6.13,1.41-9.82-3.35-3.38-6-.46-8.5,1.54-17.86,14.08-37.1,17.11-57.93,7.23-3.33-1.57-6.29-2.24-8.31,1.78s.86,6.31,3.58,8C734.69,342.82,743.45,344.37,753.58,344.65Zm-7.3-97.5a25,25,0,0,0,4.2.4c3.7-.22,9.39,3.19,9.79-3.83.36-6.33-5.58-5.4-9.35-5.85-17.54-2.08-33.65,1.48-47.19,13.5-2.73,2.42-6.36,5.3-2.43,9.33,3.26,3.34,5.91.43,8.37-1.75C720.16,249.67,732.66,246.7,746.28,247.15Zm151.84,80.94c11.52-.45,22.45-2.87,31.51-10.52,2.07-1.75,4.06-4.68,2.17-7.46-2.06-3-4.89-1.69-7.33.13-14.15,10.58-29.28,12.07-45.23,4.64-2.83-1.31-5.77-2.35-7.31.76-1.93,3.9,1.36,5.84,4.35,7.52C883.07,327,890.42,328.19,898.12,328.09Z"/><path class="cls-16" d="M938.82,401.69c-8,7-23.87-.26-28.88-12.55-4.47-11-7.08-23,3-34.15,8.45-9.29,20.92-10.37,28.4-.23,5.32,7.22,9.73,16.14,9.58,24.53S946.82,394.69,938.82,401.69Z"/><path class="cls-8" d="M1062,472.65c3.26-3.63-11.55-7.26,0-10.9,2,3.34,5.4,2.74,8.52,2.86-1.85,4.24-.74,6.28,4.11,5.45,2.62-.45,4.73-2,3.82-4.71-1.85-5.6-5.18-1.17-7.91-.77-2.06-3.31-5.41-2.73-8.54-2.83-10.61-5.4-.52-16-5.7-22.75h0l14.67,3c1.28,4.12,5.06,2.41,7.72,3.29,7.36,2.91,30.16,9.38,29.16,15.38s-9,3-16.6,4.25c3.6,3.75,14.43,3.26,11.6,11.75-1,3-13.41,2.54-15.2,2.27s-5.84.23-8.76.35Zm11.84-19.25c-4.92-3.38-8.09-3.84-13-1.34C1065.24,453.28,1067.83,455.87,1073.8,453.4Z"/><path class="cls-10" d="M940.17,819.63c-1.45,9.12-9.68,5.44-14.71,7.54-11.94,5-23.8,10.4-36.73,12.56q0-3.06-.05-6.1c.37-8.59,14-14.28,5.46-24.83h0l0-5.74c10.57-.54,22.18-2.5,31,3.21,7.14,4.6,7.66-1.29,11-3.14l.72,2.56C937.83,811.24,939.16,814.08,940.17,819.63Z"/></g></g></svg>